<?xml version="1.0" encoding="utf-8"?>
<!-- Generator: Adobe Illustrator 16.0.0, SVG Export Plug-In . SVG Version: 6.00 Build 0)  -->
<!DOCTYPE svg PUBLIC "-//W3C//DTD SVG 1.1//EN" "http://www.w3.org/Graphics/SVG/1.1/DTD/svg11.dtd">
<svg version="1.1" xmlns="http://www.w3.org/2000/svg" xmlns:xlink="http://www.w3.org/1999/xlink" x="0px" y="0px" width="1200px"
	 height="600px" viewBox="0 0 1200 600" enable-background="new 0 0 1200 600" xml:space="preserve">
<g id="Calque_1">
</g>
<g id="Calque_4">
</g>
<g id="Calque_5">
</g>
<g id="Calque_6">
	<rect x="-10.477" y="-9.68" fill="#E4D260" width="1228.477" height="619.359"/>
	<g>
		<path fill="none" d="M329.82,336.29c0,2.859-0.17,5.67-0.5,8.439c-1.47,0.66-2.96,1.279-4.479,1.85
			c-7.721,2.9-16.09,4.49-24.83,4.49s-17.12-1.59-24.84-4.49c-1.521-0.57-3.011-1.189-4.471-1.85c-0.33-2.77-0.5-5.58-0.5-8.439
			c0-1.061,0.021-2.111,0.07-3.16c2.12,0.99,4.3,1.879,6.54,2.65c0.3,0.109,0.6,0.209,0.91,0.309c7.01,2.33,14.5,3.59,22.29,3.59
			s15.28-1.26,22.29-3.59c0.3-0.1,0.6-0.199,0.899-0.309c2.24-0.771,4.42-1.65,6.551-2.65
			C329.8,334.179,329.82,335.229,329.82,336.29z"/>
		<path d="M329.32,344.729c-0.51,4.311-1.41,8.5-2.67,12.529c-0.399,0.17-0.8,0.33-1.2,0.48c-7.89,3.051-16.47,4.721-25.439,4.721
			s-17.561-1.67-25.45-4.721c-0.4-0.15-0.8-0.311-1.19-0.48h-0.01c-1.25-4.029-2.149-8.219-2.66-12.529
			c1.46,0.66,2.95,1.279,4.471,1.85c7.72,2.9,16.1,4.49,24.84,4.49s17.109-1.59,24.83-4.49
			C326.36,346.009,327.85,345.39,329.32,344.729z"/>
		<path fill="none" d="M326.65,357.259c-0.37,1.211-0.78,2.42-1.22,3.602c-1.271,3.42-2.79,6.709-4.55,9.85
			c-6.601,2.039-13.601,3.141-20.87,3.141c-7.271,0-14.271-1.102-20.87-3.141c-1.771-3.15-3.29-6.451-4.561-9.881
			c-0.439-1.17-0.84-2.369-1.21-3.57c0.391,0.17,0.79,0.33,1.19,0.48c7.89,3.051,16.48,4.721,25.45,4.721s17.55-1.67,25.439-4.721
			C325.85,357.589,326.25,357.429,326.65,357.259z"/>
		<path d="M320.88,370.71c-5.141,9.219-12.301,17.17-20.87,23.25c-8.57-6.08-15.73-14.031-20.87-23.25
			c6.6,2.039,13.6,3.141,20.87,3.141C307.28,373.851,314.28,372.749,320.88,370.71z"/>
		<path d="M290.865,266.95c-0.21,0.12-0.4,0.26-0.59,0.41c-0.7-0.26-1.37-0.55-2.02-0.87c-0.33-0.16-0.65-0.32-0.97-0.5
			c0.32,0.15,0.64,0.28,0.97,0.4C289.075,266.681,289.955,266.87,290.865,266.95z"/>
		<path d="M312.795,265.96c-0.02,0.021-0.04,0.03-0.06,0.04c-0.41,0.22-0.81,0.42-1.22,0.61c-0.57,0.28-1.16,0.53-1.76,0.75
			c-0.19-0.15-0.4-0.29-0.6-0.41c0.81-0.07,1.6-0.23,2.35-0.47c0.42-0.13,0.82-0.3,1.22-0.49
			C312.755,265.99,312.775,265.98,312.795,265.96z"/>
		<path stroke="#000000" stroke-width="3" stroke-miterlimit="10" d="M282.73,269.341c-0.08,0.068-0.15,0.148-0.22,0.229
			c-1.48,1.59-2.641,3.471-3.41,5.551c-0.67,1.799-1.03,3.74-1.03,5.77c0,1.48,0.19,2.91,0.561,4.27
			c-0.38,0.291-0.761,0.57-1.15,0.84c-4.65,3.33-9.56,6.311-14.7,8.91c-3.1,1.58-6.279,3.01-9.529,4.301
			c-2.671,1.061-5.391,2.02-8.16,2.891c-2.16,0.66-4.34,1.27-6.55,1.809c-1.591,0.4-3.19,0.76-4.811,1.08
			c-1.01,0.201-2.03,0.391-3.05,0.561c-0.43,0.08-0.86,0.16-1.3,0.221c-5.95,0.959-12.061,1.459-18.28,1.459
			c-0.17,0-0.33,0-0.5-0.01c-5.22-0.01-10.36-0.391-15.39-1.1c-8.78-1.211-17.24-3.42-25.271-6.529
			c-1.58-0.602-3.14-1.25-4.689-1.932c-4.4-1.92-8.65-4.109-12.73-6.559c-7.34-4.381-14.14-9.561-20.3-15.42
			c4.57-4.352,9.49-8.33,14.729-11.891c4.311-2.92,8.83-5.561,13.53-7.871c0.45-0.238,0.91-0.459,1.37-0.67
			c14.91-7.14,31.62-11.13,49.25-11.13c6.21,0,12.3,0.49,18.24,1.461c0.279,0.029,0.55,0.08,0.819,0.129
			c0.061,0,0.11,0.01,0.16,0.031c0.92,0.139,1.84,0.309,2.75,0.5c1.521,0.279,3.03,0.609,4.521,0.969
			c2.1,0.49,4.18,1.051,6.239,1.67c2.681,0.79,5.311,1.681,7.9,2.681c7.96,3.01,15.49,6.9,22.48,11.551
			C277.15,265.04,279.99,267.12,282.73,269.341z"/>
		<path fill="none" stroke="#000000" stroke-width="3" stroke-miterlimit="10" d="M282.34,292.03c-0.23,0.52-0.471,1.029-0.71,1.539
			v0.01c-1.33,2.82-2.83,5.541-4.5,8.141c-1.99,3.08-4.2,6-6.63,8.73c-1.46,1.66-3.021,3.25-4.641,4.76
			c-0.95,0.9-1.92,1.76-2.92,2.59c-2.49,2.08-5.13,4-7.899,5.73c-2.431,1.52-4.961,2.898-7.591,4.109
			c-2.159,1.02-4.39,1.92-6.68,2.711c-1.75,0.609-3.53,1.148-5.33,1.619c-3.649,0.939-7.399,1.609-11.25,1.959
			c-2.16,0.201-4.35,0.301-6.56,0.301c-5.83,0-11.49-0.699-16.9-2.039c0.26-1.42,0.561-2.82,0.91-4.211
			c1.87-7.459,4.93-14.449,8.96-20.76c0.17,0.01,0.33,0.01,0.5,0.01c6.22,0,12.33-0.5,18.28-1.459c0.439-0.061,0.87-0.141,1.3-0.221
			c1.02-0.17,2.04-0.359,3.05-0.561c1.62-0.32,3.22-0.68,4.811-1.08c2.21-0.539,4.39-1.148,6.55-1.809
			c2.77-0.871,5.489-1.83,8.16-2.891c3.25-1.291,6.43-2.721,9.529-4.301c5.141-2.6,10.05-5.58,14.7-8.91
			c0.39-0.27,0.771-0.549,1.15-0.84c0.47,1.82,1.25,3.51,2.27,5.031c0.01,0.01,0.01,0.01,0.021,0.02
			C281.35,290.851,281.82,291.46,282.34,292.03z"/>
		<path fill="none" d="M328.445,322.34c-0.5,0.221-1.01,0.44-1.52,0.65c-1.29,0.53-2.6,1.02-3.93,1.479
			c-0.81,0.28-1.63,0.54-2.44,0.78c-6.5,1.98-13.4,3.04-20.54,3.04c-7.15,0-14.05-1.06-20.55-3.04c-0.82-0.24-1.64-0.5-2.43-0.78
			c-1.34-0.46-2.64-0.949-3.93-1.479c-0.51-0.21-1.03-0.43-1.53-0.65c0.08-0.43,0.18-0.859,0.28-1.279
			c0.67-3.061,1.54-6.051,2.59-8.94c0.01,0.01,0.01,0.01,0.02,0.01c1.86,0.73,3.78,1.37,5.72,1.94c0.99,0.29,1.97,0.56,2.99,0.8
			c0.85,0.21,1.71,0.4,2.57,0.58c4.61,0.94,9.37,1.44,14.27,1.44c4.89,0,9.66-0.5,14.27-1.45c0.86-0.17,1.72-0.36,2.56-0.57
			c1.01-0.24,2.01-0.51,3-0.8c1.94-0.57,3.85-1.21,5.72-1.94c0.01,0,0.01,0,0.01-0.01c1.06,2.89,1.93,5.88,2.6,8.94
			C328.275,321.48,328.365,321.91,328.445,322.34z"/>
		<path fill="none" stroke="#000000" stroke-width="3" stroke-miterlimit="10" d="M399.31,332.12
			c-5.5,1.379-11.26,2.109-17.19,2.109c-2.159,0-4.31-0.1-6.42-0.289c-3.81-0.34-7.54-0.99-11.149-1.91
			c-1.811-0.471-3.601-1-5.351-1.602c-2.29-0.779-4.529-1.68-6.71-2.699c-2.63-1.209-5.18-2.58-7.62-4.109c0,0,0,0-0.01,0
			c-2.78-1.721-5.43-3.641-7.93-5.73c-0.851-0.689-1.68-1.42-2.49-2.16c-1.79-1.639-3.5-3.379-5.11-5.189
			c-2.439-2.73-4.67-5.66-6.659-8.75c-1.79-2.779-3.4-5.699-4.79-8.73c-0.141-0.289-0.261-0.57-0.391-0.859
			c0.561-0.6,1.07-1.23,1.53-1.91c0,0,0,0,0.01-0.01c1.05-1.541,1.851-3.27,2.34-5.131c0.391,0.301,0.78,0.58,1.171,0.85
			c4.649,3.33,9.56,6.311,14.689,8.91c3.09,1.57,6.271,3.01,9.53,4.301c2.67,1.061,5.399,2.029,8.17,2.891
			c2.16,0.67,4.34,1.279,6.55,1.809c1.59,0.4,3.19,0.76,4.811,1.08c1.01,0.211,2.029,0.4,3.05,0.561c0.43,0.09,0.859,0.16,1.3,0.221
			c5.95,0.959,12.05,1.459,18.27,1.459c0.181,0,0.36,0,0.54-0.01c4.03,6.301,7.08,13.291,8.95,20.74v0.01
			C398.75,329.339,399.05,330.72,399.31,332.12z"/>
		<path d="M329.75,333.13c-2.131,1-4.311,1.879-6.551,2.65c-0.3,0.109-0.6,0.209-0.899,0.309c-7.01,2.33-14.5,3.59-22.29,3.59
			s-15.28-1.26-22.29-3.59c-0.311-0.1-0.61-0.199-0.91-0.309c-2.24-0.771-4.42-1.66-6.54-2.65c0.05-1.23,0.14-2.451,0.26-3.66
			c0.23-2.41,0.58-4.791,1.05-7.131c0.5,0.221,1.011,0.441,1.521,0.65c1.29,0.531,2.6,1.02,3.93,1.48
			c0.8,0.279,1.61,0.539,2.431,0.779c6.5,1.98,13.399,3.041,20.55,3.041c7.14,0,14.04-1.061,20.54-3.041
			c0.819-0.24,1.63-0.5,2.439-0.779c1.33-0.461,2.641-0.949,3.931-1.48c0.51-0.209,1.02-0.43,1.52-0.65
			c0.47,2.34,0.82,4.721,1.05,7.131C329.61,330.679,329.7,331.899,329.75,333.13z"/>
		<path stroke="#000000" stroke-width="3" stroke-miterlimit="10" d="M467.78,275.681c-6.25,5.949-13.17,11.199-20.64,15.619
			c-3.97,2.369-8.11,4.5-12.38,6.359c-1.55,0.682-3.11,1.33-4.69,1.932c-8.02,3.109-16.479,5.318-25.26,6.529
			c-5.02,0.709-10.15,1.08-15.36,1.1c-0.18,0.01-0.359,0.01-0.54,0.01c-6.22,0-12.319-0.5-18.27-1.459
			c-0.44-0.061-0.87-0.131-1.3-0.221c-1.021-0.16-2.04-0.35-3.05-0.561c-1.62-0.32-3.221-0.68-4.811-1.08
			c-2.21-0.529-4.39-1.139-6.55-1.809c-2.771-0.861-5.5-1.83-8.17-2.891c-3.26-1.291-6.44-2.73-9.53-4.301
			c-5.13-2.6-10.04-5.58-14.689-8.91c-0.391-0.27-0.78-0.549-1.171-0.85c0.36-1.359,0.551-2.789,0.551-4.26
			c0-2.029-0.36-3.971-1.021-5.77h-0.01c-0.76-2.08-1.93-3.961-3.41-5.541c-0.06-0.08-0.14-0.16-0.21-0.229
			c2.74-2.221,5.59-4.301,8.53-6.25c6.99-4.641,14.529-8.531,22.49-11.551c2.59-0.99,5.22-1.881,7.89-2.671
			c2.06-0.619,4.14-1.18,6.25-1.67c1.49-0.359,3-0.689,4.52-0.969v-0.012c0.91-0.18,1.83-0.35,2.75-0.488
			c0.051-0.021,0.101-0.031,0.16-0.031c0.271-0.059,0.54-0.1,0.82-0.139c5.939-0.961,12.03-1.451,18.229-1.451
			c17.631,0,34.341,3.99,49.25,11.13c0.46,0.211,0.92,0.432,1.37,0.67c4.61,2.271,9.04,4.842,13.271,7.701
			C458.13,267.22,463.14,271.249,467.78,275.681z"/>
		<path d="M309.395,233.48c-2.17,3.449-4.05,7.09-5.6,10.91c2.88,0.399,5.61,1.25,8.13,2.5c0.44,0.209,0.9,0.449,1.33,0.699v0.021
			c0,0,0.01,0,0.02,0c0.28,0.159,0.55,0.319,0.82,0.5c2.73,1.86,4.54,4.989,4.54,8.55c0,3.55-1.79,6.69-4.52,8.55
			c-0.04,0.021-0.07,0.04-0.1,0.061c-0.36,0.22-0.72,0.42-1.08,0.62c-0.04,0.029-0.09,0.05-0.14,0.069
			c-0.02,0.021-0.04,0.03-0.07,0.03c-0.4,0.19-0.8,0.36-1.22,0.49c-0.75,0.239-1.54,0.399-2.35,0.47c0.2,0.12,0.41,0.26,0.6,0.41
			c0.68,0.479,1.31,1.02,1.9,1.6c0.67,0.65,1.31,1.37,1.86,2.141c0.21,0.279,0.41,0.58,0.59,0.88c0.78,1.22,1.4,2.54,1.84,3.95
			c0.49,1.569,0.75,3.239,0.75,4.96c0,0.21,0,0.42-0.01,0.63c-0.08,1.979-0.49,3.87-1.2,5.62c-0.38,0.939-0.85,1.85-1.39,2.689
			c-0.24,0.38-0.49,0.74-0.77,1.09c-1.28,1.74-2.92,3.21-4.79,4.32c0.68,0.22,1.35,0.47,2.01,0.75c0.3,0.12,0.59,0.25,0.88,0.4
			c3.25,1.51,6.14,3.649,8.52,6.26c2.36,2.569,4.21,5.59,5.42,8.92c0.04,0.09,0.08,0.18,0.11,0.28c0.02,0.04,0.04,0.09,0.05,0.14
			c0.01,0.04,0.03,0.09,0.04,0.14c-1.87,0.73-3.78,1.37-5.72,1.94c-0.99,0.29-1.99,0.56-3,0.8c-0.84,0.21-1.7,0.4-2.56,0.57
			c-4.61,0.95-9.38,1.45-14.27,1.45c-4.9,0-9.66-0.5-14.27-1.44c-0.86-0.18-1.72-0.37-2.57-0.58c-1.02-0.24-2-0.51-2.99-0.8
			c-1.94-0.57-3.86-1.21-5.72-1.94c0.01-0.05,0.03-0.1,0.04-0.14c0.01-0.05,0.03-0.1,0.05-0.14c0.02-0.101,0.06-0.19,0.1-0.28
			c1.21-3.33,3.07-6.351,5.42-8.92c2.38-2.61,5.27-4.74,8.5-6.25c0.31-0.15,0.61-0.28,0.91-0.41c0.66-0.28,1.33-0.53,2.01-0.75
			c-1.88-1.11-3.51-2.58-4.81-4.32c-0.28-0.34-0.51-0.689-0.74-1.06c-0.62-0.95-1.13-1.98-1.54-3.061c-0.63-1.649-1-3.42-1.08-5.27
			v-0.64c0-1.721,0.25-3.391,0.75-4.96c0.44-1.41,1.06-2.73,1.83-3.95c0.19-0.3,0.39-0.601,0.6-0.88c0.48-0.66,1.01-1.28,1.57-1.86
			c0.68-0.7,1.41-1.33,2.2-1.88c0.19-0.15,0.38-0.29,0.59-0.41c-0.91-0.08-1.79-0.27-2.61-0.56c-0.33-0.12-0.65-0.25-0.97-0.4
			c0,0,0,0-0.01,0c-0.04-0.021-0.09-0.05-0.13-0.07c-0.38-0.21-0.76-0.42-1.13-0.649c-0.04-0.021-0.07-0.04-0.11-0.061
			c-2.72-1.859-4.52-5-4.52-8.55c0-3.811,2.07-7.141,5.15-8.92c0-0.01,0-0.01,0-0.01c0.51-0.301,1.03-0.58,1.56-0.84
			c2.52-1.24,5.25-2.101,8.14-2.5c-1.55-3.82-3.43-7.461-5.6-10.91c-0.07-0.11-0.14-0.23-0.21-0.34
			c-2.25-3.541-4.81-6.86-7.64-9.931c-0.31-0.329-0.63-0.67-0.93-1c-1.46-1.52-2.99-2.979-4.56-4.36
			c-1.2-1.049-2.44-2.069-3.72-3.029c-1.84-1.42-3.77-2.75-5.77-3.98c1.02-1.85,2.41-3.479,4.05-4.8c1.3,0.94,2.6,1.931,3.84,2.95
			c1.41,1.17,2.78,2.391,4.1,3.66c2.14,2.06,4.15,4.25,6.01,6.57c0.76,0.939,1.5,1.899,2.21,2.89c2.1,2.89,3.99,5.96,5.64,9.159
			c0.24,0.48,0.49,0.961,0.71,1.451c1.78,3.649,3.25,7.47,4.38,11.439c0.41-0.029,0.83-0.04,1.27-0.04c0.43,0,0.85,0.011,1.27,0.04
			c1.12-3.97,2.6-7.79,4.37-11.439c0.23-0.49,0.48-0.971,0.71-1.451c1.66-3.199,3.54-6.27,5.65-9.159c0.71-0.99,1.45-1.95,2.21-2.89
			c1.85-2.32,3.87-4.511,6.01-6.57c1.32-1.27,2.67-2.49,4.09-3.65c1.25-1.029,2.53-2.02,3.85-2.96c1.64,1.33,3.01,2.95,4.05,4.8
			c-2,1.23-3.93,2.561-5.78,3.98c-1.29,0.97-2.52,1.99-3.73,3.04v0.01c-1.58,1.37-3.1,2.82-4.54,4.34
			c-0.32,0.341-0.63,0.671-0.93,1.011h-0.01c-2.83,3.069-5.38,6.39-7.63,9.92C309.535,233.25,309.465,233.37,309.395,233.48z"/>
	</g>
	<g>
		<g>
			
				<circle fill="none" stroke="#000000" stroke-miterlimit="10" stroke-dasharray="1.996,1.996,1.996,1.996,1.996,1.996" cx="388.908" cy="358.482" r="114.36"/>
		</g>
		<g>
			
				<circle fill="none" stroke="#000000" stroke-miterlimit="10" stroke-dasharray="1.996,1.996,1.996,1.996,1.996,1.996" cx="388.908" cy="192.865" r="114.36"/>
		</g>
		<g>
			
				<circle fill="none" stroke="#000000" stroke-miterlimit="10" stroke-dasharray="1.996,1.996,1.996,1.996,1.996,1.996" cx="211.092" cy="192.865" r="114.36"/>
		</g>
		<g>
			
				<circle fill="none" stroke="#000000" stroke-miterlimit="10" stroke-dasharray="1.996,1.996,1.996,1.996,1.996,1.996" cx="211.092" cy="358.482" r="114.36"/>
		</g>
		<g>
			
				<circle fill="none" stroke="#000000" stroke-miterlimit="10" stroke-dasharray="2.0005,2.0005,2.0005,2.0005,2.0005,2.0005" cx="340.873" cy="336.283" r="70.68"/>
		</g>
		<g>
			
				<circle fill="none" stroke="#000000" stroke-miterlimit="10" stroke-dasharray="2.0005,2.0005,2.0005,2.0005,2.0005,2.0005" cx="300.004" cy="303.17" r="70.68"/>
		</g>
		<g>
			
				<circle fill="none" stroke="#000000" stroke-miterlimit="10" stroke-dasharray="2.0005,2.0005,2.0005,2.0005,2.0005,2.0005" cx="300.004" cy="291.777" r="70.68"/>
		</g>
		<g>
			
				<circle fill="none" stroke="#000000" stroke-miterlimit="10" stroke-dasharray="2.0005,2.0005,2.0005,2.0005,2.0005,2.0005" cx="300.004" cy="280.387" r="70.68"/>
		</g>
		<g>
			
				<circle fill="none" stroke="#000000" stroke-miterlimit="10" stroke-dasharray="2.0005,2.0005,2.0005,2.0005,2.0005,2.0005" cx="300.004" cy="268.994" r="70.68"/>
		</g>
		<g>
			
				<circle fill="none" stroke="#000000" stroke-miterlimit="10" stroke-dasharray="2.0005,2.0005,2.0005,2.0005,2.0005,2.0005" cx="300.004" cy="257.604" r="70.68"/>
		</g>
		<g>
			
				<circle fill="none" stroke="#000000" stroke-miterlimit="10" stroke-dasharray="2.0005,2.0005,2.0005,2.0005,2.0005,2.0005" cx="300.004" cy="246.211" r="70.68"/>
		</g>
		<g>
			
				<circle fill="none" stroke="#000000" stroke-miterlimit="10" stroke-dasharray="2.0005,2.0005,2.0005,2.0005,2.0005,2.0005" cx="300.004" cy="234.82" r="70.68"/>
		</g>
		<g>
			
				<circle fill="none" stroke="#000000" stroke-miterlimit="10" stroke-dasharray="2.0005,2.0005,2.0005,2.0005,2.0005,2.0005" cx="259.135" cy="336.283" r="70.68"/>
		</g>
		<g>
			
				<circle fill="none" stroke="#000000" stroke-miterlimit="10" stroke-dasharray="2.0005,2.0005,2.0005,2.0005,2.0005,2.0005" cx="270.193" cy="345.238" r="70.68"/>
		</g>
		<g>
			
				<circle fill="none" stroke="#000000" stroke-miterlimit="10" stroke-dasharray="2.0005,2.0005,2.0005,2.0005,2.0005,2.0005" cx="329.851" cy="345.238" r="70.68"/>
		</g>
		<g>
			
				<circle fill="none" stroke="#000000" stroke-miterlimit="10" stroke-dasharray="2.0005,2.0005,2.0005,2.0005,2.0005,2.0005" cx="217.63" cy="263.545" r="70.68"/>
		</g>
		<g>
			
				<circle fill="none" stroke="#000000" stroke-miterlimit="10" stroke-dasharray="2.0005,2.0005,2.0005,2.0005,2.0005,2.0005" cx="382.116" cy="263.545" r="70.68"/>
		</g>
		<g>
			
				<circle fill="none" stroke="#000000" stroke-miterlimit="10" stroke-dasharray="2.019,2.019,2.019,2.019,2.019,2.019" cx="300.003" cy="242.18" r="26.999"/>
		</g>
		<g>
			
				<circle fill="none" stroke="#000000" stroke-miterlimit="10" stroke-dasharray="2.0189,2.0189,2.0189,2.0189,2.0189,2.0189" cx="300.003" cy="271.121" r="26.999"/>
		</g>
		<g>
			
				<circle fill="none" stroke="#000000" stroke-miterlimit="10" stroke-dasharray="2.019,2.019,2.019,2.019,2.019,2.019" cx="300.003" cy="320.852" r="26.999"/>
		</g>
		<g>
			
				<circle fill="none" stroke="#000000" stroke-miterlimit="10" stroke-dasharray="1.9411,1.9411,1.9411,1.9411,1.9411,1.9411" cx="300.004" cy="280.893" r="16.687"/>
		</g>
		<g>
			
				<circle fill="none" stroke="#000000" stroke-miterlimit="10" stroke-dasharray="1.9411,1.9411,1.9411,1.9411,1.9411,1.9411" cx="294.75" cy="280.893" r="16.687"/>
		</g>
		<g>
			
				<circle fill="none" stroke="#000000" stroke-miterlimit="10" stroke-dasharray="1.9411,1.9411,1.9411,1.9411,1.9411,1.9411" cx="305.233" cy="280.893" r="16.687"/>
		</g>
		<g>
			
				<circle fill="none" stroke="#000000" stroke-miterlimit="10" stroke-dasharray="2.1594,2.1594,2.1594,2.1594,2.1594,2.1594" cx="291.687" cy="256.66" r="10.313"/>
		</g>
		<g>
			
				<circle fill="none" stroke="#000000" stroke-miterlimit="10" stroke-dasharray="2.1594,2.1594,2.1594,2.1594,2.1594,2.1594" cx="308.315" cy="256.66" r="10.313"/>
		</g>
		<g>
			
				<circle fill="none" stroke="#000000" stroke-miterlimit="10" stroke-dasharray="2.0005,2.0005,2.0005,2.0005,2.0005,2.0005" cx="230.745" cy="271.043" r="70.68"/>
		</g>
		<g>
			
				<circle fill="none" stroke="#000000" stroke-miterlimit="10" stroke-dasharray="2.0005,2.0005,2.0005,2.0005,2.0005,2.0005" cx="230.745" cy="263.547" r="70.68"/>
		</g>
		<g>
			
				<circle fill="none" stroke="#000000" stroke-miterlimit="10" stroke-dasharray="1.9411,1.9411,1.9411,1.9411,1.9411,1.9411" cx="282.336" cy="219.01" r="16.687"/>
		</g>
		<g>
			
				<circle fill="none" stroke="#000000" stroke-miterlimit="10" stroke-dasharray="2.0005,2.0005,2.0005,2.0005,2.0005,2.0005" cx="369.261" cy="271.043" r="70.68"/>
		</g>
		<g>
			
				<circle fill="none" stroke="#000000" stroke-miterlimit="10" stroke-dasharray="2.0005,2.0005,2.0005,2.0005,2.0005,2.0005" cx="369.261" cy="263.547" r="70.68"/>
		</g>
		<g>
			
				<circle fill="none" stroke="#000000" stroke-miterlimit="10" stroke-dasharray="1.9411,1.9411,1.9411,1.9411,1.9411,1.9411" cx="317.67" cy="219.01" r="16.687"/>
		</g>
	</g>
	<g>
		<path fill="none" d="M929.82,336.29c0,2.859-0.17,5.67-0.5,8.439c-1.47,0.66-2.96,1.279-4.479,1.85
			c-7.721,2.9-16.09,4.49-24.83,4.49s-17.12-1.59-24.84-4.49c-1.521-0.57-3.011-1.189-4.471-1.85c-0.33-2.77-0.5-5.58-0.5-8.439
			c0-1.061,0.021-2.111,0.07-3.16c2.12,0.99,4.3,1.879,6.54,2.65c0.3,0.109,0.6,0.209,0.91,0.309c7.01,2.33,14.5,3.59,22.29,3.59
			s15.28-1.26,22.29-3.59c0.3-0.1,0.6-0.199,0.899-0.309c2.24-0.771,4.42-1.65,6.551-2.65
			C929.8,334.179,929.82,335.229,929.82,336.29z"/>
		<path d="M929.32,344.729c-0.51,4.311-1.41,8.5-2.67,12.529c-0.399,0.17-0.8,0.33-1.2,0.48c-7.89,3.051-16.47,4.721-25.439,4.721
			s-17.561-1.67-25.45-4.721c-0.4-0.15-0.8-0.311-1.19-0.48h-0.01c-1.25-4.029-2.149-8.219-2.66-12.529
			c1.46,0.66,2.95,1.279,4.471,1.85c7.72,2.9,16.1,4.49,24.84,4.49s17.109-1.59,24.83-4.49
			C926.36,346.009,927.85,345.39,929.32,344.729z"/>
		<path fill="none" d="M926.65,357.259c-0.37,1.211-0.78,2.42-1.22,3.602c-1.271,3.42-2.79,6.709-4.55,9.85
			c-6.601,2.039-13.601,3.141-20.87,3.141c-7.271,0-14.271-1.102-20.87-3.141c-1.771-3.15-3.29-6.451-4.561-9.881
			c-0.439-1.17-0.84-2.369-1.21-3.57c0.391,0.17,0.79,0.33,1.19,0.48c7.89,3.051,16.48,4.721,25.45,4.721s17.55-1.67,25.439-4.721
			C925.85,357.589,926.25,357.429,926.65,357.259z"/>
		<path d="M920.88,370.71c-5.141,9.219-12.301,17.17-20.87,23.25c-8.57-6.08-15.73-14.031-20.87-23.25
			c6.6,2.039,13.6,3.141,20.87,3.141C907.28,373.851,914.28,372.749,920.88,370.71z"/>
		<path d="M890.865,266.95c-0.21,0.12-0.4,0.26-0.59,0.41c-0.7-0.26-1.37-0.55-2.02-0.87c-0.33-0.16-0.65-0.32-0.97-0.5
			c0.32,0.15,0.64,0.28,0.97,0.4C889.075,266.681,889.955,266.87,890.865,266.95z"/>
		<path d="M912.795,265.96c-0.02,0.021-0.04,0.03-0.06,0.04c-0.41,0.22-0.81,0.42-1.22,0.61c-0.57,0.28-1.16,0.53-1.76,0.75
			c-0.19-0.15-0.4-0.29-0.6-0.41c0.81-0.07,1.6-0.23,2.35-0.47c0.42-0.13,0.82-0.3,1.22-0.49
			C912.755,265.99,912.775,265.98,912.795,265.96z"/>
		<path stroke="#000000" stroke-width="3" stroke-miterlimit="10" d="M882.73,269.341c-0.08,0.068-0.15,0.148-0.22,0.229
			c-1.48,1.59-2.641,3.471-3.41,5.551c-0.67,1.799-1.03,3.74-1.03,5.77c0,1.48,0.19,2.91,0.561,4.27
			c-0.38,0.291-0.761,0.57-1.15,0.84c-4.65,3.33-9.56,6.311-14.7,8.91c-3.1,1.58-6.279,3.01-9.529,4.301
			c-2.671,1.061-5.391,2.02-8.16,2.891c-2.16,0.66-4.34,1.27-6.55,1.809c-1.591,0.4-3.19,0.76-4.811,1.08
			c-1.01,0.201-2.03,0.391-3.05,0.561c-0.43,0.08-0.86,0.16-1.3,0.221c-5.95,0.959-12.061,1.459-18.28,1.459
			c-0.17,0-0.33,0-0.5-0.01c-5.22-0.01-10.36-0.391-15.39-1.1c-8.78-1.211-17.24-3.42-25.271-6.529
			c-1.58-0.602-3.14-1.25-4.689-1.932c-4.4-1.92-8.65-4.109-12.73-6.559c-7.34-4.381-14.14-9.561-20.3-15.42
			c4.57-4.352,9.49-8.33,14.729-11.891c4.311-2.92,8.83-5.561,13.53-7.871c0.45-0.238,0.91-0.459,1.37-0.67
			c14.91-7.14,31.62-11.13,49.25-11.13c6.21,0,12.3,0.49,18.24,1.461c0.279,0.029,0.55,0.08,0.819,0.129
			c0.061,0,0.11,0.01,0.16,0.031c0.92,0.139,1.84,0.309,2.75,0.5c1.521,0.279,3.03,0.609,4.521,0.969
			c2.1,0.49,4.18,1.051,6.239,1.67c2.681,0.79,5.311,1.681,7.9,2.681c7.96,3.01,15.49,6.9,22.48,11.551
			C877.15,265.04,879.99,267.12,882.73,269.341z"/>
		<path fill="none" stroke="#000000" stroke-width="3" stroke-miterlimit="10" d="M882.34,292.03c-0.23,0.52-0.471,1.029-0.71,1.539
			v0.01c-1.33,2.82-2.83,5.541-4.5,8.141c-1.99,3.08-4.2,6-6.63,8.73c-1.46,1.66-3.021,3.25-4.641,4.76
			c-0.95,0.9-1.92,1.76-2.92,2.59c-2.49,2.08-5.13,4-7.899,5.73c-2.431,1.52-4.961,2.898-7.591,4.109
			c-2.159,1.02-4.39,1.92-6.68,2.711c-1.75,0.609-3.53,1.148-5.33,1.619c-3.649,0.939-7.399,1.609-11.25,1.959
			c-2.16,0.201-4.35,0.301-6.56,0.301c-5.83,0-11.49-0.699-16.9-2.039c0.26-1.42,0.561-2.82,0.91-4.211
			c1.87-7.459,4.93-14.449,8.96-20.76c0.17,0.01,0.33,0.01,0.5,0.01c6.22,0,12.33-0.5,18.28-1.459c0.439-0.061,0.87-0.141,1.3-0.221
			c1.02-0.17,2.04-0.359,3.05-0.561c1.62-0.32,3.22-0.68,4.811-1.08c2.21-0.539,4.39-1.148,6.55-1.809
			c2.77-0.871,5.489-1.83,8.16-2.891c3.25-1.291,6.43-2.721,9.529-4.301c5.141-2.6,10.05-5.58,14.7-8.91
			c0.39-0.27,0.771-0.549,1.15-0.84c0.47,1.82,1.25,3.51,2.27,5.031c0.01,0.01,0.01,0.01,0.021,0.02
			C881.35,290.851,881.82,291.46,882.34,292.03z"/>
		<path fill="none" d="M928.445,322.34c-0.5,0.221-1.01,0.44-1.52,0.65c-1.29,0.53-2.6,1.02-3.93,1.479
			c-0.81,0.28-1.63,0.54-2.44,0.78c-6.5,1.98-13.4,3.04-20.54,3.04c-7.15,0-14.05-1.06-20.55-3.04c-0.82-0.24-1.64-0.5-2.43-0.78
			c-1.34-0.46-2.64-0.949-3.93-1.479c-0.51-0.21-1.03-0.43-1.53-0.65c0.08-0.43,0.18-0.859,0.28-1.279
			c0.67-3.061,1.54-6.051,2.59-8.94c0.01,0.01,0.01,0.01,0.02,0.01c1.86,0.73,3.78,1.37,5.72,1.94c0.99,0.29,1.97,0.56,2.99,0.8
			c0.85,0.21,1.71,0.4,2.57,0.58c4.61,0.94,9.37,1.44,14.27,1.44c4.89,0,9.66-0.5,14.27-1.45c0.86-0.17,1.72-0.36,2.56-0.57
			c1.01-0.24,2.01-0.51,3-0.8c1.94-0.57,3.85-1.21,5.72-1.94c0.01,0,0.01,0,0.01-0.01c1.06,2.89,1.93,5.88,2.6,8.94
			C928.275,321.48,928.365,321.91,928.445,322.34z"/>
		<path fill="none" stroke="#000000" stroke-width="3" stroke-miterlimit="10" d="M999.31,332.12
			c-5.5,1.379-11.26,2.109-17.19,2.109c-2.159,0-4.31-0.1-6.42-0.289c-3.81-0.34-7.54-0.99-11.149-1.91
			c-1.811-0.471-3.601-1-5.351-1.602c-2.29-0.779-4.529-1.68-6.71-2.699c-2.63-1.209-5.18-2.58-7.62-4.109c0,0,0,0-0.01,0
			c-2.78-1.721-5.43-3.641-7.93-5.73c-0.851-0.689-1.68-1.42-2.49-2.16c-1.79-1.639-3.5-3.379-5.11-5.189
			c-2.439-2.73-4.67-5.66-6.659-8.75c-1.79-2.779-3.4-5.699-4.79-8.73c-0.141-0.289-0.261-0.57-0.391-0.859
			c0.561-0.6,1.07-1.23,1.53-1.91c0,0,0,0,0.01-0.01c1.05-1.541,1.851-3.27,2.34-5.131c0.391,0.301,0.78,0.58,1.171,0.85
			c4.649,3.33,9.56,6.311,14.689,8.91c3.09,1.57,6.271,3.01,9.53,4.301c2.67,1.061,5.399,2.029,8.17,2.891
			c2.16,0.67,4.34,1.279,6.55,1.809c1.59,0.4,3.19,0.76,4.811,1.08c1.01,0.211,2.029,0.4,3.05,0.561c0.43,0.09,0.859,0.16,1.3,0.221
			c5.95,0.959,12.05,1.459,18.27,1.459c0.181,0,0.36,0,0.54-0.01c4.03,6.301,7.08,13.291,8.95,20.74v0.01
			C998.75,329.339,999.05,330.72,999.31,332.12z"/>
		<path d="M929.75,333.13c-2.131,1-4.311,1.879-6.551,2.65c-0.3,0.109-0.6,0.209-0.899,0.309c-7.01,2.33-14.5,3.59-22.29,3.59
			s-15.28-1.26-22.29-3.59c-0.311-0.1-0.61-0.199-0.91-0.309c-2.24-0.771-4.42-1.66-6.54-2.65c0.05-1.23,0.14-2.451,0.26-3.66
			c0.23-2.41,0.58-4.791,1.05-7.131c0.5,0.221,1.011,0.441,1.521,0.65c1.29,0.531,2.6,1.02,3.93,1.48
			c0.8,0.279,1.61,0.539,2.431,0.779c6.5,1.98,13.399,3.041,20.55,3.041c7.14,0,14.04-1.061,20.54-3.041
			c0.819-0.24,1.63-0.5,2.439-0.779c1.33-0.461,2.641-0.949,3.931-1.48c0.51-0.209,1.02-0.43,1.52-0.65
			c0.47,2.34,0.82,4.721,1.05,7.131C929.61,330.679,929.7,331.899,929.75,333.13z"/>
		<path stroke="#000000" stroke-width="3" stroke-miterlimit="10" d="M1067.78,275.681c-6.25,5.949-13.17,11.199-20.64,15.619
			c-3.97,2.369-8.11,4.5-12.38,6.359c-1.55,0.682-3.11,1.33-4.69,1.932c-8.02,3.109-16.479,5.318-25.26,6.529
			c-5.02,0.709-10.15,1.08-15.36,1.1c-0.18,0.01-0.359,0.01-0.54,0.01c-6.22,0-12.319-0.5-18.27-1.459
			c-0.44-0.061-0.87-0.131-1.3-0.221c-1.021-0.16-2.04-0.35-3.05-0.561c-1.62-0.32-3.221-0.68-4.811-1.08
			c-2.21-0.529-4.39-1.139-6.55-1.809c-2.771-0.861-5.5-1.83-8.17-2.891c-3.26-1.291-6.44-2.73-9.53-4.301
			c-5.13-2.6-10.04-5.58-14.689-8.91c-0.391-0.27-0.78-0.549-1.171-0.85c0.36-1.359,0.551-2.789,0.551-4.26
			c0-2.029-0.36-3.971-1.021-5.77h-0.01c-0.76-2.08-1.93-3.961-3.41-5.541c-0.06-0.08-0.14-0.16-0.21-0.229
			c2.74-2.221,5.59-4.301,8.53-6.25c6.99-4.641,14.529-8.531,22.49-11.551c2.59-0.99,5.22-1.881,7.89-2.671
			c2.06-0.619,4.14-1.18,6.25-1.67c1.49-0.359,3-0.689,4.52-0.969v-0.012c0.91-0.18,1.83-0.35,2.75-0.488
			c0.051-0.021,0.101-0.031,0.16-0.031c0.271-0.059,0.54-0.1,0.82-0.139c5.939-0.961,12.03-1.451,18.229-1.451
			c17.631,0,34.341,3.99,49.25,11.13c0.46,0.211,0.92,0.432,1.37,0.67c4.61,2.271,9.04,4.842,13.271,7.701
			C1058.13,267.22,1063.14,271.249,1067.78,275.681z"/>
		<path d="M909.395,233.48c-2.17,3.449-4.05,7.09-5.6,10.91c2.88,0.399,5.61,1.25,8.13,2.5c0.44,0.209,0.9,0.449,1.33,0.699v0.021
			c0,0,0.01,0,0.02,0c0.28,0.159,0.55,0.319,0.82,0.5c2.73,1.86,4.54,4.989,4.54,8.55c0,3.55-1.79,6.69-4.52,8.55
			c-0.04,0.021-0.07,0.04-0.1,0.061c-0.36,0.22-0.72,0.42-1.08,0.62c-0.04,0.029-0.09,0.05-0.14,0.069
			c-0.02,0.021-0.04,0.03-0.07,0.03c-0.4,0.19-0.8,0.36-1.22,0.49c-0.75,0.239-1.54,0.399-2.35,0.47c0.2,0.12,0.41,0.26,0.6,0.41
			c0.68,0.479,1.31,1.02,1.9,1.6c0.67,0.65,1.31,1.37,1.86,2.141c0.21,0.279,0.41,0.58,0.59,0.88c0.78,1.22,1.4,2.54,1.84,3.95
			c0.49,1.569,0.75,3.239,0.75,4.96c0,0.21,0,0.42-0.01,0.63c-0.08,1.979-0.49,3.87-1.2,5.62c-0.38,0.939-0.85,1.85-1.39,2.689
			c-0.24,0.38-0.49,0.74-0.77,1.09c-1.28,1.74-2.92,3.21-4.79,4.32c0.68,0.22,1.35,0.47,2.01,0.75c0.3,0.12,0.59,0.25,0.88,0.4
			c3.25,1.51,6.14,3.649,8.52,6.26c2.36,2.569,4.21,5.59,5.42,8.92c0.04,0.09,0.08,0.18,0.11,0.28c0.02,0.04,0.04,0.09,0.05,0.14
			c0.01,0.04,0.03,0.09,0.04,0.14c-1.87,0.73-3.78,1.37-5.72,1.94c-0.99,0.29-1.99,0.56-3,0.8c-0.84,0.21-1.7,0.4-2.56,0.57
			c-4.61,0.95-9.38,1.45-14.27,1.45c-4.9,0-9.66-0.5-14.27-1.44c-0.86-0.18-1.72-0.37-2.57-0.58c-1.02-0.24-2-0.51-2.99-0.8
			c-1.94-0.57-3.86-1.21-5.72-1.94c0.01-0.05,0.03-0.1,0.04-0.14c0.01-0.05,0.03-0.1,0.05-0.14c0.02-0.101,0.06-0.19,0.1-0.28
			c1.21-3.33,3.07-6.351,5.42-8.92c2.38-2.61,5.27-4.74,8.5-6.25c0.31-0.15,0.61-0.28,0.91-0.41c0.66-0.28,1.33-0.53,2.01-0.75
			c-1.88-1.11-3.51-2.58-4.81-4.32c-0.28-0.34-0.51-0.689-0.74-1.06c-0.62-0.95-1.13-1.98-1.54-3.061c-0.63-1.649-1-3.42-1.08-5.27
			v-0.64c0-1.721,0.25-3.391,0.75-4.96c0.44-1.41,1.06-2.73,1.83-3.95c0.19-0.3,0.39-0.601,0.6-0.88c0.48-0.66,1.01-1.28,1.57-1.86
			c0.68-0.7,1.41-1.33,2.2-1.88c0.19-0.15,0.38-0.29,0.59-0.41c-0.91-0.08-1.79-0.27-2.61-0.56c-0.33-0.12-0.65-0.25-0.97-0.4
			c0,0,0,0-0.01,0c-0.04-0.021-0.09-0.05-0.13-0.07c-0.38-0.21-0.76-0.42-1.13-0.649c-0.04-0.021-0.07-0.04-0.11-0.061
			c-2.72-1.859-4.52-5-4.52-8.55c0-3.811,2.07-7.141,5.15-8.92c0-0.01,0-0.01,0-0.01c0.51-0.301,1.03-0.58,1.56-0.84
			c2.52-1.24,5.25-2.101,8.14-2.5c-1.55-3.82-3.43-7.461-5.6-10.91c-0.07-0.11-0.14-0.23-0.21-0.34
			c-2.25-3.541-4.81-6.86-7.64-9.931c-0.31-0.329-0.63-0.67-0.93-1c-1.46-1.52-2.99-2.979-4.56-4.36
			c-1.2-1.049-2.44-2.069-3.72-3.029c-1.84-1.42-3.77-2.75-5.77-3.98c1.02-1.85,2.41-3.479,4.05-4.8c1.3,0.94,2.6,1.931,3.84,2.95
			c1.41,1.17,2.78,2.391,4.1,3.66c2.14,2.06,4.15,4.25,6.01,6.57c0.76,0.939,1.5,1.899,2.21,2.89c2.1,2.89,3.99,5.96,5.64,9.159
			c0.24,0.48,0.49,0.961,0.71,1.451c1.78,3.649,3.25,7.47,4.38,11.439c0.41-0.029,0.83-0.04,1.27-0.04c0.43,0,0.85,0.011,1.27,0.04
			c1.12-3.97,2.6-7.79,4.37-11.439c0.23-0.49,0.48-0.971,0.71-1.451c1.66-3.199,3.54-6.27,5.65-9.159c0.71-0.99,1.45-1.95,2.21-2.89
			c1.85-2.32,3.87-4.511,6.01-6.57c1.32-1.27,2.67-2.49,4.09-3.65c1.25-1.029,2.53-2.02,3.85-2.96c1.64,1.33,3.01,2.95,4.05,4.8
			c-2,1.23-3.93,2.561-5.78,3.98c-1.29,0.97-2.52,1.99-3.73,3.04v0.01c-1.58,1.37-3.1,2.82-4.54,4.34
			c-0.32,0.341-0.63,0.671-0.93,1.011h-0.01c-2.83,3.069-5.38,6.39-7.63,9.92C909.535,233.25,909.465,233.37,909.395,233.48z"/>
	</g>
</g>
</svg>
