<svg xmlns="http://www.w3.org/2000/svg" xmlns:xlink="http://www.w3.org/1999/xlink" width="556.458" viewBox="0 0 556.458 488.185">
  <defs>
      <clipPath id="clip-path">
      <path id="Tracé_15" data-name="Tracé 15" d="M198.8,565.3q-2.185-39.944-4.375-79.886c-1.344-24.524,6.332-51.438,23.849-79.967C274.582,313.73,392.51,280.1,521.165,313.429c53.348,13.819,84.3,30.02,107.219,46.014l4.375,79.888c-22.912-16-53.871-32.2-107.219-46.014-128.655-33.325-246.58.3-302.892,92.019C205.133,513.863,197.457,540.778,198.8,565.3Z" transform="translate(-194.274 -300.848)"></path>
      </clipPath>
      <clipPath id="clip-path-2">
      <path id="Tracé_22" data-name="Tracé 22" d="M162.993,466.1q-2.189-39.944-4.377-79.886a118.236,118.236,0,0,0,18.239,57.518c30.786,47.606,88.024,78.78,168.029,99.5,71.389,18.492,139.451,21.656,174.7,21.985l4.377,79.886c-35.25-.329-103.312-3.491-174.7-21.982-80.006-20.724-137.241-51.9-168.029-99.506A118.2,118.2,0,0,1,162.993,466.1Z" transform="translate(-158.616 -386.218)"></path>
      </clipPath>
  </defs>
  <g id="G" transform="translate(-158.527 -280.921)">
      <g id="Groupe_12" data-name="Groupe 12" transform="translate(158.527 280.921)">
      <g id="Groupe_11" data-name="Groupe 11">
          <g id="Groupe_1" data-name="Groupe 1" transform="translate(511.95 67.723)">
          <path id="Tracé_1" data-name="Tracé 1" d="M433.762,312.021l4.376,79.888L398,426.175l-4.374-79.888Z" transform="translate(-393.63 -312.021)"></path>
          </g>
          <g id="Groupe_4" data-name="Groupe 4" transform="translate(77.841 43.394)">
          <g id="Groupe_3" data-name="Groupe 3" clip-path="url(#clip-path)">
              <g id="Groupe_2" data-name="Groupe 2" transform="translate(0 0)">
              <path id="Tracé_2" data-name="Tracé 2" d="M449.665,352.129l4.375,79.888c-22.394-15.633-52.468-31.459-103.619-45.069l-4.377-79.888c51.151,13.61,81.227,29.436,103.621,45.069" transform="translate(-15.556 -293.534)"></path>
              <path id="Tracé_3" data-name="Tracé 3" d="M370.8,312.225l4.377,79.888q-1.783-.474-3.6-.945a405.922,405.922,0,0,0-42.188-8.608l-4.375-79.886a405.524,405.524,0,0,1,42.188,8.606q1.813.47,3.6.945" transform="translate(-40.315 -298.699)"></path>
              <path id="Tracé_4" data-name="Tracé 4" d="M342.905,304.519l4.375,79.886q-16.75-2.482-33.075-3.412l-4.377-79.886q16.309.931,33.077,3.412" transform="translate(-58.202 -300.544)"></path>
              <path id="Tracé_5" data-name="Tracé 5" d="M324.608,301.411l4.377,79.886q-13.853-.791-27.331-.47l-4.377-79.886q13.464-.32,27.331.47" transform="translate(-72.982 -300.849)"></path>
              <path id="Tracé_6" data-name="Tracé 6" d="M310.731,300.891l4.377,79.886q-12.634.3-24.879,1.566l-4.377-79.888q12.236-1.264,24.879-1.564" transform="translate(-86.435 -300.799)"></path>
              <path id="Tracé_7" data-name="Tracé 7" d="M298.864,301.609l4.377,79.888q-12.255,1.267-24.064,3.495L274.8,305.1q11.8-2.228,24.062-3.495" transform="translate(-99.447 -299.953)"></path>
              <path id="Tracé_8" data-name="Tracé 8" d="M288.358,303.214l4.375,79.888q-12.827,2.42-25.066,5.966l-4.377-79.886q12.226-3.544,25.068-5.969" transform="translate(-113.003 -298.063)"></path>
              <path id="Tracé_9" data-name="Tracé 9" d="M279.949,305.955l4.377,79.886A246.774,246.774,0,0,0,253.52,397l-4.377-79.886a246.555,246.555,0,0,1,30.806-11.162" transform="translate(-129.662 -294.836)"></path>
              <path id="Tracé_10" data-name="Tracé 10" d="M294.2,311.081l4.377,79.886c-33.121,14.6-61.551,36.256-83.32,64.632l-4.377-79.888c21.769-28.374,50.2-50.032,83.32-64.63" transform="translate(-174.719 -288.799)"></path>
              <path id="Tracé_11" data-name="Tracé 11" d="M223.2,340.761l4.377,79.888a206.376,206.376,0,0,0-12.164,17.688A197.955,197.955,0,0,0,204.8,457.922l-4.377-79.888a198.7,198.7,0,0,1,10.613-19.585A206.542,206.542,0,0,1,223.2,340.761" transform="translate(-187.036 -253.849)"></path>
              <path id="Tracé_12" data-name="Tracé 12" d="M205.588,357.878l4.377,79.888a151.5,151.5,0,0,0-9.557,26.126L196.033,384a151.48,151.48,0,0,1,9.555-26.126" transform="translate(-192.203 -233.693)"></path>
              <path id="Tracé_13" data-name="Tracé 13" d="M197.925,369.876l4.375,79.888a118.739,118.739,0,0,0-3.5,20.467l-4.375-79.888a118.532,118.532,0,0,1,3.5-20.467" transform="translate(-194.095 -219.565)"></path>
              <path id="Tracé_14" data-name="Tracé 14" d="M194.6,379.275l4.375,79.888a103.655,103.655,0,0,0-.181,13.786l-4.375-79.886a102.952,102.952,0,0,1,.181-13.788" transform="translate(-194.274 -208.497)"></path>
              </g>
          </g>
          </g>
          <g id="Groupe_5" data-name="Groupe 5" transform="translate(271.656 225.328)">
          <path id="Tracé_16" data-name="Tracé 16" d="M390.755,412.237l4.376,79.887L287.656,464.285,283.28,384.4Z" transform="translate(-283.28 -384.398)"></path>
          </g>
          <g id="Groupe_6" data-name="Groupe 6" transform="translate(361.162 232.44)">
          <path id="Tracé_17" data-name="Tracé 17" d="M432.349,387.664l4.376,79.887L328.76,643.408l-4.376-79.887Z" transform="translate(-324.384 -387.664)"></path>
          </g>
          <g id="Groupe_9" data-name="Groupe 9" transform="translate(0.193 229.291)">
          <g id="Groupe_8" data-name="Groupe 8" clip-path="url(#clip-path-2)">
              <g id="Groupe_7" data-name="Groupe 7">
              <path id="Tracé_18" data-name="Tracé 18" d="M344.468,469.1l4.377,79.886c-9.978-.094-22.579-.411-37.14-1.243l-4.377-79.886c14.563.828,27.165,1.15,37.14,1.243" transform="translate(16.501 -290.089)"></path>
              <path id="Tracé_19" data-name="Tracé 19" d="M344.725,471.643l4.377,79.886c-19.946-1.134-43.571-3.229-69.155-7.01l-4.377-79.886c25.584,3.778,49.209,5.871,69.155,7.01" transform="translate(-20.896 -293.88)"></path>
              <path id="Tracé_20" data-name="Tracé 20" d="M314.75,472.632l4.377,79.886a655.69,655.69,0,0,1-68.408-13.729q-2.032-.526-4.044-1.063L242.3,457.84q2.012.536,4.046,1.06a655.7,655.7,0,0,0,68.406,13.732" transform="translate(-60.075 -301.879)"></path>
              <path id="Tracé_21" data-name="Tracé 21" d="M340.839,542.179l4.377,79.886C267.322,601.344,211.5,570.422,181.23,523.622A118.2,118.2,0,0,1,162.993,466.1l-4.377-79.886a118.236,118.236,0,0,0,18.239,57.518c30.266,46.8,86.09,77.717,163.983,98.443" transform="translate(-158.616 -386.218)"></path>
              </g>
          </g>
          </g>
          <g id="Groupe_10" data-name="Groupe 10">
          <path id="Tracé_23" data-name="Tracé 23" d="M589.148,297.684c61.192,15.851,103.378,37.474,121.462,50.959L670.478,382.91c-22.914-15.994-53.871-32.2-107.219-46.014-128.655-33.325-246.583.3-302.892,92.019-56.985,92.816-9.836,168.554,113.32,200.458,44.716,11.582,77.985,15.167,97,13.806l66.977-109.089-107.476-27.84,23.328-38,174.144,45.108L519.69,689.218c-35.25-.329-103.312-3.493-174.7-21.985-80.006-20.724-137.243-51.9-168.029-99.5-26.825-42.188-25.079-98.349,9.908-155.339C254.635,303.507,411.87,251.762,589.148,297.684Z" transform="translate(-158.527 -280.921)"></path>
          </g>
      </g>
      </g>
  </g>
</svg>