<?xml version="1.0" encoding="utf-8"?>
<!-- Generator: Adobe Illustrator 16.0.0, SVG Export Plug-In . SVG Version: 6.00 Build 0)  -->
<!DOCTYPE svg PUBLIC "-//W3C//DTD SVG 1.1//EN" "http://www.w3.org/Graphics/SVG/1.1/DTD/svg11.dtd">
<svg version="1.1" id="Calque_1" xmlns="http://www.w3.org/2000/svg" xmlns:xlink="http://www.w3.org/1999/xlink" x="0px" y="0px"
	 width="463.477px" height="536.973px" viewBox="0 0 463.477 536.973" enable-background="new 0 0 463.477 536.973"
	 xml:space="preserve">
<g>
	<path d="M72.38,89.02c-10.476,0-18.966,8.488-18.966,18.963c0,10.474,8.49,18.963,18.966,18.963
		c10.471,0,18.966-8.489,18.966-18.963C91.346,97.508,82.851,89.02,72.38,89.02z"/>
	<path pathLength="100" d="M233.229,9.757c-59.289,0-113.186,23.069-153.226,60.708c13.879,2.806,25.019,13.119,29.033,26.518
		c32.789-29.84,76.366-48.033,124.192-48.033c101.939,0,184.58,82.643,184.58,184.583c0,101.938-82.641,184.575-184.58,184.575
		s-184.58-82.638-184.58-184.575c0-31.604,7.957-61.348,21.957-87.355c-14.491-0.666-26.854-9.364-32.766-21.769
		C19.771,156.693,9.457,193.904,9.457,233.532c0,123.582,100.188,223.771,223.771,223.771S457,357.114,457,233.532
		C457,109.946,356.813,9.757,233.229,9.757z"/>
</g>
<path d="M374.61,528.975c-0.81,0-1.626-0.244-2.332-0.753c-1.794-1.289-2.202-3.789-0.912-5.582l21.708-30.188
	c1.29-1.795,3.791-2.202,5.582-0.912c1.794,1.289,2.202,3.789,0.912,5.582L377.86,527.31
	C377.079,528.397,375.854,528.975,374.61,528.975z"/>
<path d="M400.554,524.736c-0.81,0-1.626-0.244-2.333-0.753l-30.181-21.709c-1.793-1.29-2.201-3.789-0.911-5.583
	c1.29-1.793,3.79-2.201,5.583-0.911l30.181,21.709c1.793,1.29,2.201,3.789,0.911,5.583
	C403.022,524.158,401.797,524.736,400.554,524.736z"/>
</svg>
