<?xml version="1.0" encoding="utf-8"?>
<!-- Generator: Adobe Illustrator 16.0.0, SVG Export Plug-In . SVG Version: 6.00 Build 0)  -->
<!DOCTYPE svg PUBLIC "-//W3C//DTD SVG 1.1//EN" "http://www.w3.org/Graphics/SVG/1.1/DTD/svg11.dtd">
<svg version="1.1" xmlns="http://www.w3.org/2000/svg" xmlns:xlink="http://www.w3.org/1999/xlink" x="0px" y="0px" width="300px"
	 height="200px" viewBox="0 0 300 200" enable-background="new 0 0 300 200" xml:space="preserve">
<g id="Calque_1">
	<circle fill="none" stroke="#000000" stroke-miterlimit="10" cx="-102.173" cy="-675.161" r="114.36"/>
	<circle fill="none" stroke="#000000" stroke-miterlimit="10" cx="-102.173" cy="-675.161" r="70.68"/>
	<circle fill="none" stroke="#000000" stroke-miterlimit="10" cx="-102.173" cy="-675.161" r="43.684"/>
	<circle fill="none" stroke="#000000" stroke-miterlimit="10" cx="-102.173" cy="-675.162" r="26.998"/>
	<circle fill="none" stroke="#000000" stroke-miterlimit="10" cx="-102.173" cy="-675.161" r="16.687"/>
	<circle fill="none" stroke="#000000" stroke-miterlimit="10" cx="-102.173" cy="-675.162" r="10.313"/>
</g>
<g id="Calque_3">
	<rect x="-988.862" y="-835.556" fill="#61052D" width="623.969" height="629.969"/>
	<g>
		<path fill="#BCBEC0" d="M-614.913-495.292c-17.141,10.279-37.21,16.18-58.65,16.18c-7.66,0-15.14-0.75-22.38-2.189
			c4.16,0.459,8.39,0.699,12.68,0.699c22.891,0,44.2-6.719,62.08-18.299C-619.053-497.772-616.963-496.562-614.913-495.292z"/>
		<path fill="#FFFFFF" d="M-587.213-532.882c-1.979,3.07-4.1,6.029-6.369,8.88c-7.75,9.79-17.08,18.29-27.601,25.101
			c-17.88,11.58-39.189,18.299-62.08,18.299c-4.29,0-8.52-0.24-12.68-0.699c-1.26-0.25-2.51-0.52-3.76-0.811
			c-10.44-2.439-20.34-6.32-29.46-11.41c-0.57-0.311-1.13-0.629-1.69-0.959c1.271-1.861,2.61-3.691,3.99-5.461
			c2.229-2.859,4.59-5.6,7.07-8.23c8.649-9.18,18.8-16.92,30.06-22.829c10.1-5.31,21.08-9.149,32.68-11.24
			c6.63-1.2,13.471-1.83,20.45-1.83C-618.913-544.072-602.163-540.052-587.213-532.882z"/>
		<path fill="#FFFFFF" d="M-726.483-534.433c0.01-0.09,0.01-0.18,0.01-0.27c0-3.68-1.93-6.91-4.83-8.74
			c-1.59-1-3.47-1.58-5.479-1.58c-3.21,0-6.07,1.461-7.96,3.75c-0.92,1.11-2.08,2.03-3.391,2.68c-0.35-0.299-0.67-0.629-0.97-0.989
			c-1.53-1.79-2.439-4.12-2.439-6.66c0-2.57,0.93-4.9,2.489-6.71c-1.93,0.92-3.77,2.01-5.52,3.21c-2.7,1.859-5.18,4.011-7.4,6.42
			c-0.54,0.58-1.06,1.181-1.569,1.8c0.199-1.26,0.5-2.479,0.869-3.67c1.631-5.14,4.75-9.61,8.851-12.89
			c1.609-1.311,3.37-2.42,5.26-3.33c3.311-1.58,6.99-2.51,10.89-2.61c0.25-0.02,0.5-0.02,0.75-0.02c0.351,0,0.7,0.01,1.051,0.029
			c7.319,0.271,13.89,3.46,18.569,8.44c4.58,4.83,7.38,11.36,7.38,18.53c0,2.72-0.399,5.35-1.149,7.83
			c-0.03,0.09-0.061,0.17-0.08,0.26c-0.14,0.45-0.3,0.891-0.47,1.33c0.02-0.02,0.05-0.029,0.069-0.029
			c-2.149,6.789-4.92,13.309-8.239,19.479c-2.48,2.631-4.841,5.371-7.07,8.23c-1.38,1.77-2.72,3.6-3.99,5.461
			c0.561,0.33,1.12,0.648,1.69,0.959c9.12,5.09,19.02,8.971,29.46,11.41c1.25,0.291,2.5,0.561,3.76,0.811
			c7.24,1.439,14.72,2.189,22.38,2.189c21.44,0,41.51-5.9,58.65-16.18c9.3,5.75,17.71,12.801,24.989,20.9h-170.189
			c0.82-1.861,1.7-3.701,2.62-5.5c3.45-6.74,7.54-13.09,12.21-18.971c0.899-1.141,1.819-2.26,2.78-3.369
			c1.3-1.531,2.649-3.031,4.029-4.49c0.03-0.031,0.061-0.061,0.09-0.09c0.99-1.041,1.92-2.131,2.811-3.271
			c5.13-6.6,8.41-14.719,9.05-23.568c0.01-0.131,0.021-0.261,0.03-0.391S-726.483-534.302-726.483-534.433z"/>
		<path fill="#F68628" d="M-750.033-538.112c-0.061,0.1-0.12,0.2-0.19,0.29c-3.12,4.841-6.6,9.421-10.41,13.71
			c-0.659,0.76-1.34,1.5-2.029,2.24c-0.04-0.029-0.09-0.061-0.13-0.1c-0.011,0-0.011-0.01-0.021-0.01
			c-0.01-0.011-0.01-0.011-0.02-0.021c-0.011-0.011-0.011-0.021-0.011-0.03c0.25-1.64,0.561-3.26,0.9-4.869
			c0.88-4.24,2-8.4,3.36-12.461c0.14-0.46,0.29-0.92,0.46-1.369c0.38-0.041,0.77-0.061,1.159-0.061
			C-754.292-540.792-751.853-539.772-750.033-538.112z"/>
		<path d="M-748.133-538.593c-0.54,0.271-1.109,0.5-1.699,0.671c-0.131,0.03-0.261,0.069-0.391,0.1c0.07-0.09,0.13-0.19,0.19-0.29
			c-1.82-1.66-4.26-2.68-6.931-2.68c-0.39,0-0.779,0.02-1.159,0.061c-0.17,0.449-0.32,0.909-0.46,1.369
			c-0.44-0.3-0.86-0.64-1.24-1.02c-0.891-0.84-1.62-1.83-2.15-2.94c2.221-2.409,4.7-4.561,7.4-6.42c1.75-1.2,3.59-2.29,5.52-3.21
			c-1.56,1.81-2.489,4.14-2.489,6.71c0,2.54,0.909,4.87,2.439,6.66C-748.803-539.222-748.483-538.892-748.133-538.593z"/>
	</g>
</g>
<g id="Calque_4">
	<rect x="-1657.625" y="-834.202" fill="#61052D" width="623.969" height="629.969"/>
	<g>
		<path fill="#BCBEC0" d="M-1286.939-495.292c-17.141,10.279-37.21,16.18-58.65,16.18c-7.66,0-15.14-0.75-22.38-2.189
			c4.16,0.459,8.39,0.699,12.68,0.699c22.891,0,44.2-6.719,62.08-18.299C-1291.08-497.772-1288.99-496.562-1286.939-495.292z"/>
		<path fill="#FFFFFF" d="M-1259.24-532.882c-1.979,3.071-4.1,6.03-6.369,8.879c-7.75,9.791-17.08,18.291-27.601,25.102
			c-17.88,11.58-39.189,18.299-62.08,18.299c-4.29,0-8.52-0.24-12.68-0.699c-1.26-0.25-2.51-0.52-3.76-0.811
			c-10.44-2.439-20.34-6.32-29.46-11.41c-0.57-0.311-1.13-0.629-1.69-0.959c1.271-1.861,2.61-3.691,3.99-5.461
			c2.229-2.859,4.59-5.6,7.07-8.23c8.649-9.18,18.8-16.92,30.06-22.83c10.1-5.31,21.08-9.149,32.68-11.24
			c6.63-1.2,13.471-1.83,20.45-1.83C-1290.939-544.073-1274.189-540.052-1259.24-532.882z"/>
		<path fill="#FFFFFF" d="M-1398.509-534.433c0.01-0.09,0.01-0.18,0.01-0.27c0-3.68-1.93-6.91-4.83-8.74
			c-1.59-1-3.47-1.58-5.479-1.58c-3.21,0-6.07,1.461-7.96,3.75c-0.92,1.11-2.08,2.03-3.391,2.68c-0.35-0.299-0.67-0.629-0.97-0.989
			c-1.53-1.79-2.439-4.12-2.439-6.66c0-2.57,0.93-4.9,2.489-6.71c-1.93,0.92-3.77,2.01-5.52,3.21c-2.7,1.859-5.18,4.011-7.4,6.42
			c-0.54,0.58-1.06,1.181-1.569,1.8c0.199-1.26,0.5-2.479,0.869-3.67c1.631-5.14,4.75-9.61,8.851-12.89
			c1.609-1.311,3.37-2.42,5.26-3.33c3.311-1.58,6.99-2.51,10.89-2.61c0.25-0.02,0.5-0.02,0.75-0.02c0.351,0,0.7,0.01,1.051,0.029
			c7.319,0.271,13.89,3.46,18.569,8.44c4.58,4.83,7.38,11.36,7.38,18.53c0,2.72-0.399,5.35-1.149,7.831
			c-0.03,0.09-0.061,0.17-0.08,0.26c-0.14,0.449-0.3,0.891-0.47,1.33c0.02-0.02,0.05-0.029,0.069-0.029
			c-2.149,6.789-4.92,13.309-8.239,19.479c-2.48,2.631-4.841,5.371-7.07,8.23c-1.38,1.77-2.72,3.6-3.99,5.461
			c0.561,0.33,1.12,0.648,1.69,0.959c9.12,5.09,19.02,8.971,29.46,11.41c1.25,0.291,2.5,0.561,3.76,0.811
			c7.24,1.439,14.72,2.189,22.38,2.189c21.44,0,41.51-5.9,58.65-16.18c9.3,5.75,17.71,12.801,24.989,20.9h-170.189
			c0.82-1.861,1.7-3.701,2.62-5.5c3.45-6.74,7.54-13.09,12.21-18.971c0.899-1.141,1.819-2.26,2.78-3.369
			c1.3-1.531,2.649-3.031,4.029-4.49c0.03-0.031,0.061-0.061,0.09-0.09c0.99-1.041,1.92-2.131,2.811-3.271
			c5.13-6.6,8.41-14.719,9.05-23.569c0.01-0.131,0.021-0.261,0.03-0.391S-1398.509-534.302-1398.509-534.433z"/>
		<path fill="#F68628" d="M-1422.059-538.113c-0.061,0.1-0.12,0.2-0.19,0.29c-3.12,4.841-6.6,9.421-10.41,13.71
			c-0.659,0.76-1.34,1.5-2.029,2.24c-0.04-0.029-0.09-0.061-0.13-0.1c-0.011,0-0.011-0.01-0.021-0.01
			c-0.01-0.012-0.01-0.012-0.02-0.021c-0.011-0.01-0.011-0.02-0.011-0.029c0.25-1.641,0.561-3.26,0.9-4.869
			c0.88-4.241,2-8.401,3.36-12.461c0.14-0.46,0.29-0.92,0.46-1.369c0.38-0.041,0.77-0.061,1.159-0.061
			C-1426.319-540.792-1423.879-539.773-1422.059-538.113z"/>
		<path d="M-1420.16-538.593c-0.54,0.271-1.109,0.5-1.699,0.671c-0.131,0.03-0.261,0.069-0.391,0.1c0.07-0.09,0.13-0.19,0.19-0.29
			c-1.82-1.66-4.26-2.68-6.931-2.68c-0.39,0-0.779,0.02-1.159,0.061c-0.17,0.449-0.32,0.909-0.46,1.369
			c-0.44-0.3-0.86-0.64-1.24-1.02c-0.891-0.84-1.62-1.83-2.15-2.94c2.221-2.409,4.7-4.561,7.4-6.42c1.75-1.2,3.59-2.29,5.52-3.21
			c-1.56,1.81-2.489,4.14-2.489,6.71c0,2.54,0.909,4.87,2.439,6.66C-1420.83-539.222-1420.509-538.892-1420.16-538.593z"/>
	</g>
	<g>
		<g>
			
				<circle fill="none" stroke="#FFFFFF" stroke-width="0.5" stroke-miterlimit="10" stroke-dasharray="1.996,1.996,1.996,1.996,1.996,1.996" cx="-1308.333" cy="-429.717" r="114.359"/>
		</g>
		<g>
			
				<circle fill="none" stroke="#FFFFFF" stroke-width="0.5" stroke-miterlimit="10" stroke-dasharray="1.996,1.996,1.996,1.996,1.996,1.996" cx="-1346.744" cy="-397.983" r="114.359"/>
		</g>
		<g>
			
				<circle fill="none" stroke="#FFFFFF" stroke-width="0.5" stroke-miterlimit="10" stroke-dasharray="1.996,1.996,1.996,1.996,1.996,1.996" cx="-1354.99" cy="-594.966" r="114.359"/>
		</g>
		<g>
			
				<circle fill="none" stroke="#FFFFFF" stroke-width="0.5" stroke-miterlimit="10" stroke-dasharray="1.996,1.996,1.996,1.996,1.996,1.996" cx="-1492.322" cy="-562.228" r="114.359"/>
		</g>
		<g>
			
				<circle fill="none" stroke="#FFFFFF" stroke-width="0.5" stroke-miterlimit="10" stroke-dasharray="1.996,1.996,1.996,1.996,1.996,1.996" cx="-1518.025" cy="-599.885" r="114.359"/>
		</g>
		<g>
			
				<circle fill="none" stroke="#FFFFFF" stroke-width="0.5" stroke-miterlimit="10" stroke-dasharray="1.996,1.996,1.996,1.996,1.996,1.996" cx="-1321.746" cy="-503.374" r="114.359"/>
		</g>
		<g>
			
				<circle fill="none" stroke="#FFFFFF" stroke-width="0.5" stroke-miterlimit="10" stroke-dasharray="1.996,1.996,1.996,1.996,1.996,1.996" cx="-1327.331" cy="-427.903" r="114.359"/>
		</g>
		<g>
			
				<circle fill="none" stroke="#FFFFFF" stroke-width="0.5" stroke-miterlimit="10" stroke-dasharray="1.996,1.996,1.996,1.996,1.996,1.996" cx="-1345.289" cy="-593.477" r="114.359"/>
		</g>
		<g>
			
				<circle fill="none" stroke="#FFFFFF" stroke-width="0.5" stroke-miterlimit="10" stroke-dasharray="1.9884,1.9884,1.9884,1.9884,1.9884,1.9884" cx="-1441.82" cy="-536.857" r="43.684"/>
		</g>
		<g>
			
				<circle fill="none" stroke="#FFFFFF" stroke-width="0.5" stroke-miterlimit="10" stroke-dasharray="1.9884,1.9884,1.9884,1.9884,1.9884,1.9884" cx="-1401.584" cy="-513.715" r="43.684"/>
		</g>
		<g>
			
				<circle fill="none" stroke="#FFFFFF" stroke-width="0.5" stroke-miterlimit="10" stroke-dasharray="2.0189,2.0189,2.0189,2.0189,2.0189,2.0189" cx="-1408.651" cy="-537.042" r="26.998"/>
		</g>
		<g>
			
				<circle fill="none" stroke="#FFFFFF" stroke-width="0.5" stroke-miterlimit="10" stroke-dasharray="2.1594,2.1594,2.1594,2.1594,2.1594,2.1594" cx="-1408.516" cy="-534.706" r="10.313"/>
		</g>
		<g>
			
				<circle fill="none" stroke="#FFFFFF" stroke-width="0.5" stroke-miterlimit="10" stroke-dasharray="2.1594,2.1594,2.1594,2.1594,2.1594,2.1594" cx="-1428.693" cy="-530.479" r="10.313"/>
		</g>
		<g>
			
				<circle fill="none" stroke="#FFFFFF" stroke-width="0.5" stroke-miterlimit="10" stroke-dasharray="2.1594,2.1594,2.1594,2.1594,2.1594,2.1594" cx="-1424.434" cy="-547.836" r="10.313"/>
		</g>
		<g>
			
				<circle fill="none" stroke="#FFFFFF" stroke-width="0.5" stroke-miterlimit="10" stroke-dasharray="2.1594,2.1594,2.1594,2.1594,2.1594,2.1594" cx="-1412.962" cy="-546.242" r="10.313"/>
		</g>
	</g>
</g>
<g id="Calque_5">
	<rect x="-1623.511" y="-186.162" fill="#61052D" width="1224" height="622"/>
	<rect x="-18.511" y="-11.409" fill="#61052D" width="336" height="226.912"/>
	<g>
		<g>
			<path fill="#BCBEC0" d="M-1098.287,144.708c-17.141,10.279-37.21,16.18-58.65,16.18c-7.66,0-15.14-0.75-22.38-2.189
				c4.16,0.459,8.39,0.699,12.68,0.699c22.891,0,44.2-6.719,62.08-18.299C-1102.427,142.228-1100.337,143.438-1098.287,144.708z"/>
			<path fill="#FFFFFF" d="M-1070.587,107.117c-1.979,3.071-4.1,6.03-6.369,8.88c-7.75,9.791-17.08,18.291-27.601,25.102
				c-17.88,11.58-39.189,18.299-62.08,18.299c-4.29,0-8.52-0.24-12.68-0.699c-1.26-0.25-2.51-0.52-3.76-0.811
				c-10.44-2.439-20.34-6.32-29.46-11.41c-0.57-0.311-1.13-0.629-1.69-0.959c1.271-1.861,2.61-3.691,3.99-5.461
				c2.229-2.859,4.59-5.6,7.07-8.23c8.649-9.18,18.8-16.92,30.06-22.829c10.1-5.311,21.08-9.15,32.68-11.24
				c6.63-1.201,13.471-1.83,20.45-1.83C-1102.287,95.928-1085.537,99.947-1070.587,107.117z"/>
			<path fill="#FFFFFF" d="M-1209.857,105.566c0.01-0.09,0.01-0.18,0.01-0.27c0-3.68-1.93-6.91-4.83-8.74
				c-1.59-1-3.47-1.58-5.479-1.58c-3.21,0-6.07,1.461-7.96,3.75c-0.92,1.111-2.08,2.031-3.391,2.68
				c-0.35-0.299-0.67-0.629-0.97-0.988c-1.53-1.791-2.439-4.121-2.439-6.66c0-2.57,0.93-4.9,2.489-6.711
				c-1.93,0.92-3.77,2.01-5.52,3.211c-2.7,1.859-5.18,4.01-7.4,6.42c-0.54,0.58-1.06,1.18-1.569,1.799
				c0.199-1.26,0.5-2.479,0.869-3.67c1.631-5.139,4.75-9.609,8.851-12.889c1.609-1.311,3.37-2.42,5.26-3.33
				c3.311-1.58,6.99-2.51,10.89-2.611c0.25-0.02,0.5-0.02,0.75-0.02c0.351,0,0.7,0.01,1.051,0.029
				c7.319,0.271,13.89,3.461,18.569,8.441c4.58,4.83,7.38,11.359,7.38,18.529c0,2.721-0.399,5.35-1.149,7.831
				c-0.03,0.09-0.061,0.17-0.08,0.26c-0.14,0.449-0.3,0.891-0.47,1.33c0.02-0.02,0.05-0.029,0.069-0.029
				c-2.149,6.789-4.92,13.309-8.239,19.479c-2.48,2.631-4.841,5.371-7.07,8.23c-1.38,1.77-2.72,3.6-3.99,5.461
				c0.561,0.33,1.12,0.648,1.69,0.959c9.12,5.09,19.02,8.971,29.46,11.41c1.25,0.291,2.5,0.561,3.76,0.811
				c7.24,1.439,14.72,2.189,22.38,2.189c21.44,0,41.51-5.9,58.65-16.18c9.3,5.75,17.71,12.801,24.989,20.9h-170.189
				c0.82-1.861,1.7-3.701,2.62-5.5c3.45-6.74,7.54-13.09,12.21-18.971c0.899-1.141,1.819-2.26,2.78-3.369
				c1.3-1.531,2.649-3.031,4.029-4.49c0.03-0.031,0.061-0.061,0.09-0.09c0.99-1.041,1.92-2.131,2.811-3.271
				c5.13-6.6,8.41-14.719,9.05-23.569c0.01-0.131,0.021-0.26,0.03-0.391C-1209.857,105.828-1209.857,105.697-1209.857,105.566z"/>
			<path fill="#F68628" d="M-1233.407,101.887c-0.061,0.1-0.12,0.201-0.19,0.291c-3.12,4.84-6.6,9.421-10.41,13.71
				c-0.659,0.76-1.34,1.5-2.029,2.24c-0.04-0.029-0.09-0.061-0.13-0.1c-0.011,0-0.011-0.01-0.021-0.01
				c-0.01-0.012-0.01-0.012-0.02-0.021c-0.011-0.01-0.011-0.02-0.011-0.029c0.25-1.641,0.561-3.26,0.9-4.869
				c0.88-4.241,2-8.401,3.36-12.462c0.14-0.459,0.29-0.92,0.46-1.369c0.38-0.041,0.77-0.061,1.159-0.061
				C-1237.667,99.207-1235.227,100.227-1233.407,101.887z"/>
			<path d="M-1231.507,101.406c-0.54,0.271-1.109,0.5-1.699,0.672c-0.131,0.029-0.261,0.068-0.391,0.1
				c0.07-0.09,0.13-0.191,0.19-0.291c-1.82-1.66-4.26-2.68-6.931-2.68c-0.39,0-0.779,0.02-1.159,0.061
				c-0.17,0.449-0.32,0.91-0.46,1.369c-0.44-0.299-0.86-0.639-1.24-1.02c-0.891-0.84-1.62-1.83-2.15-2.939
				c2.221-2.41,4.7-4.561,7.4-6.42c1.75-1.201,3.59-2.291,5.52-3.211c-1.56,1.811-2.489,4.141-2.489,6.711
				c0,2.539,0.909,4.869,2.439,6.66C-1232.177,100.777-1231.857,101.107-1231.507,101.406z"/>
		</g>
		<g>
			<g>
				
					<circle fill="none" stroke="#FFFFFF" stroke-width="0.5" stroke-miterlimit="10" stroke-dasharray="1.996,1.996,1.996,1.996,1.996,1.996" cx="-1119.68" cy="210.283" r="114.359"/>
			</g>
			<g>
				
					<circle fill="none" stroke="#FFFFFF" stroke-width="0.5" stroke-miterlimit="10" stroke-dasharray="1.996,1.996,1.996,1.996,1.996,1.996" cx="-1158.091" cy="242.017" r="114.359"/>
			</g>
			<g>
				
					<circle fill="none" stroke="#FFFFFF" stroke-width="0.5" stroke-miterlimit="10" stroke-dasharray="1.996,1.996,1.996,1.996,1.996,1.996" cx="-1166.337" cy="45.034" r="114.359"/>
			</g>
			<g>
				
					<circle fill="none" stroke="#FFFFFF" stroke-width="0.5" stroke-miterlimit="10" stroke-dasharray="1.996,1.996,1.996,1.996,1.996,1.996" cx="-1303.669" cy="77.772" r="114.359"/>
			</g>
			<g>
				
					<circle fill="none" stroke="#FFFFFF" stroke-width="0.5" stroke-miterlimit="10" stroke-dasharray="1.996,1.996,1.996,1.996,1.996,1.996" cx="-1329.373" cy="40.115" r="114.359"/>
			</g>
			<g>
				
					<circle fill="none" stroke="#FFFFFF" stroke-width="0.5" stroke-miterlimit="10" stroke-dasharray="1.996,1.996,1.996,1.996,1.996,1.996" cx="-1133.093" cy="136.626" r="114.359"/>
			</g>
			<g>
				
					<circle fill="none" stroke="#FFFFFF" stroke-width="0.5" stroke-miterlimit="10" stroke-dasharray="1.996,1.996,1.996,1.996,1.996,1.996" cx="-1138.678" cy="212.097" r="114.359"/>
			</g>
			<g>
				
					<circle fill="none" stroke="#FFFFFF" stroke-width="0.5" stroke-miterlimit="10" stroke-dasharray="1.996,1.996,1.996,1.996,1.996,1.996" cx="-1156.636" cy="46.523" r="114.359"/>
			</g>
			<g>
				
					<circle fill="none" stroke="#FFFFFF" stroke-width="0.5" stroke-miterlimit="10" stroke-dasharray="1.9884,1.9884,1.9884,1.9884,1.9884,1.9884" cx="-1253.167" cy="103.143" r="43.684"/>
			</g>
			<g>
				
					<circle fill="none" stroke="#FFFFFF" stroke-width="0.5" stroke-miterlimit="10" stroke-dasharray="1.9884,1.9884,1.9884,1.9884,1.9884,1.9884" cx="-1212.932" cy="126.285" r="43.684"/>
			</g>
			<g>
				
					<circle fill="none" stroke="#FFFFFF" stroke-width="0.5" stroke-miterlimit="10" stroke-dasharray="2.0189,2.0189,2.0189,2.0189,2.0189,2.0189" cx="-1219.999" cy="102.958" r="26.998"/>
			</g>
			<g>
				
					<circle fill="none" stroke="#FFFFFF" stroke-width="0.5" stroke-miterlimit="10" stroke-dasharray="2.1594,2.1594,2.1594,2.1594,2.1594,2.1594" cx="-1219.864" cy="105.294" r="10.313"/>
			</g>
			<g>
				
					<circle fill="none" stroke="#FFFFFF" stroke-width="0.5" stroke-miterlimit="10" stroke-dasharray="2.1594,2.1594,2.1594,2.1594,2.1594,2.1594" cx="-1240.041" cy="109.521" r="10.313"/>
			</g>
			<g>
				
					<circle fill="none" stroke="#FFFFFF" stroke-width="0.5" stroke-miterlimit="10" stroke-dasharray="2.1594,2.1594,2.1594,2.1594,2.1594,2.1594" cx="-1235.782" cy="92.164" r="10.313"/>
			</g>
			<g>
				
					<circle fill="none" stroke="#FFFFFF" stroke-width="0.5" stroke-miterlimit="10" stroke-dasharray="2.1594,2.1594,2.1594,2.1594,2.1594,2.1594" cx="-1224.31" cy="93.758" r="10.313"/>
			</g>
		</g>
	</g>
	<g>
		<g>
			<path fill="#BCBEC0" d="M-1404.148,144.708c17.141,10.279,37.21,16.18,58.65,16.18c7.66,0,15.14-0.75,22.38-2.189
				c-4.16,0.459-8.39,0.699-12.68,0.699c-22.891,0-44.2-6.719-62.08-18.299C-1400.008,142.228-1402.098,143.438-1404.148,144.708z"
				/>
			<path fill="#FFFFFF" d="M-1431.848,107.117c1.979,3.071,4.1,6.03,6.369,8.88c7.75,9.791,17.08,18.291,27.601,25.102
				c17.88,11.58,39.189,18.299,62.08,18.299c4.29,0,8.52-0.24,12.68-0.699c1.26-0.25,2.51-0.52,3.76-0.811
				c10.44-2.439,20.34-6.32,29.46-11.41c0.57-0.311,1.13-0.629,1.69-0.959c-1.271-1.861-2.61-3.691-3.99-5.461
				c-2.229-2.859-4.59-5.6-7.07-8.23c-8.649-9.18-18.8-16.92-30.06-22.829c-10.1-5.311-21.08-9.15-32.68-11.24
				c-6.63-1.201-13.471-1.83-20.45-1.83C-1400.148,95.928-1416.898,99.947-1431.848,107.117z"/>
			<path fill="#FFFFFF" d="M-1292.578,105.566c-0.01-0.09-0.01-0.18-0.01-0.27c0-3.68,1.93-6.91,4.83-8.74
				c1.59-1,3.47-1.58,5.479-1.58c3.21,0,6.07,1.461,7.96,3.75c0.92,1.111,2.08,2.031,3.391,2.68c0.35-0.299,0.67-0.629,0.97-0.988
				c1.53-1.791,2.439-4.121,2.439-6.66c0-2.57-0.93-4.9-2.489-6.711c1.93,0.92,3.77,2.01,5.52,3.211c2.7,1.859,5.18,4.01,7.4,6.42
				c0.54,0.58,1.06,1.18,1.569,1.799c-0.199-1.26-0.5-2.479-0.869-3.67c-1.631-5.139-4.75-9.609-8.851-12.889
				c-1.609-1.311-3.37-2.42-5.26-3.33c-3.311-1.58-6.99-2.51-10.89-2.611c-0.25-0.02-0.5-0.02-0.75-0.02
				c-0.351,0-0.7,0.01-1.051,0.029c-7.319,0.271-13.89,3.461-18.569,8.441c-4.58,4.83-7.38,11.359-7.38,18.529
				c0,2.721,0.399,5.35,1.149,7.831c0.03,0.09,0.061,0.17,0.08,0.26c0.14,0.449,0.3,0.891,0.47,1.33
				c-0.02-0.02-0.05-0.029-0.069-0.029c2.149,6.789,4.92,13.309,8.239,19.479c2.48,2.631,4.841,5.371,7.07,8.23
				c1.38,1.77,2.72,3.6,3.99,5.461c-0.561,0.33-1.12,0.648-1.69,0.959c-9.12,5.09-19.02,8.971-29.46,11.41
				c-1.25,0.291-2.5,0.561-3.76,0.811c-7.24,1.439-14.72,2.189-22.38,2.189c-21.44,0-41.51-5.9-58.65-16.18
				c-9.3,5.75-17.71,12.801-24.989,20.9h170.189c-0.82-1.861-1.7-3.701-2.62-5.5c-3.45-6.74-7.54-13.09-12.21-18.971
				c-0.899-1.141-1.819-2.26-2.78-3.369c-1.3-1.531-2.649-3.031-4.029-4.49c-0.03-0.031-0.061-0.061-0.09-0.09
				c-0.99-1.041-1.92-2.131-2.811-3.271c-5.13-6.6-8.41-14.719-9.05-23.569c-0.01-0.131-0.021-0.26-0.03-0.391
				C-1292.578,105.828-1292.578,105.697-1292.578,105.566z"/>
			<path fill="#F68628" d="M-1269.028,101.887c0.061,0.1,0.12,0.201,0.19,0.291c3.12,4.84,6.6,9.421,10.41,13.71
				c0.659,0.76,1.34,1.5,2.029,2.24c0.04-0.029,0.09-0.061,0.13-0.1c0.011,0,0.011-0.01,0.021-0.01
				c0.01-0.012,0.01-0.012,0.02-0.021c0.011-0.01,0.011-0.02,0.011-0.029c-0.25-1.641-0.561-3.26-0.9-4.869
				c-0.88-4.241-2-8.401-3.36-12.462c-0.14-0.459-0.29-0.92-0.46-1.369c-0.38-0.041-0.77-0.061-1.159-0.061
				C-1264.769,99.207-1267.208,100.227-1269.028,101.887z"/>
			<path d="M-1270.928,101.406c0.54,0.271,1.109,0.5,1.699,0.672c0.131,0.029,0.261,0.068,0.391,0.1
				c-0.07-0.09-0.13-0.191-0.19-0.291c1.82-1.66,4.26-2.68,6.931-2.68c0.39,0,0.779,0.02,1.159,0.061
				c0.17,0.449,0.32,0.91,0.46,1.369c0.44-0.299,0.86-0.639,1.24-1.02c0.891-0.84,1.62-1.83,2.15-2.939
				c-2.221-2.41-4.7-4.561-7.4-6.42c-1.75-1.201-3.59-2.291-5.52-3.211c1.56,1.811,2.489,4.141,2.489,6.711
				c0,2.539-0.909,4.869-2.439,6.66C-1270.258,100.777-1270.578,101.107-1270.928,101.406z"/>
		</g>
		<g>
			<g>
				
					<circle fill="none" stroke="#FFFFFF" stroke-width="0.5" stroke-miterlimit="10" stroke-dasharray="1.996,1.996,1.996,1.996,1.996,1.996" cx="-1382.755" cy="210.283" r="114.359"/>
			</g>
			<g>
				
					<circle fill="none" stroke="#FFFFFF" stroke-width="0.5" stroke-miterlimit="10" stroke-dasharray="1.996,1.996,1.996,1.996,1.996,1.996" cx="-1344.344" cy="242.017" r="114.359"/>
			</g>
			<g>
				
					<circle fill="none" stroke="#FFFFFF" stroke-width="0.5" stroke-miterlimit="10" stroke-dasharray="1.996,1.996,1.996,1.996,1.996,1.996" cx="-1336.098" cy="45.034" r="114.359"/>
			</g>
			<g>
				
					<circle fill="none" stroke="#FFFFFF" stroke-width="0.5" stroke-miterlimit="10" stroke-dasharray="1.996,1.996,1.996,1.996,1.996,1.996" cx="-1198.766" cy="77.772" r="114.359"/>
			</g>
			<g>
				
					<circle fill="none" stroke="#FFFFFF" stroke-width="0.5" stroke-miterlimit="10" stroke-dasharray="1.996,1.996,1.996,1.996,1.996,1.996" cx="-1173.063" cy="40.115" r="114.359"/>
			</g>
			<g>
				
					<circle fill="none" stroke="#FFFFFF" stroke-width="0.5" stroke-miterlimit="10" stroke-dasharray="1.996,1.996,1.996,1.996,1.996,1.996" cx="-1369.342" cy="136.626" r="114.359"/>
			</g>
			<g>
				
					<circle fill="none" stroke="#FFFFFF" stroke-width="0.5" stroke-miterlimit="10" stroke-dasharray="1.996,1.996,1.996,1.996,1.996,1.996" cx="-1363.757" cy="212.097" r="114.359"/>
			</g>
			<g>
				
					<circle fill="none" stroke="#FFFFFF" stroke-width="0.5" stroke-miterlimit="10" stroke-dasharray="1.996,1.996,1.996,1.996,1.996,1.996" cx="-1345.799" cy="46.523" r="114.359"/>
			</g>
			<g>
				
					<circle fill="none" stroke="#FFFFFF" stroke-width="0.5" stroke-miterlimit="10" stroke-dasharray="1.9884,1.9884,1.9884,1.9884,1.9884,1.9884" cx="-1249.268" cy="103.143" r="43.684"/>
			</g>
			<g>
				
					<circle fill="none" stroke="#FFFFFF" stroke-width="0.5" stroke-miterlimit="10" stroke-dasharray="1.9884,1.9884,1.9884,1.9884,1.9884,1.9884" cx="-1289.503" cy="126.285" r="43.684"/>
			</g>
			<g>
				
					<circle fill="none" stroke="#FFFFFF" stroke-width="0.5" stroke-miterlimit="10" stroke-dasharray="2.0189,2.0189,2.0189,2.0189,2.0189,2.0189" cx="-1282.437" cy="102.958" r="26.998"/>
			</g>
			<g>
				
					<circle fill="none" stroke="#FFFFFF" stroke-width="0.5" stroke-miterlimit="10" stroke-dasharray="2.1594,2.1594,2.1594,2.1594,2.1594,2.1594" cx="-1282.571" cy="105.294" r="10.313"/>
			</g>
			<g>
				
					<circle fill="none" stroke="#FFFFFF" stroke-width="0.5" stroke-miterlimit="10" stroke-dasharray="2.1594,2.1594,2.1594,2.1594,2.1594,2.1594" cx="-1262.395" cy="109.521" r="10.313"/>
			</g>
			<g>
				
					<circle fill="none" stroke="#FFFFFF" stroke-width="0.5" stroke-miterlimit="10" stroke-dasharray="2.1594,2.1594,2.1594,2.1594,2.1594,2.1594" cx="-1266.653" cy="92.164" r="10.313"/>
			</g>
			<g>
				
					<circle fill="none" stroke="#FFFFFF" stroke-width="0.5" stroke-miterlimit="10" stroke-dasharray="2.1594,2.1594,2.1594,2.1594,2.1594,2.1594" cx="-1278.125" cy="93.758" r="10.313"/>
			</g>
		</g>
	</g>
	<g>
		<path fill="#BCBEC0" d="M-579.657,144.578c-17.141,10.279-37.21,16.18-58.65,16.18c-7.66,0-15.14-0.75-22.38-2.189
			c4.16,0.459,8.39,0.699,12.68,0.699c22.891,0,44.2-6.719,62.08-18.299C-583.798,142.098-581.708,143.309-579.657,144.578z"/>
		<path fill="#FFFFFF" d="M-551.958,106.988c-1.979,3.07-4.1,6.029-6.369,8.879c-7.75,9.791-17.08,18.291-27.601,25.102
			c-17.88,11.58-39.189,18.299-62.08,18.299c-4.29,0-8.52-0.24-12.68-0.699c-1.26-0.25-2.51-0.52-3.76-0.811
			c-10.44-2.439-20.34-6.32-29.46-11.41c-0.57-0.311-1.13-0.629-1.69-0.959c1.271-1.861,2.61-3.691,3.99-5.461
			c2.229-2.859,4.59-5.6,7.07-8.23c8.649-9.18,18.8-16.92,30.06-22.83c10.1-5.309,21.08-9.148,32.68-11.24
			c6.63-1.199,13.471-1.83,20.45-1.83C-583.657,95.797-566.907,99.818-551.958,106.988z"/>
		<path fill="#FFFFFF" d="M-691.228,105.438c0.01-0.09,0.01-0.18,0.01-0.27c0-3.68-1.93-6.91-4.83-8.74
			c-1.59-1-3.47-1.58-5.479-1.58c-3.21,0-6.07,1.461-7.96,3.75c-0.92,1.109-2.08,2.029-3.391,2.68c-0.35-0.299-0.67-0.629-0.97-0.99
			c-1.53-1.789-2.439-4.119-2.439-6.66c0-2.57,0.93-4.9,2.489-6.709c-1.93,0.92-3.77,2.01-5.52,3.209
			c-2.7,1.859-5.18,4.012-7.4,6.42c-0.54,0.58-1.06,1.182-1.569,1.801c0.199-1.26,0.5-2.48,0.869-3.67
			c1.631-5.141,4.75-9.611,8.851-12.891c1.609-1.311,3.37-2.42,5.26-3.33c3.311-1.58,6.99-2.51,10.89-2.609
			c0.25-0.02,0.5-0.02,0.75-0.02c0.351,0,0.7,0.01,1.051,0.029c7.319,0.27,13.89,3.459,18.569,8.439
			c4.58,4.83,7.38,11.361,7.38,18.531c0,2.719-0.399,5.35-1.149,7.83c-0.03,0.09-0.061,0.17-0.08,0.26
			c-0.14,0.449-0.3,0.891-0.47,1.33c0.02-0.02,0.05-0.029,0.069-0.029c-2.149,6.789-4.92,13.309-8.239,19.479
			c-2.48,2.631-4.841,5.371-7.07,8.23c-1.38,1.77-2.72,3.6-3.99,5.461c0.561,0.33,1.12,0.648,1.69,0.959
			c9.12,5.09,19.02,8.971,29.46,11.41c1.25,0.291,2.5,0.561,3.76,0.811c7.24,1.439,14.72,2.189,22.38,2.189
			c21.44,0,41.51-5.9,58.65-16.18c9.3,5.75,17.71,12.801,24.989,20.9h-170.189c0.82-1.861,1.7-3.701,2.62-5.5
			c3.45-6.74,7.54-13.09,12.21-18.971c0.899-1.141,1.819-2.26,2.78-3.369c1.3-1.531,2.649-3.031,4.029-4.49
			c0.03-0.031,0.061-0.061,0.09-0.09c0.99-1.041,1.92-2.131,2.811-3.271c5.13-6.6,8.41-14.719,9.05-23.568
			c0.01-0.131,0.021-0.262,0.03-0.391C-691.228,105.697-691.228,105.568-691.228,105.438z"/>
		<path fill="#F68628" d="M-714.777,101.758c-0.061,0.1-0.12,0.199-0.19,0.289c-3.12,4.842-6.6,9.422-10.41,13.711
			c-0.659,0.76-1.34,1.5-2.029,2.24c-0.04-0.029-0.09-0.061-0.13-0.1c-0.011,0-0.011-0.01-0.021-0.01
			c-0.01-0.012-0.01-0.012-0.02-0.021c-0.011-0.01-0.011-0.02-0.011-0.029c0.25-1.641,0.561-3.26,0.9-4.869
			c0.88-4.24,2-8.4,3.36-12.461c0.14-0.461,0.29-0.92,0.46-1.369c0.38-0.041,0.77-0.061,1.159-0.061
			C-719.037,99.078-716.598,100.098-714.777,101.758z"/>
		<path d="M-712.878,101.277c-0.54,0.27-1.109,0.5-1.699,0.67c-0.131,0.031-0.261,0.07-0.391,0.1c0.07-0.09,0.13-0.189,0.19-0.289
			c-1.82-1.66-4.26-2.68-6.931-2.68c-0.39,0-0.779,0.02-1.159,0.061c-0.17,0.449-0.32,0.908-0.46,1.369
			c-0.44-0.301-0.86-0.641-1.24-1.02c-0.891-0.84-1.62-1.83-2.15-2.941c2.221-2.408,4.7-4.561,7.4-6.42
			c1.75-1.199,3.59-2.289,5.52-3.209c-1.56,1.809-2.489,4.139-2.489,6.709c0,2.541,0.909,4.871,2.439,6.66
			C-713.548,100.648-713.228,100.979-712.878,101.277z"/>
	</g>
	<g>
		<path fill="#BCBEC0" d="M-884.162,144.578c17.141,10.279,37.21,16.18,58.65,16.18c7.66,0,15.14-0.75,22.38-2.189
			c-4.16,0.459-8.39,0.699-12.68,0.699c-22.891,0-44.2-6.719-62.08-18.299C-880.021,142.098-882.111,143.309-884.162,144.578z"/>
		<path fill="#FFFFFF" d="M-911.861,106.988c1.979,3.07,4.1,6.029,6.369,8.879c7.75,9.791,17.08,18.291,27.601,25.102
			c17.88,11.58,39.189,18.299,62.08,18.299c4.29,0,8.52-0.24,12.68-0.699c1.26-0.25,2.51-0.52,3.76-0.811
			c10.44-2.439,20.34-6.32,29.46-11.41c0.57-0.311,1.13-0.629,1.69-0.959c-1.271-1.861-2.61-3.691-3.99-5.461
			c-2.229-2.859-4.59-5.6-7.07-8.23c-8.649-9.18-18.8-16.92-30.06-22.83c-10.1-5.309-21.08-9.148-32.68-11.24
			c-6.63-1.199-13.471-1.83-20.45-1.83C-880.162,95.797-896.912,99.818-911.861,106.988z"/>
		<path fill="#FFFFFF" d="M-772.591,105.438c-0.01-0.09-0.01-0.18-0.01-0.27c0-3.68,1.93-6.91,4.83-8.74
			c1.59-1,3.47-1.58,5.479-1.58c3.21,0,6.07,1.461,7.96,3.75c0.92,1.109,2.08,2.029,3.391,2.68c0.35-0.299,0.67-0.629,0.97-0.99
			c1.53-1.789,2.439-4.119,2.439-6.66c0-2.57-0.93-4.9-2.489-6.709c1.93,0.92,3.77,2.01,5.52,3.209c2.7,1.859,5.18,4.012,7.4,6.42
			c0.54,0.58,1.06,1.182,1.569,1.801c-0.199-1.26-0.5-2.48-0.869-3.67c-1.631-5.141-4.75-9.611-8.851-12.891
			c-1.609-1.311-3.37-2.42-5.26-3.33c-3.311-1.58-6.99-2.51-10.89-2.609c-0.25-0.02-0.5-0.02-0.75-0.02
			c-0.351,0-0.7,0.01-1.051,0.029c-7.319,0.27-13.89,3.459-18.569,8.439c-4.58,4.83-7.38,11.361-7.38,18.531
			c0,2.719,0.399,5.35,1.149,7.83c0.03,0.09,0.061,0.17,0.08,0.26c0.14,0.449,0.3,0.891,0.47,1.33
			c-0.02-0.02-0.05-0.029-0.069-0.029c2.149,6.789,4.92,13.309,8.239,19.479c2.48,2.631,4.841,5.371,7.07,8.23
			c1.38,1.77,2.72,3.6,3.99,5.461c-0.561,0.33-1.12,0.648-1.69,0.959c-9.12,5.09-19.02,8.971-29.46,11.41
			c-1.25,0.291-2.5,0.561-3.76,0.811c-7.24,1.439-14.72,2.189-22.38,2.189c-21.44,0-41.51-5.9-58.65-16.18
			c-9.3,5.75-17.71,12.801-24.989,20.9h170.189c-0.82-1.861-1.7-3.701-2.62-5.5c-3.45-6.74-7.54-13.09-12.21-18.971
			c-0.899-1.141-1.819-2.26-2.78-3.369c-1.3-1.531-2.649-3.031-4.029-4.49c-0.03-0.031-0.061-0.061-0.09-0.09
			c-0.99-1.041-1.92-2.131-2.811-3.271c-5.13-6.6-8.41-14.719-9.05-23.568c-0.01-0.131-0.021-0.262-0.03-0.391
			C-772.591,105.697-772.591,105.568-772.591,105.438z"/>
		<path fill="#F68628" d="M-749.042,101.758c0.061,0.1,0.12,0.199,0.19,0.289c3.12,4.842,6.6,9.422,10.41,13.711
			c0.659,0.76,1.34,1.5,2.029,2.24c0.04-0.029,0.09-0.061,0.13-0.1c0.011,0,0.011-0.01,0.021-0.01c0.01-0.012,0.01-0.012,0.02-0.021
			c0.011-0.01,0.011-0.02,0.011-0.029c-0.25-1.641-0.561-3.26-0.9-4.869c-0.88-4.24-2-8.4-3.36-12.461
			c-0.14-0.461-0.29-0.92-0.46-1.369c-0.38-0.041-0.77-0.061-1.159-0.061C-744.782,99.078-747.221,100.098-749.042,101.758z"/>
		<path d="M-750.941,101.277c0.54,0.27,1.109,0.5,1.699,0.67c0.131,0.031,0.261,0.07,0.391,0.1c-0.07-0.09-0.13-0.189-0.19-0.289
			c1.82-1.66,4.26-2.68,6.931-2.68c0.39,0,0.779,0.02,1.159,0.061c0.17,0.449,0.32,0.908,0.46,1.369
			c0.44-0.301,0.86-0.641,1.24-1.02c0.891-0.84,1.62-1.83,2.15-2.941c-2.221-2.408-4.7-4.561-7.4-6.42
			c-1.75-1.199-3.59-2.289-5.52-3.209c1.56,1.809,2.489,4.139,2.489,6.709c0,2.541-0.909,4.871-2.439,6.66
			C-750.271,100.648-750.591,100.979-750.941,101.277z"/>
	</g>
	<g>
		<g>
			<g>
				<path fill="#BCBEC0" d="M129.893,100.993c-4.674,2.802-10.146,4.411-15.991,4.411c-2.089,0-4.128-0.204-6.103-0.597
					c1.134,0.125,2.289,0.19,3.457,0.19c6.242,0,12.051-1.831,16.927-4.989C128.764,100.317,129.333,100.647,129.893,100.993z"/>
				<path fill="#FFFFFF" d="M137.444,90.744c-0.54,0.837-1.118,1.645-1.736,2.422c-2.113,2.668-4.657,4.985-7.525,6.843
					c-4.875,3.158-10.685,4.989-16.927,4.989c-1.168,0-2.323-0.065-3.457-0.19c-0.343-0.067-0.684-0.142-1.024-0.221
					c-2.846-0.665-5.546-1.723-8.032-3.111c-0.155-0.084-0.308-0.172-0.461-0.262c0.347-0.508,0.712-1.007,1.087-1.489
					c0.609-0.779,1.252-1.526,1.928-2.244c2.358-2.502,5.126-4.612,8.196-6.223c2.753-1.448,5.747-2.495,8.91-3.065
					c1.807-0.328,3.672-0.499,5.575-0.499C128.801,87.693,133.368,88.789,137.444,90.744z"/>
				<path fill="#FFFFFF" d="M99.473,90.321c0.002-0.024,0.002-0.049,0.002-0.073c0-1.003-0.525-1.885-1.316-2.384
					c-0.434-0.272-0.947-0.43-1.495-0.43c-0.875,0-1.655,0.397-2.17,1.022c-0.25,0.303-0.567,0.554-0.925,0.73
					c-0.095-0.081-0.183-0.172-0.265-0.27c-0.417-0.488-0.665-1.125-0.665-1.816c0-0.701,0.253-1.336,0.679-1.829
					c-0.526,0.25-1.028,0.548-1.504,0.876c-0.737,0.506-1.413,1.093-2.018,1.749c-0.147,0.159-0.29,0.321-0.428,0.49
					c0.055-0.343,0.137-0.675,0.237-1c0.445-1.401,1.295-2.62,2.413-3.514c0.439-0.358,0.919-0.66,1.434-0.908
					c0.903-0.432,1.906-0.685,2.969-0.712c0.067-0.006,0.136-0.006,0.204-0.006c0.096,0,0.191,0.003,0.287,0.008
					c1.996,0.074,3.786,0.944,5.063,2.303c1.249,1.316,2.013,3.097,2.013,5.051c0,0.742-0.109,1.459-0.314,2.136
					c-0.008,0.024-0.017,0.047-0.021,0.071c-0.039,0.122-0.082,0.242-0.129,0.362c0.006-0.006,0.014-0.008,0.019-0.008
					c-0.586,1.851-1.342,3.628-2.247,5.31c-0.676,0.718-1.319,1.465-1.928,2.244c-0.375,0.482-0.74,0.981-1.087,1.489
					c0.153,0.09,0.306,0.178,0.461,0.262c2.486,1.389,5.186,2.446,8.032,3.111c0.34,0.079,0.682,0.153,1.024,0.221
					c1.975,0.393,4.014,0.597,6.103,0.597c5.846,0,11.317-1.609,15.991-4.411c2.536,1.568,4.829,3.489,6.813,5.698H90.304
					c0.224-0.508,0.463-1.009,0.715-1.499c0.94-1.839,2.056-3.569,3.329-5.173c0.245-0.312,0.496-0.616,0.758-0.919
					c0.354-0.417,0.722-0.826,1.099-1.224c0.008-0.009,0.015-0.017,0.024-0.024c0.269-0.284,0.523-0.581,0.766-0.892
					c1.398-1.8,2.293-4.014,2.467-6.427c0.002-0.035,0.006-0.071,0.009-0.106C99.473,90.393,99.473,90.357,99.473,90.321z"/>
				<path fill="#F68628" d="M93.052,89.318c-0.017,0.027-0.033,0.054-0.052,0.08c-0.851,1.318-1.799,2.567-2.838,3.737
					c-0.18,0.207-0.365,0.409-0.553,0.61c-0.011-0.008-0.024-0.017-0.036-0.027c-0.002,0-0.002-0.002-0.005-0.002
					c-0.002-0.004-0.002-0.004-0.004-0.007c-0.003-0.002-0.003-0.005-0.003-0.008c0.067-0.446,0.153-0.888,0.245-1.327
					c0.241-1.156,0.545-2.291,0.917-3.397c0.038-0.125,0.079-0.251,0.125-0.374c0.104-0.011,0.21-0.016,0.316-0.016
					C91.89,88.588,92.556,88.865,93.052,89.318z"/>
				<path d="M93.57,89.188c-0.147,0.074-0.303,0.136-0.463,0.183c-0.036,0.008-0.071,0.019-0.106,0.028
					c0.019-0.026,0.036-0.053,0.052-0.08c-0.497-0.453-1.162-0.73-1.89-0.73c-0.106,0-0.212,0.005-0.316,0.016
					c-0.046,0.123-0.087,0.249-0.125,0.374c-0.121-0.082-0.235-0.174-0.338-0.278c-0.243-0.229-0.442-0.499-0.586-0.802
					c0.605-0.656,1.281-1.243,2.018-1.749c0.477-0.328,0.978-0.626,1.504-0.876c-0.426,0.493-0.679,1.128-0.679,1.829
					c0,0.691,0.248,1.328,0.665,1.816C93.387,89.016,93.475,89.106,93.57,89.188z"/>
			</g>
			<g>
				<g>
					
						<circle fill="none" stroke="#FFFFFF" stroke-width="0.3" stroke-miterlimit="10" stroke-dasharray="2.0402,2.0402,2.0402,2.0402,2.0402,2.0402" cx="124.059" cy="118.872" r="31.18"/>
				</g>
				<g>
					
						<circle fill="none" stroke="#FFFFFF" stroke-width="0.3" stroke-miterlimit="10" stroke-dasharray="2.0402,2.0402,2.0402,2.0402,2.0402,2.0402" cx="113.587" cy="127.524" r="31.18"/>
				</g>
				<g>
					
						<circle fill="none" stroke="#FFFFFF" stroke-width="0.3" stroke-miterlimit="10" stroke-dasharray="2.0402,2.0402,2.0402,2.0402,2.0402,2.0402" cx="111.338" cy="73.817" r="31.18"/>
				</g>
				<g>
					
						<circle fill="none" stroke="#FFFFFF" stroke-width="0.3" stroke-miterlimit="10" stroke-dasharray="2.0402,2.0402,2.0402,2.0402,2.0402,2.0402" cx="73.895" cy="82.743" r="31.179"/>
				</g>
				<g>
					
						<circle fill="none" stroke="#FFFFFF" stroke-width="0.3" stroke-miterlimit="10" stroke-dasharray="2.0402,2.0402,2.0402,2.0402,2.0402,2.0402" cx="66.887" cy="72.477" r="31.18"/>
				</g>
				<g>
					
						<circle fill="none" stroke="#FFFFFF" stroke-width="0.3" stroke-miterlimit="10" stroke-dasharray="2.0402,2.0402,2.0402,2.0402,2.0402,2.0402" cx="120.402" cy="98.789" r="31.18"/>
				</g>
				<g>
					
						<circle fill="none" stroke="#FFFFFF" stroke-width="0.3" stroke-miterlimit="10" stroke-dasharray="2.0402,2.0402,2.0402,2.0402,2.0402,2.0402" cx="118.879" cy="119.367" r="31.179"/>
				</g>
				<g>
					
						<circle fill="none" stroke="#FFFFFF" stroke-width="0.3" stroke-miterlimit="10" stroke-dasharray="2.0402,2.0402,2.0402,2.0402,2.0402,2.0402" cx="113.984" cy="74.223" r="31.18"/>
				</g>
				<g>
					
						<circle fill="none" stroke="#FFFFFF" stroke-width="0.3" stroke-miterlimit="10" stroke-dasharray="2.0782,2.0782,2.0782,2.0782,2.0782,2.0782" cx="87.665" cy="89.66" r="11.91"/>
				</g>
				<g>
					
						<circle fill="none" stroke="#FFFFFF" stroke-width="0.3" stroke-miterlimit="10" stroke-dasharray="2.0781,2.0781,2.0781,2.0781,2.0781,2.0781" cx="98.635" cy="95.971" r="11.91"/>
				</g>
				<g>
					
						<circle fill="none" stroke="#FFFFFF" stroke-width="0.3" stroke-miterlimit="10" stroke-dasharray="1.9249,1.9249,1.9249,1.9249,1.9249,1.9249" cx="96.708" cy="89.609" r="7.361"/>
				</g>
				<g>
					
						<circle fill="none" stroke="#FFFFFF" stroke-width="0.3" stroke-miterlimit="10" stroke-dasharray="1.4701,1.4701,1.4701,1.4701,1.4701,1.4701" cx="96.744" cy="90.247" r="2.812"/>
				</g>
				<g>
					
						<circle fill="none" stroke="#FFFFFF" stroke-width="0.3" stroke-miterlimit="10" stroke-dasharray="1.4702,1.4702,1.4702,1.4702,1.4702,1.4702" cx="91.243" cy="91.399" r="2.813"/>
				</g>
				<g>
					
						<circle fill="none" stroke="#FFFFFF" stroke-width="0.3" stroke-miterlimit="10" stroke-dasharray="1.4701,1.4701,1.4701,1.4701,1.4701,1.4701" cx="92.405" cy="86.667" r="2.812"/>
				</g>
				<g>
					
						<circle fill="none" stroke="#FFFFFF" stroke-width="0.3" stroke-miterlimit="10" stroke-dasharray="1.4701,1.4701,1.4701,1.4701,1.4701,1.4701" cx="95.532" cy="87.102" r="2.812"/>
				</g>
			</g>
			<g>
				<path fill="#BCBEC0" d="M46.5,100.993c4.673,2.802,10.145,4.411,15.991,4.411c2.087,0,4.128-0.204,6.102-0.597
					c-1.134,0.125-2.288,0.19-3.458,0.19c-6.241,0-12.051-1.831-16.925-4.989C47.629,100.317,47.059,100.647,46.5,100.993z"/>
				<path fill="#FFFFFF" d="M38.948,90.744c0.539,0.837,1.118,1.645,1.736,2.422c2.112,2.668,4.657,4.985,7.525,6.843
					c4.874,3.158,10.684,4.989,16.925,4.989c1.17,0,2.323-0.065,3.458-0.19c0.344-0.067,0.684-0.142,1.024-0.221
					c2.847-0.665,5.546-1.723,8.033-3.111c0.155-0.084,0.307-0.172,0.46-0.262c-0.346-0.508-0.712-1.007-1.088-1.489
					c-0.607-0.779-1.25-1.526-1.927-2.244c-2.358-2.502-5.126-4.612-8.196-6.223c-2.754-1.448-5.748-2.495-8.91-3.065
					c-1.807-0.328-3.672-0.499-5.576-0.499C47.59,87.693,43.024,88.789,38.948,90.744z"/>
				<path fill="#FFFFFF" d="M76.919,90.321c-0.003-0.024-0.003-0.049-0.003-0.073c0-1.003,0.527-1.885,1.317-2.384
					c0.434-0.272,0.946-0.43,1.494-0.43c0.876,0,1.655,0.397,2.171,1.022c0.25,0.303,0.566,0.554,0.925,0.73
					c0.095-0.081,0.182-0.172,0.264-0.27c0.417-0.488,0.666-1.125,0.666-1.816c0-0.701-0.254-1.336-0.679-1.829
					c0.525,0.25,1.028,0.548,1.504,0.876c0.736,0.506,1.413,1.093,2.018,1.749c0.147,0.159,0.289,0.321,0.428,0.49
					c-0.055-0.343-0.137-0.675-0.237-1c-0.445-1.401-1.295-2.62-2.413-3.514c-0.439-0.358-0.919-0.66-1.435-0.908
					c-0.902-0.432-1.906-0.685-2.969-0.712c-0.067-0.006-0.136-0.006-0.204-0.006c-0.095,0-0.19,0.003-0.286,0.008
					c-1.996,0.074-3.788,0.944-5.063,2.303c-1.249,1.316-2.011,3.097-2.011,5.051c0,0.742,0.108,1.459,0.313,2.136
					c0.009,0.024,0.017,0.047,0.022,0.071c0.038,0.122,0.082,0.242,0.129,0.362c-0.006-0.006-0.015-0.008-0.019-0.008
					c0.585,1.851,1.34,3.628,2.247,5.31c0.676,0.718,1.319,1.465,1.927,2.244c0.376,0.482,0.742,0.981,1.088,1.489
					c-0.153,0.09-0.305,0.178-0.46,0.262c-2.487,1.389-5.186,2.446-8.033,3.111c-0.34,0.079-0.681,0.153-1.024,0.221
					c-1.974,0.393-4.014,0.597-6.102,0.597c-5.846,0-11.317-1.609-15.991-4.411c-2.536,1.568-4.829,3.489-6.813,5.698h46.401
					c-0.223-0.508-0.463-1.009-0.714-1.499c-0.94-1.839-2.056-3.569-3.329-5.173c-0.246-0.312-0.497-0.616-0.758-0.919
					c-0.355-0.417-0.723-0.826-1.099-1.224c-0.007-0.009-0.017-0.017-0.024-0.024c-0.269-0.284-0.523-0.581-0.766-0.892
					c-1.398-1.8-2.293-4.014-2.467-6.427c-0.003-0.035-0.006-0.071-0.009-0.106C76.919,90.393,76.919,90.357,76.919,90.321z"/>
				<path fill="#F68628" d="M83.34,89.318c0.017,0.027,0.032,0.054,0.051,0.08c0.852,1.318,1.799,2.567,2.838,3.737
					c0.18,0.207,0.366,0.409,0.553,0.61c0.011-0.008,0.024-0.017,0.036-0.027c0.003,0,0.003-0.002,0.005-0.002
					c0.003-0.004,0.003-0.004,0.005-0.007c0.003-0.002,0.003-0.005,0.003-0.008c-0.069-0.446-0.153-0.888-0.246-1.327
					c-0.239-1.156-0.544-2.291-0.916-3.397c-0.038-0.125-0.079-0.251-0.125-0.374c-0.104-0.011-0.209-0.016-0.316-0.016
					C84.501,88.588,83.836,88.865,83.34,89.318z"/>
				<path d="M82.823,89.188c0.146,0.074,0.301,0.136,0.462,0.183c0.037,0.008,0.072,0.019,0.106,0.028
					c-0.019-0.026-0.035-0.053-0.051-0.08c0.496-0.453,1.161-0.73,1.89-0.73c0.106,0,0.211,0.005,0.316,0.016
					c0.046,0.123,0.087,0.249,0.125,0.374c0.12-0.082,0.235-0.174,0.338-0.278c0.243-0.229,0.441-0.499,0.586-0.802
					c-0.605-0.656-1.282-1.243-2.018-1.749c-0.477-0.328-0.979-0.626-1.504-0.876c0.425,0.493,0.679,1.128,0.679,1.829
					c0,0.691-0.249,1.328-0.666,1.816C83.004,89.016,82.918,89.106,82.823,89.188z"/>
			</g>
			<g>
				<g>
					
						<circle fill="none" stroke="#FFFFFF" stroke-width="0.3" stroke-miterlimit="10" stroke-dasharray="2.0402,2.0402,2.0402,2.0402,2.0402,2.0402" cx="52.332" cy="118.872" r="31.18"/>
				</g>
				<g>
					
						<circle fill="none" stroke="#FFFFFF" stroke-width="0.3" stroke-miterlimit="10" stroke-dasharray="2.0402,2.0402,2.0402,2.0402,2.0402,2.0402" cx="62.806" cy="127.524" r="31.18"/>
				</g>
				<g>
					
						<circle fill="none" stroke="#FFFFFF" stroke-width="0.3" stroke-miterlimit="10" stroke-dasharray="2.0402,2.0402,2.0402,2.0402,2.0402,2.0402" cx="65.053" cy="73.817" r="31.18"/>
				</g>
				<g>
					
						<circle fill="none" stroke="#FFFFFF" stroke-width="0.3" stroke-miterlimit="10" stroke-dasharray="2.0402,2.0402,2.0402,2.0402,2.0402,2.0402" cx="102.497" cy="82.743" r="31.18"/>
				</g>
				<g>
					
						<circle fill="none" stroke="#FFFFFF" stroke-width="0.3" stroke-miterlimit="10" stroke-dasharray="2.0402,2.0402,2.0402,2.0402,2.0402,2.0402" cx="109.505" cy="72.477" r="31.179"/>
				</g>
				<g>
					
						<circle fill="none" stroke="#FFFFFF" stroke-width="0.3" stroke-miterlimit="10" stroke-dasharray="2.0402,2.0402,2.0402,2.0402,2.0402,2.0402" cx="55.99" cy="98.789" r="31.179"/>
				</g>
				<g>
					
						<circle fill="none" stroke="#FFFFFF" stroke-width="0.3" stroke-miterlimit="10" stroke-dasharray="2.0402,2.0402,2.0402,2.0402,2.0402,2.0402" cx="57.512" cy="119.367" r="31.18"/>
				</g>
				<g>
					
						<circle fill="none" stroke="#FFFFFF" stroke-width="0.3" stroke-miterlimit="10" stroke-dasharray="2.0402,2.0402,2.0402,2.0402,2.0402,2.0402" cx="62.409" cy="74.223" r="31.18"/>
				</g>
				<g>
					
						<circle fill="none" stroke="#FFFFFF" stroke-width="0.3" stroke-miterlimit="10" stroke-dasharray="2.0783,2.0783,2.0783,2.0783,2.0783,2.0783" cx="88.728" cy="89.66" r="11.911"/>
				</g>
				<g>
					
						<circle fill="none" stroke="#FFFFFF" stroke-width="0.3" stroke-miterlimit="10" stroke-dasharray="2.0782,2.0782,2.0782,2.0782,2.0782,2.0782" cx="77.758" cy="95.971" r="11.91"/>
				</g>
				<g>
					
						<circle fill="none" stroke="#FFFFFF" stroke-width="0.3" stroke-miterlimit="10" stroke-dasharray="1.9248,1.9248,1.9248,1.9248,1.9248,1.9248" cx="79.684" cy="89.609" r="7.361"/>
				</g>
				<g>
					
						<circle fill="none" stroke="#FFFFFF" stroke-width="0.3" stroke-miterlimit="10" stroke-dasharray="1.4701,1.4701,1.4701,1.4701,1.4701,1.4701" cx="79.647" cy="90.247" r="2.812"/>
				</g>
				<g>
					
						<circle fill="none" stroke="#FFFFFF" stroke-width="0.3" stroke-miterlimit="10" stroke-dasharray="1.4701,1.4701,1.4701,1.4701,1.4701,1.4701" cx="85.149" cy="91.399" r="2.812"/>
				</g>
				<g>
					
						<circle fill="none" stroke="#FFFFFF" stroke-width="0.3" stroke-miterlimit="10" stroke-dasharray="1.47,1.47,1.47,1.47,1.47,1.47" cx="83.988" cy="86.667" r="2.812"/>
				</g>
				<g>
					
						<circle fill="none" stroke="#FFFFFF" stroke-width="0.3" stroke-miterlimit="10" stroke-dasharray="1.4701,1.4701,1.4701,1.4701,1.4701,1.4701" cx="80.86" cy="87.102" r="2.812"/>
				</g>
			</g>
		</g>
		<g>
			<g>
				<path fill="#BCBEC0" d="M271.294,106.524c-4.673,2.801-10.145,4.41-15.99,4.41c-2.088,0-4.128-0.204-6.102-0.597
					c1.134,0.125,2.287,0.191,3.457,0.191c6.241,0,12.052-1.832,16.926-4.99C270.166,105.848,270.735,106.178,271.294,106.524z"/>
				<path fill="#FFFFFF" d="M278.848,96.274c-0.54,0.836-1.119,1.644-1.737,2.422c-2.112,2.667-4.657,4.987-7.525,6.843
					c-4.874,3.158-10.685,4.99-16.926,4.99c-1.17,0-2.323-0.066-3.457-0.191c-0.344-0.068-0.685-0.142-1.025-0.222
					c-2.847-0.665-5.545-1.723-8.032-3.111c-0.155-0.084-0.309-0.171-0.46-0.262c0.346-0.508,0.711-1.007,1.088-1.487
					c0.607-0.781,1.25-1.528,1.927-2.244c2.358-2.504,5.126-4.613,8.196-6.225c2.754-1.448,5.748-2.495,8.91-3.064
					c1.807-0.326,3.672-0.5,5.576-0.5C270.204,93.223,274.771,94.318,278.848,96.274z"/>
				<path fill="#FFFFFF" d="M240.875,95.851c0.004-0.024,0.004-0.048,0.004-0.073c0-1.002-0.527-1.882-1.317-2.381
					c-0.434-0.273-0.946-0.433-1.494-0.433c-0.876,0-1.655,0.399-2.171,1.022c-0.25,0.304-0.566,0.554-0.925,0.731
					c-0.094-0.082-0.182-0.173-0.264-0.271c-0.417-0.488-0.665-1.122-0.665-1.816c0-0.7,0.254-1.335,0.679-1.829
					c-0.525,0.251-1.028,0.548-1.505,0.876c-0.736,0.506-1.412,1.093-2.018,1.75c-0.147,0.159-0.288,0.321-0.429,0.492
					c0.055-0.344,0.137-0.677,0.237-1.003c0.445-1.401,1.296-2.619,2.413-3.513c0.439-0.359,0.919-0.66,1.435-0.909
					c0.902-0.43,1.906-0.685,2.97-0.712c0.067-0.004,0.135-0.004,0.204-0.004c0.095,0,0.19,0.002,0.286,0.007
					c1.995,0.075,3.787,0.944,5.063,2.302c1.249,1.316,2.012,3.098,2.012,5.051c0,0.743-0.108,1.46-0.313,2.136
					c-0.009,0.024-0.017,0.047-0.021,0.071c-0.038,0.122-0.082,0.244-0.129,0.363c0.006-0.006,0.015-0.009,0.019-0.009
					c-0.585,1.852-1.34,3.628-2.246,5.312c-0.677,0.716-1.319,1.463-1.927,2.244c-0.377,0.48-0.742,0.979-1.088,1.487
					c0.151,0.091,0.305,0.178,0.46,0.262c2.487,1.389,5.186,2.446,8.032,3.111c0.341,0.08,0.682,0.153,1.025,0.222
					c1.974,0.393,4.014,0.597,6.102,0.597c5.846,0,11.317-1.609,15.99-4.41c2.536,1.567,4.829,3.487,6.813,5.696h-46.4
					c0.223-0.508,0.463-1.009,0.714-1.499c0.94-1.838,2.056-3.567,3.328-5.171c0.246-0.313,0.497-0.617,0.759-0.921
					c0.354-0.417,0.723-0.824,1.099-1.224c0.008-0.007,0.017-0.016,0.024-0.024c0.27-0.284,0.523-0.581,0.767-0.892
					c1.398-1.799,2.293-4.014,2.467-6.427c0.003-0.035,0.006-0.07,0.009-0.106C240.875,95.922,240.875,95.887,240.875,95.851z"/>
				<path fill="#F68628" d="M234.454,94.849c-0.016,0.026-0.032,0.054-0.051,0.077c-0.852,1.322-1.8,2.57-2.839,3.739
					c-0.18,0.208-0.365,0.41-0.553,0.612c-0.012-0.009-0.024-0.018-0.036-0.029c-0.003,0-0.003-0.002-0.005-0.002
					c-0.004-0.002-0.004-0.002-0.006-0.005c-0.003-0.004-0.003-0.006-0.003-0.009c0.068-0.447,0.152-0.889,0.246-1.328
					c0.239-1.155,0.545-2.291,0.916-3.397c0.037-0.124,0.078-0.25,0.125-0.372c0.104-0.012,0.209-0.018,0.316-0.018
					C233.293,94.117,233.959,94.396,234.454,94.849z"/>
				<path d="M234.972,94.718c-0.146,0.073-0.301,0.136-0.462,0.182c-0.036,0.009-0.071,0.021-0.106,0.026
					c0.019-0.023,0.035-0.051,0.051-0.077c-0.495-0.452-1.161-0.731-1.889-0.731c-0.107,0-0.213,0.006-0.316,0.018
					c-0.047,0.122-0.088,0.248-0.125,0.372c-0.12-0.082-0.235-0.175-0.339-0.276c-0.242-0.229-0.441-0.5-0.586-0.803
					c0.605-0.657,1.281-1.244,2.018-1.75c0.477-0.328,0.979-0.625,1.505-0.876c-0.425,0.494-0.679,1.129-0.679,1.829
					c0,0.694,0.248,1.328,0.665,1.816C234.79,94.545,234.878,94.636,234.972,94.718z"/>
			</g>
			<g>
				<path fill="#BCBEC0" d="M188.272,106.524c4.674,2.801,10.146,4.41,15.991,4.41c2.089,0,4.128-0.204,6.102-0.597
					c-1.135,0.125-2.288,0.191-3.457,0.191c-6.241,0-12.051-1.832-16.926-4.99C189.401,105.848,188.831,106.178,188.272,106.524z"/>
				<path fill="#FFFFFF" d="M180.721,96.274c0.539,0.836,1.118,1.644,1.736,2.422c2.113,2.667,4.657,4.987,7.525,6.843
					c4.875,3.158,10.685,4.99,16.926,4.99c1.169,0,2.322-0.066,3.457-0.191c0.344-0.068,0.684-0.142,1.025-0.222
					c2.847-0.665,5.545-1.723,8.032-3.111c0.155-0.084,0.308-0.171,0.46-0.262c-0.346-0.508-0.711-1.007-1.088-1.487
					c-0.607-0.781-1.251-1.528-1.927-2.244c-2.358-2.504-5.126-4.613-8.196-6.225c-2.753-1.448-5.747-2.495-8.91-3.064
					c-1.808-0.326-3.672-0.5-5.576-0.5C189.363,93.223,184.797,94.318,180.721,96.274z"/>
				<path fill="#FFFFFF" d="M218.692,95.851c-0.003-0.024-0.003-0.048-0.003-0.073c0-1.002,0.525-1.882,1.316-2.381
					c0.434-0.273,0.945-0.433,1.494-0.433c0.875,0,1.654,0.399,2.17,1.022c0.251,0.304,0.568,0.554,0.925,0.731
					c0.096-0.082,0.184-0.173,0.265-0.271c0.418-0.488,0.665-1.122,0.665-1.816c0-0.7-0.254-1.335-0.679-1.829
					c0.526,0.251,1.027,0.548,1.505,0.876c0.736,0.506,1.412,1.093,2.018,1.75c0.147,0.159,0.288,0.321,0.428,0.492
					c-0.054-0.344-0.136-0.677-0.237-1.003c-0.444-1.401-1.295-2.619-2.412-3.513c-0.439-0.359-0.919-0.66-1.434-0.909
					c-0.903-0.43-1.906-0.685-2.97-0.712c-0.068-0.004-0.137-0.004-0.205-0.004c-0.096,0-0.19,0.002-0.286,0.007
					c-1.996,0.075-3.786,0.944-5.063,2.302c-1.248,1.316-2.013,3.098-2.013,5.051c0,0.743,0.109,1.46,0.314,2.136
					c0.008,0.024,0.017,0.047,0.021,0.071c0.039,0.122,0.082,0.244,0.129,0.363c-0.006-0.006-0.014-0.009-0.019-0.009
					c0.585,1.852,1.341,3.628,2.246,5.312c0.676,0.716,1.319,1.463,1.927,2.244c0.377,0.48,0.742,0.979,1.088,1.487
					c-0.152,0.091-0.305,0.178-0.46,0.262c-2.487,1.389-5.186,2.446-8.032,3.111c-0.342,0.08-0.682,0.153-1.025,0.222
					c-1.974,0.393-4.013,0.597-6.102,0.597c-5.846,0-11.317-1.609-15.991-4.41c-2.535,1.567-4.828,3.487-6.813,5.696h46.401
					c-0.223-0.508-0.462-1.009-0.714-1.499c-0.94-1.838-2.056-3.567-3.329-5.171c-0.244-0.313-0.495-0.617-0.758-0.921
					c-0.355-0.417-0.722-0.824-1.099-1.224c-0.008-0.007-0.016-0.016-0.024-0.024c-0.27-0.284-0.523-0.581-0.767-0.892
					c-1.398-1.799-2.293-4.014-2.467-6.427c-0.003-0.035-0.006-0.07-0.009-0.106C218.692,95.922,218.692,95.887,218.692,95.851z"/>
				<path fill="#F68628" d="M225.113,94.849c0.017,0.026,0.032,0.054,0.052,0.077c0.851,1.322,1.8,2.57,2.838,3.739
					c0.18,0.208,0.365,0.41,0.554,0.612c0.01-0.009,0.024-0.018,0.034-0.029c0.004,0,0.004-0.002,0.007-0.002
					c0.002-0.002,0.002-0.002,0.005-0.005c0.003-0.004,0.003-0.006,0.003-0.009c-0.068-0.447-0.153-0.889-0.246-1.328
					c-0.239-1.155-0.544-2.291-0.916-3.397c-0.037-0.124-0.078-0.25-0.125-0.372c-0.104-0.012-0.21-0.018-0.316-0.018
					C226.273,94.117,225.608,94.396,225.113,94.849z"/>
				<path d="M224.595,94.718c0.146,0.073,0.303,0.136,0.464,0.182c0.035,0.009,0.071,0.021,0.106,0.026
					c-0.02-0.023-0.035-0.051-0.052-0.077c0.495-0.452,1.16-0.731,1.889-0.731c0.106,0,0.213,0.006,0.316,0.018
					c0.047,0.122,0.088,0.248,0.125,0.372c0.12-0.082,0.235-0.175,0.338-0.276c0.243-0.229,0.441-0.5,0.587-0.803
					c-0.605-0.657-1.281-1.244-2.018-1.75c-0.478-0.328-0.979-0.625-1.505-0.876c0.425,0.494,0.679,1.129,0.679,1.829
					c0,0.694-0.247,1.328-0.665,1.816C224.778,94.545,224.69,94.636,224.595,94.718z"/>
			</g>
		</g>
	</g>
</g>
</svg>
