<?xml version="1.0" encoding="utf-8"?>
<!-- Generator: Adobe Illustrator 16.0.0, SVG Export Plug-In . SVG Version: 6.00 Build 0)  -->
<!DOCTYPE svg PUBLIC "-//W3C//DTD SVG 1.1//EN" "http://www.w3.org/Graphics/SVG/1.1/DTD/svg11.dtd">
<svg version="1.1" xmlns="http://www.w3.org/2000/svg" xmlns:xlink="http://www.w3.org/1999/xlink" x="0px" y="0px" width="300px"
	 height="200px" viewBox="0 0 300 200" enable-background="new 0 0 300 200" xml:space="preserve">
<g id="illustration-1">
	<g id="background">
	</g>
	<g id="Calque_5">
	</g>
	<g id="Calque_6">
	</g>
	<g id="planete-1">
	</g>
	<g id="astronaute">
	</g>
	<g id="space-station">
	</g>
</g>
<g id="Illustration-2">
	<linearGradient id="SVGID_1_" gradientUnits="userSpaceOnUse" x1="-27.373" y1="-2.4067" x2="327.3726" y2="202.4058">
		<stop  offset="0" style="stop-color:#3C0E2F"/>
		<stop  offset="1" style="stop-color:#180B3D"/>
	</linearGradient>
	<rect x="-24.389" y="-7.576" fill="url(#SVGID_1_)" width="348.777" height="215.15"/>
	<path fill="#C4C4C3" d="M200.258,167.948c0,0,1.916-0.729,2.088-1.407s16.6,1.251,17.016,1.418c0.416,0.166,0.52,2.375,1.93,2.575
		c-0.234,1.5-0.063,2.931-0.063,2.931l-22.437-2.595L200.258,167.948z"/>
	<path fill="#C4C4C3" d="M0.739,186.832c0,0,13.857-8.433,14.84-9.03c0.983-0.599,15.361-3.115,17.808-3.841
		c2.447-0.725,4.985,1.859,12.385,1.873C53.171,175.848,0.739,186.832,0.739,186.832z"/>
	<path fill="#C4C4C3" d="M81.891,171.911c0,0,12.337-5.326,13.213-5.704c0.875-0.378,12.959-0.791,15.049-1.105
		c2.091-0.313,3.877,2.099,9.945,2.96C126.166,168.921,81.891,171.911,81.891,171.911z"/>
	<radialGradient id="SVGID_2_" cx="37.2715" cy="7.8237" r="8.6084" gradientUnits="userSpaceOnUse">
		<stop  offset="0" style="stop-color:#D10263;stop-opacity:0.95"/>
		<stop  offset="0.4529" style="stop-color:#E90279;stop-opacity:0.6512"/>
		<stop  offset="0.5293" style="stop-color:#E9017C;stop-opacity:0.5603"/>
		<stop  offset="0.779" style="stop-color:#EC0082;stop-opacity:0.263"/>
		<stop  offset="1" style="stop-color:#EC0085;stop-opacity:0"/>
	</radialGradient>
	<circle display="none" fill="url(#SVGID_2_)" cx="37.271" cy="7.825" r="8.608"/>
	<radialGradient id="SVGID_3_" cx="67.4463" cy="89.2183" r="3.6084" gradientUnits="userSpaceOnUse">
		<stop  offset="0" style="stop-color:#D10263;stop-opacity:0.95"/>
		<stop  offset="0.4529" style="stop-color:#E90279;stop-opacity:0.6512"/>
		<stop  offset="0.5293" style="stop-color:#E9017C;stop-opacity:0.5603"/>
		<stop  offset="0.779" style="stop-color:#EC0082;stop-opacity:0.263"/>
		<stop  offset="1" style="stop-color:#EC0085;stop-opacity:0"/>
	</radialGradient>
	<circle display="none" fill="url(#SVGID_3_)" cx="67.446" cy="89.219" r="3.608"/>
	<radialGradient id="SVGID_4_" cx="270.2715" cy="159.2593" r="3.6084" gradientUnits="userSpaceOnUse">
		<stop  offset="0" style="stop-color:#D10263;stop-opacity:0.95"/>
		<stop  offset="0.4529" style="stop-color:#E90279;stop-opacity:0.6512"/>
		<stop  offset="0.5293" style="stop-color:#E9017C;stop-opacity:0.5603"/>
		<stop  offset="0.779" style="stop-color:#EC0082;stop-opacity:0.263"/>
		<stop  offset="1" style="stop-color:#EC0085;stop-opacity:0"/>
	</radialGradient>
	<circle display="none" fill="url(#SVGID_4_)" cx="270.271" cy="159.26" r="3.608"/>
	<radialGradient id="SVGID_5_" cx="155.2715" cy="52.437" r="6.3584" gradientUnits="userSpaceOnUse">
		<stop  offset="0" style="stop-color:#D10263;stop-opacity:0.95"/>
		<stop  offset="0.4529" style="stop-color:#E90279;stop-opacity:0.6512"/>
		<stop  offset="0.5293" style="stop-color:#E9017C;stop-opacity:0.5603"/>
		<stop  offset="0.779" style="stop-color:#EC0082;stop-opacity:0.263"/>
		<stop  offset="1" style="stop-color:#EC0085;stop-opacity:0"/>
	</radialGradient>
	<circle display="none" fill="url(#SVGID_5_)" cx="155.271" cy="52.438" r="6.358"/>
	<radialGradient id="SVGID_6_" cx="273.8799" cy="92.2437" r="3.6084" gradientUnits="userSpaceOnUse">
		<stop  offset="0" style="stop-color:#D10263;stop-opacity:0.95"/>
		<stop  offset="0.4529" style="stop-color:#E90279;stop-opacity:0.6512"/>
		<stop  offset="0.5293" style="stop-color:#E9017C;stop-opacity:0.5603"/>
		<stop  offset="0.779" style="stop-color:#EC0082;stop-opacity:0.263"/>
		<stop  offset="1" style="stop-color:#EC0085;stop-opacity:0"/>
	</radialGradient>
	<circle display="none" fill="url(#SVGID_6_)" cx="273.88" cy="92.243" r="3.608"/>
	<radialGradient id="SVGID_7_" cx="199.4463" cy="82.6265" r="3.6084" gradientUnits="userSpaceOnUse">
		<stop  offset="0" style="stop-color:#D10263;stop-opacity:0.95"/>
		<stop  offset="0.4529" style="stop-color:#E90279;stop-opacity:0.6512"/>
		<stop  offset="0.5293" style="stop-color:#E9017C;stop-opacity:0.5603"/>
		<stop  offset="0.779" style="stop-color:#EC0082;stop-opacity:0.263"/>
		<stop  offset="1" style="stop-color:#EC0085;stop-opacity:0"/>
	</radialGradient>
	<circle display="none" fill="url(#SVGID_7_)" cx="199.446" cy="82.625" r="3.608"/>
	<radialGradient id="SVGID_8_" cx="227.2715" cy="39.4116" r="3.6084" gradientUnits="userSpaceOnUse">
		<stop  offset="0" style="stop-color:#D10263;stop-opacity:0.95"/>
		<stop  offset="0.4529" style="stop-color:#E90279;stop-opacity:0.6512"/>
		<stop  offset="0.5293" style="stop-color:#E9017C;stop-opacity:0.5603"/>
		<stop  offset="0.779" style="stop-color:#EC0082;stop-opacity:0.263"/>
		<stop  offset="1" style="stop-color:#EC0085;stop-opacity:0"/>
	</radialGradient>
	<circle display="none" fill="url(#SVGID_8_)" cx="227.271" cy="39.411" r="3.608"/>
	<g>
		<g>
			<g>
				<circle id="planete_1_" fill="#6D6E71" cx="228.585" cy="67.32" r="4.017"/>
				<path fill="#58595B" d="M232.602,67.319c0,2.219-1.798,4.017-4.018,4.017c-0.592,0-1.15-0.126-1.654-0.357
					c0.029-1.067,0.384-3.317,1.734-2.824c1.726,0.629,2.592-0.696,3.164-1.345c0.571-0.649-0.638-1.837-0.844-2.018
					c-0.209-0.183-0.938-0.414-0.96,0.814c-0.026,1.226-2.37,0.521-3.341,0.532c-0.973,0.014-0.924,1.143-1.289,1.763
					c-0.196,0.336-0.514,0.276-0.76,0.148c-0.045-0.237-0.067-0.482-0.067-0.731c0-2.218,1.799-4.016,4.017-4.016
					C230.804,63.303,232.602,65.101,232.602,67.319z"/>
				<path fill="#414042" d="M229.094,70.712c-2.218,0-4.017-1.799-4.017-4.017c0-0.821,0.247-1.584,0.67-2.22
					c-0.729,0.727-1.179,1.732-1.179,2.844c0,2.218,1.797,4.016,4.016,4.016c1.397,0,2.627-0.714,3.347-1.797
					C231.204,70.264,230.201,70.712,229.094,70.712z"/>
			</g>
			<g>
				<path opacity="0.3" fill="#FFFFFF" d="M229.622,66.497c0,0,0.81,2.024,1.717,1.539c0.906-0.486,0.664-1.927,0.502-2.316
					c-0.161-0.389-1.296-1.733-2.073-1.328C228.99,64.796,229.347,65.735,229.622,66.497z"/>
				<path opacity="0.8" fill="#FFFFFF" d="M230.537,65.84c0,0,0.264,0.718,0.56,0.546c0.295-0.172,0.217-0.684,0.164-0.822
					s-0.423-0.615-0.677-0.471C230.33,65.237,230.447,65.57,230.537,65.84z"/>
				<circle opacity="0.8" fill="#FFFFFF" cx="231.226" cy="66.938" r="0.243"/>
			</g>
		</g>
		<g id="halo_1_">
			<g>
				<path fill="#F3ECAD" d="M225.298,64.163c0,0,0.118-0.113,0.323-0.311c0.214-0.19,0.515-0.466,0.924-0.748
					c0.21-0.133,0.426-0.299,0.766-0.332c0.084-0.006,0.201,0.019,0.285,0.122c0.021,0.017,0.051,0.074,0.069,0.143
					c0.013,0.057,0.014,0.101,0.014,0.149c-0.01,0.181-0.063,0.339-0.125,0.49c-0.254,0.605-0.679,1.129-1.153,1.611
					c-0.479,0.457-1.017,0.882-1.624,1.124c-0.152,0.061-0.311,0.111-0.492,0.118c-0.091-0.003-0.2-0.008-0.296-0.091
					c-0.084-0.08-0.053-0.064-0.088-0.125c-0.022-0.061-0.031-0.121-0.025-0.159c0.037-0.341,0.207-0.553,0.344-0.762
					c0.289-0.404,0.57-0.7,0.764-0.911C225.183,64.278,225.298,64.163,225.298,64.163z M225.298,64.163c0,0-0.111,0.119-0.307,0.327
					c-0.188,0.212-0.45,0.532-0.678,0.96c-0.104,0.208-0.229,0.471-0.215,0.696c-0.007,0.19,0.28,0.087,0.528-0.052
					c0.247-0.145,0.488-0.333,0.729-0.529c0.239-0.206,0.467-0.402,0.699-0.639c0.447-0.437,0.881-0.918,1.188-1.403
					c0.148-0.238,0.241-0.545,0.059-0.529c-0.227-0.017-0.49,0.103-0.7,0.205c-0.433,0.221-0.756,0.477-0.971,0.663
					C225.419,64.053,225.298,64.163,225.298,64.163z"/>
			</g>
			<g>
				<path fill="#F3ECAD" d="M225.207,64.056c0,0,0.071-0.07,0.196-0.191c0.133-0.114,0.31-0.291,0.558-0.472
					c0.129-0.086,0.251-0.199,0.485-0.222c0.419,0.067,0.245,0.459,0.206,0.623c-0.144,0.397-0.397,0.725-0.698,1.032
					c-0.281,0.266-0.644,0.548-1.033,0.673c-0.1,0.034-0.199,0.065-0.331,0.061c-0.057,0.006-0.139-0.018-0.211-0.074
					c-0.09-0.119-0.056-0.084-0.074-0.178c0.018-0.289,0.14-0.369,0.226-0.509c0.187-0.245,0.365-0.418,0.481-0.549
					C225.137,64.126,225.207,64.056,225.207,64.056z M225.207,64.056c0,0-0.067,0.074-0.186,0.202
					c-0.112,0.131-0.271,0.329-0.396,0.597c-0.06,0.115-0.118,0.326-0.107,0.384c0.036,0.082-0.002,0.042,0.064,0.034
					c0.047-0.011,0.126-0.047,0.192-0.094c0.141-0.087,0.279-0.212,0.421-0.328c0.13-0.121,0.274-0.244,0.417-0.392
					c0.265-0.252,0.532-0.543,0.726-0.815c0.048-0.057,0.084-0.166,0.098-0.17c0.025,0.004,0.023-0.04,0.001-0.086
					c0.023,0.044,0.018-0.002-0.009,0.004c-0.112-0.023-0.285,0.041-0.413,0.096c-0.271,0.12-0.47,0.276-0.604,0.386
					C225.281,63.99,225.207,64.056,225.207,64.056z"/>
			</g>
			<g>
				
					<radialGradient id="SVGID_9_" cx="163.5508" cy="471.2163" r="0.4399" gradientTransform="matrix(0.9585 -0.285 0.285 0.9585 -65.98 -340.8774)" gradientUnits="userSpaceOnUse">
					<stop  offset="0" style="stop-color:#F9ED32"/>
					<stop  offset="1" style="stop-color:#F9ED32;stop-opacity:0.04"/>
				</radialGradient>
				<circle fill="url(#SVGID_9_)" cx="225.082" cy="64.172" r="0.441"/>
				<circle fill="#F3ECAD" cx="225.083" cy="64.172" r="0.26"/>
			</g>
		</g>
		<path fill="#D1D3D4" d="M223.064,71.466c0,1.234-1,2.235-2.235,2.235c-0.367,0-0.716-0.089-1.021-0.247
			c-0.462-0.527-0.864-1.107-1.199-1.729c-0.001-0.006-0.001-0.014-0.001-0.021c-0.009-0.006-0.014-0.014-0.021-0.021
			c-0.002,0-0.002-0.002-0.003-0.004c-0.181-0.344-0.343-0.7-0.48-1.067c-0.018-0.114-0.027-0.231-0.027-0.35
			c0-1.234,1.001-2.235,2.235-2.235c0.583,0,1.111,0.223,1.508,0.586c0.068,0.352,0.166,0.692,0.286,1.021
			c0.118,0.317,0.259,0.622,0.422,0.916c0.156,0.285,0.338,0.558,0.534,0.816C223.064,71.398,223.064,71.433,223.064,71.466z"/>
		<path fill="#FFFFFF" d="M224.881,49.757c-11.433,0-20.7,9.267-20.7,20.699c0,11.432,9.268,20.699,20.7,20.699
			s20.699-9.267,20.699-20.699C245.58,59.024,236.313,49.757,224.881,49.757z M228.334,73.983c-3.681,0-6.663-2.983-6.663-6.663
			s2.982-6.665,6.663-6.665c3.68,0,6.664,2.984,6.664,6.665S232.014,73.983,228.334,73.983z"/>
		<path fill="#939598" d="M218.608,71.704c-0.009-0.006-0.014-0.014-0.021-0.021c0.007,0.014,0.014,0.027,0.021,0.043
			C218.608,71.719,218.608,71.711,218.608,71.704z M226.835,57.99c-2.907,0-5.504,1.33-7.215,3.415
			c-1.321,1.609-2.114,3.669-2.114,5.915c0,1.158,0.212,2.268,0.599,3.292c-0.018-0.114-0.027-0.231-0.027-0.35
			c0-1.234,1.001-2.235,2.235-2.235c0.583,0,1.111,0.223,1.508,0.586c-0.084-0.417-0.126-0.851-0.126-1.294
			c0-2.144,1.015-4.052,2.589-5.271c1.127-0.873,2.541-1.392,4.075-1.392c3.68,0,6.663,2.984,6.663,6.663
			c0,3.681-2.983,6.664-6.663,6.664c-0.061,0-0.119,0-0.178-0.004c-2.087-0.053-3.933-1.066-5.118-2.613
			c0.002,0.033,0.002,0.067,0.002,0.101c0,1.234-1,2.235-2.235,2.235c-0.367,0-0.716-0.089-1.021-0.247
			c1.504,1.722,3.633,2.886,6.033,3.141c0.327,0.035,0.656,0.052,0.993,0.052c5.152,0,9.329-4.176,9.329-9.329
			S231.987,57.99,226.835,57.99z"/>
		<path fill="#E6E7E8" d="M226.834,89.989c-11.432,0-20.699-9.267-20.699-20.699c0-7.149,3.626-13.453,9.138-17.171
			c-6.594,3.461-11.092,10.374-11.092,18.337c0,11.432,9.268,20.699,20.7,20.699c4.282,0,8.261-1.3,11.563-3.529
			C233.571,89.135,230.303,89.989,226.834,89.989z"/>
		<g>
			<ellipse fill="#D1D3D4" cx="211.577" cy="70.457" rx="2.167" ry="3.245"/>
			<path fill="#A7A9AC" d="M211.91,73.5c-1.196,0-2.166-1.452-2.166-3.245c0-1.271,0.487-2.37,1.198-2.902
				c-0.887,0.405-1.533,1.641-1.533,3.103c0,1.792,0.971,3.245,2.168,3.245c0.348,0,0.677-0.124,0.969-0.342
				C212.345,73.451,212.132,73.5,211.91,73.5z"/>
		</g>
		<g>
			
				<ellipse transform="matrix(0.9778 -0.2095 0.2095 0.9778 -12.2244 50.3388)" fill="#D1D3D4" cx="231.469" cy="82.864" rx="2.999" ry="3.245"/>
			<path fill="#A7A9AC" d="M232.559,85.744c-1.619,0.348-3.236-0.792-3.613-2.544c-0.266-1.242,0.165-2.459,1.015-3.187
				c-1.116,0.655-1.73,2.05-1.424,3.479c0.375,1.752,1.993,2.892,3.612,2.544c0.471-0.101,0.891-0.317,1.24-0.615
				C233.136,85.57,232.857,85.68,232.559,85.744z"/>
		</g>
		<g>
			
				<ellipse transform="matrix(0.9778 -0.2095 0.2095 0.9778 -12.8026 49.4106)" fill="#D1D3D4" cx="226.835" cy="85.138" rx="1.055" ry="1.141"/>
			<path fill="#A7A9AC" d="M227.218,86.151c-0.569,0.122-1.138-0.278-1.271-0.895c-0.093-0.437,0.058-0.864,0.357-1.12
				c-0.393,0.23-0.608,0.721-0.501,1.223c0.132,0.616,0.701,1.016,1.271,0.895c0.165-0.036,0.313-0.111,0.435-0.216
				C227.421,86.089,227.323,86.128,227.218,86.151z"/>
		</g>
		<g>
			<ellipse fill="#D1D3D4" cx="213.356" cy="74.351" rx="0.588" ry="0.881"/>
			<path fill="#A7A9AC" d="M213.447,75.178c-0.326,0-0.589-0.395-0.589-0.88c0-0.345,0.133-0.644,0.325-0.789
				c-0.24,0.11-0.416,0.446-0.416,0.842c0,0.487,0.264,0.881,0.589,0.881c0.094,0,0.183-0.033,0.263-0.092
				C213.564,75.165,213.507,75.178,213.447,75.178z"/>
		</g>
		<g>
			<ellipse fill="#D1D3D4" cx="237.24" cy="56.657" rx="0.631" ry="0.808"/>
			<path fill="#A7A9AC" d="M237.338,57.416c-0.349,0-0.631-0.363-0.631-0.809c0-0.317,0.142-0.59,0.349-0.723
				c-0.259,0.101-0.446,0.409-0.446,0.773c0,0.446,0.281,0.808,0.631,0.808c0.102,0,0.197-0.031,0.282-0.085
				C237.464,57.403,237.401,57.416,237.338,57.416z"/>
		</g>
		<g>
			<ellipse fill="#D1D3D4" cx="211.844" cy="75.447" rx="0.37" ry="0.554"/>
			<path fill="#A7A9AC" d="M211.901,75.966c-0.204,0-0.37-0.247-0.37-0.553c0-0.217,0.084-0.404,0.205-0.495
				c-0.152,0.069-0.263,0.28-0.263,0.529c0,0.306,0.167,0.554,0.371,0.554c0.06,0,0.115-0.021,0.165-0.058
				C211.976,75.958,211.939,75.966,211.901,75.966z"/>
		</g>
		<g>
			<ellipse fill="#D1D3D4" cx="235.47" cy="58.427" rx="1.014" ry="1.161"/>
			<path fill="#A7A9AC" d="M235.626,59.516c-0.56,0-1.014-0.52-1.014-1.161c0-0.455,0.229-0.848,0.561-1.039
				c-0.415,0.145-0.717,0.587-0.717,1.11c0,0.641,0.454,1.161,1.014,1.161c0.163,0,0.317-0.044,0.453-0.123
				C235.829,59.498,235.729,59.516,235.626,59.516z"/>
		</g>
		<g>
			<ellipse fill="#D1D3D4" cx="214.241" cy="55.083" rx="0.408" ry="0.522"/>
			<path fill="#A7A9AC" d="M214.305,55.573c-0.226,0-0.408-0.233-0.408-0.522c0-0.204,0.092-0.381,0.226-0.467
				c-0.167,0.065-0.289,0.264-0.289,0.5c0,0.288,0.184,0.522,0.409,0.522c0.064,0,0.127-0.02,0.182-0.055
				C214.387,55.565,214.346,55.573,214.305,55.573z"/>
		</g>
		<g>
			<ellipse fill="#D1D3D4" cx="215.226" cy="55.083" rx="0.175" ry="0.224"/>
			<path fill="#A7A9AC" d="M215.253,55.293c-0.097,0-0.176-0.1-0.176-0.223c0-0.088,0.04-0.164,0.098-0.2
				c-0.072,0.028-0.124,0.113-0.124,0.214c0,0.123,0.078,0.224,0.175,0.224c0.028,0,0.055-0.009,0.078-0.023
				C215.287,55.29,215.271,55.293,215.253,55.293z"/>
		</g>
		<g>
			<ellipse fill="#D1D3D4" cx="214.824" cy="56.009" rx="0.253" ry="0.324"/>
			<path fill="#A7A9AC" d="M214.863,56.313c-0.14,0-0.253-0.145-0.253-0.323c0-0.127,0.058-0.236,0.14-0.29
				c-0.103,0.04-0.179,0.164-0.179,0.309c0,0.179,0.113,0.324,0.253,0.324c0.04,0,0.079-0.013,0.113-0.034
				C214.914,56.308,214.889,56.313,214.863,56.313z"/>
		</g>
		<g>
			<ellipse fill="#D1D3D4" cx="216.63" cy="56.788" rx="1.318" ry="1.509"/>
			<path fill="#A7A9AC" d="M216.835,58.204c-0.729,0-1.318-0.676-1.318-1.509c0-0.591,0.297-1.102,0.729-1.35
				c-0.54,0.189-0.933,0.764-0.933,1.443c0,0.833,0.591,1.509,1.319,1.509c0.211,0,0.41-0.058,0.588-0.159
				C217.098,58.181,216.969,58.204,216.835,58.204z"/>
		</g>
		<path fill="#414042" d="M214.109,50.252c0,0,0.223-0.054,0.652-0.157c0.43-0.104,1.068-0.252,1.903-0.444
			c1.67-0.377,4.125-0.908,7.273-1.464c3.147-0.552,6.988-1.127,11.423-1.553c4.433-0.411,9.467-0.657,14.951-0.346
			c1.371,0.082,2.769,0.209,4.187,0.394c1.42,0.183,2.859,0.429,4.308,0.767c1.448,0.337,2.905,0.77,4.337,1.356
			c1.424,0.595,2.837,1.347,4.063,2.419c0.606,0.54,1.158,1.165,1.599,1.88c0.212,0.362,0.41,0.738,0.55,1.14
			c0.081,0.197,0.134,0.404,0.195,0.608c0.004,0.013,0.02,0.07,0.024,0.09l0.015,0.074l0.032,0.148
			c0.02,0.1,0.045,0.191,0.058,0.305c0.031,0.219,0.061,0.439,0.067,0.651c0.02,0.214,0.011,0.429,0.008,0.645
			c-0.021,0.428-0.069,0.858-0.164,1.276c-0.178,0.84-0.481,1.648-0.869,2.409c-0.775,1.525-1.833,2.885-2.999,4.137
			c-1.17,1.254-2.466,2.393-3.821,3.473c-2.723,2.148-5.708,4.018-8.817,5.731c-3.113,1.706-6.372,3.224-9.709,4.618
			c-1.668,0.697-3.36,1.355-5.068,1.983c-1.709,0.623-3.438,1.211-5.179,1.77c-3.482,1.116-7.019,2.107-10.583,2.978
			c-3.569,0.858-7.168,1.589-10.775,2.188c-1.804,0.298-3.61,0.563-5.416,0.792c-1.806,0.224-3.611,0.409-5.415,0.552
			c-3.604,0.285-7.196,0.419-10.746,0.329c-3.549-0.104-7.059-0.405-10.462-1.073c-1.699-0.341-3.373-0.762-4.986-1.344
			c-1.609-0.581-3.173-1.308-4.559-2.311c-0.692-0.499-1.332-1.08-1.875-1.746c-0.547-0.661-0.979-1.424-1.25-2.239
			c-0.039-0.1-0.062-0.205-0.092-0.308l-0.042-0.155l-0.021-0.078c-0.007-0.023-0.018-0.077-0.019-0.089
			c-0.037-0.199-0.081-0.385-0.102-0.612c-0.062-0.438-0.054-0.852-0.033-1.274c0.065-0.837,0.271-1.646,0.564-2.404
			c0.601-1.515,1.514-2.83,2.51-4.009c1.005-1.176,2.104-2.226,3.238-3.188c1.136-0.961,2.304-1.838,3.482-2.649
			c1.178-0.813,2.362-1.564,3.545-2.263c2.364-1.398,4.704-2.602,6.959-3.681c2.256-1.075,4.435-2.012,6.501-2.84
			c4.139-1.647,7.818-2.89,10.871-3.836c3.053-0.944,5.48-1.592,7.139-2.02c0.829-0.211,1.466-0.371,1.896-0.475
			C213.888,50.306,214.109,50.252,214.109,50.252z M214.109,50.252c0,0-0.222,0.055-0.65,0.161c-0.43,0.104-1.066,0.268-1.895,0.481
			c-1.655,0.435-4.08,1.092-7.129,2.049c-3.048,0.957-6.725,2.208-10.835,3.915c-2.055,0.854-4.219,1.814-6.456,2.914
			c-2.242,1.096-4.547,2.35-6.872,3.787c-1.163,0.718-2.325,1.489-3.477,2.317c-1.153,0.828-2.293,1.718-3.393,2.688
			c-1.1,0.969-2.157,2.022-3.111,3.184c-0.944,1.165-1.793,2.449-2.322,3.87c-0.26,0.709-0.431,1.452-0.475,2.202
			c-0.011,0.371-0.007,0.76,0.05,1.114c0.016,0.172,0.066,0.376,0.107,0.571c0.013,0.07,0.049,0.175,0.073,0.26
			c0.026,0.09,0.049,0.181,0.085,0.269c0.253,0.708,0.643,1.373,1.146,1.957c0.499,0.588,1.092,1.108,1.745,1.56
			c1.305,0.906,2.808,1.573,4.366,2.101c1.563,0.53,3.199,0.907,4.862,1.207c3.333,0.586,6.79,0.814,10.285,0.848
			c3.496,0.035,7.041-0.131,10.601-0.458c1.779-0.161,3.563-0.37,5.348-0.605c1.785-0.233,3.57-0.503,5.354-0.806
			c3.568-0.605,7.129-1.347,10.66-2.206c3.535-0.847,7.041-1.815,10.491-2.906c1.727-0.545,3.438-1.122,5.133-1.729
			c1.696-0.602,3.376-1.233,5.034-1.902c3.315-1.335,6.542-2.81,9.64-4.435c3.095-1.625,6.065-3.409,8.763-5.452
			c1.343-1.026,2.626-2.11,3.773-3.295c1.148-1.182,2.179-2.461,2.926-3.865c0.375-0.7,0.665-1.434,0.841-2.186
			c0.092-0.375,0.142-0.755,0.169-1.134c0.019-0.376,0.007-0.766-0.042-1.12c-0.005-0.086-0.03-0.191-0.048-0.289l-0.028-0.148
			l-0.015-0.074c-0.004-0.028-0.006-0.019-0.014-0.055c-0.051-0.181-0.093-0.364-0.161-0.539c-0.117-0.356-0.287-0.693-0.468-1.021
			c-0.382-0.648-0.874-1.23-1.429-1.743c-1.121-1.023-2.463-1.778-3.835-2.382c-1.379-0.598-2.802-1.051-4.223-1.411
			c-1.421-0.361-2.843-0.632-4.246-0.842c-1.403-0.211-2.789-0.365-4.151-0.474c-2.725-0.216-5.349-0.277-7.843-0.228
			c-2.493,0.044-4.857,0.179-7.074,0.358c-4.436,0.36-8.278,0.927-11.427,1.467c-3.149,0.543-5.606,1.064-7.277,1.435
			c-0.836,0.188-1.476,0.333-1.906,0.437C214.332,50.2,214.109,50.252,214.109,50.252z"/>
		<path fill="#FFFFFF" d="M218.608,71.704c0,0.008,0,0.016,0.001,0.021c-0.008-0.016-0.015-0.029-0.021-0.043
			C218.595,71.69,218.6,71.698,218.608,71.704z"/>
		<path fill="#BCBEC0" d="M220.313,68.026c-1.234,0-2.235,1-2.235,2.235c0,0.119,0.01,0.235,0.027,0.35
			c-0.387-1.024-0.599-2.134-0.599-3.292c0-2.245,0.793-4.305,2.114-5.915c0.396-0.059,0.803-0.087,1.217-0.087
			c1.228,0,2.396,0.26,3.446,0.73c-1.574,1.219-2.589,3.128-2.589,5.271c0,0.443,0.042,0.876,0.126,1.294
			C221.424,68.25,220.896,68.026,220.313,68.026z"/>
		<path fill="#BCBEC0" d="M228.181,73.979c-0.59,1.026-1.389,1.918-2.339,2.616c-2.4-0.255-4.529-1.419-6.033-3.141
			c0.305,0.158,0.653,0.247,1.021,0.247c1.235,0,2.235-1.001,2.235-2.235c0-0.033,0-0.068-0.002-0.101
			C224.248,72.913,226.094,73.926,228.181,73.979z"/>
	</g>
	<g id="Astronaute_1_">
		<path fill="#BCBEC0" d="M79.032,157.638c-0.307,0-0.605-0.154-0.78-0.434c-0.268-0.43-0.137-0.996,0.294-1.264
			c6.496-4.048,5.959-13.921,5.953-14.021c-0.032-0.506,0.353-0.941,0.857-0.973c0.506-0.03,0.941,0.354,0.974,0.859
			c0.028,0.449,0.602,11.07-6.813,15.691C79.366,157.593,79.197,157.638,79.032,157.638z"/>
		<path fill="#FFFFFF" d="M80.052,158.015c-0.307,0-0.605-0.153-0.78-0.433c-0.268-0.43-0.137-0.996,0.294-1.265
			c6.495-4.048,5.958-13.92,5.953-14.019c-0.032-0.507,0.353-0.942,0.858-0.975c0.505-0.03,0.941,0.354,0.973,0.86
			c0.028,0.449,0.602,11.07-6.813,15.691C80.385,157.97,80.218,158.015,80.052,158.015z"/>
		<path fill="#BCBEC0" d="M81.436,151.674c-0.184,0.329-0.691,0.394-1.133,0.146l0,0c-0.442-0.249-0.65-0.715-0.467-1.044
			l4.734-8.424c0.185-0.328,0.693-0.393,1.135-0.145l0,0c0.442,0.249,0.649,0.716,0.466,1.045L81.436,151.674z"/>
		<path fill="#E6E7E8" d="M84.677,145.271l-0.277,0.565c-0.006-0.002-0.05-0.023-0.129-0.065c-0.12-0.06-0.317-0.163-0.589-0.312
			h-0.003c-0.186-0.101-0.403-0.223-0.65-0.365c-2.747-1.56-9.106-5.563-14.367-11.78c-1.054-1.246-2.02-1.799-2.964-1.686
			c-2.3,0.268-4.412,4.426-6.855,9.24c-2.559,5.041-5.457,10.752-9.559,14.193c-1.854,1.551-3.694,2.332-5.5,2.332
			c-0.489,0-0.973-0.057-1.455-0.17c-5.852-1.394-9.9-10.82-12.578-17.057c-0.16-0.375-0.317-0.736-0.466-1.083
			c-3.149-7.271-9.527-15.656-30.567-18.037v-0.637c8.794,0.988,15.672,3.094,20.914,6.384c6.173,3.874,8.795,8.729,10.229,12.041
			c0.15,0.347,0.305,0.708,0.465,1.084c2.631,6.122,6.604,15.373,12.149,16.69c2.057,0.491,4.212-0.194,6.402-2.032
			c4.005-3.356,6.874-9.009,9.404-13.992c2.631-5.182,4.71-9.275,7.344-9.584c1.167-0.132,2.315,0.488,3.518,1.907
			c5.207,6.15,11.494,10.106,14.196,11.638c0.246,0.143,0.466,0.262,0.648,0.365c0,0,0.003-0.003,0.003,0
			c0.146,0.076,0.268,0.142,0.368,0.193C84.557,145.211,84.667,145.264,84.677,145.271z"/>
		<g>
			<circle fill="#FFFFFF" cx="86.759" cy="139.888" r="3.31"/>
			<linearGradient id="SVGID_10_" gradientUnits="userSpaceOnUse" x1="86.5381" y1="139.646" x2="90.2285" y2="139.646">
				<stop  offset="0" style="stop-color:#7F3F98"/>
				<stop  offset="1" style="stop-color:#262262"/>
			</linearGradient>
			<path fill="url(#SVGID_10_)" d="M90.229,139.888c0,1.112-0.55,2.099-1.394,2.698c-0.842-0.282-1.6-0.771-2.204-1.417
				c-0.006-0.027-0.012-0.056-0.015-0.083c-0.28-1.631,0.214-3.217,1.214-4.381C89.214,137.1,90.229,138.375,90.229,139.888z"/>
			<g>
				<circle fill="#FFFFFF" cx="86.454" cy="140.972" r="0.552"/>
				<path fill="#BCBEC0" d="M86.541,141.477c-0.294,0.05-0.572-0.142-0.633-0.433c0.001,0.008,0.001,0.015,0.002,0.021
					c0.052,0.301,0.337,0.502,0.637,0.45c0.3-0.051,0.502-0.336,0.451-0.637c-0.001-0.006-0.003-0.013-0.005-0.019
					C87.033,141.153,86.834,141.426,86.541,141.477z"/>
			</g>
		</g>
		<path fill="#E6E7E8" d="M81.833,152.492c-0.188,0.336-0.699,0.406-1.141,0.157l0,0c-0.442-0.248-0.647-0.721-0.459-1.057
			l4.833-8.598c0.188-0.336,0.699-0.406,1.141-0.158l0,0c0.442,0.249,0.648,0.722,0.459,1.057L81.833,152.492z"/>
		<path fill="#FFFFFF" d="M81.875,152.422c-0.184,0.328-0.692,0.394-1.134,0.146l0,0c-0.441-0.249-0.651-0.717-0.466-1.044
			l4.734-8.424c0.185-0.328,0.691-0.394,1.134-0.146l0,0c0.442,0.249,0.65,0.716,0.466,1.045L81.875,152.422z"/>
	</g>
	<g>
		<path fill="#FFFFFF" d="M41.722,61.536c-0.935,0.157-2.004,2.57-3.137,5.123c-1.306,2.951-2.788,6.295-4.751,8.186
			c-2.42,2.338-5.727,2.216-12.314,1.97c-3.949-0.147-8.861-0.33-15.475-0.087c-3.047,0.113-5.494,0.645-7.328,1.585V77.96
			c1.859-0.918,4.304-1.435,7.315-1.544c6.626-0.246,11.544-0.063,15.496,0.084c6.501,0.242,9.763,0.362,12.089-1.881
			c1.915-1.85,3.385-5.164,4.682-8.089c1.268-2.857,2.268-5.117,3.372-5.305L41.722,61.536z"/>
		<g>
			<path fill="#939598" d="M43.383,60.164l-0.709,2.281c-0.125,0.402-0.551,0.626-0.953,0.5l-2.244-0.698
				c-0.402-0.125-0.629-0.551-0.504-0.954l0.708-2.28c0.126-0.402,0.556-0.628,0.958-0.503l2.244,0.698
				C43.285,59.333,43.508,59.761,43.383,60.164z"/>
			
				<rect x="46.421" y="36.563" transform="matrix(0.9548 0.2972 -0.2972 0.9548 13.1977 -12.5643)" fill="#6D6E71" width="2.981" height="1.101"/>
			<path fill="#6D6E71" d="M47.542,37.135c-0.021,0.07-0.143,0.094-0.271,0.054l0,0c-0.128-0.04-0.215-0.128-0.192-0.198
				l1.381-4.442c0.022-0.07,0.144-0.094,0.272-0.054l0,0c0.128,0.04,0.214,0.129,0.192,0.199L47.542,37.135z"/>
			<path fill="#6D6E71" d="M48.566,37.258c-0.019,0.058-0.133,0.073-0.258,0.034l0,0c-0.123-0.039-0.21-0.117-0.191-0.174
				l2.381-7.654c0.018-0.057,0.133-0.072,0.257-0.034l0,0c0.124,0.039,0.21,0.116,0.192,0.174L48.566,37.258z"/>
			<g>
				<g>
					<polygon fill="#58595B" points="34.267,38.911 30.49,51.048 29.073,51.793 8.661,45.445 12.436,33.307 13.854,32.562 					"/>
					
						<rect x="12.922" y="34.05" transform="matrix(0.9549 0.297 -0.297 0.9549 11.3051 -2.7505)" fill="#78CBE7" width="3.566" height="3.566"/>
					
						<rect x="16.903" y="35.288" transform="matrix(0.9549 0.2969 -0.2969 0.9549 11.8471 -3.8758)" fill="#78CBE7" width="3.566" height="3.566"/>
					
						<rect x="20.883" y="36.526" transform="matrix(0.9549 0.2969 -0.2969 0.9549 12.3976 -5.0025)" fill="#78CBE7" width="3.565" height="3.566"/>
					
						<rect x="24.864" y="37.764" transform="matrix(0.9548 0.2971 -0.2971 0.9548 12.953 -6.1313)" fill="#78CBE7" width="3.566" height="3.566"/>
					
						<rect x="28.845" y="39.003" transform="matrix(0.9549 0.297 -0.297 0.9549 13.4945 -7.2559)" fill="#78CBE7" width="3.566" height="3.566"/>
					
						<rect x="11.706" y="37.956" transform="matrix(0.9548 0.2972 -0.2972 0.9548 12.4178 -2.2135)" fill="#78CBE7" width="3.567" height="3.566"/>
					
						<rect x="15.688" y="39.194" transform="matrix(0.9548 0.2971 -0.2971 0.9548 12.9634 -3.3403)" fill="#78CBE7" width="3.566" height="3.566"/>
					
						<rect x="19.669" y="40.432" transform="matrix(0.9549 0.2971 -0.2971 0.9549 13.5087 -4.4666)" fill="#78CBE7" width="3.565" height="3.566"/>
					
						<rect x="23.649" y="41.67" transform="matrix(0.9548 0.2971 -0.2971 0.9548 14.0586 -5.594)" fill="#78CBE7" width="3.566" height="3.566"/>
					
						<rect x="27.63" y="42.908" transform="matrix(0.9549 0.2969 -0.2969 0.9549 14.5927 -6.7169)" fill="#78CBE7" width="3.566" height="3.567"/>
					
						<rect x="10.515" y="41.786" transform="matrix(0.9548 0.2971 -0.2971 0.9548 13.5001 -1.6865)" fill="#78CBE7" width="3.566" height="3.566"/>
					
						<rect x="14.496" y="43.024" transform="matrix(0.9549 0.2969 -0.2969 0.9549 14.0352 -2.8128)" fill="#78CBE7" width="3.566" height="3.566"/>
					
						<rect x="18.478" y="44.262" transform="matrix(0.9549 0.297 -0.297 0.9549 14.5887 -3.9396)" fill="#78CBE7" width="3.566" height="3.567"/>
					
						<rect x="22.458" y="45.5" transform="matrix(0.9549 0.297 -0.297 0.9549 15.136 -5.0659)" fill="#78CBE7" width="3.566" height="3.567"/>
					
						<rect x="26.439" y="46.739" transform="matrix(0.9548 0.2972 -0.2972 0.9548 15.695 -6.1948)" fill="#78CBE7" width="3.565" height="3.566"/>
				</g>
				<circle fill="#58595B" cx="16.092" cy="38.365" r="0.59"/>
				<circle fill="#58595B" cx="20.073" cy="39.603" r="0.59"/>
				<circle fill="#58595B" cx="24.054" cy="40.841" r="0.59"/>
				<circle fill="#58595B" cx="28.034" cy="42.08" r="0.59"/>
				<circle fill="#58595B" cx="17.217" cy="34.747" r="0.59"/>
				<circle fill="#58595B" cx="21.198" cy="35.985" r="0.59"/>
				<circle fill="#58595B" cx="25.179" cy="37.224" r="0.59"/>
				<circle fill="#58595B" cx="29.16" cy="38.462" r="0.59"/>
				<circle fill="#58595B" cx="14.878" cy="42.271" r="0.59"/>
				<circle fill="#58595B" cx="18.858" cy="43.509" r="0.591"/>
				<circle fill="#58595B" cx="22.839" cy="44.747" r="0.59"/>
				<circle fill="#58595B" cx="26.82" cy="45.985" r="0.59"/>
				<circle fill="#58595B" cx="13.709" cy="46.026" r="0.59"/>
				<circle fill="#58595B" cx="17.69" cy="47.264" r="0.59"/>
				<circle fill="#58595B" cx="21.671" cy="48.503" r="0.59"/>
				<circle fill="#58595B" cx="25.652" cy="49.741" r="0.59"/>
			</g>
			<g>
				<g>
					<polygon fill="#58595B" points="80.731,53.362 76.957,65.5 75.539,66.246 55.127,59.897 58.902,47.759 60.319,47.014 					"/>
					
						<rect x="59.388" y="48.502" transform="matrix(0.9548 0.2971 -0.2971 0.9548 17.7023 -15.9035)" fill="#78CBE7" width="3.566" height="3.566"/>
					
						<rect x="63.369" y="49.741" transform="matrix(0.9548 0.2972 -0.2972 0.9548 18.2555 -17.0341)" fill="#78CBE7" width="3.565" height="3.566"/>
					
						<rect x="67.349" y="50.978" transform="matrix(0.9549 0.2971 -0.2971 0.9549 18.7939 -18.1545)" fill="#78CBE7" width="3.565" height="3.566"/>
					
						<rect x="71.33" y="52.217" transform="matrix(0.9549 0.2969 -0.2969 0.9549 19.3296 -19.2727)" fill="#78CBE7" width="3.567" height="3.566"/>
					
						<rect x="75.311" y="53.455" transform="matrix(0.9549 0.2968 -0.2968 0.9549 19.8668 -20.3912)" fill="#78CBE7" width="3.567" height="3.566"/>
					
						<rect x="58.173" y="52.408" transform="matrix(0.9549 0.2971 -0.2971 0.9549 18.8042 -15.3641)" fill="#78CBE7" width="3.565" height="3.566"/>
					
						<rect x="62.154" y="53.646" transform="matrix(0.9549 0.2969 -0.2969 0.9549 19.3366 -16.4813)" fill="#78CBE7" width="3.566" height="3.566"/>
					
						<rect x="66.135" y="54.884" transform="matrix(0.9549 0.297 -0.297 0.9549 19.8932 -17.6137)" fill="#78CBE7" width="3.566" height="3.567"/>
					
						<rect x="70.115" y="56.122" transform="matrix(0.9549 0.297 -0.297 0.9549 20.4405 -18.74)" fill="#78CBE7" width="3.566" height="3.567"/>
					
						<rect x="74.096" y="57.361" transform="matrix(0.9548 0.2972 -0.2972 0.9548 21.0047 -19.8778)" fill="#78CBE7" width="3.565" height="3.566"/>
					
						<rect x="56.981" y="56.238" transform="matrix(0.9549 0.2969 -0.2969 0.9549 19.873 -14.829)" fill="#78CBE7" width="3.566" height="3.566"/>
					
						<rect x="60.962" y="57.476" transform="matrix(0.9549 0.297 -0.297 0.9549 20.4298 -15.9605)" fill="#78CBE7" width="3.566" height="3.566"/>
					
						<rect x="64.942" y="58.715" transform="matrix(0.9549 0.297 -0.297 0.9549 20.981 -17.0891)" fill="#78CBE7" width="3.567" height="3.566"/>
					
						<rect x="68.924" y="59.953" transform="matrix(0.9549 0.2969 -0.2969 0.9549 21.514 -18.2069)" fill="#78CBE7" width="3.566" height="3.566"/>
					
						<rect x="72.905" y="61.191" transform="matrix(0.9549 0.2969 -0.2969 0.9549 22.0677 -19.337)" fill="#78CBE7" width="3.565" height="3.566"/>
				</g>
				<circle fill="#58595B" cx="62.558" cy="52.817" r="0.59"/>
				<circle fill="#58595B" cx="66.539" cy="54.055" r="0.59"/>
				<circle fill="#58595B" cx="70.52" cy="55.294" r="0.59"/>
				<circle fill="#58595B" cx="74.5" cy="56.531" r="0.59"/>
				<circle fill="#58595B" cx="63.683" cy="49.2" r="0.59"/>
				<circle fill="#58595B" cx="67.665" cy="50.438" r="0.591"/>
				<circle fill="#58595B" cx="71.645" cy="51.676" r="0.591"/>
				<circle fill="#58595B" cx="75.626" cy="52.914" r="0.59"/>
				<circle fill="#58595B" cx="61.343" cy="56.723" r="0.591"/>
				<circle fill="#58595B" cx="65.324" cy="57.961" r="0.591"/>
				<circle fill="#58595B" cx="69.305" cy="59.199" r="0.59"/>
				<circle fill="#58595B" cx="73.286" cy="60.438" r="0.591"/>
				<circle fill="#58595B" cx="60.175" cy="60.479" r="0.59"/>
				<circle fill="#58595B" cx="64.156" cy="61.717" r="0.59"/>
				<circle fill="#58595B" cx="68.137" cy="62.955" r="0.59"/>
				<circle fill="#58595B" cx="72.118" cy="64.193" r="0.591"/>
			</g>
			
				<rect x="43.553" y="38.676" transform="matrix(0.9549 0.297 -0.297 0.9549 14.2774 -12.2178)" fill="#D1D3D4" width="7.591" height="4.405"/>
			<polygon fill="#E6E7E8" points="51.626,39.903 44.378,37.648 45.642,36.984 51.025,38.659 			"/>
			<polygon fill="#E6E7E8" points="53.615,45.135 39.848,40.853 37.379,42.144 54.842,47.576 			"/>
			
				<rect x="35.587" y="44.65" transform="matrix(0.9549 0.297 -0.297 0.9549 16.6555 -11.0602)" fill="#D1D3D4" width="18.289" height="9.282"/>
			<polygon fill="#6D6E71" points="49.574,57.799 35.829,53.524 34.621,51.007 52.085,56.438 			"/>
			
				<rect x="40.169" y="55.626" transform="matrix(0.9549 0.297 -0.297 0.9549 18.5518 -10.1046)" fill="#D1D3D4" width="4.72" height="0.747"/>
			<polygon fill="#D1D3D4" points="45.472,57.306 39.588,55.476 38.522,56.078 45.983,58.398 			"/>
			
				<rect x="37.769" y="57.151" transform="matrix(0.9549 0.297 -0.297 0.9549 19.429 -9.7104)" fill="#D1D3D4" width="7.813" height="3.887"/>
			<polygon fill="#6D6E71" points="43.788,62.652 37.93,60.83 37.368,59.79 44.829,62.11 			"/>
			
				<rect x="34.46" y="44.192" transform="matrix(0.9548 0.2972 -0.2972 0.9548 15.3661 -8.3808)" fill="#808285" width="1.574" height="4.313"/>
			
				<rect x="53.425" y="50.09" transform="matrix(0.9549 0.2969 -0.2969 0.9549 17.9563 -13.7397)" fill="#E6E7E8" width="1.574" height="4.313"/>
			
				<rect x="32.186" y="44.419" transform="matrix(0.9549 0.2968 -0.2968 0.9549 15.0893 -7.84)" fill="#E6E7E8" width="2.359" height="2.714"/>
			
				<rect x="54.906" y="51.486" transform="matrix(0.9548 0.2971 -0.2971 0.9548 18.2318 -14.2768)" fill="#E6E7E8" width="2.358" height="2.713"/>
			
				<rect x="35.792" y="43.305" transform="matrix(0.9549 0.297 -0.297 0.9549 16.0632 -9.8377)" fill="#939598" width="9.233" height="9.282"/>
			
				<rect x="50.297" y="46.642" transform="matrix(0.9548 0.2972 -0.2972 0.9548 17.5528 -12.8808)" fill="#FFFFFF" width="1.677" height="9.282"/>
			
				<rect x="49.074" y="39.349" transform="matrix(0.955 0.2966 -0.2966 0.955 14.5515 -12.811)" fill="#FFFFFF" width="0.84" height="4.4"/>
			
				<rect x="41.453" y="61.991" transform="matrix(0.9551 0.2963 -0.2963 0.9551 20.372 -9.5226)" fill="#D1D3D4" width="0.288" height="0.895"/>
			
				<rect x="40.212" y="55.221" transform="matrix(0.9548 0.2974 -0.2974 0.9548 18.4002 -9.764)" fill="#6D6E71" width="2.159" height="0.747"/>
			
				<rect x="37.926" y="56.595" transform="matrix(0.9549 0.2971 -0.2971 0.9549 19.1911 -9.2075)" fill="#939598" width="3.928" height="3.888"/>
			
				<rect x="34.005" y="47.189" transform="matrix(0.9548 0.2972 -0.2972 0.9548 15.7806 -8.1794)" fill="#6D6E71" width="1.574" height="1.247"/>
			
				<rect x="52.97" y="53.087" transform="matrix(0.9549 0.2969 -0.2969 0.9549 18.3705 -13.5385)" fill="#6D6E71" width="1.574" height="1.247"/>
			<path fill="#58595B" d="M41.592,61.969l-0.265,0.854l-1.851-0.576c-0.402-0.125-0.629-0.551-0.504-0.954l0.039-0.126
				L41.592,61.969z"/>
			
				<rect x="48.655" y="40.51" transform="matrix(0.9548 0.2973 -0.2973 0.9548 14.3437 -12.9232)" fill="#939598" width="2.004" height="0.366"/>
			
				<rect x="48.498" y="41.016" transform="matrix(0.9549 0.2969 -0.2969 0.9549 14.4668 -12.8404)" fill="#939598" width="2.004" height="0.368"/>
		</g>
	</g>
	<path fill="#E2E2E2" d="M302.156,184.618v21.053H-1.471v-21.134c0-0.004,0.003-0.004,0.003-0.004h0.007
		c48.42-12.718,99.244-19.485,151.646-19.485s103.227,6.768,151.646,19.485C301.939,184.558,302.05,184.586,302.156,184.618z"/>
	<g>
		<path fill="#D1D3D4" d="M135.896,185.8c19.752-0.515,36.291-4.06,36.946-7.921c0.652-3.86-14.829-6.573-34.578-6.059
			c-19.753,0.513-36.298,4.06-36.949,7.92C100.658,183.602,116.145,186.312,135.896,185.8z"/>
		<path fill="#A7A9AC" d="M170.448,179.014c0.651-3.859-14.823-6.572-34.575-6.059c-14.009,0.364-26.39,2.254-32.648,4.698
			c4.959-2.979,18.928-5.415,35.039-5.833c19.749-0.515,35.23,2.198,34.578,6.059c-0.191,1.123-1.735,2.22-4.303,3.223
			C169.664,180.428,170.324,179.727,170.448,179.014z"/>
	</g>
	<g>
		<path fill="#D1D3D4" d="M279.018,185.294c9.587,0.431,17.987,3.121,23.139,6.929v13.447h-49.67
			c-2.186-2.174-3.375-4.613-3.259-7.146c0.067-1.482,0.581-2.895,1.472-4.204c-0.003,0.003-0.007,0.004-0.008,0.007
			c0.065-0.098,0.131-0.192,0.201-0.289c0.235-0.321,0.49-0.636,0.767-0.944c0.082-0.088,0.164-0.176,0.249-0.268
			c0.141-0.147,0.289-0.292,0.44-0.44c0.082-0.075,0.163-0.15,0.249-0.229c0.081-0.076,0.167-0.151,0.255-0.227
			c0.173-0.151,0.353-0.299,0.534-0.446c0.095-0.073,0.187-0.145,0.28-0.218c0.191-0.145,0.384-0.286,0.585-0.428
			c0.101-0.069,0.201-0.139,0.306-0.207c0.101-0.069,0.205-0.139,0.312-0.205c0.314-0.205,0.642-0.402,0.981-0.598
			c0.11-0.066,0.228-0.129,0.341-0.192c0.115-0.066,0.232-0.129,0.348-0.188c0.236-0.126,0.476-0.249,0.721-0.368
			c0.108-0.054,0.218-0.107,0.327-0.161c0.022-0.009,0.045-0.018,0.066-0.03c0.117-0.054,0.232-0.107,0.353-0.161
			c0.125-0.06,0.255-0.116,0.385-0.173c0.386-0.167,0.783-0.331,1.189-0.488c0.128-0.05,0.26-0.101,0.393-0.15
			c0.012-0.003,0.021-0.007,0.031-0.013c0.133-0.047,0.268-0.098,0.399-0.145c0.421-0.151,0.847-0.293,1.284-0.432
			c0.145-0.047,0.293-0.091,0.439-0.135c1.933-0.586,4.025-1.051,6.24-1.382c0.211-0.031,0.422-0.06,0.633-0.088
			c0.173-0.025,0.342-0.047,0.516-0.069c0.472-0.06,0.947-0.113,1.429-0.157c0.217-0.022,0.438-0.044,0.657-0.06
			c0.221-0.021,0.444-0.038,0.667-0.054c0.438-0.031,0.878-0.06,1.325-0.081C275.355,185.215,277.168,185.212,279.018,185.294z"/>
		<path fill="#A7A9AC" d="M302.156,192.223v3.76c-4.802-4.635-14.152-8.036-25.039-8.526c-11.412-0.514-21.431,2.318-26.426,6.871
			c0.065-0.098,0.131-0.192,0.201-0.289c0.235-0.321,0.49-0.636,0.767-0.944c0.082-0.088,0.164-0.176,0.249-0.268
			c0.141-0.147,0.289-0.292,0.44-0.44c0.082-0.075,0.163-0.15,0.249-0.229c0.081-0.076,0.167-0.151,0.255-0.227
			c0.173-0.151,0.353-0.299,0.534-0.446c0.095-0.073,0.187-0.145,0.28-0.218c0.191-0.145,0.384-0.286,0.585-0.428
			c0.101-0.069,0.201-0.139,0.306-0.207c0.101-0.069,0.205-0.139,0.312-0.205c0.314-0.205,0.642-0.402,0.981-0.598
			c0.11-0.066,0.228-0.129,0.341-0.192c0.115-0.066,0.232-0.129,0.348-0.188c0.236-0.126,0.476-0.249,0.721-0.368
			c0.108-0.054,0.218-0.107,0.327-0.161c0.022-0.009,0.045-0.018,0.066-0.03c0.117-0.054,0.232-0.107,0.353-0.161
			c0.125-0.06,0.255-0.116,0.385-0.173c0.386-0.167,0.783-0.331,1.189-0.488c0.128-0.05,0.26-0.101,0.393-0.15
			c0.012-0.003,0.021-0.007,0.031-0.013c0.133-0.047,0.268-0.098,0.399-0.145c0.421-0.151,0.847-0.293,1.284-0.432
			c0.145-0.047,0.293-0.091,0.439-0.135c1.933-0.586,4.025-1.051,6.24-1.382c0.211-0.031,0.422-0.06,0.633-0.088
			c0.173-0.025,0.342-0.047,0.516-0.069c0.472-0.06,0.947-0.113,1.429-0.157c0.217-0.022,0.438-0.044,0.657-0.06
			c0.221-0.021,0.444-0.038,0.667-0.054c0.438-0.031,0.878-0.06,1.325-0.081c1.762-0.086,3.574-0.089,5.424-0.007
			C288.604,185.725,297.005,188.416,302.156,192.223z"/>
	</g>
	<g>
		
			<ellipse transform="matrix(-0.0448 0.999 -0.999 -0.0448 372.6652 36.1363)" fill="#D1D3D4" cx="169.056" cy="196.236" rx="3.588" ry="7.187"/>
		<path fill="#A7A9AC" d="M175.768,197.09c0.089-1.979-3.053-3.728-7.019-3.905c-2.813-0.127-5.282,0.571-6.515,1.693
			c0.965-1.427,3.747-2.372,6.982-2.227c3.966,0.179,7.108,1.928,7.02,3.906c-0.025,0.576-0.324,1.107-0.83,1.568
			C175.626,197.803,175.751,197.456,175.768,197.09z"/>
	</g>
	<g>
		
			<ellipse transform="matrix(-0.0449 0.999 -0.999 -0.0449 405.9116 -30.4389)" fill="#D1D3D4" cx="217.506" cy="178.81" rx="2.89" ry="5.789"/>
		<path fill="#A7A9AC" d="M222.912,179.499c0.071-1.594-2.459-3.002-5.653-3.146c-2.266-0.103-4.254,0.46-5.246,1.363
			c0.777-1.148,3.018-1.909,5.623-1.793c3.194,0.144,5.725,1.553,5.653,3.146c-0.021,0.464-0.261,0.891-0.668,1.263
			C222.798,180.073,222.898,179.792,222.912,179.499z"/>
	</g>
	<g>
		
			<ellipse transform="matrix(-0.0448 0.999 -0.999 -0.0448 409.3117 -13.2245)" fill="#D1D3D4" cx="210.978" cy="189.064" rx="5.151" ry="10.321"/>
		<path fill="#A7A9AC" d="M220.616,190.292c0.126-2.843-4.385-5.353-10.079-5.607c-4.038-0.183-7.583,0.82-9.353,2.431
			c1.386-2.048,5.38-3.406,10.024-3.196c5.695,0.256,10.207,2.767,10.08,5.608c-0.038,0.826-0.467,1.59-1.191,2.251
			C220.412,191.315,220.592,190.816,220.616,190.292z"/>
	</g>
	<g>
		
			<ellipse transform="matrix(0.1267 0.9919 -0.9919 0.1267 242.6883 113.8098)" fill="#D1D3D4" cx="56.71" cy="194.73" rx="3.419" ry="6.852"/>
		<path fill="#A7A9AC" d="M63.153,194.437c-0.239-1.872-3.475-3.002-7.229-2.522c-2.663,0.34-4.867,1.398-5.842,2.652
			c0.673-1.497,3.132-2.838,6.194-3.229c3.754-0.48,6.99,0.65,7.229,2.523c0.069,0.545-0.125,1.093-0.523,1.607
			C63.136,195.13,63.197,194.784,63.153,194.437z"/>
	</g>
	<g>
		
			<ellipse transform="matrix(0.1433 0.9897 -0.9897 0.1433 217.63 138.0555)" fill="#D1D3D4" cx="29.075" cy="194.73" rx="5.497" ry="11.014"/>
		<path fill="#A7A9AC" d="M39.422,194.086c-0.436-3.004-5.666-4.732-11.687-3.86c-4.271,0.618-7.784,2.379-9.316,4.422
			c1.041-2.425,4.957-4.646,9.868-5.358c6.019-0.872,11.252,0.857,11.688,3.86c0.126,0.875-0.17,1.76-0.798,2.6
			C39.413,195.2,39.502,194.641,39.422,194.086z"/>
	</g>
	<g>
		
			<ellipse transform="matrix(0.0522 0.9986 -0.9986 0.0522 223.968 130.4811)" fill="#D1D3D4" cx="43.246" cy="183.229" rx="1.619" ry="3.244"/>
		<path fill="#A7A9AC" d="M46.299,183.319c-0.047-0.893-1.535-1.541-3.324-1.448c-1.27,0.066-2.349,0.488-2.853,1.046
			c0.371-0.683,1.579-1.229,3.039-1.305c1.79-0.094,3.277,0.555,3.324,1.447c0.015,0.26-0.097,0.513-0.304,0.74
			C46.267,183.645,46.307,183.484,46.299,183.319z"/>
	</g>
</g>
</svg>
