<?xml version="1.0" encoding="utf-8"?>
<!-- Generator: Adobe Illustrator 16.0.0, SVG Export Plug-In . SVG Version: 6.00 Build 0)  -->
<!DOCTYPE svg PUBLIC "-//W3C//DTD SVG 1.1//EN" "http://www.w3.org/Graphics/SVG/1.1/DTD/svg11.dtd">
<svg version="1.1" xmlns="http://www.w3.org/2000/svg" xmlns:xlink="http://www.w3.org/1999/xlink" x="0px" y="0px" width="1200px"
	 height="600px" viewBox="0 0 1200 600" enable-background="new 0 0 1200 600" xml:space="preserve">
<g id="Calque_1">
</g>
<g id="Calque_3">
</g>
<g id="Calque_4">
</g>
<g id="Calque_5">
	<rect fill="#00001F" width="1200" height="600"/>
	<g>
		<g>
			<linearGradient id="SVGID_1_" gradientUnits="userSpaceOnUse" x1="902.6992" y1="187.7285" x2="1029.2393" y2="187.7285">
				<stop  offset="0" style="stop-color:#F48175"/>
				<stop  offset="0.1284" style="stop-color:#F27C73"/>
				<stop  offset="0.3172" style="stop-color:#ED6C6D"/>
				<stop  offset="0.542" style="stop-color:#E64E63"/>
				<stop  offset="0.6436" style="stop-color:#E33C5E"/>
				<stop  offset="1" style="stop-color:#E33C5E"/>
			</linearGradient>
			<path fill="url(#SVGID_1_)" d="M1029.239,201.079c-4.359-1.18-8.89-1.961-13.55-2.271c-1.64-0.119-3.29-0.18-4.96-0.18
				c-1.939,0-3.87,0.08-5.77,0.24c-2.271-1.49-4.601-2.9-6.98-4.209c-2.18-1.221-4.399-2.361-6.67-3.42
				c-14.8-7-31.33-10.91-48.78-10.91c-13.93,0-27.279,2.49-39.63,7.059c-0.069,0.012-0.13,0.031-0.2,0.051
				c15.87-8.34,33.931-13.061,53.101-13.061c8.66,0,17.1,0.961,25.21,2.791c9.72,2.18,18.97,5.609,27.57,10.1
				c3.069,1.59,6.05,3.32,8.949,5.18C1021.619,195.079,1025.529,197.958,1029.239,201.079z"/>
			<linearGradient id="SVGID_2_" gradientUnits="userSpaceOnUse" x1="902.7295" y1="191.3389" x2="981.5898" y2="191.3389">
				<stop  offset="0" style="stop-color:#923855"/>
				<stop  offset="0.1401" style="stop-color:#883653"/>
				<stop  offset="0.3976" style="stop-color:#6F314F"/>
				<stop  offset="0.741" style="stop-color:#492A48"/>
				<stop  offset="1" style="stop-color:#292342"/>
			</linearGradient>
			<path fill="url(#SVGID_2_)" d="M981.59,195.669c-1.75,0.959-3.46,2-5.11,3.109c-15.91-8.41-34.05-13.16-53.29-13.16
				c-6.99,0-13.82,0.631-20.46,1.83c0.05-0.02,0.11-0.039,0.17-0.061c8.99-2.279,18.42-3.488,28.12-3.488
				C949.18,183.899,966.35,188.128,981.59,195.669z"/>
			<path fill="none" d="M977.609,388.749c-0.09,0.09-0.18,0.17-0.27,0.25c-0.11,0.1-0.23,0.201-0.34,0.291
				c0.05-0.041,0.09-0.08,0.14-0.131C977.3,389.028,977.449,388.89,977.609,388.749z"/>
			<path fill="none" d="M997.109,259.089c-0.2-0.23-0.41-0.451-0.63-0.68h0.01C996.699,258.628,996.909,258.858,997.109,259.089z"/>
			<path fill="none" d="M935.77,224.419c-2.91-0.25-5.85-0.381-8.82-0.4c0.37-0.01,0.75-0.01,1.131-0.01
				C930.68,224.009,933.239,224.149,935.77,224.419z"/>
			<linearGradient id="SVGID_3_" gradientUnits="userSpaceOnUse" x1="824.4893" y1="328.3291" x2="1037.5498" y2="328.3291">
				<stop  offset="0" style="stop-color:#F48175"/>
				<stop  offset="0.2301" style="stop-color:#F37E74"/>
				<stop  offset="0.4595" style="stop-color:#F07570"/>
				<stop  offset="0.6885" style="stop-color:#EB646A"/>
				<stop  offset="0.9162" style="stop-color:#E54962"/>
				<stop  offset="1" style="stop-color:#E33C5E"/>
			</linearGradient>
			<path fill="url(#SVGID_3_)" d="M1037.55,299.979c0,1.959-0.05,3.91-0.15,5.85c-0.04,0.82-0.09,1.65-0.149,2.471
				c-0.061,0.799-0.12,1.6-0.2,2.389c0,0.041,0,0.08-0.01,0.121c0,0.01,0,0.01,0,0.01c0,0.061-0.011,0.119-0.021,0.18
				c-0.04,0.471-0.09,0.93-0.14,1.391c0,0.09-0.011,0.18-0.03,0.27c-0.02,0.26-0.05,0.52-0.09,0.779
				c-0.01,0.111-0.021,0.221-0.04,0.33c-0.101,0.861-0.21,1.711-0.33,2.561c-0.09,0.631-0.19,1.26-0.29,1.891
				c-0.1,0.6-0.2,1.199-0.31,1.799c-0.061,0.33-0.11,0.66-0.181,0.99c-0.09,0.49-0.18,0.99-0.279,1.48
				c-0.011,0.1-0.03,0.199-0.051,0.301c-0.199,0.979-0.41,1.949-0.64,2.92c-0.13,0.568-0.26,1.129-0.4,1.699
				c-0.02,0.09-0.04,0.18-0.069,0.27c-0.15,0.641-0.32,1.291-0.49,1.93c-0.01,0.051-0.03,0.092-0.04,0.141
				c-0.17,0.631-0.35,1.26-0.53,1.881c-0.51,1.77-1.06,3.529-1.649,5.27c-0.29,0.85-0.591,1.689-0.9,2.529
				c-0.13,0.35-0.26,0.691-0.39,1.041c-0.141,0.379-0.29,0.77-0.44,1.15c-0.27,0.689-0.54,1.379-0.83,2.059
				c-0.22,0.541-0.45,1.08-0.689,1.621c-0.58,1.34-1.181,2.66-1.811,3.969c-0.3,0.631-0.609,1.26-0.93,1.881
				c-0.42,0.84-0.851,1.68-1.29,2.51c-0.3,0.58-0.61,1.15-0.93,1.711c-0.36,0.658-0.73,1.318-1.11,1.969
				c-0.21,0.361-0.42,0.721-0.64,1.08c-0.37,0.631-0.75,1.26-1.141,1.881c-0.05,0.09-0.109,0.18-0.16,0.26
				c-0.27,0.43-0.54,0.85-0.81,1.27c-0.07,0.109-0.13,0.221-0.21,0.32c-0.25,0.391-0.5,0.77-0.76,1.15
				c-0.38,0.59-0.771,1.16-1.181,1.74c-0.09,0.148-0.189,0.289-0.3,0.439c-0.359,0.52-0.72,1.029-1.1,1.529
				c-0.3,0.43-0.61,0.861-0.94,1.281c-0.45,0.619-0.92,1.229-1.39,1.84c-0.28,0.369-0.57,0.74-0.87,1.109
				c-5.18,6.5-11.06,12.42-17.51,17.65c-2.65,2.15-5.391,4.18-8.23,6.08c-0.09,0.07-0.189,0.129-0.29,0.189
				c-0.76,0.51-1.52,1.01-2.3,1.5c-0.97,0.609-1.95,1.221-2.94,1.801h-0.01c-0.37,0.229-0.74,0.439-1.109,0.66
				c-0.011,0.01-0.021,0.01-0.03,0.02c-0.59,0.34-1.19,0.68-1.79,1c-0.01,0.01-0.021,0-0.021,0c-0.68,0.379-1.34,0.75-2.029,1.109
				c-0.92,0.49-1.851,0.961-2.78,1.41c-0.48,0.24-0.96,0.48-1.45,0.699c-0.63,0.301-1.25,0.592-1.89,0.881
				c-0.54,0.25-1.08,0.49-1.63,0.721c-0.681,0.299-1.37,0.59-2.061,0.869c0.04,0.01,0.08,0.02,0.12,0.02
				c-1.09,0.391-2.16,0.82-3.21,1.291c-0.01,0-0.01,0-0.02,0c-0.221,0.1-0.431,0.199-0.641,0.299c-0.34,0.15-0.68,0.32-1.01,0.49
				c-0.65,0.311-1.29,0.65-1.92,1.01c-0.67,0.381-1.34,0.771-1.99,1.201c-0.3,0.18-0.6,0.369-0.89,0.57
				c-0.43,0.279-0.851,0.568-1.26,0.879c-3.091,2.221-5.87,4.83-8.271,7.76c-0.11,0.131-0.21,0.26-0.31,0.391
				c-0.17,0.199-0.33,0.41-0.49,0.609c-2.14,2.76-3.95,5.791-5.36,9.021c-0.14,0.289-0.27,0.59-0.39,0.879
				c-0.17,0.41-0.33,0.811-0.48,1.23c-0.26,0.641-0.489,1.279-0.699,1.939c0.01,0.031,0.029,0.061,0.05,0.08
				c-0.65,2.311-0.99,4.75-0.99,7.26c0,0.781,0.03,1.551,0.11,2.311c0.25,3.061,1.02,5.98,2.21,8.67c0.67,1.49,1.46,2.9,2.37,4.23
				c4.85,7.119,13.029,11.789,22.3,11.789c3.34,0,6.54-0.609,9.49-1.719c-4.421,3.148-9.82,5-15.65,5
				c-7.39,0-14.07-2.961-18.95-7.771v-0.01c-3.02-2.98-5.35-6.67-6.689-10.809c-0.381-1.15-0.69-2.342-0.91-3.561
				c-0.021-0.07-0.03-0.141-0.03-0.211c-0.27-1.51-0.41-3.059-0.41-4.639c0-0.09,0-0.182,0.01-0.271c-0.01-0.01-0.01-0.01,0-0.02
				c-0.01-0.01-0.01-0.029,0-0.039c-0.01-0.01-0.01-0.01,0-0.021c-0.01-0.359-0.01-0.689-0.01-1.049c0-2.65,0.24-5.24,0.69-7.76
				c0-0.01,0-0.01,0-0.021c0.1-0.568,0.22-1.129,0.34-1.68c0.66-3.02,1.64-5.91,2.9-8.66c1.189-2.629,2.649-5.119,4.34-7.449
				c0.38-0.541,0.79-1.08,1.21-1.609c0.479-0.602,0.97-1.191,1.479-1.76c0.431-0.48,0.86-0.961,1.311-1.422h0.01
				c0.07-0.068,0.13-0.139,0.2-0.209c41.96-14.26,72.97-52.24,77.05-97.971c0-0.01,0-0.029,0.01-0.039
				c0.311-3.381,0.46-6.811,0.46-10.281c0-4.32-0.24-8.58-0.71-12.77c-2.72-15.461-10.45-29.189-21.46-39.439
				c-3.8-3.271-7.82-6.291-12.03-9.031c-15.39-10.049-33.35-16.49-52.68-18.119c-2.91-0.25-5.85-0.381-8.82-0.4
				c-0.3-0.01-0.609-0.01-0.92-0.01c-37.689,0-71.13,18.24-91.96,46.379c-3.569,4.82-6.779,9.941-9.56,15.301
				c0-0.17-0.01-0.35-0.01-0.52c-0.011-0.031-0.011-0.061,0-0.09c-0.011-0.521-0.011-1.051-0.011-1.57
				c0-16.371,3.44-31.939,9.65-46.02c13.56-21.592,34.16-38.34,58.57-47.012c1.13-0.398,2.26-0.789,3.399-1.148
				c1.681-0.541,3.38-1.041,5.09-1.49c0.381-0.121,0.771-0.221,1.16-0.32c0.11-0.029,0.23-0.061,0.34-0.08
				c0.07-0.02,0.131-0.039,0.2-0.051c-0.06,0.021-0.12,0.041-0.17,0.061c6.64-1.199,13.47-1.83,20.46-1.83
				c19.24,0,37.38,4.75,53.29,13.16c1.59,0.83,3.16,1.699,4.71,2.621c1.2,0.699,2.38,1.43,3.54,2.17
				c20.93,13.389,37.22,33.42,45.89,57.109c1.11,3.029,2.091,6.119,2.95,9.27c0.891,3.289,1.641,6.641,2.23,10.051
				c0.09,0.439,0.16,0.869,0.22,1.309v0.01c0.7,4.141,1.15,8.361,1.37,12.641C1037.5,295.958,1037.55,297.958,1037.55,299.979z"/>
			<path fill="none" d="M1025.47,351.149c-0.2,0.42-0.41,0.84-0.63,1.26c-0.21,0.42-0.431,0.84-0.66,1.25
				C1024.619,352.829,1025.05,351.989,1025.47,351.149z"/>
			<linearGradient id="SVGID_4_" gradientUnits="userSpaceOnUse" x1="896.7393" y1="245.6787" x2="993.0801" y2="245.6787">
				<stop  offset="0" style="stop-color:#923855"/>
				<stop  offset="0.1401" style="stop-color:#883653"/>
				<stop  offset="0.3976" style="stop-color:#6F314F"/>
				<stop  offset="0.741" style="stop-color:#492A48"/>
				<stop  offset="1" style="stop-color:#292342"/>
			</linearGradient>
			<path fill="url(#SVGID_4_)" d="M993.08,255.038c-2.32-0.4-4.681-0.68-7.07-0.84c-1.641-0.119-3.29-0.18-4.95-0.18
				c-2.45,0-4.87,0.119-7.26,0.359h-0.01c-7.841-4.979-16.73-8.469-26.271-10.049c-0.41-0.07-0.82-0.131-1.229-0.191
				c-0.511-0.08-1.021-0.139-1.53-0.209c-2.9-0.359-5.86-0.551-8.87-0.551c-10.771,0-20.97,2.41-30.1,6.711
				c-3.15,1.49-6.181,3.199-9.051,5.109c6.16-5.76,13.341-10.43,21.25-13.689c8.32-3.451,17.44-5.35,27.011-5.35
				c1.1,0,2.18,0.02,3.26,0.08h0.01l0.01-0.012c0,0,0,0,0.011,0.012c0.649,0.029,1.3,0.059,1.949,0.119
				c9.69,0.711,18.841,3.369,27.051,7.59C983.06,246.929,988.369,250.659,993.08,255.038z"/>
			<linearGradient id="SVGID_5_" gradientUnits="userSpaceOnUse" x1="1036.0195" y1="325.2588" x2="1055.21" y2="325.2588">
				<stop  offset="0" style="stop-color:#F04E5E"/>
				<stop  offset="0.1028" style="stop-color:#E34B5C"/>
				<stop  offset="0.241" style="stop-color:#CB475A"/>
				<stop  offset="0.3993" style="stop-color:#A84056"/>
				<stop  offset="0.5714" style="stop-color:#7D344E"/>
				<stop  offset="0.6485" style="stop-color:#692E49"/>
				<stop  offset="0.7001" style="stop-color:#692E49"/>
				<stop  offset="1" style="stop-color:#692E49"/>
			</linearGradient>
			<path fill="url(#SVGID_5_)" d="M1055.21,329.729c0,4.93-0.511,9.74-1.471,14.391v0.01c-0.439,2.119-0.97,4.199-1.6,6.25
				c-1.55,5.119-3.68,9.979-6.29,14.529c0,0.01-0.01,0.01-0.01,0.01c-0.84,1.461-1.73,2.891-2.681,4.281
				c-0.04-2.051-0.229-4.061-0.54-6.031c-0.14-0.891-0.31-1.76-0.51-2.619c-0.01-0.051-0.02-0.1-0.029-0.15
				c-0.48-2.121-1.12-4.18-1.891-6.17c-0.16-0.4-0.33-0.801-0.49-1.201c0.91-2.988,1.61-6.068,2.11-9.219
				c0.57-3.621,0.87-7.34,0.87-11.131v-0.41c0-0.24,0-0.49-0.01-0.719v-0.031c-0.021-1.01-0.051-2.02-0.12-3.02
				c-0.061-1.209-0.16-2.42-0.3-3.609c0-0.01,0-0.01,0-0.02c-0.04-0.381-0.08-0.75-0.131-1.121c-0.02-0.189-0.05-0.369-0.079-0.549
				c-0.801-6.07-2.391-11.9-4.641-17.371c0.101-1.939,0.15-3.891,0.15-5.85c0-2.021-0.05-4.021-0.16-6.021
				c-0.22-4.279-0.67-8.5-1.37-12.641c1.73,1.83,3.36,3.762,4.89,5.771v0.01c1.57,2.07,3.03,4.24,4.37,6.48v0.01
				c2.29,3.84,4.23,7.91,5.761,12.18c1.3,3.602,2.319,7.34,3.02,11.191c0.1,0.58,0.2,1.16,0.3,1.75c0,0,0,0,0,0.01
				c0.17,1.08,0.311,2.17,0.431,3.27c0.09,0.801,0.159,1.6,0.22,2.41c0.12,1.52,0.18,3.051,0.189,4.6
				C1055.21,329.239,1055.21,329.489,1055.21,329.729z"/>
			<linearGradient id="SVGID_6_" gradientUnits="userSpaceOnUse" x1="902.8994" y1="189.4189" x2="997.9795" y2="189.4189">
				<stop  offset="0" style="stop-color:#F04E5E"/>
				<stop  offset="0.1028" style="stop-color:#E34B5C"/>
				<stop  offset="0.241" style="stop-color:#CB475A"/>
				<stop  offset="0.3993" style="stop-color:#A84056"/>
				<stop  offset="0.5714" style="stop-color:#7D344E"/>
				<stop  offset="0.6485" style="stop-color:#692E49"/>
				<stop  offset="0.7001" style="stop-color:#692E49"/>
				<stop  offset="1" style="stop-color:#692E49"/>
			</linearGradient>
			<path fill="url(#SVGID_6_)" d="M997.979,194.659c-3.8,0.979-7.479,2.27-11.01,3.85c-0.01,0-0.01,0-0.01,0
				c-1.761-1-3.551-1.951-5.37-2.84c-15.24-7.541-32.41-11.77-50.57-11.77c-9.7,0-19.13,1.209-28.12,3.488
				c12.351-4.568,25.7-7.059,39.63-7.059c17.45,0,33.98,3.91,48.78,10.91C993.58,192.298,995.8,193.438,997.979,194.659z"/>
			<linearGradient id="SVGID_7_" gradientUnits="userSpaceOnUse" x1="895.54" y1="253.5186" x2="980.4199" y2="253.5186">
				<stop  offset="0" style="stop-color:#F04E5E"/>
				<stop  offset="0.1028" style="stop-color:#E34B5C"/>
				<stop  offset="0.241" style="stop-color:#CB475A"/>
				<stop  offset="0.3993" style="stop-color:#A84056"/>
				<stop  offset="0.5714" style="stop-color:#7D344E"/>
				<stop  offset="0.6485" style="stop-color:#692E49"/>
				<stop  offset="0.7001" style="stop-color:#692E49"/>
				<stop  offset="1" style="stop-color:#692E49"/>
			</linearGradient>
			<path fill="url(#SVGID_7_)" d="M980.42,259.169c-6.38,0.359-12.54,1.58-18.37,3.529c-0.9,0.301-1.79,0.621-2.67,0.961h-0.011
				c-0.21-0.141-0.42-0.281-0.63-0.41c-1.88-1.23-3.83-2.361-5.83-3.4c-2.449-1.279-4.989-2.42-7.6-3.4
				c-0.1-0.049-0.2-0.08-0.3-0.109c-1.16-0.439-2.33-0.85-3.521-1.221c-6.689-2.1-13.81-3.23-21.189-3.23
				c-6.62,0-13.04,0.91-19.12,2.621c-1.91,0.539-3.8,1.16-5.64,1.85c0.39-0.4,0.79-0.779,1.189-1.15c0,0,0.01,0,0.01-0.01
				c2.87-1.91,5.9-3.619,9.051-5.109c9.13-4.301,19.329-6.711,30.1-6.711c3.01,0,5.97,0.191,8.87,0.551
				c0.51,0.07,1.02,0.129,1.53,0.209c0.409,0.061,0.819,0.121,1.229,0.191c9.54,1.58,18.43,5.07,26.271,10.049h0.01
				C976.109,255.849,978.31,257.448,980.42,259.169z"/>
			<linearGradient id="SVGID_8_" gradientUnits="userSpaceOnUse" x1="895.2598" y1="262.5928" x2="962.7598" y2="262.5928">
				<stop  offset="0" style="stop-color:#F48175"/>
				<stop  offset="0.1284" style="stop-color:#F27C73"/>
				<stop  offset="0.3172" style="stop-color:#ED6C6D"/>
				<stop  offset="0.542" style="stop-color:#E64E63"/>
				<stop  offset="0.6436" style="stop-color:#E33C5E"/>
				<stop  offset="1" style="stop-color:#E33C5E"/>
			</linearGradient>
			<path fill="url(#SVGID_8_)" d="M962.76,266.058c-3,1.531-5.88,3.271-8.61,5.201c-0.939,0.65-1.859,1.34-2.76,2.039
				c-0.2-0.18-0.41-0.359-0.62-0.539c-1.21-1.031-2.45-2.01-3.729-2.961c-0.37-0.279-0.75-0.549-1.131-0.82
				c-0.229-0.17-0.47-0.33-0.699-0.49c-0.37-0.26-0.75-0.52-1.13-0.76c-0.841-0.568-1.69-1.109-2.561-1.629
				c-0.439-0.27-0.89-0.529-1.35-0.791c-10.351-5.949-22.351-9.35-35.15-9.35c-1.81,0-3.6,0.07-5.37,0.201
				c-1.479,0.109-2.939,0.27-4.39,0.469c0.09-0.1,0.18-0.18,0.27-0.27h0.011c1.84-0.689,3.729-1.311,5.64-1.85
				c6.08-1.711,12.5-2.621,19.12-2.621c7.38,0,14.5,1.131,21.189,3.23c1.19,0.371,2.36,0.781,3.521,1.221
				c0.1,0.029,0.2,0.061,0.3,0.109c2.61,0.98,5.15,2.121,7.6,3.4c2,1.039,3.95,2.17,5.83,3.4c0.21,0.129,0.42,0.27,0.63,0.41h0.011
				C960.529,264.429,961.659,265.228,962.76,266.058z"/>
			<linearGradient id="SVGID_9_" gradientUnits="userSpaceOnUse" x1="895.0693" y1="272.123" x2="961.0801" y2="272.123">
				<stop  offset="0" style="stop-color:#F39A83"/>
				<stop  offset="0.1522" style="stop-color:#E7907D"/>
				<stop  offset="0.376" style="stop-color:#D07A6D"/>
				<stop  offset="0.6439" style="stop-color:#AF5956"/>
				<stop  offset="0.9438" style="stop-color:#862E3B"/>
				<stop  offset="1" style="stop-color:#7E2536"/>
			</linearGradient>
			<path fill="url(#SVGID_9_)" d="M961.08,283.589c-3.48,0.529-6.881,1.32-10.171,2.34c-0.649,0.189-1.29,0.4-1.93,0.619
				c-0.68,0.23-1.35,0.471-2.01,0.721c-0.01,0-0.01,0.01-0.01,0.01c-0.87,0.32-1.721,0.66-2.561,1.01
				c-0.859-1.33-1.77-2.629-2.72-3.891c-0.26-0.34-0.51-0.68-0.78-1.02c-0.01-0.01-0.02-0.02-0.02-0.029
				c-0.4-0.51-0.8-1.02-1.221-1.52c-0.42-0.512-0.85-1.021-1.29-1.521c-0.67-0.77-1.35-1.52-2.06-2.26
				c-1.28-1.34-2.61-2.629-3.99-3.869c-0.12-0.111-0.239-0.221-0.359-0.32c-9.28-8.221-20.73-14.039-33.391-16.471
				c-1.16-0.219-2.319-0.42-3.5-0.58c0.061-0.059,0.12-0.119,0.181-0.18h0.01c1.45-0.199,2.91-0.359,4.39-0.469
				c1.771-0.131,3.561-0.201,5.37-0.201c12.8,0,24.8,3.4,35.15,9.35c0.46,0.262,0.91,0.521,1.35,0.791
				c0.87,0.52,1.72,1.061,2.561,1.629c0.38,0.24,0.76,0.5,1.13,0.76c0.229,0.16,0.47,0.32,0.699,0.49
				c0.381,0.271,0.761,0.541,1.131,0.82c1.279,0.951,2.52,1.93,3.729,2.961c0.21,0.18,0.42,0.359,0.62,0.539
				c1.38,1.189,2.7,2.439,3.979,3.74C957.409,279.099,959.31,281.288,961.08,283.589z"/>
			<linearGradient id="SVGID_10_" gradientUnits="userSpaceOnUse" x1="1030.6191" y1="304.8594" x2="1076.2607" y2="304.8594">
				<stop  offset="0" style="stop-color:#F39A83"/>
				<stop  offset="0.1522" style="stop-color:#E7907D"/>
				<stop  offset="0.376" style="stop-color:#D07A6D"/>
				<stop  offset="0.6439" style="stop-color:#AF5956"/>
				<stop  offset="0.9438" style="stop-color:#862E3B"/>
				<stop  offset="1" style="stop-color:#7E2536"/>
			</linearGradient>
			<path fill="url(#SVGID_10_)" d="M1076.261,326.79c0,7.779-1.26,15.25-3.58,22.25c-1.891-4.381-4.49-8.391-7.641-11.881
				c0.3-2.65,0.46-5.35,0.46-8.09c0-2.311-0.11-4.6-0.33-6.859c-0.221-2.26-0.54-4.49-0.971-6.682
				c-0.05-0.299-0.109-0.59-0.18-0.879c-0.31-1.529-0.67-3.02-1.09-4.5v-0.01c-1.45-5.24-3.49-10.211-6.05-14.891v-0.021
				c-1.16-2.129-2.431-4.199-3.8-6.189v-0.02c-2.811-4.041-5.98-7.76-9.521-11.141c-3.08-2.93-6.42-5.59-9.99-7.93
				c-0.859-3.15-1.84-6.24-2.95-9.27c3.461,1.299,6.78,2.869,9.95,4.68c4.41,2.52,8.521,5.5,12.271,8.869
				c0.899,0.811,1.779,1.641,2.64,2.5c5.93,5.91,10.811,12.871,14.352,20.57v0.01c0.568,1.23,1.109,2.48,1.6,3.752
				c0.359,0.9,0.689,1.82,1.01,2.74c0.109,0.33,0.219,0.66,0.32,0.99C1075.03,311.71,1076.261,319.108,1076.261,326.79z"/>
			<linearGradient id="SVGID_11_" gradientUnits="userSpaceOnUse" x1="1033.5693" y1="313.8691" x2="1065.5" y2="313.8691">
				<stop  offset="0" style="stop-color:#F48175"/>
				<stop  offset="0.1284" style="stop-color:#F27C73"/>
				<stop  offset="0.3172" style="stop-color:#ED6C6D"/>
				<stop  offset="0.542" style="stop-color:#E64E63"/>
				<stop  offset="0.6436" style="stop-color:#E33C5E"/>
				<stop  offset="1" style="stop-color:#E33C5E"/>
			</linearGradient>
			<path fill="url(#SVGID_11_)" d="M1065.5,329.069c0,2.74-0.16,5.439-0.46,8.09c-0.83,7.27-2.761,14.199-5.62,20.631
				c-0.95-4.211-2.511-8.191-4.58-11.84c-0.351-0.621-0.721-1.221-1.101-1.82v-0.01c0.96-4.65,1.471-9.461,1.471-14.391
				c0-0.24,0-0.49-0.011-0.73c-0.01-1.549-0.069-3.08-0.189-4.6c-0.061-0.811-0.13-1.609-0.22-2.41
				c-0.12-1.1-0.261-2.189-0.431-3.27c0-0.01,0-0.01,0-0.01c-0.1-0.59-0.2-1.17-0.3-1.75c-0.7-3.852-1.72-7.59-3.02-11.191
				c-1.53-4.27-3.471-8.34-5.761-12.18v-0.01c-1.34-2.24-2.8-4.41-4.37-6.48v-0.01c-1.529-2.01-3.159-3.941-4.89-5.771v-0.01
				c-0.06-0.439-0.13-0.869-0.22-1.309c-0.59-3.41-1.34-6.762-2.23-10.051c3.57,2.34,6.91,5,9.99,7.93
				c3.54,3.381,6.71,7.1,9.521,11.141v0.02c1.369,1.99,2.64,4.061,3.8,6.189v0.021c2.56,4.68,4.6,9.65,6.05,14.891v0.01
				c0.42,1.48,0.78,2.971,1.09,4.5c0.07,0.289,0.13,0.58,0.18,0.879c0.431,2.191,0.75,4.422,0.971,6.682
				C1065.39,324.47,1065.5,326.759,1065.5,329.069z"/>
			<path fill="none" d="M940.449,431.479c-0.25,0.66-0.46,1.33-0.649,2.02c-0.021-0.02-0.04-0.049-0.05-0.08
				C939.96,432.759,940.189,432.12,940.449,431.479z"/>
			<path fill="none" d="M940.449,431.479c-0.25,0.66-0.46,1.33-0.649,2.02c-0.021-0.02-0.04-0.049-0.05-0.08
				C939.96,432.759,940.189,432.12,940.449,431.479z"/>
			<linearGradient id="SVGID_12_" gradientUnits="userSpaceOnUse" x1="1022.6494" y1="343.6738" x2="1042.6797" y2="343.6738">
				<stop  offset="0" style="stop-color:#923855"/>
				<stop  offset="0.1401" style="stop-color:#883653"/>
				<stop  offset="0.3976" style="stop-color:#6F314F"/>
				<stop  offset="0.741" style="stop-color:#492A48"/>
				<stop  offset="1" style="stop-color:#292342"/>
			</linearGradient>
			<path fill="url(#SVGID_12_)" d="M1042.68,332.269v0.41c0,3.791-0.3,7.51-0.87,11.131c-0.5,3.15-1.2,6.23-2.11,9.219
				c-0.42,1.41-0.88,2.791-1.39,4.16c-0.47,1.271-0.97,2.531-1.51,3.762c-3.16,7.229-7.5,13.84-12.771,19.568
				c-0.46,0.34-0.92,0.682-1.38,1c1.271-2.619,2.28-5.389,3-8.27c0.01-0.01,0.01-0.02,0.01-0.02c0.86-3.42,1.32-7,1.32-10.689
				c0-0.67-0.01-1.33-0.05-1.99c-0.05-1.25-0.16-2.49-0.32-3.721c-0.25-1.939-0.63-3.83-1.14-5.68c0.32-0.621,0.63-1.25,0.93-1.881
				c0.63-1.309,1.23-2.629,1.811-3.969c0.239-0.541,0.47-1.08,0.689-1.621c0.29-0.68,0.561-1.369,0.83-2.059
				c0.15-0.381,0.3-0.771,0.44-1.15c0.13-0.35,0.26-0.691,0.39-1.041c0.31-0.84,0.61-1.68,0.9-2.529c0.59-1.74,1.14-3.5,1.649-5.27
				c0.181-0.621,0.36-1.25,0.53-1.881c0.01-0.049,0.03-0.09,0.04-0.141c0.17-0.639,0.34-1.289,0.49-1.93
				c0.029-0.09,0.05-0.18,0.069-0.27c0.141-0.57,0.271-1.131,0.4-1.699c0.229-0.971,0.44-1.941,0.64-2.92
				c0.021-0.102,0.04-0.201,0.051-0.301c1.09-5.43,1.789-10.99,2.069-16.66c2.25,5.471,3.84,11.301,4.641,17.371
				c0.029,0.18,0.06,0.359,0.079,0.549c0.051,0.371,0.091,0.74,0.131,1.121c0,0.01,0,0.01,0,0.02c0.14,1.189,0.239,2.4,0.3,3.609
				c0.069,1,0.1,2.01,0.12,3.02v0.031C1042.68,331.778,1042.68,332.028,1042.68,332.269z"/>
			<path fill="none" d="M940.449,431.479c-0.25,0.66-0.46,1.33-0.649,2.02c-0.021-0.02-0.04-0.049-0.05-0.08
				C939.96,432.759,940.189,432.12,940.449,431.479z"/>
			<linearGradient id="SVGID_13_" gradientUnits="userSpaceOnUse" x1="943.5" y1="461.8643" x2="982.7998" y2="461.8643">
				<stop  offset="0" style="stop-color:#F39A83"/>
				<stop  offset="0.1522" style="stop-color:#E7907D"/>
				<stop  offset="0.376" style="stop-color:#D07A6D"/>
				<stop  offset="0.6439" style="stop-color:#AF5956"/>
				<stop  offset="0.9438" style="stop-color:#862E3B"/>
				<stop  offset="1" style="stop-color:#7E2536"/>
			</linearGradient>
			<path fill="url(#SVGID_13_)" d="M982.8,457.919c-1.92,3.201-4.48,5.971-7.51,8.121c-2.95,1.109-6.15,1.719-9.49,1.719
				c-9.271,0-17.45-4.67-22.3-11.789c4.619,3.709,10.47,5.91,16.84,5.91c3.37,0,6.6-0.621,9.569-1.75c0.66,0.059,1.33,0.08,2,0.08
				C975.79,460.21,979.47,459.39,982.8,457.919z"/>
			<path fill="none" d="M940.449,431.479c-0.25,0.66-0.46,1.33-0.649,2.02c-0.021-0.02-0.04-0.049-0.05-0.08
				C939.96,432.759,940.189,432.12,940.449,431.479z"/>
			<path fill="none" d="M940.449,431.479c-0.25,0.66-0.46,1.33-0.649,2.02c-0.021-0.02-0.04-0.049-0.05-0.08
				C939.96,432.759,940.189,432.12,940.449,431.479z"/>
			<linearGradient id="SVGID_14_" gradientUnits="userSpaceOnUse" x1="939.7998" y1="426.2295" x2="955.75" y2="426.2295">
				<stop  offset="0" style="stop-color:#923855"/>
				<stop  offset="0.1401" style="stop-color:#883653"/>
				<stop  offset="0.3976" style="stop-color:#6F314F"/>
				<stop  offset="0.741" style="stop-color:#492A48"/>
				<stop  offset="1" style="stop-color:#292342"/>
			</linearGradient>
			<path fill="url(#SVGID_14_)" d="M955.75,411.589c-2.801,2.1-5.19,4.73-6.99,7.74c-0.12,0.189-0.23,0.381-0.33,0.58
				c-0.061,0.08-0.1,0.16-0.14,0.24c-0.04,0.051-0.061,0.1-0.091,0.15v0.01c-2.09,3.84-3.279,8.219-3.279,12.9
				c0,2.66,0.38,5.229,1.1,7.66c-2.49-2.061-4.61-4.551-6.22-7.371c0.189-0.689,0.399-1.359,0.649-2.02
				c0.15-0.42,0.311-0.82,0.48-1.23c0.12-0.289,0.25-0.59,0.39-0.879c1.41-3.23,3.221-6.262,5.36-9.021
				c0.16-0.199,0.32-0.41,0.49-0.609c0.1-0.131,0.199-0.26,0.31-0.391C949.88,416.419,952.659,413.81,955.75,411.589z"/>
			<path fill="none" d="M940.449,431.479c-0.25,0.66-0.46,1.33-0.649,2.02c-0.021-0.02-0.04-0.049-0.05-0.08
				C939.96,432.759,940.189,432.12,940.449,431.479z"/>
			<linearGradient id="SVGID_15_" gradientUnits="userSpaceOnUse" x1="938.8096" y1="442.6338" x2="952.3193" y2="442.6338">
				<stop  offset="0" style="stop-color:#F04E5E"/>
				<stop  offset="0.1028" style="stop-color:#E34B5C"/>
				<stop  offset="0.241" style="stop-color:#CB475A"/>
				<stop  offset="0.3993" style="stop-color:#A84056"/>
				<stop  offset="0.5714" style="stop-color:#7D344E"/>
				<stop  offset="0.6485" style="stop-color:#692E49"/>
				<stop  offset="0.7001" style="stop-color:#692E49"/>
				<stop  offset="1" style="stop-color:#692E49"/>
			</linearGradient>
			<path fill="url(#SVGID_15_)" d="M952.319,451.769c-5.319-1.49-9.97-4.568-13.399-8.699c-0.08-0.76-0.11-1.529-0.11-2.311
				c0-2.51,0.34-4.949,0.99-7.26c1.609,2.82,3.729,5.311,6.22,7.371c0,0,0,0,0.01,0C947.239,444.999,949.42,448.72,952.319,451.769z
				"/>
			<linearGradient id="SVGID_16_" gradientUnits="userSpaceOnUse" x1="970.4263" y1="452.2471" x2="940.0933" y2="452.5801">
				<stop  offset="0" style="stop-color:#F48175"/>
				<stop  offset="0.1284" style="stop-color:#F27C73"/>
				<stop  offset="0.3172" style="stop-color:#ED6C6D"/>
				<stop  offset="0.542" style="stop-color:#E64E63"/>
				<stop  offset="0.6436" style="stop-color:#E33C5E"/>
				<stop  offset="1" style="stop-color:#E33C5E"/>
			</linearGradient>
			<path fill="url(#SVGID_16_)" d="M969.909,460.13c-2.97,1.129-6.199,1.75-9.569,1.75c-6.37,0-12.221-2.201-16.84-5.91
				c-2.551-3.73-4.19-8.141-4.58-12.9c3.43,4.131,8.08,7.209,13.399,8.699C956.8,456.509,962.989,459.63,969.909,460.13z"/>
			<linearGradient id="SVGID_17_" gradientUnits="userSpaceOnUse" x1="824.5098" y1="318.0391" x2="1022.6494" y2="318.0391">
				<stop  offset="0" style="stop-color:#F39A83"/>
				<stop  offset="0.1522" style="stop-color:#E7907D"/>
				<stop  offset="0.376" style="stop-color:#D07A6D"/>
				<stop  offset="0.6439" style="stop-color:#AF5956"/>
				<stop  offset="0.9438" style="stop-color:#862E3B"/>
				<stop  offset="1" style="stop-color:#7E2536"/>
			</linearGradient>
			<path fill="url(#SVGID_17_)" d="M1022.649,303.778c0,3.471-0.149,6.9-0.46,10.281c-0.01,0.01-0.01,0.029-0.01,0.039
				c-4.08,45.73-35.09,83.711-77.05,97.971c0.109-0.119,0.229-0.24,0.35-0.359c0.99-0.98,2.021-1.92,3.101-2.811
				c1.64-1.35,3.38-2.59,5.21-3.689c0.04-0.021,0.079-0.041,0.109-0.061c1.05-0.541,2.09-1.1,3.11-1.689
				c0.06-0.031,0.109-0.061,0.17-0.09c0.07-0.041,0.15-0.08,0.229-0.111c-0.01,0-0.02-0.01-0.02-0.01
				c0.11-0.049,0.22-0.109,0.33-0.18c0.5-0.279,1-0.57,1.49-0.859c0,0,0,0,0.01,0c0.189-0.102,0.36-0.211,0.54-0.33
				c0.55-0.32,1.09-0.65,1.63-0.99c0.07-0.041,0.14-0.09,0.21-0.131c0.09-0.049,0.17-0.109,0.26-0.16
				c0.23-0.139,0.45-0.289,0.67-0.43c0.53-0.33,1.051-0.67,1.57-1.02h0.01c0.58-0.371,1.16-0.76,1.73-1.16
				c0.029-0.02,0.06-0.039,0.09-0.061c0.65-0.439,1.29-0.889,1.93-1.35c0.641-0.449,1.271-0.92,1.9-1.41
				c0.26-0.18,0.51-0.369,0.77-0.57c0.17-0.119,0.351-0.25,0.521-0.389c0.64-0.49,1.28-0.99,1.91-1.51c0.81-0.65,1.62-1.311,2.409-2
				c0.551-0.461,1.091-0.932,1.631-1.41c0.109-0.09,0.229-0.191,0.34-0.291c0.09-0.08,0.18-0.16,0.27-0.25
				c0.23-0.199,0.471-0.41,0.7-0.641c0.521-0.459,1.04-0.939,1.55-1.43c1.021-0.959,2.03-1.949,3.021-2.949
				c0.529-0.529,1.05-1.07,1.56-1.621c0.04-0.029,0.07-0.068,0.09-0.1c0.09-0.09,0.181-0.18,0.261-0.27
				c0.18-0.189,0.359-0.381,0.52-0.57c0.22-0.219,0.42-0.439,0.61-0.66c0.08-0.07,0.14-0.15,0.199-0.219
				c0.07-0.061,0.12-0.131,0.171-0.191c0.199-0.209,0.39-0.42,0.569-0.639c0.48-0.531,0.94-1.061,1.4-1.602
				c0.04-0.049,0.09-0.1,0.13-0.148c0.52-0.611,1.03-1.23,1.54-1.852c5.43-6.648,10.13-13.908,13.97-21.689v-0.01
				c0.87-1.74,1.69-3.51,2.46-5.301c1.09-2.529,2.09-5.119,3-7.738c0.141-0.381,0.271-0.762,0.4-1.141
				c0.7-2.07,1.34-4.17,1.91-6.301c0.25-0.9,0.479-1.809,0.699-2.709c0.07-0.291,0.141-0.57,0.2-0.85
				c0.13-0.521,0.25-1.041,0.36-1.561c0.03-0.109,0.06-0.221,0.08-0.33c0.08-0.34,0.149-0.68,0.22-1.02
				c0.23-1.102,0.45-2.201,0.64-3.311c0.131-0.699,0.25-1.41,0.36-2.121c0.16-0.939,0.29-1.879,0.42-2.828
				c0-0.031,0.01-0.061,0.01-0.102c0.61-4.529,0.95-9.129,1-13.82c0-0.01,0-0.01,0-0.01c-0.069-2.52-0.26-4.99-0.579-7.43
				c-1.28-9.811-4.57-18.98-9.45-27.09c-0.03-0.07-0.07-0.131-0.11-0.191c-2.13-3.52-4.55-6.84-7.24-9.92
				c-0.39-0.439-0.77-0.869-1.17-1.299c-0.2-0.23-0.41-0.461-0.62-0.68h-0.01c-0.479-0.51-0.97-1.021-1.47-1.521
				c-0.63-0.629-1.28-1.25-1.93-1.85c-4.711-4.379-10.021-8.109-15.79-11.09c-8.21-4.221-17.36-6.879-27.051-7.59
				c-0.649-0.061-1.3-0.09-1.949-0.119c-0.011-0.012-0.011-0.012-0.011-0.012l-0.01,0.012h-0.01c-1.08-0.061-2.16-0.08-3.26-0.08
				c-9.57,0-18.69,1.898-27.011,5.35c-7.909,3.26-15.09,7.93-21.25,13.689c0,0.01-0.01,0.01-0.01,0.01
				c-0.399,0.371-0.8,0.75-1.189,1.15h-0.011c-0.09,0.09-0.18,0.17-0.27,0.27h-0.01c-0.061,0.061-0.12,0.121-0.181,0.18
				c-2.52,2.521-4.859,5.221-6.979,8.102c-0.01,0.01-0.021,0.02-0.021,0.039c-2,2.701-3.8,5.561-5.399,8.539
				c-3.82,5.521-8.12,10.682-12.851,15.432c0,0-0.01,0-0.01,0.01c-3.81,3.85-7.9,7.42-12.229,10.68
				c-1.74,1.33-3.521,2.592-5.33,3.811c0.01-0.061,0.029-0.109,0.04-0.17c-0.36,0.311-0.73,0.6-1.12,0.881
				c-0.46,0.299-0.92,0.6-1.391,0.898c-2.05,1.191-4.37,1.951-6.85,2.172c-0.49,0.049-0.99,0.068-1.49,0.068
				c-1.47,0-2.89-0.189-4.24-0.549c-3.56-0.93-6.659-3-8.859-5.811c-1.94-2.451-3.21-5.451-3.51-8.73
				c-0.03-0.25-0.051-0.49-0.061-0.74c-0.04-0.439-0.07-0.881-0.09-1.32c-0.07-1.15-0.12-2.301-0.14-3.459
				c-0.021-0.32-0.021-0.65-0.03-0.971c2.78-5.359,5.99-10.48,9.56-15.301c20.83-28.139,54.271-46.379,91.96-46.379
				c0.311,0,0.62,0,0.92,0.01c2.971,0.02,5.91,0.15,8.82,0.4c19.33,1.629,37.29,8.07,52.68,18.119c4.21,2.74,8.23,5.76,12.03,9.031
				c11.01,10.25,18.74,23.979,21.46,39.439C1022.409,295.198,1022.649,299.458,1022.649,303.778z"/>
		</g>
		<g>
			
				<linearGradient id="SVGID_18_" gradientUnits="userSpaceOnUse" x1="1032.1465" y1="-1144.2256" x2="1158.6865" y2="-1144.2256" gradientTransform="matrix(-1 0 0 -1 1929.4463 -731.2754)">
				<stop  offset="0" style="stop-color:#77D1EF"/>
				<stop  offset="0.1399" style="stop-color:#75C9E8"/>
				<stop  offset="0.2829" style="stop-color:#6DBBD9"/>
				<stop  offset="0.4274" style="stop-color:#61A7C5"/>
				<stop  offset="0.5729" style="stop-color:#518EAB"/>
				<stop  offset="0.7193" style="stop-color:#3D718E"/>
				<stop  offset="0.8641" style="stop-color:#255371"/>
				<stop  offset="1" style="stop-color:#053756"/>
			</linearGradient>
			<path fill="url(#SVGID_18_)" d="M770.76,399.601c4.359,1.18,8.89,1.959,13.55,2.27c1.64,0.119,3.29,0.18,4.96,0.18
				c1.939,0,3.87-0.08,5.77-0.24c2.271,1.49,4.601,2.9,6.98,4.211c2.18,1.219,4.399,2.359,6.67,3.42c14.8,7,31.33,10.91,48.78,10.91
				c13.93,0,27.279-2.49,39.63-7.061c0.069-0.01,0.13-0.031,0.2-0.051c-15.87,8.34-33.931,13.061-53.101,13.061
				c-8.66,0-17.1-0.961-25.21-2.791c-9.72-2.18-18.97-5.609-27.57-10.1c-3.069-1.59-6.05-3.32-8.949-5.18
				C778.38,405.601,774.47,402.72,770.76,399.601z"/>
			
				<linearGradient id="SVGID_19_" gradientUnits="userSpaceOnUse" x1="1032.1768" y1="-1140.6152" x2="1111.0371" y2="-1140.6152" gradientTransform="matrix(-1 0 0 -1 1929.4463 -731.2754)">
				<stop  offset="0" style="stop-color:#31469D"/>
				<stop  offset="0.1147" style="stop-color:#2F4291"/>
				<stop  offset="0.3257" style="stop-color:#2A377A"/>
				<stop  offset="0.6093" style="stop-color:#1C2457"/>
				<stop  offset="0.9516" style="stop-color:#01032C"/>
				<stop  offset="1" style="stop-color:#000025"/>
			</linearGradient>
			<path fill="url(#SVGID_19_)" d="M818.409,405.009c1.75-0.959,3.46-2,5.11-3.109c15.91,8.41,34.05,13.16,53.29,13.16
				c6.99,0,13.82-0.629,20.46-1.83c-0.05,0.02-0.11,0.041-0.17,0.061c-8.99,2.279-18.42,3.49-28.12,3.49
				C850.819,416.78,833.649,412.55,818.409,405.009z"/>
			<path fill="none" d="M822.39,211.929c0.09-0.09,0.18-0.17,0.27-0.25c0.11-0.1,0.23-0.201,0.34-0.291
				c-0.05,0.041-0.09,0.08-0.14,0.131C822.699,211.649,822.55,211.788,822.39,211.929z"/>
			<path fill="none" d="M802.89,341.589c0.2,0.23,0.41,0.451,0.63,0.68h-0.01C803.3,342.05,803.09,341.819,802.89,341.589z"/>
			<path fill="none" d="M864.229,376.259c2.91,0.25,5.85,0.381,8.82,0.4c-0.37,0.01-0.75,0.01-1.131,0.01
				C869.319,376.669,866.76,376.528,864.229,376.259z"/>
			
				<linearGradient id="SVGID_20_" gradientUnits="userSpaceOnUse" x1="953.9365" y1="-1003.624" x2="1166.9971" y2="-1003.624" gradientTransform="matrix(-1 0 0 -1 1929.4463 -731.2754)">
				<stop  offset="0" style="stop-color:#77D1EF"/>
				<stop  offset="0.1399" style="stop-color:#75C9E8"/>
				<stop  offset="0.2829" style="stop-color:#6DBBD9"/>
				<stop  offset="0.4274" style="stop-color:#61A7C5"/>
				<stop  offset="0.5729" style="stop-color:#518EAB"/>
				<stop  offset="0.7193" style="stop-color:#3D718E"/>
				<stop  offset="0.8641" style="stop-color:#255371"/>
				<stop  offset="1" style="stop-color:#053756"/>
			</linearGradient>
			<path fill="url(#SVGID_20_)" d="M762.449,300.698c0-1.959,0.05-3.91,0.15-5.85c0.04-0.82,0.09-1.65,0.149-2.471
				c0.061-0.799,0.12-1.6,0.2-2.389c0-0.041,0-0.08,0.01-0.121c0-0.01,0-0.01,0-0.01c0-0.061,0.011-0.119,0.021-0.18
				c0.04-0.471,0.09-0.93,0.14-1.391c0-0.09,0.011-0.18,0.03-0.27c0.02-0.26,0.05-0.52,0.09-0.779c0.01-0.111,0.021-0.221,0.04-0.33
				c0.101-0.861,0.21-1.711,0.33-2.561c0.09-0.631,0.19-1.26,0.29-1.891c0.1-0.6,0.2-1.199,0.31-1.799
				c0.061-0.33,0.11-0.66,0.181-0.99c0.09-0.49,0.18-0.99,0.279-1.48c0.011-0.1,0.03-0.199,0.051-0.301
				c0.199-0.977,0.41-1.947,0.64-2.918c0.13-0.568,0.26-1.129,0.4-1.699c0.02-0.09,0.04-0.18,0.069-0.27
				c0.15-0.641,0.32-1.291,0.49-1.93c0.01-0.051,0.03-0.092,0.04-0.141c0.17-0.631,0.35-1.26,0.53-1.881
				c0.51-1.77,1.06-3.529,1.649-5.27c0.29-0.85,0.591-1.689,0.9-2.529c0.13-0.35,0.26-0.691,0.39-1.041
				c0.141-0.379,0.29-0.77,0.44-1.15c0.27-0.689,0.54-1.379,0.83-2.059c0.22-0.541,0.45-1.08,0.689-1.621
				c0.58-1.342,1.181-2.662,1.811-3.971c0.3-0.631,0.609-1.26,0.93-1.881c0.42-0.84,0.851-1.68,1.29-2.51
				c0.3-0.58,0.61-1.15,0.93-1.711c0.36-0.658,0.73-1.318,1.11-1.969c0.21-0.361,0.42-0.721,0.64-1.08
				c0.37-0.631,0.75-1.26,1.141-1.881c0.05-0.09,0.109-0.18,0.16-0.26c0.27-0.43,0.54-0.85,0.81-1.27
				c0.07-0.109,0.13-0.221,0.21-0.32c0.25-0.391,0.5-0.77,0.76-1.15c0.38-0.59,0.771-1.16,1.181-1.74
				c0.09-0.148,0.189-0.289,0.3-0.439c0.359-0.52,0.72-1.029,1.1-1.529c0.3-0.43,0.61-0.861,0.94-1.281
				c0.45-0.619,0.92-1.229,1.39-1.84c0.28-0.369,0.57-0.74,0.87-1.109c5.18-6.5,11.06-12.42,17.51-17.65
				c2.65-2.15,5.391-4.18,8.23-6.08c0.09-0.07,0.189-0.129,0.29-0.189c0.76-0.51,1.52-1.01,2.3-1.5
				c0.97-0.609,1.95-1.221,2.94-1.801h0.01c0.37-0.229,0.74-0.439,1.109-0.66c0.011-0.01,0.021-0.01,0.03-0.02
				c0.59-0.34,1.19-0.68,1.79-1c0.01-0.01,0.021,0,0.021,0c0.68-0.379,1.34-0.75,2.029-1.109c0.92-0.49,1.851-0.961,2.78-1.41
				c0.48-0.24,0.96-0.48,1.45-0.699c0.63-0.301,1.25-0.592,1.89-0.881c0.54-0.25,1.08-0.49,1.63-0.721
				c0.681-0.299,1.37-0.59,2.061-0.869c-0.04-0.01-0.08-0.02-0.12-0.02c1.09-0.391,2.16-0.82,3.21-1.291c0.01,0,0.01,0,0.02,0
				c0.221-0.1,0.431-0.199,0.641-0.299c0.34-0.15,0.68-0.32,1.01-0.49c0.65-0.311,1.29-0.65,1.92-1.01
				c0.67-0.381,1.34-0.771,1.99-1.201c0.3-0.18,0.6-0.369,0.89-0.57c0.43-0.279,0.851-0.568,1.26-0.879
				c3.091-2.221,5.87-4.83,8.271-7.76c0.11-0.131,0.21-0.26,0.31-0.391c0.17-0.199,0.33-0.41,0.49-0.609
				c2.14-2.76,3.95-5.791,5.36-9.021c0.14-0.289,0.27-0.59,0.39-0.879c0.17-0.41,0.33-0.811,0.48-1.23
				c0.26-0.641,0.489-1.279,0.699-1.939c-0.01-0.031-0.029-0.061-0.05-0.08c0.65-2.311,0.99-4.75,0.99-7.26
				c0-0.781-0.03-1.551-0.11-2.311c-0.25-3.061-1.02-5.98-2.21-8.67c-0.67-1.49-1.46-2.9-2.37-4.23
				c-4.85-7.119-13.029-11.789-22.3-11.789c-3.34,0-6.54,0.609-9.49,1.719c4.421-3.148,9.82-5,15.65-5
				c7.39,0,14.07,2.961,18.95,7.771v0.01c3.02,2.98,5.35,6.67,6.689,10.809c0.381,1.15,0.69,2.342,0.91,3.561
				c0.021,0.07,0.03,0.141,0.03,0.211c0.27,1.51,0.41,3.059,0.41,4.639c0,0.09,0,0.182-0.01,0.271c0.01,0.01,0.01,0.01,0,0.02
				c0.01,0.01,0.01,0.029,0,0.039c0.01,0.01,0.01,0.01,0,0.021c0.01,0.359,0.01,0.689,0.01,1.049c0,2.65-0.24,5.24-0.69,7.76
				c0,0.01,0,0.01,0,0.021c-0.1,0.568-0.22,1.129-0.34,1.68c-0.66,3.02-1.64,5.91-2.9,8.66c-1.189,2.629-2.649,5.119-4.34,7.449
				c-0.38,0.541-0.79,1.08-1.21,1.609c-0.479,0.602-0.97,1.191-1.479,1.76c-0.431,0.48-0.86,0.961-1.311,1.422h-0.01
				c-0.07,0.068-0.13,0.139-0.2,0.209c-41.96,14.26-72.97,52.24-77.05,97.973c0,0.01,0,0.029-0.01,0.039
				c-0.311,3.381-0.46,6.811-0.46,10.281c0,4.318,0.24,8.578,0.71,12.768c2.72,15.461,10.45,29.189,21.46,39.439
				c3.8,3.271,7.82,6.291,12.03,9.031c15.39,10.049,33.35,16.49,52.68,18.119c2.91,0.25,5.85,0.381,8.82,0.4
				c0.3,0.01,0.609,0.01,0.92,0.01c37.689,0,71.13-18.24,91.96-46.379c3.569-4.82,6.779-9.941,9.56-15.301
				c0,0.17,0.01,0.35,0.01,0.52c0.011,0.031,0.011,0.061,0,0.09c0.011,0.521,0.011,1.051,0.011,1.57
				c0,16.371-3.44,31.939-9.65,46.02c-13.56,21.592-34.16,38.342-58.57,47.012c-1.13,0.4-2.26,0.789-3.399,1.15
				c-1.681,0.539-3.38,1.039-5.09,1.488c-0.381,0.121-0.771,0.221-1.16,0.32c-0.11,0.031-0.23,0.061-0.34,0.08
				c-0.07,0.02-0.131,0.041-0.2,0.051c0.06-0.02,0.12-0.041,0.17-0.061c-6.64,1.201-13.47,1.83-20.46,1.83
				c-19.24,0-37.38-4.75-53.29-13.16c-1.59-0.83-3.16-1.699-4.71-2.619c-1.2-0.701-2.38-1.43-3.54-2.17
				c-20.93-13.391-37.22-33.422-45.89-57.111c-1.11-3.029-2.091-6.119-2.95-9.27c-0.891-3.289-1.641-6.641-2.23-10.051
				c-0.09-0.439-0.16-0.869-0.22-1.309v-0.01c-0.7-4.141-1.15-8.361-1.37-12.641C762.499,304.72,762.449,302.72,762.449,300.698z"/>
			<path fill="none" d="M774.529,249.528c0.2-0.42,0.41-0.84,0.63-1.26c0.21-0.42,0.431-0.84,0.66-1.25
				C775.38,247.849,774.949,248.688,774.529,249.528z"/>
			
				<linearGradient id="SVGID_21_" gradientUnits="userSpaceOnUse" x1="1026.1865" y1="-1086.2744" x2="1122.5273" y2="-1086.2744" gradientTransform="matrix(-1 0 0 -1 1929.4463 -731.2754)">
				<stop  offset="0" style="stop-color:#31469D"/>
				<stop  offset="0.1147" style="stop-color:#2F4291"/>
				<stop  offset="0.3257" style="stop-color:#2A377A"/>
				<stop  offset="0.6093" style="stop-color:#1C2457"/>
				<stop  offset="0.9516" style="stop-color:#01032C"/>
				<stop  offset="1" style="stop-color:#000025"/>
			</linearGradient>
			<path fill="url(#SVGID_21_)" d="M806.919,345.64c2.32,0.4,4.681,0.68,7.07,0.84c1.641,0.119,3.29,0.18,4.95,0.18
				c2.45,0,4.87-0.119,7.26-0.359h0.01c7.841,4.979,16.73,8.469,26.271,10.049c0.41,0.07,0.82,0.131,1.229,0.191
				c0.511,0.08,1.021,0.139,1.53,0.209c2.9,0.359,5.86,0.551,8.87,0.551c10.771,0,20.97-2.41,30.1-6.711
				c3.15-1.49,6.181-3.199,9.051-5.109c-6.16,5.76-13.341,10.43-21.25,13.689c-8.32,3.451-17.44,5.35-27.011,5.35
				c-1.1,0-2.18-0.02-3.26-0.08h-0.01l-0.01,0.012c0,0,0,0-0.011-0.012c-0.649-0.029-1.3-0.059-1.949-0.119
				c-9.69-0.711-18.841-3.369-27.051-7.59C816.939,353.749,811.63,350.019,806.919,345.64z"/>
			
				<linearGradient id="SVGID_22_" gradientUnits="userSpaceOnUse" x1="1176.9155" y1="-1031.8931" x2="1164.9153" y2="-973.2256" gradientTransform="matrix(-1 0 0 -1 1929.4463 -731.2754)">
				<stop  offset="0" style="stop-color:#1D5BAA"/>
				<stop  offset="0.1132" style="stop-color:#1E58A2"/>
				<stop  offset="0.2655" style="stop-color:#1F5094"/>
				<stop  offset="0.44" style="stop-color:#1E447E"/>
				<stop  offset="0.6311" style="stop-color:#193262"/>
				<stop  offset="0.8332" style="stop-color:#0B1B42"/>
				<stop  offset="1" style="stop-color:#000025"/>
			</linearGradient>
			<path fill="url(#SVGID_22_)" d="M744.789,270.948c0-4.93,0.511-9.74,1.471-14.391v-0.01c0.439-2.119,0.97-4.199,1.6-6.25
				c1.55-5.119,3.68-9.979,6.29-14.529c0-0.01,0.01-0.01,0.01-0.01c0.84-1.461,1.73-2.891,2.681-4.281
				c0.04,2.051,0.229,4.061,0.54,6.031c0.14,0.891,0.31,1.76,0.51,2.619c0.01,0.051,0.02,0.1,0.029,0.15
				c0.48,2.121,1.12,4.18,1.891,6.17c0.16,0.4,0.33,0.801,0.49,1.201c-0.91,2.988-1.61,6.068-2.11,9.219
				c-0.57,3.621-0.87,7.34-0.87,11.131v0.41c0,0.24,0,0.49,0.01,0.719v0.031c0.021,1.01,0.051,2.02,0.12,3.02
				c0.061,1.209,0.16,2.42,0.3,3.609c0,0.01,0,0.01,0,0.02c0.04,0.381,0.08,0.75,0.131,1.121c0.02,0.189,0.05,0.369,0.079,0.549
				c0.801,6.07,2.391,11.9,4.641,17.371c-0.101,1.939-0.15,3.891-0.15,5.85c0,2.021,0.05,4.021,0.16,6.021
				c0.22,4.279,0.67,8.5,1.37,12.641c-1.73-1.83-3.36-3.762-4.89-5.771v-0.01c-1.57-2.07-3.03-4.24-4.37-6.48v-0.01
				c-2.29-3.84-4.23-7.91-5.761-12.18c-1.3-3.602-2.319-7.34-3.02-11.191c-0.1-0.58-0.2-1.16-0.3-1.75c0,0,0,0,0-0.01
				c-0.17-1.08-0.311-2.17-0.431-3.27c-0.09-0.801-0.159-1.6-0.22-2.41c-0.12-1.52-0.18-3.051-0.189-4.6
				C744.789,271.438,744.789,271.188,744.789,270.948z"/>
			
				<linearGradient id="SVGID_23_" gradientUnits="userSpaceOnUse" x1="1032.3467" y1="-1142.5352" x2="1127.4268" y2="-1142.5352" gradientTransform="matrix(-1 0 0 -1 1929.4463 -731.2754)">
				<stop  offset="0" style="stop-color:#1D5BAA"/>
				<stop  offset="0.1132" style="stop-color:#1E58A2"/>
				<stop  offset="0.2655" style="stop-color:#1F5094"/>
				<stop  offset="0.44" style="stop-color:#1E447E"/>
				<stop  offset="0.6311" style="stop-color:#193262"/>
				<stop  offset="0.8332" style="stop-color:#0B1B42"/>
				<stop  offset="1" style="stop-color:#000025"/>
			</linearGradient>
			<path fill="url(#SVGID_23_)" d="M802.02,406.021c3.8-0.98,7.479-2.271,11.01-3.852c0.01,0,0.01,0,0.01,0
				c1.761,1,3.551,1.951,5.37,2.84c15.24,7.541,32.41,11.771,50.57,11.771c9.7,0,19.13-1.211,28.12-3.49
				c-12.351,4.57-25.7,7.061-39.63,7.061c-17.45,0-33.98-3.91-48.78-10.91C806.419,408.38,804.199,407.239,802.02,406.021z"/>
			
				<linearGradient id="SVGID_24_" gradientUnits="userSpaceOnUse" x1="1024.9873" y1="-1078.4346" x2="1109.8672" y2="-1078.4346" gradientTransform="matrix(-1 0 0 -1 1929.4463 -731.2754)">
				<stop  offset="0" style="stop-color:#1D5BAA"/>
				<stop  offset="0.1132" style="stop-color:#1E58A2"/>
				<stop  offset="0.2655" style="stop-color:#1F5094"/>
				<stop  offset="0.44" style="stop-color:#1E447E"/>
				<stop  offset="0.6311" style="stop-color:#193262"/>
				<stop  offset="0.8332" style="stop-color:#0B1B42"/>
				<stop  offset="1" style="stop-color:#000025"/>
			</linearGradient>
			<path fill="url(#SVGID_24_)" d="M819.579,341.509c6.38-0.359,12.54-1.58,18.37-3.529c0.9-0.301,1.79-0.621,2.67-0.961h0.011
				c0.21,0.141,0.42,0.281,0.63,0.41c1.88,1.23,3.83,2.361,5.83,3.4c2.449,1.279,4.989,2.42,7.6,3.4c0.1,0.049,0.2,0.08,0.3,0.109
				c1.16,0.439,2.33,0.85,3.521,1.221c6.689,2.1,13.81,3.23,21.189,3.23c6.62,0,13.04-0.91,19.12-2.621
				c1.91-0.539,3.8-1.16,5.64-1.85c-0.39,0.4-0.79,0.779-1.189,1.15c0,0-0.01,0-0.01,0.01c-2.87,1.91-5.9,3.619-9.051,5.109
				c-9.13,4.301-19.329,6.711-30.1,6.711c-3.01,0-5.97-0.191-8.87-0.551c-0.51-0.07-1.02-0.129-1.53-0.209
				c-0.409-0.061-0.819-0.121-1.229-0.191c-9.54-1.58-18.43-5.07-26.271-10.049h-0.01
				C823.89,344.829,821.689,343.229,819.579,341.509z"/>
			
				<linearGradient id="SVGID_25_" gradientUnits="userSpaceOnUse" x1="1024.707" y1="-1069.3604" x2="1092.207" y2="-1069.3604" gradientTransform="matrix(-1 0 0 -1 1929.4463 -731.2754)">
				<stop  offset="0" style="stop-color:#77D1EF"/>
				<stop  offset="0.1399" style="stop-color:#75C9E8"/>
				<stop  offset="0.2829" style="stop-color:#6DBBD9"/>
				<stop  offset="0.4274" style="stop-color:#61A7C5"/>
				<stop  offset="0.5729" style="stop-color:#518EAB"/>
				<stop  offset="0.7193" style="stop-color:#3D718E"/>
				<stop  offset="0.8641" style="stop-color:#255371"/>
				<stop  offset="1" style="stop-color:#053756"/>
			</linearGradient>
			<path fill="url(#SVGID_25_)" d="M837.239,334.62c3-1.531,5.88-3.271,8.61-5.201c0.939-0.65,1.859-1.34,2.76-2.039
				c0.2,0.18,0.41,0.359,0.62,0.539c1.21,1.031,2.45,2.01,3.729,2.961c0.37,0.279,0.75,0.549,1.131,0.82
				c0.229,0.17,0.47,0.33,0.699,0.49c0.37,0.26,0.75,0.52,1.13,0.76c0.841,0.568,1.69,1.109,2.561,1.629
				c0.439,0.27,0.89,0.529,1.35,0.791c10.351,5.949,22.351,9.35,35.15,9.35c1.81,0,3.6-0.07,5.37-0.201
				c1.479-0.109,2.939-0.27,4.39-0.469c-0.09,0.1-0.18,0.18-0.27,0.27h-0.011c-1.84,0.689-3.729,1.311-5.64,1.85
				c-6.08,1.711-12.5,2.621-19.12,2.621c-7.38,0-14.5-1.131-21.189-3.23c-1.19-0.371-2.36-0.781-3.521-1.221
				c-0.1-0.029-0.2-0.061-0.3-0.109c-2.61-0.98-5.15-2.121-7.6-3.4c-2-1.039-3.95-2.17-5.83-3.4c-0.21-0.129-0.42-0.27-0.63-0.41
				h-0.011C839.47,336.249,838.34,335.45,837.239,334.62z"/>
			
				<linearGradient id="SVGID_26_" gradientUnits="userSpaceOnUse" x1="1024.5166" y1="-1059.8301" x2="1090.5273" y2="-1059.8301" gradientTransform="matrix(-1 0 0 -1 1929.4463 -731.2754)">
				<stop  offset="0" style="stop-color:#B6E2EB"/>
				<stop  offset="0.2205" style="stop-color:#A0D5E8"/>
				<stop  offset="0.2525" style="stop-color:#9CD4E8"/>
				<stop  offset="0.6145" style="stop-color:#6CBFE5"/>
				<stop  offset="1" style="stop-color:#00ABE3"/>
			</linearGradient>
			<path fill="url(#SVGID_26_)" d="M838.919,317.089c3.48-0.529,6.881-1.32,10.171-2.34c0.649-0.189,1.29-0.4,1.93-0.619
				c0.68-0.23,1.35-0.471,2.01-0.721c0.01,0,0.01-0.01,0.01-0.01c0.87-0.32,1.721-0.66,2.561-1.01c0.859,1.33,1.77,2.629,2.72,3.891
				c0.26,0.34,0.51,0.68,0.78,1.02c0.01,0.01,0.02,0.02,0.02,0.029c0.4,0.51,0.8,1.02,1.221,1.52c0.42,0.512,0.85,1.021,1.29,1.521
				c0.67,0.77,1.35,1.52,2.06,2.26c1.28,1.34,2.61,2.629,3.99,3.869c0.12,0.111,0.239,0.221,0.359,0.32
				c9.28,8.221,20.73,14.039,33.391,16.471c1.16,0.219,2.319,0.42,3.5,0.58c-0.061,0.059-0.12,0.119-0.181,0.18h-0.01
				c-1.45,0.199-2.91,0.359-4.39,0.469c-1.771,0.131-3.561,0.201-5.37,0.201c-12.8,0-24.8-3.4-35.15-9.35
				c-0.46-0.262-0.91-0.521-1.35-0.791c-0.87-0.52-1.72-1.061-2.561-1.629c-0.38-0.24-0.76-0.5-1.13-0.76
				c-0.229-0.16-0.47-0.32-0.699-0.49c-0.381-0.271-0.761-0.541-1.131-0.82c-1.279-0.951-2.52-1.93-3.729-2.961
				c-0.21-0.18-0.42-0.359-0.62-0.539c-1.38-1.189-2.7-2.439-3.979-3.74C842.59,321.579,840.689,319.39,838.919,317.089z"/>
			
				<linearGradient id="SVGID_27_" gradientUnits="userSpaceOnUse" x1="1173.2495" y1="-1063.9507" x2="1205.5824" y2="-996.6172" gradientTransform="matrix(-1 0 0 -1 1929.4463 -731.2754)">
				<stop  offset="0" style="stop-color:#B6E2EB"/>
				<stop  offset="0.2205" style="stop-color:#A0D5E8"/>
				<stop  offset="0.2525" style="stop-color:#9CD4E8"/>
				<stop  offset="0.6145" style="stop-color:#6CBFE5"/>
				<stop  offset="1" style="stop-color:#00ABE3"/>
			</linearGradient>
			<path fill="url(#SVGID_27_)" d="M723.739,273.888c0-7.779,1.26-15.25,3.58-22.25c1.891,4.381,4.49,8.391,7.64,11.881
				c-0.3,2.65-0.46,5.35-0.46,8.09c0,2.311,0.11,4.6,0.33,6.859c0.221,2.26,0.54,4.49,0.971,6.682c0.05,0.299,0.109,0.59,0.18,0.879
				c0.31,1.529,0.67,3.02,1.09,4.5v0.01c1.45,5.24,3.49,10.211,6.05,14.891v0.021c1.16,2.129,2.431,4.199,3.8,6.189v0.02
				c2.811,4.041,5.98,7.76,9.521,11.141c3.08,2.93,6.42,5.59,9.99,7.93c0.859,3.15,1.84,6.24,2.95,9.27
				c-3.461-1.299-6.78-2.869-9.95-4.68c-4.41-2.52-8.521-5.5-12.271-8.869c-0.899-0.811-1.779-1.641-2.64-2.5
				c-5.93-5.91-10.811-12.871-14.351-20.57v-0.01c-0.568-1.23-1.109-2.48-1.6-3.752c-0.359-0.9-0.689-1.82-1.01-2.74
				c-0.109-0.33-0.219-0.66-0.32-0.99C724.97,288.968,723.739,281.569,723.739,273.888z"/>
			
				<linearGradient id="SVGID_28_" gradientUnits="userSpaceOnUse" x1="1172.4849" y1="-1053.1455" x2="1194.1516" y2="-984.8113" gradientTransform="matrix(-1 0 0 -1 1929.4463 -731.2754)">
				<stop  offset="0" style="stop-color:#77D1EF"/>
				<stop  offset="0.1399" style="stop-color:#75C9E8"/>
				<stop  offset="0.2829" style="stop-color:#6DBBD9"/>
				<stop  offset="0.4274" style="stop-color:#61A7C5"/>
				<stop  offset="0.5729" style="stop-color:#518EAB"/>
				<stop  offset="0.7193" style="stop-color:#3D718E"/>
				<stop  offset="0.8641" style="stop-color:#255371"/>
				<stop  offset="1" style="stop-color:#053756"/>
			</linearGradient>
			<path fill="url(#SVGID_28_)" d="M734.499,271.608c0-2.74,0.16-5.439,0.46-8.09c0.83-7.27,2.761-14.199,5.62-20.631
				c0.95,4.211,2.511,8.191,4.58,11.84c0.351,0.621,0.721,1.221,1.101,1.82v0.01c-0.96,4.65-1.471,9.461-1.471,14.391
				c0,0.24,0,0.49,0.011,0.73c0.01,1.549,0.069,3.08,0.189,4.6c0.061,0.811,0.13,1.609,0.22,2.41c0.12,1.1,0.261,2.189,0.431,3.27
				c0,0.01,0,0.01,0,0.01c0.1,0.59,0.2,1.17,0.3,1.75c0.7,3.852,1.72,7.59,3.02,11.191c1.53,4.27,3.471,8.34,5.761,12.18v0.01
				c1.34,2.24,2.8,4.41,4.37,6.48v0.01c1.529,2.01,3.159,3.941,4.89,5.771v0.01c0.06,0.439,0.13,0.869,0.22,1.309
				c0.59,3.41,1.34,6.762,2.23,10.051c-3.57-2.34-6.91-5-9.99-7.93c-3.54-3.381-6.71-7.1-9.521-11.141v-0.02
				c-1.369-1.99-2.64-4.061-3.8-6.189v-0.021c-2.56-4.68-4.6-9.65-6.05-14.891v-0.01c-0.42-1.48-0.78-2.971-1.09-4.5
				c-0.07-0.289-0.13-0.58-0.18-0.879c-0.431-2.191-0.75-4.422-0.971-6.682C734.609,276.208,734.499,273.919,734.499,271.608z"/>
			<path fill="none" d="M859.55,169.198c0.25-0.66,0.46-1.33,0.649-2.02c0.021,0.02,0.04,0.049,0.05,0.08
				C860.039,167.919,859.81,168.558,859.55,169.198z"/>
			<path fill="none" d="M859.55,169.198c0.25-0.66,0.46-1.33,0.649-2.02c0.021,0.02,0.04,0.049,0.05,0.08
				C860.039,167.919,859.81,168.558,859.55,169.198z"/>
			
				<linearGradient id="SVGID_29_" gradientUnits="userSpaceOnUse" x1="1169.8823" y1="-1008.667" x2="1154.5487" y2="-958.6667" gradientTransform="matrix(-1 0 0 -1 1929.4463 -731.2754)">
				<stop  offset="0" style="stop-color:#31469D"/>
				<stop  offset="0.1147" style="stop-color:#2F4291"/>
				<stop  offset="0.3257" style="stop-color:#2A377A"/>
				<stop  offset="0.6093" style="stop-color:#1C2457"/>
				<stop  offset="0.9516" style="stop-color:#01032C"/>
				<stop  offset="1" style="stop-color:#000025"/>
			</linearGradient>
			<path fill="url(#SVGID_29_)" d="M757.319,268.409v-0.41c0-3.791,0.3-7.51,0.87-11.131c0.5-3.15,1.2-6.23,2.11-9.219
				c0.42-1.41,0.88-2.791,1.39-4.16c0.47-1.271,0.97-2.531,1.51-3.762c3.16-7.229,7.5-13.84,12.771-19.568
				c0.46-0.34,0.92-0.682,1.38-1c-1.271,2.619-2.28,5.389-3,8.27c-0.01,0.01-0.01,0.02-0.01,0.02c-0.86,3.42-1.32,7-1.32,10.689
				c0,0.67,0.01,1.33,0.05,1.99c0.05,1.25,0.16,2.49,0.32,3.721c0.25,1.939,0.63,3.83,1.14,5.68c-0.32,0.621-0.63,1.25-0.93,1.881
				c-0.63,1.309-1.23,2.629-1.811,3.971c-0.239,0.541-0.47,1.08-0.689,1.621c-0.29,0.68-0.561,1.369-0.83,2.059
				c-0.15,0.381-0.3,0.771-0.44,1.15c-0.13,0.35-0.26,0.691-0.39,1.041c-0.31,0.84-0.61,1.68-0.9,2.529
				c-0.59,1.74-1.14,3.5-1.649,5.27c-0.181,0.621-0.36,1.25-0.53,1.881c-0.01,0.049-0.03,0.09-0.04,0.141
				c-0.17,0.639-0.34,1.289-0.49,1.93c-0.029,0.09-0.05,0.18-0.069,0.27c-0.141,0.57-0.271,1.131-0.4,1.699
				c-0.229,0.971-0.44,1.941-0.64,2.918c-0.021,0.102-0.04,0.201-0.051,0.301c-1.09,5.43-1.789,10.99-2.069,16.66
				c-2.25-5.471-3.84-11.301-4.641-17.371c-0.029-0.18-0.06-0.359-0.079-0.549c-0.051-0.371-0.091-0.74-0.131-1.121
				c0-0.01,0-0.01,0-0.02c-0.14-1.189-0.239-2.4-0.3-3.609c-0.069-1-0.1-2.01-0.12-3.02v-0.031
				C757.319,268.899,757.319,268.649,757.319,268.409z"/>
			<path fill="none" d="M859.55,169.198c0.25-0.66,0.46-1.33,0.649-2.02c0.021,0.02,0.04,0.049,0.05,0.08
				C860.039,167.919,859.81,168.558,859.55,169.198z"/>
			
				<linearGradient id="SVGID_30_" gradientUnits="userSpaceOnUse" x1="1072.9473" y1="-870.0889" x2="1112.2471" y2="-870.0889" gradientTransform="matrix(-1 0 0 -1 1929.4463 -731.2754)">
				<stop  offset="0" style="stop-color:#B6E2EB"/>
				<stop  offset="0.2205" style="stop-color:#A0D5E8"/>
				<stop  offset="0.2525" style="stop-color:#9CD4E8"/>
				<stop  offset="0.6145" style="stop-color:#6CBFE5"/>
				<stop  offset="1" style="stop-color:#00ABE3"/>
			</linearGradient>
			<path fill="url(#SVGID_30_)" d="M817.199,142.759c1.92-3.201,4.48-5.971,7.51-8.121c2.95-1.109,6.15-1.719,9.49-1.719
				c9.271,0,17.45,4.67,22.3,11.789c-4.619-3.709-10.47-5.91-16.84-5.91c-3.37,0-6.6,0.621-9.569,1.75c-0.66-0.059-1.33-0.08-2-0.08
				C824.209,140.468,820.529,141.288,817.199,142.759z"/>
			<path fill="none" d="M859.55,169.198c0.25-0.66,0.46-1.33,0.649-2.02c0.021,0.02,0.04,0.049,0.05,0.08
				C860.039,167.919,859.81,168.558,859.55,169.198z"/>
			<path fill="none" d="M859.55,169.198c0.25-0.66,0.46-1.33,0.649-2.02c0.021,0.02,0.04,0.049,0.05,0.08
				C860.039,167.919,859.81,168.558,859.55,169.198z"/>
			
				<linearGradient id="SVGID_31_" gradientUnits="userSpaceOnUse" x1="1069.2471" y1="-905.7236" x2="1085.1973" y2="-905.7236" gradientTransform="matrix(-1 0 0 -1 1929.4463 -731.2754)">
				<stop  offset="0" style="stop-color:#31469D"/>
				<stop  offset="0.1147" style="stop-color:#2F4291"/>
				<stop  offset="0.3257" style="stop-color:#2A377A"/>
				<stop  offset="0.6093" style="stop-color:#1C2457"/>
				<stop  offset="0.9516" style="stop-color:#01032C"/>
				<stop  offset="1" style="stop-color:#000025"/>
			</linearGradient>
			<path fill="url(#SVGID_31_)" d="M844.249,189.089c2.801-2.1,5.19-4.73,6.99-7.74c0.12-0.189,0.23-0.381,0.33-0.58
				c0.061-0.08,0.1-0.16,0.14-0.24c0.04-0.051,0.061-0.1,0.091-0.15v-0.01c2.09-3.84,3.279-8.219,3.279-12.9
				c0-2.66-0.38-5.229-1.1-7.66c2.49,2.061,4.61,4.551,6.22,7.371c-0.189,0.689-0.399,1.359-0.649,2.02
				c-0.15,0.42-0.311,0.82-0.48,1.23c-0.12,0.289-0.25,0.59-0.39,0.879c-1.41,3.23-3.221,6.262-5.36,9.021
				c-0.16,0.199-0.32,0.41-0.49,0.609c-0.1,0.131-0.199,0.26-0.31,0.391C850.119,184.259,847.34,186.868,844.249,189.089z"/>
			<path fill="none" d="M859.55,169.198c0.25-0.66,0.46-1.33,0.649-2.02c0.021,0.02,0.04,0.049,0.05,0.08
				C860.039,167.919,859.81,168.558,859.55,169.198z"/>
			
				<linearGradient id="SVGID_32_" gradientUnits="userSpaceOnUse" x1="1068.2568" y1="-889.3193" x2="1081.7666" y2="-889.3193" gradientTransform="matrix(-1 0 0 -1 1929.4463 -731.2754)">
				<stop  offset="0" style="stop-color:#1D5BAA"/>
				<stop  offset="0.1132" style="stop-color:#1E58A2"/>
				<stop  offset="0.2655" style="stop-color:#1F5094"/>
				<stop  offset="0.44" style="stop-color:#1E447E"/>
				<stop  offset="0.6311" style="stop-color:#193262"/>
				<stop  offset="0.8332" style="stop-color:#0B1B42"/>
				<stop  offset="1" style="stop-color:#000025"/>
			</linearGradient>
			<path fill="url(#SVGID_32_)" d="M847.68,148.909c5.319,1.49,9.97,4.568,13.399,8.699c0.08,0.76,0.11,1.529,0.11,2.311
				c0,2.51-0.34,4.949-0.99,7.26c-1.609-2.82-3.729-5.311-6.22-7.371c0,0,0,0-0.01,0C852.76,155.679,850.579,151.958,847.68,148.909
				z"/>
			
				<linearGradient id="SVGID_33_" gradientUnits="userSpaceOnUse" x1="1099.873" y1="-879.7056" x2="1069.5405" y2="-879.3726" gradientTransform="matrix(-1 0 0 -1 1929.4463 -731.2754)">
				<stop  offset="0" style="stop-color:#77D1EF"/>
				<stop  offset="0.1399" style="stop-color:#75C9E8"/>
				<stop  offset="0.2829" style="stop-color:#6DBBD9"/>
				<stop  offset="0.4274" style="stop-color:#61A7C5"/>
				<stop  offset="0.5729" style="stop-color:#518EAB"/>
				<stop  offset="0.7193" style="stop-color:#3D718E"/>
				<stop  offset="0.8641" style="stop-color:#255371"/>
				<stop  offset="1" style="stop-color:#053756"/>
			</linearGradient>
			<path fill="url(#SVGID_33_)" d="M830.09,140.548c2.97-1.129,6.199-1.75,9.569-1.75c6.37,0,12.221,2.201,16.84,5.91
				c2.551,3.73,4.19,8.141,4.58,12.9c-3.43-4.131-8.08-7.209-13.399-8.699C843.199,144.169,837.01,141.048,830.09,140.548z"/>
			
				<linearGradient id="SVGID_34_" gradientUnits="userSpaceOnUse" x1="953.957" y1="-1013.9141" x2="1152.0967" y2="-1013.9141" gradientTransform="matrix(-1 0 0 -1 1929.4463 -731.2754)">
				<stop  offset="0" style="stop-color:#B6E2EB"/>
				<stop  offset="0.2205" style="stop-color:#A0D5E8"/>
				<stop  offset="0.2525" style="stop-color:#9CD4E8"/>
				<stop  offset="0.6145" style="stop-color:#6CBFE5"/>
				<stop  offset="1" style="stop-color:#00ABE3"/>
			</linearGradient>
			<path fill="url(#SVGID_34_)" d="M777.35,296.901c0-3.471,0.149-6.9,0.46-10.281c0.01-0.01,0.01-0.029,0.01-0.039
				c4.08-45.732,35.09-83.713,77.05-97.973c-0.109,0.119-0.229,0.24-0.35,0.359c-0.99,0.98-2.021,1.92-3.101,2.811
				c-1.64,1.35-3.38,2.59-5.21,3.689c-0.04,0.021-0.079,0.041-0.109,0.061c-1.05,0.541-2.09,1.1-3.11,1.689
				c-0.06,0.031-0.109,0.061-0.17,0.09c-0.07,0.041-0.15,0.08-0.229,0.111c0.01,0,0.02,0.01,0.02,0.01
				c-0.11,0.049-0.22,0.109-0.33,0.18c-0.5,0.279-1,0.57-1.49,0.859c0,0,0,0-0.01,0c-0.189,0.102-0.36,0.211-0.54,0.33
				c-0.55,0.32-1.09,0.65-1.63,0.99c-0.07,0.041-0.14,0.09-0.21,0.131c-0.09,0.049-0.17,0.109-0.26,0.16
				c-0.23,0.139-0.45,0.289-0.67,0.43c-0.53,0.33-1.051,0.67-1.57,1.02h-0.01c-0.58,0.371-1.16,0.76-1.73,1.16
				c-0.029,0.02-0.06,0.039-0.09,0.061c-0.65,0.439-1.29,0.889-1.93,1.35c-0.641,0.449-1.271,0.92-1.9,1.41
				c-0.26,0.18-0.51,0.369-0.77,0.57c-0.17,0.119-0.351,0.25-0.521,0.389c-0.64,0.49-1.28,0.99-1.91,1.51
				c-0.81,0.65-1.62,1.311-2.409,2c-0.551,0.461-1.091,0.932-1.631,1.41c-0.109,0.09-0.229,0.191-0.34,0.291
				c-0.09,0.08-0.18,0.16-0.27,0.25c-0.23,0.199-0.471,0.41-0.7,0.641c-0.521,0.459-1.04,0.939-1.55,1.43
				c-1.021,0.959-2.03,1.949-3.021,2.949c-0.529,0.529-1.05,1.07-1.56,1.621c-0.04,0.029-0.07,0.068-0.09,0.1
				c-0.09,0.09-0.181,0.18-0.261,0.27c-0.18,0.189-0.359,0.381-0.52,0.57c-0.22,0.219-0.42,0.439-0.61,0.66
				c-0.08,0.07-0.14,0.15-0.199,0.219c-0.07,0.061-0.12,0.131-0.171,0.191c-0.199,0.209-0.39,0.42-0.569,0.639
				c-0.48,0.531-0.94,1.061-1.4,1.602c-0.04,0.049-0.09,0.1-0.13,0.148c-0.52,0.611-1.03,1.23-1.54,1.852
				c-5.43,6.648-10.13,13.908-13.97,21.689v0.01c-0.87,1.74-1.69,3.51-2.46,5.301c-1.09,2.529-2.09,5.121-3,7.74
				c-0.141,0.381-0.271,0.762-0.4,1.141c-0.7,2.07-1.34,4.17-1.91,6.301c-0.25,0.9-0.479,1.809-0.699,2.709
				c-0.07,0.291-0.141,0.57-0.2,0.85c-0.13,0.521-0.25,1.041-0.36,1.561c-0.03,0.109-0.06,0.221-0.08,0.33
				c-0.08,0.34-0.149,0.68-0.22,1.02c-0.23,1.102-0.45,2.201-0.64,3.311c-0.131,0.699-0.25,1.41-0.36,2.121
				c-0.16,0.939-0.29,1.879-0.42,2.828c0,0.031-0.01,0.061-0.01,0.102c-0.61,4.529-0.95,9.129-1,13.82c0,0.01,0,0.01,0,0.01
				c0.069,2.52,0.26,4.99,0.579,7.428c1.28,9.811,4.57,18.98,9.45,27.09c0.03,0.07,0.07,0.131,0.11,0.191
				c2.13,3.52,4.55,6.84,7.24,9.92c0.39,0.439,0.77,0.869,1.17,1.299c0.2,0.23,0.41,0.461,0.62,0.68h0.01
				c0.479,0.51,0.97,1.021,1.47,1.521c0.63,0.629,1.28,1.25,1.93,1.85c4.711,4.379,10.021,8.109,15.79,11.09
				c8.21,4.221,17.36,6.879,27.051,7.59c0.649,0.061,1.3,0.09,1.949,0.119c0.011,0.012,0.011,0.012,0.011,0.012l0.01-0.012h0.01
				c1.08,0.061,2.16,0.08,3.26,0.08c9.57,0,18.69-1.898,27.011-5.35c7.909-3.26,15.09-7.93,21.25-13.689c0-0.01,0.01-0.01,0.01-0.01
				c0.399-0.371,0.8-0.75,1.189-1.15h0.011c0.09-0.09,0.18-0.17,0.27-0.27h0.01c0.061-0.061,0.12-0.121,0.181-0.18
				c2.52-2.521,4.859-5.221,6.979-8.102c0.01-0.01,0.021-0.02,0.021-0.039c2-2.701,3.8-5.561,5.399-8.539
				c3.82-5.521,8.12-10.682,12.851-15.432c0,0,0.01,0,0.01-0.01c3.81-3.85,7.9-7.42,12.229-10.68c1.74-1.328,3.521-2.59,5.33-3.809
				c-0.01,0.061-0.029,0.109-0.04,0.17c0.36-0.311,0.73-0.6,1.12-0.881c0.46-0.299,0.92-0.6,1.391-0.898
				c2.05-1.191,4.37-1.951,6.85-2.172c0.49-0.049,0.99-0.068,1.49-0.068c1.47,0,2.89,0.189,4.24,0.549
				c3.56,0.93,6.659,3,8.859,5.811c1.94,2.449,3.21,5.449,3.51,8.729c0.03,0.25,0.051,0.49,0.061,0.74
				c0.04,0.439,0.07,0.881,0.09,1.32c0.07,1.15,0.12,2.301,0.14,3.459c0.021,0.32,0.021,0.65,0.03,0.971
				c-2.78,5.359-5.99,10.48-9.56,15.301c-20.83,28.139-54.271,46.379-91.96,46.379c-0.311,0-0.62,0-0.92-0.01
				c-2.971-0.02-5.91-0.15-8.82-0.4c-19.33-1.629-37.29-8.07-52.68-18.119c-4.21-2.74-8.23-5.76-12.03-9.031
				c-11.01-10.25-18.74-23.979-21.46-39.439C777.59,305.479,777.35,301.22,777.35,296.901z"/>
		</g>
	</g>
	<g>
		<g>
			<linearGradient id="SVGID_35_" gradientUnits="userSpaceOnUse" x1="322.7656" y1="195.499" x2="449.3057" y2="195.499">
				<stop  offset="0" style="stop-color:#F48175"/>
				<stop  offset="0.1284" style="stop-color:#F27C73"/>
				<stop  offset="0.3172" style="stop-color:#ED6C6D"/>
				<stop  offset="0.542" style="stop-color:#E64E63"/>
				<stop  offset="0.6436" style="stop-color:#E33C5E"/>
				<stop  offset="1" style="stop-color:#E33C5E"/>
			</linearGradient>
			<path fill="url(#SVGID_35_)" d="M449.306,208.85c-4.359-1.18-8.89-1.961-13.55-2.271c-1.64-0.119-3.29-0.18-4.96-0.18
				c-1.939,0-3.87,0.08-5.77,0.24c-2.271-1.49-4.601-2.9-6.98-4.209c-2.18-1.221-4.399-2.361-6.67-3.42
				c-14.8-7-31.33-10.91-48.78-10.91c-13.93,0-27.279,2.49-39.63,7.059c-0.069,0.012-0.13,0.031-0.2,0.051
				c15.87-8.34,33.931-13.061,53.101-13.061c8.66,0,17.1,0.961,25.21,2.791c9.72,2.18,18.97,5.609,27.57,10.1
				c3.069,1.59,6.05,3.32,8.949,5.18C441.686,202.85,445.596,205.729,449.306,208.85z"/>
			<linearGradient id="SVGID_36_" gradientUnits="userSpaceOnUse" x1="322.7959" y1="199.1094" x2="401.6563" y2="199.1094">
				<stop  offset="0" style="stop-color:#923855"/>
				<stop  offset="0.1401" style="stop-color:#883653"/>
				<stop  offset="0.3976" style="stop-color:#6F314F"/>
				<stop  offset="0.741" style="stop-color:#492A48"/>
				<stop  offset="1" style="stop-color:#292342"/>
			</linearGradient>
			<path fill="url(#SVGID_36_)" d="M401.656,203.439c-1.75,0.959-3.46,2-5.11,3.109c-15.91-8.41-34.05-13.16-53.29-13.16
				c-6.99,0-13.82,0.631-20.46,1.83c0.05-0.02,0.11-0.039,0.17-0.061c8.99-2.279,18.42-3.488,28.12-3.488
				C369.246,191.67,386.416,195.898,401.656,203.439z"/>
			<path fill="none" d="M397.676,396.52c-0.09,0.09-0.18,0.17-0.27,0.25c-0.11,0.1-0.23,0.201-0.34,0.291
				c0.05-0.041,0.09-0.08,0.14-0.131C397.366,396.799,397.516,396.66,397.676,396.52z"/>
			<path fill="none" d="M417.176,266.859c-0.2-0.23-0.41-0.451-0.63-0.68h0.01C416.766,266.398,416.976,266.629,417.176,266.859z"/>
			<path fill="none" d="M355.836,232.189c-2.91-0.25-5.85-0.381-8.82-0.4c0.37-0.01,0.75-0.01,1.131-0.01
				C350.746,231.779,353.306,231.92,355.836,232.189z"/>
			<linearGradient id="SVGID_37_" gradientUnits="userSpaceOnUse" x1="244.5557" y1="336.0996" x2="457.6162" y2="336.0996">
				<stop  offset="0" style="stop-color:#F48175"/>
				<stop  offset="0.2301" style="stop-color:#F37E74"/>
				<stop  offset="0.4595" style="stop-color:#F07570"/>
				<stop  offset="0.6885" style="stop-color:#EB646A"/>
				<stop  offset="0.9162" style="stop-color:#E54962"/>
				<stop  offset="1" style="stop-color:#E33C5E"/>
			</linearGradient>
			<path fill="url(#SVGID_37_)" d="M457.616,307.75c0,1.959-0.05,3.91-0.15,5.85c-0.04,0.82-0.09,1.65-0.149,2.471
				c-0.061,0.799-0.12,1.6-0.2,2.389c0,0.041,0,0.08-0.01,0.121c0,0.01,0,0.01,0,0.01c0,0.061-0.011,0.119-0.021,0.18
				c-0.04,0.471-0.09,0.93-0.14,1.391c0,0.09-0.011,0.18-0.03,0.27c-0.02,0.26-0.05,0.52-0.09,0.779
				c-0.01,0.111-0.021,0.221-0.04,0.33c-0.101,0.861-0.21,1.711-0.33,2.561c-0.09,0.631-0.19,1.26-0.29,1.891
				c-0.1,0.6-0.2,1.199-0.31,1.799c-0.061,0.33-0.11,0.66-0.181,0.99c-0.09,0.49-0.18,0.99-0.279,1.48
				c-0.011,0.1-0.03,0.199-0.051,0.301c-0.199,0.979-0.41,1.949-0.64,2.92c-0.13,0.568-0.26,1.129-0.4,1.699
				c-0.02,0.09-0.04,0.18-0.069,0.27c-0.15,0.641-0.32,1.291-0.49,1.93c-0.01,0.051-0.03,0.092-0.04,0.141
				c-0.17,0.631-0.35,1.26-0.53,1.881c-0.51,1.77-1.06,3.529-1.649,5.27c-0.29,0.85-0.591,1.689-0.9,2.529
				c-0.13,0.35-0.26,0.691-0.39,1.041c-0.141,0.379-0.29,0.77-0.44,1.15c-0.27,0.689-0.54,1.379-0.83,2.059
				c-0.22,0.541-0.45,1.08-0.689,1.621c-0.58,1.34-1.181,2.66-1.811,3.969c-0.3,0.631-0.609,1.26-0.93,1.881
				c-0.42,0.84-0.851,1.68-1.29,2.51c-0.3,0.58-0.61,1.15-0.93,1.711c-0.36,0.658-0.73,1.318-1.11,1.969
				c-0.21,0.361-0.42,0.721-0.64,1.08c-0.37,0.631-0.75,1.26-1.141,1.881c-0.05,0.09-0.109,0.18-0.16,0.26
				c-0.27,0.43-0.54,0.85-0.81,1.27c-0.07,0.109-0.13,0.221-0.21,0.32c-0.25,0.391-0.5,0.77-0.76,1.15
				c-0.38,0.59-0.771,1.16-1.181,1.74c-0.09,0.148-0.189,0.289-0.3,0.439c-0.359,0.52-0.72,1.029-1.1,1.529
				c-0.3,0.43-0.61,0.861-0.94,1.281c-0.45,0.619-0.92,1.229-1.39,1.84c-0.28,0.369-0.57,0.74-0.87,1.109
				c-5.18,6.5-11.06,12.42-17.51,17.65c-2.65,2.15-5.391,4.18-8.23,6.08c-0.09,0.07-0.189,0.129-0.29,0.189
				c-0.76,0.51-1.52,1.01-2.3,1.5c-0.97,0.609-1.95,1.221-2.94,1.801h-0.01c-0.37,0.229-0.74,0.439-1.109,0.66
				c-0.011,0.01-0.021,0.01-0.03,0.02c-0.59,0.34-1.19,0.68-1.79,1c-0.01,0.01-0.021,0-0.021,0c-0.68,0.379-1.34,0.75-2.029,1.109
				c-0.92,0.49-1.851,0.961-2.78,1.41c-0.48,0.24-0.96,0.48-1.45,0.699c-0.63,0.301-1.25,0.592-1.89,0.881
				c-0.54,0.25-1.08,0.49-1.63,0.721c-0.681,0.299-1.37,0.59-2.061,0.869c0.04,0.01,0.08,0.02,0.12,0.02
				c-1.09,0.391-2.16,0.82-3.21,1.291c-0.01,0-0.01,0-0.02,0c-0.221,0.1-0.431,0.199-0.641,0.299c-0.34,0.15-0.68,0.32-1.01,0.49
				c-0.65,0.311-1.29,0.65-1.92,1.01c-0.67,0.381-1.34,0.771-1.99,1.201c-0.3,0.18-0.6,0.369-0.89,0.57
				c-0.43,0.279-0.851,0.568-1.26,0.879c-3.091,2.221-5.87,4.83-8.271,7.76c-0.11,0.131-0.21,0.26-0.31,0.391
				c-0.17,0.199-0.33,0.41-0.49,0.609c-2.14,2.76-3.95,5.791-5.36,9.021c-0.14,0.289-0.27,0.59-0.39,0.879
				c-0.17,0.41-0.33,0.811-0.48,1.23c-0.26,0.641-0.489,1.279-0.699,1.939c0.01,0.031,0.029,0.061,0.05,0.08
				c-0.65,2.311-0.99,4.75-0.99,7.26c0,0.781,0.03,1.551,0.11,2.311c0.25,3.061,1.02,5.98,2.21,8.67c0.67,1.49,1.46,2.9,2.37,4.23
				c4.85,7.119,13.029,11.789,22.3,11.789c3.34,0,6.54-0.609,9.49-1.719c-4.421,3.148-9.82,5-15.65,5
				c-7.39,0-14.07-2.961-18.95-7.771v-0.01c-3.02-2.98-5.35-6.67-6.689-10.809c-0.381-1.15-0.69-2.342-0.91-3.561
				c-0.021-0.07-0.03-0.141-0.03-0.211c-0.27-1.51-0.41-3.059-0.41-4.639c0-0.09,0-0.182,0.01-0.271c-0.01-0.01-0.01-0.01,0-0.02
				c-0.01-0.01-0.01-0.029,0-0.039c-0.01-0.01-0.01-0.01,0-0.021c-0.01-0.359-0.01-0.689-0.01-1.049c0-2.65,0.24-5.24,0.69-7.76
				c0-0.01,0-0.01,0-0.021c0.1-0.568,0.22-1.129,0.34-1.68c0.66-3.02,1.64-5.91,2.9-8.66c1.189-2.629,2.649-5.119,4.34-7.449
				c0.38-0.541,0.79-1.08,1.21-1.609c0.479-0.602,0.97-1.191,1.479-1.76c0.431-0.48,0.86-0.961,1.311-1.422h0.01
				c0.07-0.068,0.13-0.139,0.2-0.209c41.96-14.26,72.97-52.24,77.05-97.971c0-0.01,0-0.029,0.01-0.039
				c0.311-3.381,0.46-6.811,0.46-10.281c0-4.32-0.24-8.58-0.71-12.77c-2.72-15.461-10.45-29.189-21.46-39.439
				c-3.8-3.271-7.82-6.291-12.03-9.031c-15.39-10.049-33.35-16.49-52.68-18.119c-2.91-0.25-5.85-0.381-8.82-0.4
				c-0.3-0.01-0.609-0.01-0.92-0.01c-37.689,0-71.13,18.24-91.96,46.379c-3.569,4.82-6.779,9.941-9.56,15.301
				c0-0.17-0.01-0.35-0.01-0.52c-0.011-0.031-0.011-0.061,0-0.09c-0.011-0.521-0.011-1.051-0.011-1.57
				c0-16.371,3.44-31.939,9.65-46.02c13.56-21.592,34.16-38.34,58.57-47.012c1.13-0.398,2.26-0.789,3.399-1.148
				c1.681-0.541,3.38-1.041,5.09-1.49c0.381-0.121,0.771-0.221,1.16-0.32c0.11-0.029,0.23-0.061,0.34-0.08
				c0.07-0.02,0.131-0.039,0.2-0.051c-0.06,0.021-0.12,0.041-0.17,0.061c6.64-1.199,13.47-1.83,20.46-1.83
				c19.24,0,37.38,4.75,53.29,13.16c1.59,0.83,3.16,1.699,4.71,2.621c1.2,0.699,2.38,1.43,3.54,2.17
				c20.93,13.389,37.22,33.42,45.89,57.109c1.11,3.029,2.091,6.119,2.95,9.27c0.891,3.289,1.641,6.641,2.23,10.051
				c0.09,0.439,0.16,0.869,0.22,1.309v0.01c0.7,4.141,1.15,8.361,1.37,12.641C457.566,303.729,457.616,305.729,457.616,307.75z"/>
			<path fill="none" d="M445.536,358.92c-0.2,0.42-0.41,0.84-0.63,1.26c-0.21,0.42-0.431,0.84-0.66,1.25
				C444.686,360.6,445.116,359.76,445.536,358.92z"/>
			<linearGradient id="SVGID_38_" gradientUnits="userSpaceOnUse" x1="316.8057" y1="253.4492" x2="413.1465" y2="253.4492">
				<stop  offset="0" style="stop-color:#923855"/>
				<stop  offset="0.1401" style="stop-color:#883653"/>
				<stop  offset="0.3976" style="stop-color:#6F314F"/>
				<stop  offset="0.741" style="stop-color:#492A48"/>
				<stop  offset="1" style="stop-color:#292342"/>
			</linearGradient>
			<path fill="url(#SVGID_38_)" d="M413.146,262.809c-2.32-0.4-4.681-0.68-7.07-0.84c-1.641-0.119-3.29-0.18-4.95-0.18
				c-2.45,0-4.87,0.119-7.26,0.359h-0.01c-7.841-4.979-16.73-8.469-26.271-10.049c-0.41-0.07-0.82-0.131-1.229-0.191
				c-0.511-0.08-1.021-0.139-1.53-0.209c-2.9-0.359-5.86-0.551-8.87-0.551c-10.771,0-20.97,2.41-30.1,6.711
				c-3.15,1.49-6.181,3.199-9.051,5.109c6.16-5.76,13.341-10.43,21.25-13.689c8.32-3.451,17.44-5.35,27.011-5.35
				c1.1,0,2.18,0.02,3.26,0.08h0.01l0.01-0.012c0,0,0,0,0.011,0.012c0.649,0.029,1.3,0.059,1.949,0.119
				c9.69,0.711,18.841,3.369,27.051,7.59C403.126,254.699,408.436,258.43,413.146,262.809z"/>
			<linearGradient id="SVGID_39_" gradientUnits="userSpaceOnUse" x1="456.0859" y1="333.0293" x2="475.2764" y2="333.0293">
				<stop  offset="0" style="stop-color:#F04E5E"/>
				<stop  offset="0.1028" style="stop-color:#E34B5C"/>
				<stop  offset="0.241" style="stop-color:#CB475A"/>
				<stop  offset="0.3993" style="stop-color:#A84056"/>
				<stop  offset="0.5714" style="stop-color:#7D344E"/>
				<stop  offset="0.6485" style="stop-color:#692E49"/>
				<stop  offset="0.7001" style="stop-color:#692E49"/>
				<stop  offset="1" style="stop-color:#692E49"/>
			</linearGradient>
			<path fill="url(#SVGID_39_)" d="M475.276,337.5c0,4.93-0.511,9.74-1.471,14.391v0.01c-0.439,2.119-0.97,4.199-1.6,6.25
				c-1.55,5.119-3.68,9.979-6.29,14.529c0,0.01-0.01,0.01-0.01,0.01c-0.84,1.461-1.73,2.891-2.681,4.281
				c-0.04-2.051-0.229-4.061-0.54-6.031c-0.14-0.891-0.31-1.76-0.51-2.619c-0.01-0.051-0.02-0.1-0.029-0.15
				c-0.48-2.121-1.12-4.18-1.891-6.17c-0.16-0.4-0.33-0.801-0.49-1.201c0.91-2.988,1.61-6.068,2.11-9.219
				c0.57-3.621,0.87-7.34,0.87-11.131v-0.41c0-0.24,0-0.49-0.01-0.719v-0.031c-0.021-1.01-0.051-2.02-0.12-3.02
				c-0.061-1.209-0.16-2.42-0.3-3.609c0-0.01,0-0.01,0-0.02c-0.04-0.381-0.08-0.75-0.131-1.121c-0.02-0.189-0.05-0.369-0.079-0.549
				c-0.801-6.07-2.391-11.9-4.641-17.371c0.101-1.939,0.15-3.891,0.15-5.85c0-2.021-0.05-4.021-0.16-6.021
				c-0.22-4.279-0.67-8.5-1.37-12.641c1.73,1.83,3.36,3.762,4.89,5.771v0.01c1.57,2.07,3.03,4.24,4.37,6.48v0.01
				c2.29,3.84,4.23,7.91,5.761,12.18c1.3,3.602,2.319,7.34,3.02,11.191c0.1,0.58,0.2,1.16,0.3,1.75c0,0,0,0,0,0.01
				c0.17,1.08,0.311,2.17,0.431,3.27c0.09,0.801,0.159,1.6,0.22,2.41c0.12,1.52,0.18,3.051,0.189,4.6
				C475.276,337.01,475.276,337.26,475.276,337.5z"/>
			<linearGradient id="SVGID_40_" gradientUnits="userSpaceOnUse" x1="322.9658" y1="197.1895" x2="418.0459" y2="197.1895">
				<stop  offset="0" style="stop-color:#F04E5E"/>
				<stop  offset="0.1028" style="stop-color:#E34B5C"/>
				<stop  offset="0.241" style="stop-color:#CB475A"/>
				<stop  offset="0.3993" style="stop-color:#A84056"/>
				<stop  offset="0.5714" style="stop-color:#7D344E"/>
				<stop  offset="0.6485" style="stop-color:#692E49"/>
				<stop  offset="0.7001" style="stop-color:#692E49"/>
				<stop  offset="1" style="stop-color:#692E49"/>
			</linearGradient>
			<path fill="url(#SVGID_40_)" d="M418.046,202.43c-3.8,0.979-7.479,2.27-11.01,3.85c-0.01,0-0.01,0-0.01,0
				c-1.761-1-3.551-1.951-5.37-2.84c-15.24-7.541-32.41-11.77-50.57-11.77c-9.7,0-19.13,1.209-28.12,3.488
				c12.351-4.568,25.7-7.059,39.63-7.059c17.45,0,33.98,3.91,48.78,10.91C413.646,200.068,415.866,201.209,418.046,202.43z"/>
			<linearGradient id="SVGID_41_" gradientUnits="userSpaceOnUse" x1="315.6064" y1="261.2891" x2="400.4863" y2="261.2891">
				<stop  offset="0" style="stop-color:#F04E5E"/>
				<stop  offset="0.1028" style="stop-color:#E34B5C"/>
				<stop  offset="0.241" style="stop-color:#CB475A"/>
				<stop  offset="0.3993" style="stop-color:#A84056"/>
				<stop  offset="0.5714" style="stop-color:#7D344E"/>
				<stop  offset="0.6485" style="stop-color:#692E49"/>
				<stop  offset="0.7001" style="stop-color:#692E49"/>
				<stop  offset="1" style="stop-color:#692E49"/>
			</linearGradient>
			<path fill="url(#SVGID_41_)" d="M400.486,266.939c-6.38,0.359-12.54,1.58-18.37,3.529c-0.9,0.301-1.79,0.621-2.67,0.961h-0.011
				c-0.21-0.141-0.42-0.281-0.63-0.41c-1.88-1.23-3.83-2.361-5.83-3.4c-2.449-1.279-4.989-2.42-7.6-3.4
				c-0.1-0.049-0.2-0.08-0.3-0.109c-1.16-0.439-2.33-0.85-3.521-1.221c-6.689-2.1-13.81-3.23-21.189-3.23
				c-6.62,0-13.04,0.91-19.12,2.621c-1.91,0.539-3.8,1.16-5.64,1.85c0.39-0.4,0.79-0.779,1.189-1.15c0,0,0.01,0,0.01-0.01
				c2.87-1.91,5.9-3.619,9.051-5.109c9.13-4.301,19.329-6.711,30.1-6.711c3.01,0,5.97,0.191,8.87,0.551
				c0.51,0.07,1.02,0.129,1.53,0.209c0.409,0.061,0.819,0.121,1.229,0.191c9.54,1.58,18.43,5.07,26.271,10.049h0.01
				C396.176,263.619,398.376,265.219,400.486,266.939z"/>
			<linearGradient id="SVGID_42_" gradientUnits="userSpaceOnUse" x1="315.3262" y1="270.3633" x2="382.8262" y2="270.3633">
				<stop  offset="0" style="stop-color:#F48175"/>
				<stop  offset="0.1284" style="stop-color:#F27C73"/>
				<stop  offset="0.3172" style="stop-color:#ED6C6D"/>
				<stop  offset="0.542" style="stop-color:#E64E63"/>
				<stop  offset="0.6436" style="stop-color:#E33C5E"/>
				<stop  offset="1" style="stop-color:#E33C5E"/>
			</linearGradient>
			<path fill="url(#SVGID_42_)" d="M382.826,273.828c-3,1.531-5.88,3.271-8.61,5.201c-0.939,0.65-1.859,1.34-2.76,2.039
				c-0.2-0.18-0.41-0.359-0.62-0.539c-1.21-1.031-2.45-2.01-3.729-2.961c-0.37-0.279-0.75-0.549-1.131-0.82
				c-0.229-0.17-0.47-0.33-0.699-0.49c-0.37-0.26-0.75-0.52-1.13-0.76c-0.841-0.568-1.69-1.109-2.561-1.629
				c-0.439-0.27-0.89-0.529-1.35-0.791c-10.351-5.949-22.351-9.35-35.15-9.35c-1.81,0-3.6,0.07-5.37,0.201
				c-1.479,0.109-2.939,0.27-4.39,0.469c0.09-0.1,0.18-0.18,0.27-0.27h0.011c1.84-0.689,3.729-1.311,5.64-1.85
				c6.08-1.711,12.5-2.621,19.12-2.621c7.38,0,14.5,1.131,21.189,3.23c1.19,0.371,2.36,0.781,3.521,1.221
				c0.1,0.029,0.2,0.061,0.3,0.109c2.61,0.98,5.15,2.121,7.6,3.4c2,1.039,3.95,2.17,5.83,3.4c0.21,0.129,0.42,0.27,0.63,0.41h0.011
				C380.596,272.199,381.726,272.998,382.826,273.828z"/>
			<linearGradient id="SVGID_43_" gradientUnits="userSpaceOnUse" x1="315.1357" y1="279.8936" x2="381.1465" y2="279.8936">
				<stop  offset="0" style="stop-color:#F39A83"/>
				<stop  offset="0.1522" style="stop-color:#E7907D"/>
				<stop  offset="0.376" style="stop-color:#D07A6D"/>
				<stop  offset="0.6439" style="stop-color:#AF5956"/>
				<stop  offset="0.9438" style="stop-color:#862E3B"/>
				<stop  offset="1" style="stop-color:#7E2536"/>
			</linearGradient>
			<path fill="url(#SVGID_43_)" d="M381.146,291.359c-3.48,0.529-6.881,1.32-10.171,2.34c-0.649,0.189-1.29,0.4-1.93,0.619
				c-0.68,0.23-1.35,0.471-2.01,0.721c-0.01,0-0.01,0.01-0.01,0.01c-0.87,0.32-1.721,0.66-2.561,1.01
				c-0.859-1.33-1.77-2.629-2.72-3.891c-0.26-0.34-0.51-0.68-0.78-1.02c-0.01-0.01-0.02-0.02-0.02-0.029
				c-0.4-0.51-0.8-1.02-1.221-1.52c-0.42-0.512-0.85-1.021-1.29-1.521c-0.67-0.77-1.35-1.52-2.06-2.26
				c-1.28-1.34-2.61-2.629-3.99-3.869c-0.12-0.111-0.239-0.221-0.359-0.32c-9.28-8.221-20.73-14.039-33.391-16.471
				c-1.16-0.219-2.319-0.42-3.5-0.58c0.061-0.059,0.12-0.119,0.181-0.18h0.01c1.45-0.199,2.91-0.359,4.39-0.469
				c1.771-0.131,3.561-0.201,5.37-0.201c12.8,0,24.8,3.4,35.15,9.35c0.46,0.262,0.91,0.521,1.35,0.791
				c0.87,0.52,1.72,1.061,2.561,1.629c0.38,0.24,0.76,0.5,1.13,0.76c0.229,0.16,0.47,0.32,0.699,0.49
				c0.381,0.271,0.761,0.541,1.131,0.82c1.279,0.951,2.52,1.93,3.729,2.961c0.21,0.18,0.42,0.359,0.62,0.539
				c1.38,1.189,2.7,2.439,3.979,3.74C377.476,286.869,379.376,289.059,381.146,291.359z"/>
			<linearGradient id="SVGID_44_" gradientUnits="userSpaceOnUse" x1="450.6855" y1="312.6299" x2="496.3271" y2="312.6299">
				<stop  offset="0" style="stop-color:#F39A83"/>
				<stop  offset="0.1522" style="stop-color:#E7907D"/>
				<stop  offset="0.376" style="stop-color:#D07A6D"/>
				<stop  offset="0.6439" style="stop-color:#AF5956"/>
				<stop  offset="0.9438" style="stop-color:#862E3B"/>
				<stop  offset="1" style="stop-color:#7E2536"/>
			</linearGradient>
			<path fill="url(#SVGID_44_)" d="M496.327,334.561c0,7.779-1.26,15.25-3.58,22.25c-1.891-4.381-4.49-8.391-7.641-11.881
				c0.3-2.65,0.46-5.35,0.46-8.09c0-2.311-0.11-4.6-0.33-6.859c-0.221-2.26-0.54-4.49-0.971-6.682
				c-0.05-0.299-0.109-0.59-0.18-0.879c-0.31-1.529-0.67-3.02-1.09-4.5v-0.01c-1.45-5.24-3.49-10.211-6.05-14.891v-0.021
				c-1.16-2.129-2.431-4.199-3.8-6.189v-0.02c-2.811-4.041-5.98-7.76-9.521-11.141c-3.08-2.93-6.42-5.59-9.99-7.93
				c-0.859-3.15-1.84-6.24-2.95-9.27c3.461,1.299,6.78,2.869,9.95,4.68c4.41,2.52,8.521,5.5,12.271,8.869
				c0.899,0.811,1.779,1.641,2.64,2.5c5.93,5.91,10.811,12.871,14.352,20.57v0.01c0.568,1.23,1.109,2.48,1.6,3.752
				c0.359,0.9,0.689,1.82,1.01,2.74c0.109,0.33,0.219,0.66,0.32,0.99C495.097,319.48,496.327,326.879,496.327,334.561z"/>
			<linearGradient id="SVGID_45_" gradientUnits="userSpaceOnUse" x1="453.6357" y1="321.6396" x2="485.5664" y2="321.6396">
				<stop  offset="0" style="stop-color:#F48175"/>
				<stop  offset="0.1284" style="stop-color:#F27C73"/>
				<stop  offset="0.3172" style="stop-color:#ED6C6D"/>
				<stop  offset="0.542" style="stop-color:#E64E63"/>
				<stop  offset="0.6436" style="stop-color:#E33C5E"/>
				<stop  offset="1" style="stop-color:#E33C5E"/>
			</linearGradient>
			<path fill="url(#SVGID_45_)" d="M485.566,336.84c0,2.74-0.16,5.439-0.46,8.09c-0.83,7.27-2.761,14.199-5.62,20.631
				c-0.95-4.211-2.511-8.191-4.58-11.84c-0.351-0.621-0.721-1.221-1.101-1.82v-0.01c0.96-4.65,1.471-9.461,1.471-14.391
				c0-0.24,0-0.49-0.011-0.73c-0.01-1.549-0.069-3.08-0.189-4.6c-0.061-0.811-0.13-1.609-0.22-2.41
				c-0.12-1.1-0.261-2.189-0.431-3.27c0-0.01,0-0.01,0-0.01c-0.1-0.59-0.2-1.17-0.3-1.75c-0.7-3.852-1.72-7.59-3.02-11.191
				c-1.53-4.27-3.471-8.34-5.761-12.18v-0.01c-1.34-2.24-2.8-4.41-4.37-6.48v-0.01c-1.529-2.01-3.159-3.941-4.89-5.771v-0.01
				c-0.06-0.439-0.13-0.869-0.22-1.309c-0.59-3.41-1.34-6.762-2.23-10.051c3.57,2.34,6.91,5,9.99,7.93
				c3.54,3.381,6.71,7.1,9.521,11.141v0.02c1.369,1.99,2.64,4.061,3.8,6.189v0.021c2.56,4.68,4.6,9.65,6.05,14.891v0.01
				c0.42,1.48,0.78,2.971,1.09,4.5c0.07,0.289,0.13,0.58,0.18,0.879c0.431,2.191,0.75,4.422,0.971,6.682
				C485.456,332.24,485.566,334.529,485.566,336.84z"/>
			<path fill="none" d="M360.516,439.25c-0.25,0.66-0.46,1.33-0.649,2.02c-0.021-0.02-0.04-0.049-0.05-0.08
				C360.026,440.529,360.256,439.891,360.516,439.25z"/>
			<path fill="none" d="M360.516,439.25c-0.25,0.66-0.46,1.33-0.649,2.02c-0.021-0.02-0.04-0.049-0.05-0.08
				C360.026,440.529,360.256,439.891,360.516,439.25z"/>
			<linearGradient id="SVGID_46_" gradientUnits="userSpaceOnUse" x1="442.7158" y1="351.4443" x2="462.7461" y2="351.4443">
				<stop  offset="0" style="stop-color:#923855"/>
				<stop  offset="0.1401" style="stop-color:#883653"/>
				<stop  offset="0.3976" style="stop-color:#6F314F"/>
				<stop  offset="0.741" style="stop-color:#492A48"/>
				<stop  offset="1" style="stop-color:#292342"/>
			</linearGradient>
			<path fill="url(#SVGID_46_)" d="M462.746,340.039v0.41c0,3.791-0.3,7.51-0.87,11.131c-0.5,3.15-1.2,6.23-2.11,9.219
				c-0.42,1.41-0.88,2.791-1.39,4.16c-0.47,1.271-0.97,2.531-1.51,3.762c-3.16,7.229-7.5,13.84-12.771,19.568
				c-0.46,0.34-0.92,0.682-1.38,1c1.271-2.619,2.28-5.389,3-8.27c0.01-0.01,0.01-0.02,0.01-0.02c0.86-3.42,1.32-7,1.32-10.689
				c0-0.67-0.01-1.33-0.05-1.99c-0.05-1.25-0.16-2.49-0.32-3.721c-0.25-1.939-0.63-3.83-1.14-5.68c0.32-0.621,0.63-1.25,0.93-1.881
				c0.63-1.309,1.23-2.629,1.811-3.969c0.239-0.541,0.47-1.08,0.689-1.621c0.29-0.68,0.561-1.369,0.83-2.059
				c0.15-0.381,0.3-0.771,0.44-1.15c0.13-0.35,0.26-0.691,0.39-1.041c0.31-0.84,0.61-1.68,0.9-2.529c0.59-1.74,1.14-3.5,1.649-5.27
				c0.181-0.621,0.36-1.25,0.53-1.881c0.01-0.049,0.03-0.09,0.04-0.141c0.17-0.639,0.34-1.289,0.49-1.93
				c0.029-0.09,0.05-0.18,0.069-0.27c0.141-0.57,0.271-1.131,0.4-1.699c0.229-0.971,0.44-1.941,0.64-2.92
				c0.021-0.102,0.04-0.201,0.051-0.301c1.09-5.43,1.789-10.99,2.069-16.66c2.25,5.471,3.84,11.301,4.641,17.371
				c0.029,0.18,0.06,0.359,0.079,0.549c0.051,0.371,0.091,0.74,0.131,1.121c0,0.01,0,0.01,0,0.02c0.14,1.189,0.239,2.4,0.3,3.609
				c0.069,1,0.1,2.01,0.12,3.02v0.031C462.746,339.549,462.746,339.799,462.746,340.039z"/>
			<path fill="none" d="M360.516,439.25c-0.25,0.66-0.46,1.33-0.649,2.02c-0.021-0.02-0.04-0.049-0.05-0.08
				C360.026,440.529,360.256,439.891,360.516,439.25z"/>
			<linearGradient id="SVGID_47_" gradientUnits="userSpaceOnUse" x1="363.5664" y1="469.6348" x2="402.8662" y2="469.6348">
				<stop  offset="0" style="stop-color:#F39A83"/>
				<stop  offset="0.1522" style="stop-color:#E7907D"/>
				<stop  offset="0.376" style="stop-color:#D07A6D"/>
				<stop  offset="0.6439" style="stop-color:#AF5956"/>
				<stop  offset="0.9438" style="stop-color:#862E3B"/>
				<stop  offset="1" style="stop-color:#7E2536"/>
			</linearGradient>
			<path fill="url(#SVGID_47_)" d="M402.866,465.689c-1.92,3.201-4.48,5.971-7.51,8.121c-2.95,1.109-6.15,1.719-9.49,1.719
				c-9.271,0-17.45-4.67-22.3-11.789c4.619,3.709,10.47,5.91,16.84,5.91c3.37,0,6.6-0.621,9.569-1.75c0.66,0.059,1.33,0.08,2,0.08
				C395.856,467.98,399.536,467.16,402.866,465.689z"/>
			<path fill="none" d="M360.516,439.25c-0.25,0.66-0.46,1.33-0.649,2.02c-0.021-0.02-0.04-0.049-0.05-0.08
				C360.026,440.529,360.256,439.891,360.516,439.25z"/>
			<path fill="none" d="M360.516,439.25c-0.25,0.66-0.46,1.33-0.649,2.02c-0.021-0.02-0.04-0.049-0.05-0.08
				C360.026,440.529,360.256,439.891,360.516,439.25z"/>
			<linearGradient id="SVGID_48_" gradientUnits="userSpaceOnUse" x1="359.8662" y1="434" x2="375.8164" y2="434">
				<stop  offset="0" style="stop-color:#923855"/>
				<stop  offset="0.1401" style="stop-color:#883653"/>
				<stop  offset="0.3976" style="stop-color:#6F314F"/>
				<stop  offset="0.741" style="stop-color:#492A48"/>
				<stop  offset="1" style="stop-color:#292342"/>
			</linearGradient>
			<path fill="url(#SVGID_48_)" d="M375.816,419.359c-2.801,2.1-5.19,4.73-6.99,7.74c-0.12,0.189-0.23,0.381-0.33,0.58
				c-0.061,0.08-0.1,0.16-0.14,0.24c-0.04,0.051-0.061,0.1-0.091,0.15v0.01c-2.09,3.84-3.279,8.219-3.279,12.9
				c0,2.66,0.38,5.229,1.1,7.66c-2.49-2.061-4.61-4.551-6.22-7.371c0.189-0.689,0.399-1.359,0.649-2.02
				c0.15-0.42,0.311-0.82,0.48-1.23c0.12-0.289,0.25-0.59,0.39-0.879c1.41-3.23,3.221-6.262,5.36-9.021
				c0.16-0.199,0.32-0.41,0.49-0.609c0.1-0.131,0.199-0.26,0.31-0.391C369.946,424.189,372.726,421.58,375.816,419.359z"/>
			<path fill="none" d="M360.516,439.25c-0.25,0.66-0.46,1.33-0.649,2.02c-0.021-0.02-0.04-0.049-0.05-0.08
				C360.026,440.529,360.256,439.891,360.516,439.25z"/>
			<linearGradient id="SVGID_49_" gradientUnits="userSpaceOnUse" x1="358.876" y1="450.4043" x2="372.3857" y2="450.4043">
				<stop  offset="0" style="stop-color:#F04E5E"/>
				<stop  offset="0.1028" style="stop-color:#E34B5C"/>
				<stop  offset="0.241" style="stop-color:#CB475A"/>
				<stop  offset="0.3993" style="stop-color:#A84056"/>
				<stop  offset="0.5714" style="stop-color:#7D344E"/>
				<stop  offset="0.6485" style="stop-color:#692E49"/>
				<stop  offset="0.7001" style="stop-color:#692E49"/>
				<stop  offset="1" style="stop-color:#692E49"/>
			</linearGradient>
			<path fill="url(#SVGID_49_)" d="M372.386,459.539c-5.319-1.49-9.97-4.568-13.399-8.699c-0.08-0.76-0.11-1.529-0.11-2.311
				c0-2.51,0.34-4.949,0.99-7.26c1.609,2.82,3.729,5.311,6.22,7.371c0,0,0,0,0.01,0C367.306,452.77,369.486,456.49,372.386,459.539z
				"/>
			<linearGradient id="SVGID_50_" gradientUnits="userSpaceOnUse" x1="390.4927" y1="460.0186" x2="360.1597" y2="460.3516">
				<stop  offset="0" style="stop-color:#F48175"/>
				<stop  offset="0.1284" style="stop-color:#F27C73"/>
				<stop  offset="0.3172" style="stop-color:#ED6C6D"/>
				<stop  offset="0.542" style="stop-color:#E64E63"/>
				<stop  offset="0.6436" style="stop-color:#E33C5E"/>
				<stop  offset="1" style="stop-color:#E33C5E"/>
			</linearGradient>
			<path fill="url(#SVGID_50_)" d="M389.976,467.9c-2.97,1.129-6.199,1.75-9.569,1.75c-6.37,0-12.221-2.201-16.84-5.91
				c-2.551-3.73-4.19-8.141-4.58-12.9c3.43,4.131,8.08,7.209,13.399,8.699C376.866,464.279,383.056,467.4,389.976,467.9z"/>
			<linearGradient id="SVGID_51_" gradientUnits="userSpaceOnUse" x1="244.5762" y1="325.8096" x2="442.7158" y2="325.8096">
				<stop  offset="0" style="stop-color:#F39A83"/>
				<stop  offset="0.1522" style="stop-color:#E7907D"/>
				<stop  offset="0.376" style="stop-color:#D07A6D"/>
				<stop  offset="0.6439" style="stop-color:#AF5956"/>
				<stop  offset="0.9438" style="stop-color:#862E3B"/>
				<stop  offset="1" style="stop-color:#7E2536"/>
			</linearGradient>
			<path fill="url(#SVGID_51_)" d="M442.716,311.549c0,3.471-0.149,6.9-0.46,10.281c-0.01,0.01-0.01,0.029-0.01,0.039
				c-4.08,45.73-35.09,83.711-77.05,97.971c0.109-0.119,0.229-0.24,0.35-0.359c0.99-0.98,2.021-1.92,3.101-2.811
				c1.64-1.35,3.38-2.59,5.21-3.689c0.04-0.021,0.079-0.041,0.109-0.061c1.05-0.541,2.09-1.1,3.11-1.689
				c0.06-0.031,0.109-0.061,0.17-0.09c0.07-0.041,0.15-0.08,0.229-0.111c-0.01,0-0.02-0.01-0.02-0.01
				c0.11-0.049,0.22-0.109,0.33-0.18c0.5-0.279,1-0.57,1.49-0.859c0,0,0,0,0.01,0c0.189-0.102,0.36-0.211,0.54-0.33
				c0.55-0.32,1.09-0.65,1.63-0.99c0.07-0.041,0.14-0.09,0.21-0.131c0.09-0.049,0.17-0.109,0.26-0.16
				c0.23-0.139,0.45-0.289,0.67-0.43c0.53-0.33,1.051-0.67,1.57-1.02h0.01c0.58-0.371,1.16-0.76,1.73-1.16
				c0.029-0.02,0.06-0.039,0.09-0.061c0.65-0.439,1.29-0.889,1.93-1.35c0.641-0.449,1.271-0.92,1.9-1.41
				c0.26-0.18,0.51-0.369,0.77-0.57c0.17-0.119,0.351-0.25,0.521-0.389c0.64-0.49,1.28-0.99,1.91-1.51c0.81-0.65,1.62-1.311,2.409-2
				c0.551-0.461,1.091-0.932,1.631-1.41c0.109-0.09,0.229-0.191,0.34-0.291c0.09-0.08,0.18-0.16,0.27-0.25
				c0.23-0.199,0.471-0.41,0.7-0.641c0.521-0.459,1.04-0.939,1.55-1.43c1.021-0.959,2.03-1.949,3.021-2.949
				c0.529-0.529,1.05-1.07,1.56-1.621c0.04-0.029,0.07-0.068,0.09-0.1c0.09-0.09,0.181-0.18,0.261-0.27
				c0.18-0.189,0.359-0.381,0.52-0.57c0.22-0.219,0.42-0.439,0.61-0.66c0.08-0.07,0.14-0.15,0.199-0.219
				c0.07-0.061,0.12-0.131,0.171-0.191c0.199-0.209,0.39-0.42,0.569-0.639c0.48-0.531,0.94-1.061,1.4-1.602
				c0.04-0.049,0.09-0.1,0.13-0.148c0.52-0.611,1.03-1.23,1.54-1.852c5.43-6.648,10.13-13.908,13.97-21.689v-0.01
				c0.87-1.74,1.69-3.51,2.46-5.301c1.09-2.529,2.09-5.119,3-7.738c0.141-0.381,0.271-0.762,0.4-1.141
				c0.7-2.07,1.34-4.17,1.91-6.301c0.25-0.9,0.479-1.809,0.699-2.709c0.07-0.291,0.141-0.57,0.2-0.85
				c0.13-0.521,0.25-1.041,0.36-1.561c0.03-0.109,0.06-0.221,0.08-0.33c0.08-0.34,0.149-0.68,0.22-1.02
				c0.23-1.102,0.45-2.201,0.64-3.311c0.131-0.699,0.25-1.41,0.36-2.121c0.16-0.939,0.29-1.879,0.42-2.828
				c0-0.031,0.01-0.061,0.01-0.102c0.61-4.529,0.95-9.129,1-13.82c0-0.01,0-0.01,0-0.01c-0.069-2.52-0.26-4.99-0.579-7.43
				c-1.28-9.811-4.57-18.98-9.45-27.09c-0.03-0.07-0.07-0.131-0.11-0.191c-2.13-3.52-4.55-6.84-7.24-9.92
				c-0.39-0.439-0.77-0.869-1.17-1.299c-0.2-0.23-0.41-0.461-0.62-0.68h-0.01c-0.479-0.51-0.97-1.021-1.47-1.521
				c-0.63-0.629-1.28-1.25-1.93-1.85c-4.711-4.379-10.021-8.109-15.79-11.09c-8.21-4.221-17.36-6.879-27.051-7.59
				c-0.649-0.061-1.3-0.09-1.949-0.119c-0.011-0.012-0.011-0.012-0.011-0.012l-0.01,0.012h-0.01c-1.08-0.061-2.16-0.08-3.26-0.08
				c-9.57,0-18.69,1.898-27.011,5.35c-7.909,3.26-15.09,7.93-21.25,13.689c0,0.01-0.01,0.01-0.01,0.01
				c-0.399,0.371-0.8,0.75-1.189,1.15h-0.011c-0.09,0.09-0.18,0.17-0.27,0.27h-0.01c-0.061,0.061-0.12,0.121-0.181,0.18
				c-2.52,2.521-4.859,5.221-6.979,8.102c-0.01,0.01-0.021,0.02-0.021,0.039c-2,2.701-3.8,5.561-5.399,8.539
				c-3.82,5.521-8.12,10.682-12.851,15.432c0,0-0.01,0-0.01,0.01c-3.81,3.85-7.9,7.42-12.229,10.68
				c-1.74,1.33-3.521,2.592-5.33,3.811c0.01-0.061,0.029-0.109,0.04-0.17c-0.36,0.311-0.73,0.6-1.12,0.881
				c-0.46,0.299-0.92,0.6-1.391,0.898c-2.05,1.191-4.37,1.951-6.85,2.172c-0.49,0.049-0.99,0.068-1.49,0.068
				c-1.47,0-2.89-0.189-4.24-0.549c-3.56-0.93-6.659-3-8.859-5.811c-1.94-2.451-3.21-5.451-3.51-8.73
				c-0.03-0.25-0.051-0.49-0.061-0.74c-0.04-0.439-0.07-0.881-0.09-1.32c-0.07-1.15-0.12-2.301-0.14-3.459
				c-0.021-0.32-0.021-0.65-0.03-0.971c2.78-5.359,5.99-10.48,9.56-15.301c20.83-28.139,54.271-46.379,91.96-46.379
				c0.311,0,0.62,0,0.92,0.01c2.971,0.02,5.91,0.15,8.82,0.4c19.33,1.629,37.29,8.07,52.68,18.119c4.21,2.74,8.23,5.76,12.03,9.031
				c11.01,10.25,18.74,23.979,21.46,39.439C442.476,302.969,442.716,307.229,442.716,311.549z"/>
		</g>
		<g>
			<g>
				
					<circle fill="none" stroke="#FFFFFF" stroke-width="0.5" stroke-miterlimit="10" stroke-dasharray="1.996,1.996,1.996,1.996,1.996,1.996" cx="209.076" cy="216.25" r="114.36"/>
			</g>
			<g>
				
					<circle fill="none" stroke="#FFFFFF" stroke-width="0.5" stroke-miterlimit="10" stroke-dasharray="1.996,1.996,1.996,1.996,1.996,1.996" cx="321.708" cy="311.477" r="114.36"/>
			</g>
			<g>
				
					<circle fill="none" stroke="#FFFFFF" stroke-width="0.5" stroke-miterlimit="10" stroke-dasharray="1.996,1.996,1.996,1.996,1.996,1.996" cx="376.188" cy="296.652" r="114.359"/>
			</g>
			<g>
				
					<circle fill="none" stroke="#FFFFFF" stroke-width="0.5" stroke-miterlimit="10" stroke-dasharray="1.996,1.996,1.996,1.996,1.996,1.996" cx="362.926" cy="302.604" r="114.359"/>
			</g>
			<g>
				
					<circle fill="none" stroke="#FFFFFF" stroke-width="0.5" stroke-miterlimit="10" stroke-dasharray="1.996,1.996,1.996,1.996,1.996,1.996" cx="351.416" cy="306.172" r="114.359"/>
			</g>
			<g>
				
					<circle fill="none" stroke="#FFFFFF" stroke-width="0.5" stroke-miterlimit="10" stroke-dasharray="1.9961,1.9961,1.9961,1.9961,1.9961,1.9961" cx="359.239" cy="291.422" r="114.359"/>
			</g>
			<g>
				
					<circle fill="none" stroke="#FFFFFF" stroke-width="0.5" stroke-miterlimit="10" stroke-dasharray="1.996,1.996,1.996,1.996,1.996,1.996" cx="343.584" cy="307.893" r="114.359"/>
			</g>
			<g>
				
					<circle fill="none" stroke="#FFFFFF" stroke-width="0.5" stroke-miterlimit="10" stroke-dasharray="2.0005,2.0005,2.0005,2.0005,2.0005,2.0005" cx="365.389" cy="314.746" r="70.68"/>
			</g>
			<g>
				
					<circle fill="none" stroke="#FFFFFF" stroke-width="0.5" stroke-miterlimit="10" stroke-dasharray="2.0005,2.0005,2.0005,2.0005,2.0005,2.0005" cx="425.972" cy="334.695" r="70.68"/>
			</g>
			<g>
				
					<circle fill="none" stroke="#FFFFFF" stroke-width="0.5" stroke-miterlimit="10" stroke-dasharray="2.0005,2.0005,2.0005,2.0005,2.0005,2.0005" cx="392.388" cy="340.588" r="70.68"/>
			</g>
			<g>
				
					<circle fill="none" stroke="#FFFFFF" stroke-width="0.5" stroke-miterlimit="10" stroke-dasharray="2.0005,2.0005,2.0005,2.0005,2.0005,2.0005" cx="404.925" cy="337.645" r="70.68"/>
			</g>
			<g>
				
					<circle fill="none" stroke="#FFFFFF" stroke-width="0.5" stroke-miterlimit="10" stroke-dasharray="2.0005,2.0005,2.0005,2.0005,2.0005,2.0005" cx="436.068" cy="265.508" r="70.68"/>
			</g>
			<g>
				
					<circle fill="none" stroke="#FFFFFF" stroke-width="0.5" stroke-miterlimit="10" stroke-dasharray="2.0005,2.0005,2.0005,2.0005,2.0005,2.0005" cx="305.508" cy="334.695" r="70.68"/>
			</g>
			<g>
				
					<circle fill="none" stroke="#FFFFFF" stroke-width="0.5" stroke-miterlimit="10" stroke-dasharray="2.0005,2.0005,2.0005,2.0005,2.0005,2.0005" cx="401.447" cy="332.609" r="70.68"/>
			</g>
			<g>
				
					<circle fill="none" stroke="#FFFFFF" stroke-width="0.5" stroke-miterlimit="10" stroke-dasharray="2.0005,2.0005,2.0005,2.0005,2.0005,2.0005" cx="401.447" cy="344.549" r="70.68"/>
			</g>
			<g>
				
					<circle fill="none" stroke="#FFFFFF" stroke-width="0.5" stroke-miterlimit="10" stroke-dasharray="2.0005,2.0005,2.0005,2.0005,2.0005,2.0005" cx="392.181" cy="361.381" r="70.68"/>
			</g>
			<g>
				
					<circle fill="none" stroke="#FFFFFF" stroke-width="0.5" stroke-miterlimit="10" stroke-dasharray="2.0005,2.0005,2.0005,2.0005,2.0005,2.0005" cx="356.282" cy="321.973" r="70.68"/>
			</g>
			<g>
				
					<circle fill="none" stroke="#FFFFFF" stroke-width="0.5" stroke-miterlimit="10" stroke-dasharray="2.0005,2.0005,2.0005,2.0005,2.0005,2.0005" cx="340.692" cy="330.48" r="70.68"/>
			</g>
			<g>
				
					<circle fill="none" stroke="#FFFFFF" stroke-width="0.5" stroke-miterlimit="10" stroke-dasharray="2.0005,2.0005,2.0005,2.0005,2.0005,2.0005" cx="325.417" cy="334.551" r="70.68"/>
			</g>
			<g>
				
					<path fill="none" stroke="#FFFFFF" stroke-width="0.5" stroke-miterlimit="10" stroke-dasharray="2.0005,2.0005,2.0005,2.0005,2.0005,2.0005" d="
					M506.748,271.02c0-39.035-31.643-70.682-70.68-70.682c-39.035,0-70.68,31.646-70.68,70.682c0,39.033,31.645,70.678,70.68,70.678
					C475.105,341.697,506.748,310.053,506.748,271.02z"/>
			</g>
			<g>
				
					<circle fill="none" stroke="#FFFFFF" stroke-width="0.5" stroke-miterlimit="10" stroke-dasharray="2.0005,2.0005,2.0005,2.0005,2.0005,2.0005" cx="431.127" cy="277.223" r="70.68"/>
			</g>
			<g>
				
					<circle fill="none" stroke="#FFFFFF" stroke-width="0.5" stroke-miterlimit="10" stroke-dasharray="1.9884,1.9884,1.9884,1.9884,1.9884,1.9884" cx="396.724" cy="450.551" r="43.684"/>
			</g>
			<g>
				
					<circle fill="none" stroke="#FFFFFF" stroke-width="0.5" stroke-miterlimit="10" stroke-dasharray="1.9884,1.9884,1.9884,1.9884,1.9884,1.9884" cx="401.659" cy="454.951" r="43.684"/>
			</g>
			<g>
				
					<circle fill="none" stroke="#FFFFFF" stroke-width="0.5" stroke-miterlimit="10" stroke-dasharray="1.9884,1.9884,1.9884,1.9884,1.9884,1.9884" cx="452.968" cy="374.293" r="43.684"/>
			</g>
			<g>
				
					<circle fill="none" stroke="#FFFFFF" stroke-width="0.5" stroke-miterlimit="10" stroke-dasharray="1.9884,1.9884,1.9884,1.9884,1.9884,1.9884" cx="419.871" cy="391.588" r="43.684"/>
			</g>
			<g>
				
					<circle fill="none" stroke="#FFFFFF" stroke-width="0.5" stroke-miterlimit="10" stroke-dasharray="1.9884,1.9884,1.9884,1.9884,1.9884,1.9884" cx="390.704" cy="390.004" r="43.684"/>
			</g>
			<g>
				
					<circle fill="none" stroke="#FFFFFF" stroke-width="0.5" stroke-miterlimit="10" stroke-dasharray="2.0189,2.0189,2.0189,2.0189,2.0189,2.0189" cx="380.037" cy="451.951" r="26.998"/>
			</g>
			<g>
				
					<circle fill="none" stroke="#FFFFFF" stroke-width="0.5" stroke-miterlimit="10" stroke-dasharray="2.0189,2.0189,2.0189,2.0189,2.0189,2.0189" cx="386.196" cy="448.672" r="26.998"/>
			</g>
			<g>
				
					<circle fill="none" stroke="#FFFFFF" stroke-width="0.5" stroke-miterlimit="10" stroke-dasharray="2.0189,2.0189,2.0189,2.0189,2.0189,2.0189" cx="392.307" cy="441.123" r="26.998"/>
			</g>
			<g>
				
					<circle fill="none" stroke="#FFFFFF" stroke-width="0.5" stroke-miterlimit="10" stroke-dasharray="2.0189,2.0189,2.0189,2.0189,2.0189,2.0189" cx="383.593" cy="427.953" r="26.998"/>
			</g>
			<g>
				
					<circle fill="none" stroke="#FFFFFF" stroke-width="0.5" stroke-miterlimit="10" stroke-dasharray="2.0189,2.0189,2.0189,2.0189,2.0189,2.0189" cx="380.037" cy="433.688" r="26.998"/>
			</g>
			<g>
				
					<circle fill="none" stroke="#FFFFFF" stroke-width="0.5" stroke-miterlimit="10" stroke-dasharray="2.0189,2.0189,2.0189,2.0189,2.0189,2.0189" cx="380.734" cy="442.789" r="26.998"/>
			</g>
			<g>
				
					<circle fill="none" stroke="#FFFFFF" stroke-width="0.5" stroke-miterlimit="10" stroke-dasharray="1.9411,1.9411,1.9411,1.9411,1.9411,1.9411" cx="261.829" cy="298.49" r="16.687"/>
			</g>
		</g>
		
			<circle fill="none" stroke="#FFFFFF" stroke-width="0.5" stroke-miterlimit="10" stroke-dasharray="2,2,2,2,2,2" cx="414.326" cy="336.1" r="70.68"/>
		
			<circle fill="none" stroke="#FFFFFF" stroke-width="0.5" stroke-miterlimit="10" stroke-dasharray="2,2,2,2,2,2" cx="411.372" cy="384.725" r="70.68"/>
		
			<circle fill="none" stroke="#FFFFFF" stroke-width="0.5" stroke-miterlimit="10" stroke-dasharray="2,2,2,2,2,2" cx="392.388" cy="379.725" r="70.68"/>
		
			<circle fill="none" stroke="#FFFFFF" stroke-width="0.5" stroke-miterlimit="10" stroke-dasharray="2,2,2,2,2,2" cx="376.188" cy="366.74" r="70.68"/>
	</g>
</g>
</svg>
