<?xml version="1.0" encoding="utf-8"?>
<!-- Generator: Adobe Illustrator 16.0.0, SVG Export Plug-In . SVG Version: 6.00 Build 0)  -->
<!DOCTYPE svg PUBLIC "-//W3C//DTD SVG 1.1//EN" "http://www.w3.org/Graphics/SVG/1.1/DTD/svg11.dtd">
<svg version="1.1" xmlns="http://www.w3.org/2000/svg" xmlns:xlink="http://www.w3.org/1999/xlink" x="0px" y="0px" width="1200px"
	 height="600px" viewBox="0 0 1200 600" enable-background="new 0 0 1200 600" xml:space="preserve">
<g id="Calque_1">
	<circle fill="none" stroke="#000000" stroke-miterlimit="10" cx="1487.489" cy="-319.594" r="114.36"/>
	<circle fill="none" stroke="#000000" stroke-miterlimit="10" cx="1487.489" cy="-319.594" r="70.68"/>
	<circle fill="none" stroke="#000000" stroke-miterlimit="10" cx="1487.489" cy="-319.594" r="43.684"/>
	<circle fill="none" stroke="#000000" stroke-miterlimit="10" cx="1487.489" cy="-319.595" r="26.998"/>
	<circle fill="none" stroke="#000000" stroke-miterlimit="10" cx="1487.489" cy="-319.594" r="16.687"/>
	<circle fill="none" stroke="#000000" stroke-miterlimit="10" cx="1487.489" cy="-319.595" r="10.313"/>
</g>
<g id="Calque_3">
	<rect x="598.81" y="-636.595" fill="#3D6C8B" width="616.668" height="613.086"/>
	<g>
		<path d="M970.076-308.354c-0.12-0.051-0.239-0.092-0.35-0.15c0.02-0.031,0.04-0.07,0.05-0.09
			C969.876-308.515,969.976-308.435,970.076-308.354z"/>
		<path fill="#FFFFFF" d="M1010.886-298.685c-7.69-0.361-15.181-1.49-22.391-3.32c-4.699-1.17-9.29-2.641-13.739-4.391
			c-1.58-0.619-3.141-1.27-4.681-1.959c-0.1-0.08-0.199-0.16-0.3-0.24c-0.01,0.02-0.03,0.059-0.05,0.09
			c-0.09,0.17-0.18,0.34-0.271,0.529c-1.909,3.541-4.3,6.779-7.079,9.65c-0.061,0.01-0.12,0.01-0.181,0.02
			c6.17-6.35,10.42-14.58,11.82-23.74c0.41-0.17,0.82-0.32,1.24-0.459c2.729-0.941,5.649-1.441,8.699-1.441
			C998.286-323.946,1010.006-312.786,1010.886-298.685z"/>
		<path d="M962.376-298.325c-1.61,1.66-3.36,3.199-5.221,4.59c-5.37,4.02-11.7,6.84-18.59,8.039c6.89-1.229,13.22-4.08,18.58-8.139
			c1.8-1.35,3.49-2.85,5.05-4.471C962.256-298.315,962.316-298.315,962.376-298.325z"/>
		<path d="M1024.816-308.845c0,3.639-1.88,6.83-4.729,8.66c-1.44,0.93-3.12,1.51-4.931,1.629c-0.01,0-0.01,0-0.02,0
			c-0.521,0.01-1.04,0-1.55-0.029h-0.051c-0.89-0.02-1.77-0.061-2.649-0.1c-0.88-14.102-12.601-25.262-26.931-25.262
			c-3.05,0-5.97,0.5-8.699,1.441c-0.42,0.139-0.83,0.289-1.24,0.459c-1.4,9.16-5.65,17.391-11.82,23.74
			c-1.56,1.621-3.25,3.121-5.05,4.471c-5.36,4.059-11.69,6.91-18.58,8.139c-0.17,0.031-0.35,0.061-0.53,0.092
			c-0.39,0.059-0.779,0.119-1.17,0.17c-0.5,0.068-1,0.129-1.51,0.18c0-7.41,1.85-14.381,5.11-20.49c0.069-0.131,0.14-0.27,0.22-0.41
			c1-1.84,2.14-3.6,3.4-5.27c1.739-2.33,3.72-4.48,5.89-6.42c0.42-0.371,0.85-0.75,1.29-1.111c0.38-0.309,0.77-0.629,1.17-0.93
			c1.06-0.82,2.17-1.59,3.31-2.311c-1.479-0.6-2.979-1.17-4.489-1.699c-0.24-0.08-0.471-0.17-0.71-0.25
			c-0.24-0.09-0.471-0.17-0.71-0.24c-0.021-0.01-0.03-0.01-0.051-0.02c-0.189-0.07-0.38-0.131-0.569-0.189
			c-0.641-0.211-1.28-0.42-1.92-0.621c-0.5-0.17-1-0.32-1.5-0.469c-1.591-0.49-3.2-0.92-4.82-1.33c-4.45-1.121-9-1.99-13.64-2.57
			c-4.7-0.59-9.48-0.881-14.341-0.881c-4.439,0-8.83,0.25-13.14,0.76c-0.5-1.17-1.08-2.309-1.729-3.389h-0.011
			c-1.67-2.781-3.84-5.24-6.38-7.24c-0.76-0.6-1.55-1.17-2.37-1.67c-0.04-0.031-0.09-0.061-0.13-0.08
			c-0.49-0.32-0.99-0.611-1.5-0.881c-3.59-1.93-7.66-3.06-11.99-3.18c-0.25-0.01-0.5-0.01-0.75-0.01c-2.569,0-5.06,0.359-7.42,1.04
			c-2.189,0.62-4.27,1.511-6.189,2.64v0.01c-0.221,0.111-0.431,0.24-0.641,0.381c-0.01,0-0.01,0-0.01,0
			c-6.399,3.99-11.01,10.58-12.33,18.289c1.04,0.211,2.12,0.32,3.23,0.32c0.54,0,1.069-0.029,1.59-0.08
			c1.86-0.17,3.63-0.65,5.26-1.391c1.15-0.52,2.23-1.158,3.23-1.93c0.02-0.01,0.05-0.029,0.069-0.029
			c2.841-2.23,6.41-3.561,10.301-3.561c0.64,0,1.27,0.041,1.89,0.111c0.01,0,0.01,0,0.02,0c3.381,0.379,6.46,1.77,8.92,3.898
			c-8.22,2.211-16.06,5.352-23.43,9.26c-1.37,0.721-2.71,1.471-4.04,2.25h-0.01c-2.11,1.23-4.18,2.531-6.2,3.891
			c-2.96,1.98-5.82,4.121-8.57,6.371c-1.43,1.158-2.829,2.359-4.199,3.6c-2.88,2.59-5.63,5.33-8.25,8.219
			c-1.94,1.9-3.811,3.861-5.601,5.91c-2.8,3.16-5.42,6.461-7.84,9.93c-0.31,0.432-0.61,0.852-0.899,1.271c0,0.01,0,0.01,0,0.01
			c0.01,0.42,0.02,0.83,0.02,1.25c0,0.439-0.01,0.879-0.02,1.311c-0.08,2.77-0.421,5.488-1,8.1c-0.471,2.15-1.091,4.23-1.86,6.23
			c-0.23,0.6-0.47,1.18-0.72,1.76c-0.57-1.701-1.261-3.352-2.04-4.951c0-0.01,0-0.01-0.011-0.029c0,0,0,0,0.011-0.01
			c-0.03-0.041-0.061-0.1-0.091-0.16c-0.029-0.08-0.06-0.141-0.109-0.211c-0.01-0.049-0.021-0.07-0.05-0.1
			c-0.03-0.08-0.07-0.16-0.101-0.23l-0.01-0.01c-0.28-0.619-0.5-1.279-0.65-1.959c-0.14-0.6-0.229-1.25-0.25-1.9
			c-0.18,0.4-0.369,0.801-0.58,1.189c-0.06,0.131-0.119,0.27-0.199,0.391c-0.48,0.971-1.011,1.9-1.561,2.82
			c-1.45,2.369-3.109,4.59-4.96,6.639c-0.26,0.271-0.5,0.531-0.75,0.791c-1.729,1.91-3.3,3.99-4.68,6.199
			c-0.95,1.51-1.811,3.08-2.57,4.711c-0.7,1.5-1.319,3.049-1.84,4.639c-0.21-1.738-0.32-3.51-0.32-5.309
			c0-0.941,0.03-1.881,0.101-2.82c0.069-1.221,0.2-2.439,0.38-3.641c0.06-0.4,0.12-0.789,0.189-1.18c0.44-2.5,1.091-4.93,1.94-7.25
			c0.25-0.709,0.53-1.41,0.82-2.109c0.93-2.191,2.04-4.301,3.3-6.291c1.22-1.949,2.59-3.779,4.09-5.479
			c1.43-1.641,2.98-3.15,4.63-4.561c0.21-2.41,0.5-4.781,0.86-7.141v-0.02c0.39-2.551,0.87-5.1,1.43-7.6
			c0.26-1.18,0.54-2.361,0.851-3.531c0.21-0.83,0.43-1.67,0.67-2.49c0.01-0.059,0.029-0.09,0.04-0.139
			c1.6-5.67,3.63-11.17,6.06-16.441c5.36-11.689,12.62-22.309,21.41-31.469c0-0.01,0-0.01,0.01-0.01c2.61-2.74,5.36-5.33,8.24-7.791
			l0.01-0.02c0.18-0.15,0.36-0.3,0.55-0.45c0.36-0.319,0.73-0.63,1.101-0.92c0,0,0-0.01,0.01-0.01
			c9.95-8.2,21.31-14.761,33.67-19.24c0.07-0.021,0.13-0.05,0.2-0.069c1.75-0.621,3.63-0.961,5.6-0.961
			c1.58,0,3.11,0.221,4.561,0.641c1.83,0.51,3.529,1.34,5.04,2.41c1.189,0.83,2.27,1.82,3.189,2.93h0.01
			c0.36,0.449,0.71,0.91,1.03,1.38c0.12,0.19,0.23,0.37,0.351,0.54c0.59,0.88,1.31,1.65,2.119,2.311
			c1,0.799,2.141,1.399,3.391,1.789c0.04,0.021,0.069,0.03,0.109,0.041c0.75,0.219,1.54,0.359,2.36,0.409
			c-0.07-0.5-0.11-1.01-0.11-1.53c0-0.14,0-0.27,0.011-0.41c0-0.029,0-0.069,0.01-0.1v-0.08c0.01-0.13,0.02-0.25,0.03-0.369
			c0-0.031,0-0.061,0.01-0.09c0.01-0.171,0.03-0.33,0.06-0.49c0.03-0.211,0.07-0.42,0.11-0.621c0.03-0.129,0.05-0.25,0.09-0.379
			c0.05-0.201,0.1-0.4,0.16-0.59c0.11-0.33,0.229-0.65,0.37-0.961c0.069-0.16,0.14-0.32,0.22-0.479c0.15-0.3,0.3-0.58,0.47-0.87
			c0.181-0.29,0.36-0.59,0.511-0.91c0.68-1.37,1.069-2.93,1.069-4.57c0-1.979-0.56-3.82-1.529-5.39
			c-0.94,0.069-1.87,0.16-2.801,0.271c-2.08,0.209-4.13,0.49-6.17,0.83c-0.47,0.069-0.939,0.149-1.41,0.239
			c0.811-2.01,1.48-4.1,1.99-6.25c0.771-3.239,1.181-6.63,1.181-10.11v-0.279c-0.051-7.189-1.83-13.971-4.95-19.939
			c1.05-0.361,2.17-0.561,3.34-0.561c0.58,0,1.149,0.05,1.7,0.14c1.83,0.3,3.5,1.091,4.87,2.22c0.14,0.121,0.279,0.23,0.42,0.371
			c3.93,3.469,7.229,7.649,9.699,12.33c0.25,0.529,0.511,1.059,0.79,1.579c5.631,10.681,15.561,18.729,27.48,21.87
			c0.54,0.13,1.07,0.25,1.61,0.4c34.26,8.68,62.35,32.83,76.409,64.58v0.01c0.301,0.66,0.58,1.32,0.86,1.99c0,0,0,0.01,0.01,0.029
			C1024.656-310.925,1024.816-309.915,1024.816-308.845z"/>
		<path fill="#FFFFFF" d="M910.866-376.216c0,1.641-0.39,3.2-1.069,4.57c-0.15,0.32-0.33,0.62-0.511,0.91
			c-0.17,0.29-0.319,0.57-0.47,0.87c-0.08,0.159-0.15,0.319-0.22,0.479c-0.141,0.311-0.26,0.631-0.37,0.961
			c-0.061,0.189-0.11,0.389-0.16,0.59c-0.04,0.129-0.06,0.25-0.09,0.379c-0.04,0.201-0.08,0.41-0.11,0.621
			c-0.029,0.16-0.05,0.319-0.06,0.49c-0.01,0.029-0.01,0.059-0.01,0.09c-0.011,0.119-0.021,0.239-0.03,0.369v0.08
			c-0.01,0.03-0.01,0.07-0.01,0.1c-0.011,0.141-0.011,0.271-0.011,0.41c0,0.521,0.04,1.03,0.11,1.53
			c-0.82-0.05-1.61-0.19-2.36-0.409c-0.04-0.011-0.069-0.021-0.109-0.041c-1.25-0.39-2.391-0.99-3.391-1.789
			c-0.81-0.66-1.529-1.431-2.119-2.311c-0.12-0.17-0.23-0.35-0.351-0.54c-0.32-0.47-0.67-0.931-1.03-1.38h-0.01
			c-0.92-1.109-2-2.1-3.189-2.93c-1.511-1.07-3.21-1.9-5.04-2.41c-1.45-0.42-2.98-0.641-4.561-0.641c-1.97,0-3.85,0.34-5.6,0.961
			c3.39-1.23,6.85-2.291,10.38-3.19c2.79-0.72,5.61-1.33,8.479-1.82c0.471-0.09,0.94-0.17,1.41-0.239
			c2.04-0.34,4.09-0.621,6.17-0.83c0.931-0.11,1.86-0.201,2.801-0.271C910.306-380.036,910.866-378.195,910.866-376.216z"/>
		<path d="M861.386-342.466c-0.08,0.189-0.15,0.381-0.221,0.561c-0.149-0.051-0.279-0.109-0.42-0.18
			C860.956-342.226,861.166-342.354,861.386-342.466z"/>
		<path d="M861.386-342.466c-0.08,0.189-0.15,0.381-0.221,0.561c-0.149-0.051-0.279-0.109-0.42-0.18
			C860.956-342.226,861.166-342.354,861.386-342.466z"/>
		<path d="M861.386-342.466c-0.08,0.189-0.15,0.381-0.221,0.561c-0.149-0.051-0.279-0.109-0.42-0.18
			C860.956-342.226,861.166-342.354,861.386-342.466z"/>
		<path fill="#FFFFFF" d="M955.746-322.196c-1.14,0.721-2.25,1.49-3.31,2.311c-0.4,0.301-0.79,0.621-1.17,0.93
			c-0.44,0.361-0.87,0.74-1.29,1.111c-1.57-0.611-3.15-1.191-4.75-1.74c-0.25-0.09-0.51-0.17-0.76-0.25
			c-11.351-3.77-23.49-5.83-36.11-5.83c-2.39,0-4.75,0.08-7.1,0.24c-4.641,0.26-9.2,0.83-13.67,1.66
			c-0.051,0.01-0.11,0.02-0.16,0.029c-0.58,0.09-1.141,0.209-1.71,0.32h-0.011c-8.979,1.811-17.579,4.66-25.659,8.449
			c-1.561,0.711-3.101,1.471-4.61,2.27c-1.92,1-3.81,2.061-5.66,3.17c-2.8,1.672-5.52,3.451-8.16,5.361
			c-1.42,1.01-2.819,2.08-4.189,3.16c-3.221,2.549-6.29,5.26-9.21,8.139c2.62-2.889,5.37-5.629,8.25-8.219
			c1.37-1.24,2.77-2.441,4.199-3.6c2.75-2.25,5.61-4.391,8.57-6.371c2.021-1.359,4.09-2.66,6.2-3.891h0.01
			c1.33-0.779,2.67-1.529,4.04-2.25c7.37-3.908,15.21-7.049,23.43-9.26c-2.46-2.129-5.539-3.52-8.92-3.898c-0.01,0-0.01,0-0.02,0
			c-0.62-0.07-1.25-0.111-1.89-0.111c-3.891,0-7.46,1.33-10.301,3.561c-0.02,0-0.05,0.02-0.069,0.029c-1,0.771-2.08,1.41-3.23,1.93
			c-1.63,0.74-3.399,1.221-5.26,1.391c-0.521,0.051-1.05,0.08-1.59,0.08c-1.11,0-2.19-0.109-3.23-0.32
			c1.32-7.709,5.931-14.299,12.33-18.289c0,0,0,0,0.01,0c0.141,0.07,0.271,0.129,0.42,0.18c0.07-0.18,0.141-0.371,0.221-0.561v-0.01
			c1.92-1.129,4-2.02,6.189-2.64c2.36-0.681,4.851-1.04,7.42-1.04c0.25,0,0.5,0,0.75,0.01c4.33,0.12,8.4,1.25,11.99,3.18
			c0.51,0.27,1.01,0.561,1.5,0.881c0.04,0.02,0.09,0.049,0.13,0.08c0.82,0.5,1.61,1.07,2.37,1.67c2.54,2,4.71,4.459,6.38,7.24h0.011
			c0.649,1.08,1.229,2.219,1.729,3.389c4.31-0.51,8.7-0.76,13.14-0.76c4.86,0,9.641,0.291,14.341,0.881
			c4.64,0.58,9.189,1.449,13.64,2.57c1.62,0.41,3.229,0.84,4.82,1.33c0.5,0.148,1,0.299,1.5,0.469c0.64,0.201,1.279,0.41,1.92,0.621
			c0.189,0.059,0.38,0.119,0.569,0.189c0.021,0.01,0.03,0.01,0.051,0.02c0.239,0.07,0.47,0.15,0.71,0.24
			c0.239,0.08,0.47,0.17,0.71,0.25C952.766-323.366,954.266-322.796,955.746-322.196z"/>
		<path stroke="#000000" stroke-miterlimit="10" d="M907.856-363.766c-0.82-0.05-1.61-0.19-2.36-0.409
			c-0.04-0.011-0.069-0.021-0.109-0.041c0.77-0.55,1.569-1.08,2.38-1.59c-0.01,0.03-0.01,0.07-0.01,0.1
			c-0.011,0.141-0.011,0.271-0.011,0.41C907.746-364.775,907.786-364.266,907.856-363.766z"/>
	</g>
</g>
<g id="Calque_5">
	<rect x="-31.251" y="-636.595" fill="#3D6C8B" width="616.668" height="613.086"/>
	<g>
		<path d="M339.982-308.354c-0.12-0.051-0.239-0.092-0.35-0.15c0.02-0.031,0.04-0.07,0.05-0.09
			C339.783-308.515,339.883-308.435,339.982-308.354z"/>
		<path fill="#FFFFFF" d="M380.793-298.685c-7.69-0.361-15.181-1.49-22.391-3.32c-4.699-1.17-9.29-2.641-13.739-4.391
			c-1.58-0.619-3.141-1.27-4.681-1.959c-0.1-0.08-0.199-0.16-0.3-0.24c-0.01,0.02-0.03,0.059-0.05,0.09
			c-0.09,0.17-0.18,0.34-0.271,0.529c-1.909,3.541-4.3,6.779-7.079,9.65c-0.061,0.01-0.12,0.01-0.181,0.02
			c6.17-6.35,10.42-14.58,11.82-23.74c0.41-0.17,0.82-0.32,1.24-0.459c2.729-0.941,5.649-1.441,8.699-1.441
			C368.192-323.946,379.913-312.786,380.793-298.685z"/>
		<path d="M332.283-298.325c-1.61,1.66-3.36,3.199-5.221,4.59c-5.37,4.02-11.7,6.84-18.59,8.039c6.89-1.229,13.22-4.08,18.58-8.139
			c1.8-1.35,3.49-2.85,5.05-4.471C332.163-298.315,332.223-298.315,332.283-298.325z"/>
		<path d="M394.723-308.845c0,3.639-1.88,6.83-4.729,8.66c-1.44,0.93-3.12,1.51-4.931,1.629c-0.01,0-0.01,0-0.02,0
			c-0.521,0.01-1.04,0-1.55-0.029h-0.051c-0.89-0.02-1.77-0.061-2.649-0.1c-0.88-14.102-12.601-25.262-26.931-25.262
			c-3.05,0-5.97,0.5-8.699,1.441c-0.42,0.139-0.83,0.289-1.24,0.459c-1.4,9.16-5.65,17.391-11.82,23.74
			c-1.56,1.621-3.25,3.121-5.05,4.471c-5.36,4.059-11.69,6.91-18.58,8.139c-0.17,0.031-0.35,0.061-0.53,0.092
			c-0.39,0.059-0.779,0.119-1.17,0.17c-0.5,0.068-1,0.129-1.51,0.18c0-7.41,1.85-14.381,5.11-20.49c0.069-0.131,0.14-0.27,0.22-0.41
			c1-1.84,2.14-3.6,3.4-5.27c1.739-2.33,3.72-4.48,5.89-6.42c0.42-0.371,0.85-0.75,1.29-1.111c0.38-0.309,0.77-0.629,1.17-0.93
			c1.06-0.82,2.17-1.59,3.31-2.311c-1.479-0.6-2.979-1.17-4.489-1.699c-0.24-0.08-0.471-0.17-0.71-0.25
			c-0.24-0.09-0.471-0.17-0.71-0.24c-0.021-0.01-0.03-0.01-0.051-0.02c-0.189-0.07-0.38-0.131-0.569-0.189
			c-0.641-0.211-1.28-0.42-1.92-0.621c-0.5-0.17-1-0.32-1.5-0.469c-1.591-0.49-3.2-0.92-4.82-1.33c-4.45-1.121-9-1.99-13.64-2.57
			c-4.7-0.59-9.48-0.881-14.341-0.881c-4.439,0-8.83,0.25-13.14,0.76c-0.5-1.17-1.08-2.309-1.729-3.389h-0.011
			c-1.67-2.781-3.84-5.24-6.38-7.24c-0.76-0.6-1.55-1.17-2.37-1.67c-0.04-0.031-0.09-0.061-0.13-0.08
			c-0.49-0.32-0.99-0.611-1.5-0.881c-3.59-1.93-7.66-3.06-11.99-3.18c-0.25-0.01-0.5-0.01-0.75-0.01c-2.569,0-5.06,0.359-7.42,1.04
			c-2.189,0.62-4.27,1.511-6.189,2.64v0.01c-0.221,0.111-0.431,0.24-0.641,0.381c-0.01,0-0.01,0-0.01,0
			c-6.399,3.99-11.01,10.58-12.33,18.289c1.04,0.211,2.12,0.32,3.23,0.32c0.54,0,1.069-0.029,1.59-0.08
			c1.86-0.17,3.63-0.65,5.26-1.391c1.15-0.52,2.23-1.158,3.23-1.93c0.02-0.01,0.05-0.029,0.069-0.029
			c2.841-2.23,6.41-3.561,10.301-3.561c0.64,0,1.27,0.041,1.89,0.111c0.01,0,0.01,0,0.02,0c3.381,0.379,6.46,1.77,8.92,3.898
			c-8.22,2.211-16.06,5.352-23.43,9.26c-1.37,0.721-2.71,1.471-4.04,2.25h-0.01c-2.11,1.23-4.18,2.531-6.2,3.891
			c-2.96,1.98-5.82,4.121-8.57,6.371c-1.43,1.158-2.829,2.359-4.199,3.6c-2.88,2.59-5.63,5.33-8.25,8.219
			c-1.94,1.9-3.811,3.861-5.601,5.91c-2.8,3.16-5.42,6.461-7.84,9.93c-0.31,0.432-0.61,0.852-0.899,1.271c0,0.01,0,0.01,0,0.01
			c0.01,0.42,0.02,0.83,0.02,1.25c0,0.439-0.01,0.879-0.02,1.311c-0.08,2.77-0.421,5.488-1,8.1c-0.471,2.15-1.091,4.23-1.86,6.23
			c-0.23,0.6-0.47,1.18-0.72,1.76c-0.57-1.701-1.261-3.352-2.04-4.951c0-0.01,0-0.01-0.011-0.029c0,0,0,0,0.011-0.01
			c-0.03-0.041-0.061-0.1-0.091-0.16c-0.029-0.08-0.06-0.141-0.109-0.211c-0.01-0.049-0.021-0.07-0.05-0.1
			c-0.03-0.08-0.07-0.16-0.101-0.23l-0.01-0.01c-0.28-0.619-0.5-1.279-0.65-1.959c-0.14-0.6-0.229-1.25-0.25-1.9
			c-0.18,0.4-0.369,0.801-0.58,1.189c-0.06,0.131-0.119,0.27-0.199,0.391c-0.48,0.971-1.011,1.9-1.561,2.82
			c-1.45,2.369-3.109,4.59-4.96,6.639c-0.26,0.271-0.5,0.531-0.75,0.791c-1.729,1.91-3.3,3.99-4.68,6.199
			c-0.95,1.51-1.811,3.08-2.57,4.711c-0.7,1.5-1.319,3.049-1.84,4.639c-0.21-1.738-0.32-3.51-0.32-5.309
			c0-0.941,0.03-1.881,0.101-2.82c0.069-1.221,0.2-2.439,0.38-3.641c0.06-0.4,0.12-0.789,0.189-1.18c0.44-2.5,1.091-4.93,1.94-7.25
			c0.25-0.709,0.53-1.41,0.82-2.109c0.93-2.191,2.04-4.301,3.3-6.291c1.22-1.949,2.59-3.779,4.09-5.479
			c1.43-1.641,2.98-3.15,4.63-4.561c0.21-2.41,0.5-4.781,0.86-7.141v-0.02c0.39-2.551,0.87-5.1,1.43-7.6
			c0.26-1.18,0.54-2.361,0.851-3.531c0.21-0.83,0.43-1.67,0.67-2.49c0.01-0.059,0.029-0.09,0.04-0.139
			c1.6-5.67,3.63-11.17,6.06-16.441c5.36-11.689,12.62-22.309,21.41-31.469c0-0.01,0-0.01,0.01-0.01c2.61-2.74,5.36-5.33,8.24-7.791
			l0.01-0.02c0.18-0.15,0.36-0.3,0.55-0.45c0.36-0.319,0.73-0.63,1.101-0.92c0,0,0-0.01,0.01-0.01
			c9.95-8.2,21.31-14.761,33.67-19.24c0.07-0.021,0.13-0.05,0.2-0.069c1.75-0.621,3.63-0.961,5.6-0.961
			c1.58,0,3.11,0.221,4.561,0.641c1.83,0.51,3.529,1.34,5.04,2.41c1.189,0.83,2.27,1.82,3.189,2.93h0.01
			c0.36,0.449,0.71,0.91,1.03,1.38c0.12,0.19,0.23,0.37,0.351,0.54c0.59,0.88,1.31,1.65,2.119,2.311
			c1,0.799,2.141,1.399,3.391,1.789c0.04,0.021,0.069,0.03,0.109,0.041c0.75,0.219,1.54,0.359,2.36,0.409
			c-0.07-0.5-0.11-1.01-0.11-1.53c0-0.14,0-0.27,0.011-0.41c0-0.029,0-0.069,0.01-0.1v-0.08c0.01-0.13,0.02-0.25,0.03-0.369
			c0-0.031,0-0.061,0.01-0.09c0.01-0.171,0.03-0.33,0.06-0.49c0.03-0.211,0.07-0.42,0.11-0.621c0.03-0.129,0.05-0.25,0.09-0.379
			c0.05-0.201,0.1-0.4,0.16-0.59c0.11-0.33,0.229-0.65,0.37-0.961c0.069-0.16,0.14-0.32,0.22-0.479c0.15-0.3,0.3-0.58,0.47-0.87
			c0.181-0.29,0.36-0.59,0.511-0.91c0.68-1.37,1.069-2.93,1.069-4.57c0-1.979-0.56-3.82-1.529-5.39
			c-0.94,0.069-1.87,0.16-2.801,0.271c-2.08,0.209-4.13,0.49-6.17,0.83c-0.47,0.069-0.939,0.149-1.41,0.239
			c0.811-2.01,1.48-4.1,1.99-6.25c0.771-3.239,1.181-6.63,1.181-10.11v-0.279c-0.051-7.189-1.83-13.971-4.95-19.939
			c1.05-0.361,2.17-0.561,3.34-0.561c0.58,0,1.149,0.05,1.7,0.14c1.83,0.3,3.5,1.091,4.87,2.22c0.14,0.121,0.279,0.23,0.42,0.371
			c3.93,3.469,7.229,7.649,9.699,12.33c0.25,0.529,0.511,1.059,0.79,1.579c5.631,10.681,15.561,18.729,27.48,21.87
			c0.54,0.13,1.07,0.25,1.61,0.4c34.26,8.68,62.35,32.83,76.409,64.58v0.01c0.301,0.66,0.58,1.32,0.86,1.99c0,0,0,0.01,0.01,0.029
			C394.563-310.925,394.723-309.915,394.723-308.845z"/>
		<path fill="#FFFFFF" d="M280.772-376.216c0,1.641-0.39,3.2-1.069,4.57c-0.15,0.32-0.33,0.62-0.511,0.91
			c-0.17,0.29-0.319,0.57-0.47,0.87c-0.08,0.159-0.15,0.319-0.22,0.479c-0.141,0.311-0.26,0.631-0.37,0.961
			c-0.061,0.189-0.11,0.389-0.16,0.59c-0.04,0.129-0.06,0.25-0.09,0.379c-0.04,0.201-0.08,0.41-0.11,0.621
			c-0.029,0.16-0.05,0.319-0.06,0.49c-0.01,0.029-0.01,0.059-0.01,0.09c-0.011,0.119-0.021,0.239-0.03,0.369v0.08
			c-0.01,0.03-0.01,0.07-0.01,0.1c-0.011,0.141-0.011,0.271-0.011,0.41c0,0.521,0.04,1.03,0.11,1.53
			c-0.82-0.05-1.61-0.19-2.36-0.409c-0.04-0.011-0.069-0.021-0.109-0.041c-1.25-0.39-2.391-0.99-3.391-1.789
			c-0.81-0.66-1.529-1.431-2.119-2.311c-0.12-0.17-0.23-0.35-0.351-0.54c-0.32-0.47-0.67-0.931-1.03-1.38h-0.01
			c-0.92-1.109-2-2.1-3.189-2.93c-1.511-1.07-3.21-1.9-5.04-2.41c-1.45-0.42-2.98-0.641-4.561-0.641c-1.97,0-3.85,0.34-5.6,0.961
			c3.39-1.23,6.85-2.291,10.38-3.19c2.79-0.72,5.61-1.33,8.479-1.82c0.471-0.09,0.94-0.17,1.41-0.239
			c2.04-0.34,4.09-0.621,6.17-0.83c0.931-0.11,1.86-0.201,2.801-0.271C280.213-380.036,280.772-378.195,280.772-376.216z"/>
		<path d="M231.293-342.466c-0.08,0.189-0.15,0.381-0.221,0.561c-0.149-0.051-0.279-0.109-0.42-0.18
			C230.862-342.226,231.072-342.354,231.293-342.466z"/>
		<path d="M231.293-342.466c-0.08,0.189-0.15,0.381-0.221,0.561c-0.149-0.051-0.279-0.109-0.42-0.18
			C230.862-342.226,231.072-342.354,231.293-342.466z"/>
		<path d="M231.293-342.466c-0.08,0.189-0.15,0.381-0.221,0.561c-0.149-0.051-0.279-0.109-0.42-0.18
			C230.862-342.226,231.072-342.354,231.293-342.466z"/>
		<path fill="#FFFFFF" d="M325.652-322.196c-1.14,0.721-2.25,1.49-3.31,2.311c-0.4,0.301-0.79,0.621-1.17,0.93
			c-0.44,0.361-0.87,0.74-1.29,1.111c-1.57-0.611-3.15-1.191-4.75-1.74c-0.25-0.09-0.51-0.17-0.76-0.25
			c-11.351-3.77-23.49-5.83-36.11-5.83c-2.39,0-4.75,0.08-7.1,0.24c-4.641,0.26-9.2,0.83-13.67,1.66
			c-0.051,0.01-0.11,0.02-0.16,0.029c-0.58,0.09-1.141,0.209-1.71,0.32h-0.011c-8.979,1.811-17.579,4.66-25.659,8.449
			c-1.561,0.711-3.101,1.471-4.61,2.27c-1.92,1-3.81,2.061-5.66,3.17c-2.8,1.672-5.52,3.451-8.16,5.361
			c-1.42,1.01-2.819,2.08-4.189,3.16c-3.221,2.549-6.29,5.26-9.21,8.139c2.62-2.889,5.37-5.629,8.25-8.219
			c1.37-1.24,2.77-2.441,4.199-3.6c2.75-2.25,5.61-4.391,8.57-6.371c2.021-1.359,4.09-2.66,6.2-3.891h0.01
			c1.33-0.779,2.67-1.529,4.04-2.25c7.37-3.908,15.21-7.049,23.43-9.26c-2.46-2.129-5.539-3.52-8.92-3.898c-0.01,0-0.01,0-0.02,0
			c-0.62-0.07-1.25-0.111-1.89-0.111c-3.891,0-7.46,1.33-10.301,3.561c-0.02,0-0.05,0.02-0.069,0.029c-1,0.771-2.08,1.41-3.23,1.93
			c-1.63,0.74-3.399,1.221-5.26,1.391c-0.521,0.051-1.05,0.08-1.59,0.08c-1.11,0-2.19-0.109-3.23-0.32
			c1.32-7.709,5.931-14.299,12.33-18.289c0,0,0,0,0.01,0c0.141,0.07,0.271,0.129,0.42,0.18c0.07-0.18,0.141-0.371,0.221-0.561v-0.01
			c1.92-1.129,4-2.02,6.189-2.64c2.36-0.681,4.851-1.04,7.42-1.04c0.25,0,0.5,0,0.75,0.01c4.33,0.12,8.4,1.25,11.99,3.18
			c0.51,0.27,1.01,0.561,1.5,0.881c0.04,0.02,0.09,0.049,0.13,0.08c0.82,0.5,1.61,1.07,2.37,1.67c2.54,2,4.71,4.459,6.38,7.24h0.011
			c0.649,1.08,1.229,2.219,1.729,3.389c4.31-0.51,8.7-0.76,13.14-0.76c4.86,0,9.641,0.291,14.341,0.881
			c4.64,0.58,9.189,1.449,13.64,2.57c1.62,0.41,3.229,0.84,4.82,1.33c0.5,0.148,1,0.299,1.5,0.469c0.64,0.201,1.279,0.41,1.92,0.621
			c0.189,0.059,0.38,0.119,0.569,0.189c0.021,0.01,0.03,0.01,0.051,0.02c0.239,0.07,0.47,0.15,0.71,0.24
			c0.239,0.08,0.47,0.17,0.71,0.25C322.673-323.366,324.173-322.796,325.652-322.196z"/>
		<path stroke="#000000" stroke-miterlimit="10" d="M277.763-363.766c-0.82-0.05-1.61-0.19-2.36-0.409
			c-0.04-0.011-0.069-0.021-0.109-0.041c0.77-0.55,1.569-1.08,2.38-1.59c-0.01,0.03-0.01,0.07-0.01,0.1
			c-0.011,0.141-0.011,0.271-0.011,0.41C277.652-364.775,277.692-364.266,277.763-363.766z"/>
	</g>
	<g>
		<g>
			
				<circle fill="none" stroke="#FFFFFF" stroke-width="0.5" stroke-miterlimit="10" stroke-dasharray="1.996,1.996,1.996,1.996,1.996,1.996" cx="289.2" cy="-267.226" r="114.36"/>
		</g>
		<g>
			
				<circle fill="none" stroke="#FFFFFF" stroke-width="0.5" stroke-miterlimit="10" stroke-dasharray="1.996,1.996,1.996,1.996,1.996,1.996" cx="278.674" cy="-210.873" r="114.36"/>
		</g>
		<g>
			
				<circle fill="none" stroke="#FFFFFF" stroke-width="0.5" stroke-miterlimit="10" stroke-dasharray="1.996,1.996,1.996,1.996,1.996,1.996" cx="269.336" cy="-218.332" r="114.36"/>
		</g>
		<g>
			
				<circle fill="none" stroke="#FFFFFF" stroke-width="0.5" stroke-miterlimit="10" stroke-dasharray="1.996,1.996,1.996,1.996,1.996,1.996" cx="283.308" cy="-215.692" r="114.36"/>
		</g>
		<g>
			
				<circle fill="none" stroke="#FFFFFF" stroke-width="0.5" stroke-miterlimit="10" stroke-dasharray="1.996,1.996,1.996,1.996,1.996,1.996" cx="154.976" cy="-204.546" r="114.36"/>
		</g>
		<g>
			
				<circle fill="none" stroke="#FFFFFF" stroke-width="0.5" stroke-miterlimit="10" stroke-dasharray="1.996,1.996,1.996,1.996,1.996,1.996" cx="386.8" cy="-412.475" r="114.36"/>
		</g>
		<g>
			
				<circle fill="none" stroke="#FFFFFF" stroke-width="0.5" stroke-miterlimit="10" stroke-dasharray="1.9884,1.9884,1.9884,1.9884,1.9884,1.9884" cx="203.532" cy="-244.153" r="43.684"/>
		</g>
		<g>
			
				<circle fill="none" stroke="#FFFFFF" stroke-width="0.5" stroke-miterlimit="10" stroke-dasharray="1.9884,1.9884,1.9884,1.9884,1.9884,1.9884" cx="137.7" cy="-284.613" r="43.684"/>
		</g>
		<g>
			
				<circle fill="none" stroke="#FFFFFF" stroke-width="0.5" stroke-miterlimit="10" stroke-dasharray="1.9884,1.9884,1.9884,1.9884,1.9884,1.9884" cx="203.531" cy="-257.1" r="43.684"/>
		</g>
		<g>
			
				<circle fill="none" stroke="#FFFFFF" stroke-width="0.5" stroke-miterlimit="10" stroke-dasharray="1.9884,1.9884,1.9884,1.9884,1.9884,1.9884" cx="301.302" cy="-328.297" r="43.684"/>
		</g>
		<g>
			
				<circle fill="none" stroke="#FFFFFF" stroke-width="0.5" stroke-miterlimit="10" stroke-dasharray="1.9884,1.9884,1.9884,1.9884,1.9884,1.9884" cx="272.439" cy="-326.272" r="43.684"/>
		</g>
		<g>
			
				<circle fill="none" stroke="#FFFFFF" stroke-width="0.5" stroke-miterlimit="10" stroke-dasharray="1.9884,1.9884,1.9884,1.9884,1.9884,1.9884" cx="349.35" cy="-284.808" r="43.684"/>
		</g>
		<g>
			
				<circle fill="none" stroke="#FFFFFF" stroke-width="0.5" stroke-miterlimit="10" stroke-dasharray="1.9884,1.9884,1.9884,1.9884,1.9884,1.9884" cx="140.524" cy="-274.072" r="43.684"/>
		</g>
		<g>
			
				<circle fill="none" stroke="#FFFFFF" stroke-width="0.5" stroke-miterlimit="10" stroke-dasharray="1.9884,1.9884,1.9884,1.9884,1.9884,1.9884" cx="201.623" cy="-225.055" r="43.684"/>
		</g>
		<g>
			
				<circle fill="none" stroke="#FFFFFF" stroke-width="0.5" stroke-miterlimit="10" stroke-dasharray="1.9884,1.9884,1.9884,1.9884,1.9884,1.9884" cx="139.248" cy="-242.601" r="43.684"/>
		</g>
		<g>
			
				<circle fill="none" stroke="#FFFFFF" stroke-width="0.5" stroke-miterlimit="10" stroke-dasharray="1.9884,1.9884,1.9884,1.9884,1.9884,1.9884" cx="228.756" cy="-396.212" r="43.684"/>
		</g>
		<g>
			
				<circle fill="none" stroke="#FFFFFF" stroke-width="0.5" stroke-miterlimit="10" stroke-dasharray="1.9884,1.9884,1.9884,1.9884,1.9884,1.9884" cx="326.991" cy="-420.728" r="43.684"/>
		</g>
		<g>
			
				<circle fill="none" stroke="#FFFFFF" stroke-width="0.5" stroke-miterlimit="10" stroke-dasharray="1.9884,1.9884,1.9884,1.9884,1.9884,1.9884" cx="248.88" cy="-381.562" r="43.684"/>
		</g>
		<g>
			
				<circle fill="none" stroke="#FFFFFF" stroke-width="0.5" stroke-miterlimit="10" stroke-dasharray="2.019,2.019,2.019,2.019,2.019,2.019" cx="245.306" cy="-318.742" r="26.999"/>
		</g>
		<g>
			
				<circle fill="none" stroke="#FFFFFF" stroke-width="0.5" stroke-miterlimit="10" stroke-dasharray="2.019,2.019,2.019,2.019,2.019,2.019" cx="353.99" cy="-296.68" r="26.999"/>
		</g>
		<g>
			
				<circle fill="none" stroke="#FFFFFF" stroke-width="0.5" stroke-miterlimit="10" stroke-dasharray="1.9411,1.9411,1.9411,1.9411,1.9411,1.9411" cx="242.398" cy="-313.365" r="16.687"/>
		</g>
		<g>
			
				<circle fill="none" stroke="#FFFFFF" stroke-width="0.5" stroke-miterlimit="10" stroke-dasharray="1.9411,1.9411,1.9411,1.9411,1.9411,1.9411" cx="221.952" cy="-339.744" r="16.687"/>
		</g>
		<g>
			
				<circle fill="none" stroke="#FFFFFF" stroke-width="0.5" stroke-miterlimit="10" stroke-dasharray="1.9411,1.9411,1.9411,1.9411,1.9411,1.9411" cx="256.006" cy="-359.108" r="16.687"/>
		</g>
		<g>
			
				<circle fill="none" stroke="#FFFFFF" stroke-width="0.5" stroke-miterlimit="10" stroke-dasharray="2.1594,2.1594,2.1594,2.1594,2.1594,2.1594" cx="270.866" cy="-375.796" r="10.313"/>
		</g>
		<g>
			
				<circle fill="none" stroke="#FFFFFF" stroke-width="0.5" stroke-miterlimit="10" stroke-dasharray="2.1594,2.1594,2.1594,2.1594,2.1594,2.1594" cx="270.873" cy="-406.676" r="10.313"/>
		</g>
		<g>
			
				<circle fill="none" stroke="#FFFFFF" stroke-width="0.5" stroke-miterlimit="10" stroke-dasharray="2.1594,2.1594,2.1594,2.1594,2.1594,2.1594" cx="278.758" cy="-373.67" r="10.313"/>
		</g>
		<g>
			
				<circle fill="none" stroke="#FFFFFF" stroke-width="0.5" stroke-miterlimit="10" stroke-dasharray="2.1594,2.1594,2.1594,2.1594,2.1594,2.1594" cx="288.37" cy="-364.876" r="10.313"/>
		</g>
		<g>
			
				<circle fill="none" stroke="#FFFFFF" stroke-width="0.5" stroke-miterlimit="10" stroke-dasharray="2.1594,2.1594,2.1594,2.1594,2.1594,2.1594" cx="187.614" cy="-266.611" r="10.313"/>
		</g>
		<g>
			
				<circle fill="none" stroke="#FFFFFF" stroke-width="0.5" stroke-miterlimit="10" stroke-dasharray="2.1594,2.1594,2.1594,2.1594,2.1594,2.1594" cx="384.813" cy="-308.429" r="10.313"/>
		</g>
		<g>
			
				<circle fill="none" stroke="#FFFFFF" stroke-width="0.5" stroke-miterlimit="10" stroke-dasharray="2.1594,2.1594,2.1594,2.1594,2.1594,2.1594" cx="169.137" cy="-257.461" r="10.313"/>
		</g>
	</g>
</g>
<g id="Calque_6">
	<rect x="-12.093" y="-6.012" fill="#3D6C8B" width="1224.117" height="612.023"/>
	<g>
		<path d="M970.653,327.78c-0.12-0.051-0.239-0.092-0.35-0.15c0.02-0.031,0.04-0.07,0.05-0.09
			C970.454,327.62,970.553,327.7,970.653,327.78z"/>
		<path fill="#FFFFFF" d="M1011.463,337.45c-7.69-0.361-15.181-1.49-22.391-3.32c-4.699-1.17-9.29-2.641-13.739-4.391
			c-1.58-0.619-3.141-1.27-4.681-1.959c-0.1-0.08-0.199-0.16-0.3-0.24c-0.01,0.02-0.03,0.059-0.05,0.09
			c-0.09,0.17-0.18,0.34-0.271,0.529c-1.909,3.541-4.3,6.779-7.079,9.65c-0.061,0.01-0.12,0.01-0.181,0.02
			c6.17-6.35,10.42-14.58,11.82-23.74c0.41-0.17,0.82-0.32,1.24-0.459c2.729-0.941,5.649-1.441,8.699-1.441
			C998.863,312.188,1010.583,323.349,1011.463,337.45z"/>
		<path d="M962.954,337.81c-1.61,1.66-3.36,3.199-5.221,4.59c-5.37,4.02-11.7,6.84-18.59,8.039c6.89-1.229,13.22-4.08,18.58-8.139
			c1.8-1.35,3.49-2.85,5.05-4.471C962.833,337.819,962.893,337.819,962.954,337.81z"/>
		<path d="M1025.393,327.29c0,3.639-1.88,6.83-4.729,8.66c-1.44,0.93-3.12,1.51-4.931,1.629c-0.01,0-0.01,0-0.02,0
			c-0.521,0.01-1.04,0-1.55-0.029h-0.051c-0.89-0.02-1.77-0.061-2.649-0.1c-0.88-14.102-12.601-25.262-26.931-25.262
			c-3.05,0-5.97,0.5-8.699,1.441c-0.42,0.139-0.83,0.289-1.24,0.459c-1.4,9.16-5.65,17.391-11.82,23.74
			c-1.56,1.621-3.25,3.121-5.05,4.471c-5.36,4.059-11.69,6.91-18.58,8.139c-0.17,0.031-0.35,0.061-0.53,0.092
			c-0.39,0.059-0.779,0.119-1.17,0.17c-0.5,0.068-1,0.129-1.51,0.18c0-7.41,1.85-14.381,5.11-20.49c0.069-0.131,0.14-0.27,0.22-0.41
			c1-1.84,2.14-3.6,3.4-5.27c1.739-2.33,3.72-4.48,5.89-6.42c0.42-0.371,0.85-0.75,1.29-1.111c0.38-0.309,0.77-0.629,1.17-0.93
			c1.06-0.82,2.17-1.59,3.31-2.311c-1.479-0.6-2.979-1.17-4.489-1.699c-0.24-0.08-0.471-0.17-0.71-0.25
			c-0.24-0.09-0.471-0.17-0.71-0.24c-0.021-0.01-0.03-0.01-0.051-0.02c-0.189-0.07-0.38-0.131-0.569-0.189
			c-0.641-0.211-1.28-0.42-1.92-0.621c-0.5-0.17-1-0.32-1.5-0.469c-1.591-0.49-3.2-0.92-4.82-1.33c-4.45-1.121-9-1.99-13.64-2.57
			c-4.7-0.59-9.48-0.881-14.341-0.881c-4.439,0-8.83,0.25-13.14,0.76c-0.5-1.17-1.08-2.309-1.729-3.389h-0.011
			c-1.67-2.781-3.84-5.24-6.38-7.24c-0.76-0.6-1.55-1.17-2.37-1.67c-0.04-0.031-0.09-0.061-0.13-0.08
			c-0.49-0.32-0.99-0.611-1.5-0.881c-3.59-1.93-7.66-3.06-11.99-3.18c-0.25-0.01-0.5-0.01-0.75-0.01c-2.569,0-5.06,0.359-7.42,1.04
			c-2.189,0.62-4.27,1.511-6.189,2.64v0.01c-0.221,0.111-0.431,0.24-0.641,0.381c-0.01,0-0.01,0-0.01,0
			c-6.399,3.99-11.01,10.58-12.33,18.289c1.04,0.211,2.12,0.32,3.23,0.32c0.54,0,1.069-0.029,1.59-0.08
			c1.86-0.17,3.63-0.65,5.26-1.391c1.15-0.52,2.23-1.158,3.23-1.93c0.02-0.01,0.05-0.029,0.069-0.029
			c2.841-2.23,6.41-3.561,10.301-3.561c0.64,0,1.27,0.041,1.89,0.111c0.01,0,0.01,0,0.02,0c3.381,0.379,6.46,1.77,8.92,3.898
			c-8.22,2.211-16.06,5.352-23.43,9.26c-1.37,0.721-2.71,1.471-4.04,2.25h-0.01c-2.11,1.23-4.18,2.531-6.2,3.891
			c-2.96,1.98-5.82,4.121-8.57,6.371c-1.43,1.158-2.829,2.359-4.199,3.6c-2.88,2.59-5.63,5.33-8.25,8.219
			c-1.94,1.9-3.811,3.861-5.601,5.91c-2.8,3.16-5.42,6.461-7.84,9.93c-0.31,0.432-0.61,0.852-0.899,1.271c0,0.01,0,0.01,0,0.01
			c0.01,0.42,0.02,0.83,0.02,1.25c0,0.439-0.01,0.879-0.02,1.311c-0.08,2.77-0.421,5.488-1,8.1c-0.471,2.15-1.091,4.23-1.86,6.23
			c-0.23,0.6-0.47,1.18-0.72,1.76c-0.57-1.701-1.261-3.352-2.04-4.951c0-0.01,0-0.01-0.011-0.029c0,0,0,0,0.011-0.01
			c-0.03-0.041-0.061-0.1-0.091-0.16c-0.029-0.08-0.06-0.141-0.109-0.211c-0.01-0.049-0.021-0.07-0.05-0.1
			c-0.03-0.08-0.07-0.16-0.101-0.23l-0.01-0.01c-0.28-0.619-0.5-1.279-0.65-1.959c-0.14-0.6-0.229-1.25-0.25-1.9
			c-0.18,0.4-0.369,0.801-0.58,1.189c-0.06,0.131-0.119,0.27-0.199,0.391c-0.48,0.971-1.011,1.9-1.561,2.82
			c-1.45,2.369-3.109,4.59-4.96,6.639c-0.26,0.271-0.5,0.531-0.75,0.791c-1.729,1.91-3.3,3.99-4.68,6.199
			c-0.95,1.51-1.811,3.08-2.57,4.711c-0.7,1.5-1.319,3.049-1.84,4.639c-0.21-1.738-0.32-3.51-0.32-5.309
			c0-0.941,0.03-1.881,0.101-2.82c0.069-1.221,0.2-2.439,0.38-3.641c0.06-0.4,0.12-0.789,0.189-1.18c0.44-2.5,1.091-4.93,1.94-7.25
			c0.25-0.709,0.53-1.41,0.82-2.109c0.93-2.191,2.04-4.301,3.3-6.291c1.22-1.949,2.59-3.779,4.09-5.479
			c1.43-1.641,2.98-3.15,4.63-4.561c0.21-2.41,0.5-4.781,0.86-7.141v-0.02c0.39-2.551,0.87-5.1,1.43-7.6
			c0.26-1.18,0.54-2.361,0.851-3.531c0.21-0.83,0.43-1.67,0.67-2.49c0.01-0.059,0.029-0.09,0.04-0.139
			c1.6-5.67,3.63-11.17,6.06-16.441c5.36-11.689,12.62-22.309,21.41-31.469c0-0.01,0-0.01,0.01-0.01c2.61-2.74,5.36-5.33,8.24-7.791
			l0.01-0.02c0.18-0.15,0.36-0.3,0.55-0.45c0.36-0.319,0.73-0.63,1.101-0.92c0,0,0-0.01,0.01-0.01
			c9.95-8.2,21.31-14.761,33.67-19.24c0.07-0.021,0.13-0.05,0.2-0.069c1.75-0.621,3.63-0.961,5.6-0.961
			c1.58,0,3.11,0.221,4.561,0.641c1.83,0.51,3.529,1.34,5.04,2.41c1.189,0.83,2.27,1.82,3.189,2.93h0.01
			c0.36,0.449,0.71,0.91,1.03,1.38c0.12,0.19,0.23,0.37,0.351,0.54c0.59,0.88,1.31,1.65,2.119,2.311
			c1,0.799,2.141,1.399,3.391,1.789c0.04,0.021,0.069,0.03,0.109,0.041c0.75,0.219,1.54,0.359,2.36,0.409
			c-0.07-0.5-0.11-1.01-0.11-1.53c0-0.14,0-0.27,0.011-0.41c0-0.029,0-0.069,0.01-0.1v-0.08c0.01-0.13,0.02-0.25,0.03-0.369
			c0-0.031,0-0.061,0.01-0.09c0.01-0.171,0.03-0.33,0.06-0.49c0.03-0.211,0.07-0.42,0.11-0.621c0.03-0.129,0.05-0.25,0.09-0.379
			c0.05-0.201,0.1-0.4,0.16-0.59c0.11-0.33,0.229-0.65,0.37-0.961c0.069-0.16,0.14-0.32,0.22-0.479c0.15-0.3,0.3-0.58,0.47-0.87
			c0.181-0.29,0.36-0.59,0.511-0.91c0.68-1.37,1.069-2.93,1.069-4.57c0-1.979-0.56-3.82-1.529-5.39
			c-0.94,0.069-1.87,0.16-2.801,0.271c-2.08,0.209-4.13,0.49-6.17,0.83c-0.47,0.069-0.939,0.149-1.41,0.239
			c0.811-2.01,1.48-4.1,1.99-6.25c0.771-3.239,1.181-6.63,1.181-10.11v-0.279c-0.051-7.189-1.83-13.971-4.95-19.939
			c1.05-0.361,2.17-0.561,3.34-0.561c0.58,0,1.149,0.05,1.7,0.14c1.83,0.3,3.5,1.091,4.87,2.22c0.14,0.121,0.279,0.23,0.42,0.371
			c3.93,3.469,7.229,7.649,9.699,12.33c0.25,0.529,0.511,1.059,0.79,1.579c5.631,10.681,15.561,18.729,27.48,21.87
			c0.54,0.13,1.07,0.25,1.61,0.4c34.26,8.68,62.35,32.83,76.409,64.58v0.01c0.301,0.66,0.58,1.32,0.86,1.99c0,0,0,0.01,0.01,0.029
			C1025.233,325.21,1025.393,326.22,1025.393,327.29z"/>
		<path fill="#FFFFFF" d="M911.443,259.919c0,1.641-0.39,3.2-1.069,4.57c-0.15,0.32-0.33,0.62-0.511,0.91
			c-0.17,0.29-0.319,0.57-0.47,0.87c-0.08,0.159-0.15,0.319-0.22,0.479c-0.141,0.311-0.26,0.631-0.37,0.961
			c-0.061,0.189-0.11,0.389-0.16,0.59c-0.04,0.129-0.06,0.25-0.09,0.379c-0.04,0.201-0.08,0.41-0.11,0.621
			c-0.029,0.16-0.05,0.319-0.06,0.49c-0.01,0.029-0.01,0.059-0.01,0.09c-0.011,0.119-0.021,0.239-0.03,0.369v0.08
			c-0.01,0.03-0.01,0.07-0.01,0.1c-0.011,0.141-0.011,0.271-0.011,0.41c0,0.521,0.04,1.03,0.11,1.53
			c-0.82-0.05-1.61-0.19-2.36-0.409c-0.04-0.011-0.069-0.021-0.109-0.041c-1.25-0.39-2.391-0.99-3.391-1.789
			c-0.81-0.66-1.529-1.431-2.119-2.311c-0.12-0.17-0.23-0.35-0.351-0.54c-0.32-0.47-0.67-0.931-1.03-1.38h-0.01
			c-0.92-1.109-2-2.1-3.189-2.93c-1.511-1.07-3.21-1.9-5.04-2.41c-1.45-0.42-2.98-0.641-4.561-0.641c-1.97,0-3.85,0.34-5.6,0.961
			c3.39-1.23,6.85-2.291,10.38-3.19c2.79-0.72,5.61-1.33,8.479-1.82c0.471-0.09,0.94-0.17,1.41-0.239
			c2.04-0.34,4.09-0.621,6.17-0.83c0.931-0.11,1.86-0.201,2.801-0.271C910.883,256.099,911.443,257.939,911.443,259.919z"/>
		<path d="M861.963,293.669c-0.08,0.189-0.15,0.381-0.221,0.561c-0.149-0.051-0.279-0.109-0.42-0.18
			C861.533,293.909,861.743,293.78,861.963,293.669z"/>
		<path d="M861.963,293.669c-0.08,0.189-0.15,0.381-0.221,0.561c-0.149-0.051-0.279-0.109-0.42-0.18
			C861.533,293.909,861.743,293.78,861.963,293.669z"/>
		<path d="M861.963,293.669c-0.08,0.189-0.15,0.381-0.221,0.561c-0.149-0.051-0.279-0.109-0.42-0.18
			C861.533,293.909,861.743,293.78,861.963,293.669z"/>
		<path fill="#FFFFFF" d="M956.323,313.938c-1.14,0.721-2.25,1.49-3.31,2.311c-0.4,0.301-0.79,0.621-1.17,0.93
			c-0.44,0.361-0.87,0.74-1.29,1.111c-1.57-0.611-3.15-1.191-4.75-1.74c-0.25-0.09-0.51-0.17-0.76-0.25
			c-11.351-3.77-23.49-5.83-36.11-5.83c-2.39,0-4.75,0.08-7.1,0.24c-4.641,0.26-9.2,0.83-13.67,1.66
			c-0.051,0.01-0.11,0.02-0.16,0.029c-0.58,0.09-1.141,0.209-1.71,0.32h-0.011c-8.979,1.811-17.579,4.66-25.659,8.449
			c-1.561,0.711-3.101,1.471-4.61,2.27c-1.92,1-3.81,2.061-5.66,3.17c-2.8,1.672-5.52,3.451-8.16,5.361
			c-1.42,1.01-2.819,2.08-4.189,3.16c-3.221,2.549-6.29,5.26-9.21,8.139c2.62-2.889,5.37-5.629,8.25-8.219
			c1.37-1.24,2.77-2.441,4.199-3.6c2.75-2.25,5.61-4.391,8.57-6.371c2.021-1.359,4.09-2.66,6.2-3.891h0.01
			c1.33-0.779,2.67-1.529,4.04-2.25c7.37-3.908,15.21-7.049,23.43-9.26c-2.46-2.129-5.539-3.52-8.92-3.898c-0.01,0-0.01,0-0.02,0
			c-0.62-0.07-1.25-0.111-1.89-0.111c-3.891,0-7.46,1.33-10.301,3.561c-0.02,0-0.05,0.02-0.069,0.029c-1,0.771-2.08,1.41-3.23,1.93
			c-1.63,0.74-3.399,1.221-5.26,1.391c-0.521,0.051-1.05,0.08-1.59,0.08c-1.11,0-2.19-0.109-3.23-0.32
			c1.32-7.709,5.931-14.299,12.33-18.289c0,0,0,0,0.01,0c0.141,0.07,0.271,0.129,0.42,0.18c0.07-0.18,0.141-0.371,0.221-0.561v-0.01
			c1.92-1.129,4-2.02,6.189-2.64c2.36-0.681,4.851-1.04,7.42-1.04c0.25,0,0.5,0,0.75,0.01c4.33,0.12,8.4,1.25,11.99,3.18
			c0.51,0.27,1.01,0.561,1.5,0.881c0.04,0.02,0.09,0.049,0.13,0.08c0.82,0.5,1.61,1.07,2.37,1.67c2.54,2,4.71,4.459,6.38,7.24h0.011
			c0.649,1.08,1.229,2.219,1.729,3.389c4.31-0.51,8.7-0.76,13.14-0.76c4.86,0,9.641,0.291,14.341,0.881
			c4.64,0.58,9.189,1.449,13.64,2.57c1.62,0.41,3.229,0.84,4.82,1.33c0.5,0.148,1,0.299,1.5,0.469c0.64,0.201,1.279,0.41,1.92,0.621
			c0.189,0.059,0.38,0.119,0.569,0.189c0.021,0.01,0.03,0.01,0.051,0.02c0.239,0.07,0.47,0.15,0.71,0.24
			c0.239,0.08,0.47,0.17,0.71,0.25C953.343,312.769,954.843,313.339,956.323,313.938z"/>
		<path stroke="#000000" stroke-miterlimit="10" d="M908.433,272.369c-0.82-0.05-1.61-0.19-2.36-0.409
			c-0.04-0.011-0.069-0.021-0.109-0.041c0.77-0.55,1.569-1.08,2.38-1.59c-0.01,0.03-0.01,0.07-0.01,0.1
			c-0.011,0.141-0.011,0.271-0.011,0.41C908.323,271.359,908.363,271.869,908.433,272.369z"/>
	</g>
	<g>
		<path d="M423.084,310.565c-0.12-0.051-0.239-0.092-0.35-0.15c0.02-0.031,0.04-0.07,0.05-0.09
			C422.885,310.405,422.985,310.485,423.084,310.565z"/>
		<path fill="#FFFFFF" d="M463.895,320.235c-7.69-0.361-15.181-1.49-22.391-3.32c-4.699-1.17-9.29-2.641-13.739-4.391
			c-1.58-0.619-3.141-1.27-4.681-1.959c-0.1-0.08-0.199-0.16-0.3-0.24c-0.01,0.02-0.03,0.059-0.05,0.09
			c-0.09,0.17-0.18,0.34-0.271,0.529c-1.909,3.541-4.3,6.779-7.079,9.65c-0.061,0.01-0.12,0.01-0.181,0.02
			c6.17-6.35,10.42-14.58,11.82-23.74c0.41-0.17,0.82-0.32,1.24-0.459c2.729-0.941,5.649-1.441,8.699-1.441
			C451.294,294.974,463.015,306.134,463.895,320.235z"/>
		<path d="M415.385,320.595c-1.61,1.66-3.36,3.199-5.221,4.59c-5.37,4.02-11.7,6.84-18.59,8.039c6.89-1.229,13.22-4.08,18.58-8.139
			c1.8-1.35,3.49-2.85,5.05-4.471C415.265,320.604,415.325,320.604,415.385,320.595z"/>
		<path d="M477.825,310.075c0,3.639-1.88,6.83-4.729,8.66c-1.44,0.93-3.12,1.51-4.931,1.629c-0.01,0-0.01,0-0.02,0
			c-0.521,0.01-1.04,0-1.55-0.029h-0.051c-0.89-0.02-1.77-0.061-2.649-0.1c-0.88-14.102-12.601-25.262-26.931-25.262
			c-3.05,0-5.97,0.5-8.699,1.441c-0.42,0.139-0.83,0.289-1.24,0.459c-1.4,9.16-5.65,17.391-11.82,23.74
			c-1.56,1.621-3.25,3.121-5.05,4.471c-5.36,4.059-11.69,6.91-18.58,8.139c-0.17,0.031-0.35,0.061-0.53,0.092
			c-0.39,0.059-0.779,0.119-1.17,0.17c-0.5,0.068-1,0.129-1.51,0.18c0-7.41,1.85-14.381,5.11-20.49c0.069-0.131,0.14-0.27,0.22-0.41
			c1-1.84,2.14-3.6,3.4-5.27c1.739-2.33,3.72-4.48,5.89-6.42c0.42-0.371,0.85-0.75,1.29-1.111c0.38-0.309,0.77-0.629,1.17-0.93
			c1.06-0.82,2.17-1.59,3.31-2.311c-1.479-0.6-2.979-1.17-4.489-1.699c-0.24-0.08-0.471-0.17-0.71-0.25
			c-0.24-0.09-0.471-0.17-0.71-0.24c-0.021-0.01-0.03-0.01-0.051-0.02c-0.189-0.07-0.38-0.131-0.569-0.189
			c-0.641-0.211-1.28-0.42-1.92-0.621c-0.5-0.17-1-0.32-1.5-0.469c-1.591-0.49-3.2-0.92-4.82-1.33c-4.45-1.121-9-1.99-13.64-2.57
			c-4.7-0.59-9.48-0.881-14.341-0.881c-4.439,0-8.83,0.25-13.14,0.76c-0.5-1.17-1.08-2.309-1.729-3.389h-0.011
			c-1.67-2.781-3.84-5.24-6.38-7.24c-0.76-0.6-1.55-1.17-2.37-1.67c-0.04-0.031-0.09-0.061-0.13-0.08
			c-0.49-0.32-0.99-0.611-1.5-0.881c-3.59-1.93-7.66-3.06-11.99-3.18c-0.25-0.01-0.5-0.01-0.75-0.01c-2.569,0-5.06,0.359-7.42,1.04
			c-2.189,0.62-4.27,1.511-6.189,2.64v0.01c-0.221,0.111-0.431,0.24-0.641,0.381c-0.01,0-0.01,0-0.01,0
			c-6.399,3.99-11.01,10.58-12.33,18.289c1.04,0.211,2.12,0.32,3.23,0.32c0.54,0,1.069-0.029,1.59-0.08
			c1.86-0.17,3.63-0.65,5.26-1.391c1.15-0.52,2.23-1.158,3.23-1.93c0.02-0.01,0.05-0.029,0.069-0.029
			c2.841-2.23,6.41-3.561,10.301-3.561c0.64,0,1.27,0.041,1.89,0.111c0.01,0,0.01,0,0.02,0c3.381,0.379,6.46,1.77,8.92,3.898
			c-8.22,2.211-16.06,5.352-23.43,9.26c-1.37,0.721-2.71,1.471-4.04,2.25h-0.01c-2.11,1.23-4.18,2.531-6.2,3.891
			c-2.96,1.98-5.82,4.121-8.57,6.371c-1.43,1.158-2.829,2.359-4.199,3.6c-2.88,2.59-5.63,5.33-8.25,8.219
			c-1.94,1.9-3.811,3.861-5.601,5.91c-2.8,3.16-5.42,6.461-7.84,9.93c-0.31,0.432-0.61,0.852-0.899,1.271c0,0.01,0,0.01,0,0.01
			c0.01,0.42,0.02,0.83,0.02,1.25c0,0.439-0.01,0.879-0.02,1.311c-0.08,2.77-0.421,5.488-1,8.1c-0.471,2.15-1.091,4.23-1.86,6.23
			c-0.23,0.6-0.47,1.18-0.72,1.76c-0.57-1.701-1.261-3.352-2.04-4.951c0-0.01,0-0.01-0.011-0.029c0,0,0,0,0.011-0.01
			c-0.03-0.041-0.061-0.1-0.091-0.16c-0.029-0.08-0.06-0.141-0.109-0.211c-0.01-0.049-0.021-0.07-0.05-0.1
			c-0.03-0.08-0.07-0.16-0.101-0.23l-0.01-0.01c-0.28-0.619-0.5-1.279-0.65-1.959c-0.14-0.6-0.229-1.25-0.25-1.9
			c-0.18,0.4-0.369,0.801-0.58,1.189c-0.06,0.131-0.119,0.27-0.199,0.391c-0.48,0.971-1.011,1.9-1.561,2.82
			c-1.45,2.369-3.109,4.59-4.96,6.639c-0.26,0.271-0.5,0.531-0.75,0.791c-1.729,1.91-3.3,3.99-4.68,6.199
			c-0.95,1.51-1.811,3.08-2.57,4.711c-0.7,1.5-1.319,3.049-1.84,4.639c-0.21-1.738-0.32-3.51-0.32-5.309
			c0-0.941,0.03-1.881,0.101-2.82c0.069-1.221,0.2-2.439,0.38-3.641c0.06-0.4,0.12-0.789,0.189-1.18c0.44-2.5,1.091-4.93,1.94-7.25
			c0.25-0.709,0.53-1.41,0.82-2.109c0.93-2.191,2.04-4.301,3.3-6.291c1.22-1.949,2.59-3.779,4.09-5.479
			c1.43-1.641,2.98-3.15,4.63-4.561c0.21-2.41,0.5-4.781,0.86-7.141v-0.02c0.39-2.551,0.87-5.1,1.43-7.6
			c0.26-1.18,0.54-2.361,0.851-3.531c0.21-0.83,0.43-1.67,0.67-2.49c0.01-0.059,0.029-0.09,0.04-0.139
			c1.6-5.67,3.63-11.17,6.06-16.441c5.36-11.689,12.62-22.309,21.41-31.469c0-0.01,0-0.01,0.01-0.01c2.61-2.74,5.36-5.33,8.24-7.791
			l0.01-0.02c0.18-0.15,0.36-0.3,0.55-0.45c0.36-0.319,0.73-0.63,1.101-0.92c0,0,0-0.01,0.01-0.01
			c9.95-8.2,21.31-14.761,33.67-19.24c0.07-0.021,0.13-0.05,0.2-0.069c1.75-0.621,3.63-0.961,5.6-0.961
			c1.58,0,3.11,0.221,4.561,0.641c1.83,0.51,3.529,1.34,5.04,2.41c1.189,0.83,2.27,1.82,3.189,2.93h0.01
			c0.36,0.449,0.71,0.91,1.03,1.38c0.12,0.19,0.23,0.37,0.351,0.54c0.59,0.88,1.31,1.65,2.119,2.311
			c1,0.799,2.141,1.399,3.391,1.789c0.04,0.021,0.069,0.03,0.109,0.041c0.75,0.219,1.54,0.359,2.36,0.409
			c-0.07-0.5-0.11-1.01-0.11-1.53c0-0.14,0-0.27,0.011-0.41c0-0.029,0-0.069,0.01-0.1v-0.08c0.01-0.13,0.02-0.25,0.03-0.369
			c0-0.031,0-0.061,0.01-0.09c0.01-0.171,0.03-0.33,0.06-0.49c0.03-0.211,0.07-0.42,0.11-0.621c0.03-0.129,0.05-0.25,0.09-0.379
			c0.05-0.201,0.1-0.4,0.16-0.59c0.11-0.33,0.229-0.65,0.37-0.961c0.069-0.16,0.14-0.32,0.22-0.479c0.15-0.3,0.3-0.58,0.47-0.87
			c0.181-0.29,0.36-0.59,0.511-0.91c0.68-1.37,1.069-2.93,1.069-4.57c0-1.979-0.56-3.82-1.529-5.39
			c-0.94,0.069-1.87,0.16-2.801,0.271c-2.08,0.209-4.13,0.49-6.17,0.83c-0.47,0.069-0.939,0.149-1.41,0.239
			c0.811-2.01,1.48-4.1,1.99-6.25c0.771-3.239,1.181-6.63,1.181-10.11v-0.279c-0.051-7.189-1.83-13.971-4.95-19.939
			c1.05-0.361,2.17-0.561,3.34-0.561c0.58,0,1.149,0.05,1.7,0.14c1.83,0.3,3.5,1.091,4.87,2.22c0.14,0.121,0.279,0.23,0.42,0.371
			c3.93,3.469,7.229,7.649,9.699,12.33c0.25,0.529,0.511,1.059,0.79,1.579c5.631,10.681,15.561,18.729,27.48,21.87
			c0.54,0.13,1.07,0.25,1.61,0.4c34.26,8.68,62.35,32.83,76.409,64.58v0.01c0.301,0.66,0.58,1.32,0.86,1.99c0,0,0,0.01,0.01,0.029
			C477.665,307.995,477.825,309.005,477.825,310.075z"/>
		<path fill="#FFFFFF" d="M363.875,242.704c0,1.641-0.39,3.2-1.069,4.57c-0.15,0.32-0.33,0.62-0.511,0.91
			c-0.17,0.29-0.319,0.57-0.47,0.87c-0.08,0.159-0.15,0.319-0.22,0.479c-0.141,0.311-0.26,0.631-0.37,0.961
			c-0.061,0.189-0.11,0.389-0.16,0.59c-0.04,0.129-0.06,0.25-0.09,0.379c-0.04,0.201-0.08,0.41-0.11,0.621
			c-0.029,0.16-0.05,0.319-0.06,0.49c-0.01,0.029-0.01,0.059-0.01,0.09c-0.011,0.119-0.021,0.239-0.03,0.369v0.08
			c-0.01,0.03-0.01,0.07-0.01,0.1c-0.011,0.141-0.011,0.271-0.011,0.41c0,0.521,0.04,1.03,0.11,1.53
			c-0.82-0.05-1.61-0.19-2.36-0.409c-0.04-0.011-0.069-0.021-0.109-0.041c-1.25-0.39-2.391-0.99-3.391-1.789
			c-0.81-0.66-1.529-1.431-2.119-2.311c-0.12-0.17-0.23-0.35-0.351-0.54c-0.32-0.47-0.67-0.931-1.03-1.38h-0.01
			c-0.92-1.109-2-2.1-3.189-2.93c-1.511-1.07-3.21-1.9-5.04-2.41c-1.45-0.42-2.98-0.641-4.561-0.641c-1.97,0-3.85,0.34-5.6,0.961
			c3.39-1.23,6.85-2.291,10.38-3.19c2.79-0.72,5.61-1.33,8.479-1.82c0.471-0.09,0.94-0.17,1.41-0.239
			c2.04-0.34,4.09-0.621,6.17-0.83c0.931-0.11,1.86-0.201,2.801-0.271C363.315,238.884,363.875,240.725,363.875,242.704z"/>
		<path d="M314.395,276.454c-0.08,0.189-0.15,0.381-0.221,0.561c-0.149-0.051-0.279-0.109-0.42-0.18
			C313.964,276.694,314.174,276.565,314.395,276.454z"/>
		<path d="M314.395,276.454c-0.08,0.189-0.15,0.381-0.221,0.561c-0.149-0.051-0.279-0.109-0.42-0.18
			C313.964,276.694,314.174,276.565,314.395,276.454z"/>
		<path d="M314.395,276.454c-0.08,0.189-0.15,0.381-0.221,0.561c-0.149-0.051-0.279-0.109-0.42-0.18
			C313.964,276.694,314.174,276.565,314.395,276.454z"/>
		<path fill="#FFFFFF" d="M408.754,296.724c-1.14,0.721-2.25,1.49-3.31,2.311c-0.4,0.301-0.79,0.621-1.17,0.93
			c-0.44,0.361-0.87,0.74-1.29,1.111c-1.57-0.611-3.15-1.191-4.75-1.74c-0.25-0.09-0.51-0.17-0.76-0.25
			c-11.351-3.77-23.49-5.83-36.11-5.83c-2.39,0-4.75,0.08-7.1,0.24c-4.641,0.26-9.2,0.83-13.67,1.66
			c-0.051,0.01-0.11,0.02-0.16,0.029c-0.58,0.09-1.141,0.209-1.71,0.32h-0.011c-8.979,1.811-17.579,4.66-25.659,8.449
			c-1.561,0.711-3.101,1.471-4.61,2.27c-1.92,1-3.81,2.061-5.66,3.17c-2.8,1.672-5.52,3.451-8.16,5.361
			c-1.42,1.01-2.819,2.08-4.189,3.16c-3.221,2.549-6.29,5.26-9.21,8.139c2.62-2.889,5.37-5.629,8.25-8.219
			c1.37-1.24,2.77-2.441,4.199-3.6c2.75-2.25,5.61-4.391,8.57-6.371c2.021-1.359,4.09-2.66,6.2-3.891h0.01
			c1.33-0.779,2.67-1.529,4.04-2.25c7.37-3.908,15.21-7.049,23.43-9.26c-2.46-2.129-5.539-3.52-8.92-3.898c-0.01,0-0.01,0-0.02,0
			c-0.62-0.07-1.25-0.111-1.89-0.111c-3.891,0-7.46,1.33-10.301,3.561c-0.02,0-0.05,0.02-0.069,0.029c-1,0.771-2.08,1.41-3.23,1.93
			c-1.63,0.74-3.399,1.221-5.26,1.391c-0.521,0.051-1.05,0.08-1.59,0.08c-1.11,0-2.19-0.109-3.23-0.32
			c1.32-7.709,5.931-14.299,12.33-18.289c0,0,0,0,0.01,0c0.141,0.07,0.271,0.129,0.42,0.18c0.07-0.18,0.141-0.371,0.221-0.561v-0.01
			c1.92-1.129,4-2.02,6.189-2.64c2.36-0.681,4.851-1.04,7.42-1.04c0.25,0,0.5,0,0.75,0.01c4.33,0.12,8.4,1.25,11.99,3.18
			c0.51,0.27,1.01,0.561,1.5,0.881c0.04,0.02,0.09,0.049,0.13,0.08c0.82,0.5,1.61,1.07,2.37,1.67c2.54,2,4.71,4.459,6.38,7.24h0.011
			c0.649,1.08,1.229,2.219,1.729,3.389c4.31-0.51,8.7-0.76,13.14-0.76c4.86,0,9.641,0.291,14.341,0.881
			c4.64,0.58,9.189,1.449,13.64,2.57c1.62,0.41,3.229,0.84,4.82,1.33c0.5,0.148,1,0.299,1.5,0.469c0.64,0.201,1.279,0.41,1.92,0.621
			c0.189,0.059,0.38,0.119,0.569,0.189c0.021,0.01,0.03,0.01,0.051,0.02c0.239,0.07,0.47,0.15,0.71,0.24
			c0.239,0.08,0.47,0.17,0.71,0.25C405.775,295.554,407.275,296.124,408.754,296.724z"/>
		<path stroke="#000000" stroke-miterlimit="10" d="M360.865,255.154c-0.82-0.05-1.61-0.19-2.36-0.409
			c-0.04-0.011-0.069-0.021-0.109-0.041c0.77-0.55,1.569-1.08,2.38-1.59c-0.01,0.03-0.01,0.07-0.01,0.1
			c-0.011,0.141-0.011,0.271-0.011,0.41C360.754,254.145,360.794,254.654,360.865,255.154z"/>
	</g>
	<g>
		<g>
			
				<circle fill="none" stroke="#FFFFFF" stroke-width="0.5" stroke-miterlimit="10" stroke-dasharray="1.996,1.996,1.996,1.996,1.996,1.996" cx="372.302" cy="351.694" r="114.36"/>
		</g>
		<g>
			
				<circle fill="none" stroke="#FFFFFF" stroke-width="0.5" stroke-miterlimit="10" stroke-dasharray="1.996,1.996,1.996,1.996,1.996,1.996" cx="361.776" cy="408.047" r="114.36"/>
		</g>
		<g>
			
				<circle fill="none" stroke="#FFFFFF" stroke-width="0.5" stroke-miterlimit="10" stroke-dasharray="1.996,1.996,1.996,1.996,1.996,1.996" cx="352.438" cy="400.588" r="114.36"/>
		</g>
		<g>
			
				<circle fill="none" stroke="#FFFFFF" stroke-width="0.5" stroke-miterlimit="10" stroke-dasharray="1.996,1.996,1.996,1.996,1.996,1.996" cx="366.41" cy="403.228" r="114.36"/>
		</g>
		<g>
			
				<circle fill="none" stroke="#FFFFFF" stroke-width="0.5" stroke-miterlimit="10" stroke-dasharray="1.996,1.996,1.996,1.996,1.996,1.996" cx="238.078" cy="414.374" r="114.36"/>
		</g>
		<g>
			
				<circle fill="none" stroke="#FFFFFF" stroke-width="0.5" stroke-miterlimit="10" stroke-dasharray="1.996,1.996,1.996,1.996,1.996,1.996" cx="469.902" cy="206.445" r="114.36"/>
		</g>
		<g>
			
				<circle fill="none" stroke="#FFFFFF" stroke-width="0.5" stroke-miterlimit="10" stroke-dasharray="1.9884,1.9884,1.9884,1.9884,1.9884,1.9884" cx="286.634" cy="374.767" r="43.684"/>
		</g>
		<g>
			
				<circle fill="none" stroke="#FFFFFF" stroke-width="0.5" stroke-miterlimit="10" stroke-dasharray="1.9884,1.9884,1.9884,1.9884,1.9884,1.9884" cx="220.802" cy="334.307" r="43.684"/>
		</g>
		<g>
			
				<circle fill="none" stroke="#FFFFFF" stroke-width="0.5" stroke-miterlimit="10" stroke-dasharray="1.9884,1.9884,1.9884,1.9884,1.9884,1.9884" cx="286.633" cy="361.82" r="43.684"/>
		</g>
		<g>
			
				<circle fill="none" stroke="#FFFFFF" stroke-width="0.5" stroke-miterlimit="10" stroke-dasharray="1.9884,1.9884,1.9884,1.9884,1.9884,1.9884" cx="384.404" cy="290.623" r="43.684"/>
		</g>
		<g>
			
				<circle fill="none" stroke="#FFFFFF" stroke-width="0.5" stroke-miterlimit="10" stroke-dasharray="1.9884,1.9884,1.9884,1.9884,1.9884,1.9884" cx="355.542" cy="292.647" r="43.684"/>
		</g>
		<g>
			
				<circle fill="none" stroke="#FFFFFF" stroke-width="0.5" stroke-miterlimit="10" stroke-dasharray="1.9884,1.9884,1.9884,1.9884,1.9884,1.9884" cx="432.452" cy="334.112" r="43.684"/>
		</g>
		<g>
			
				<circle fill="none" stroke="#FFFFFF" stroke-width="0.5" stroke-miterlimit="10" stroke-dasharray="1.9884,1.9884,1.9884,1.9884,1.9884,1.9884" cx="223.626" cy="344.848" r="43.684"/>
		</g>
		<g>
			
				<circle fill="none" stroke="#FFFFFF" stroke-width="0.5" stroke-miterlimit="10" stroke-dasharray="1.9884,1.9884,1.9884,1.9884,1.9884,1.9884" cx="284.725" cy="393.865" r="43.684"/>
		</g>
		<g>
			
				<circle fill="none" stroke="#FFFFFF" stroke-width="0.5" stroke-miterlimit="10" stroke-dasharray="1.9884,1.9884,1.9884,1.9884,1.9884,1.9884" cx="222.35" cy="376.319" r="43.684"/>
		</g>
		<g>
			
				<circle fill="none" stroke="#FFFFFF" stroke-width="0.5" stroke-miterlimit="10" stroke-dasharray="1.9884,1.9884,1.9884,1.9884,1.9884,1.9884" cx="311.858" cy="222.708" r="43.684"/>
		</g>
		<g>
			
				<circle fill="none" stroke="#FFFFFF" stroke-width="0.5" stroke-miterlimit="10" stroke-dasharray="1.9884,1.9884,1.9884,1.9884,1.9884,1.9884" cx="410.093" cy="198.192" r="43.684"/>
		</g>
		<g>
			
				<circle fill="none" stroke="#FFFFFF" stroke-width="0.5" stroke-miterlimit="10" stroke-dasharray="1.9884,1.9884,1.9884,1.9884,1.9884,1.9884" cx="331.982" cy="237.358" r="43.684"/>
		</g>
		<g>
			
				<circle fill="none" stroke="#FFFFFF" stroke-width="0.5" stroke-miterlimit="10" stroke-dasharray="2.019,2.019,2.019,2.019,2.019,2.019" cx="328.408" cy="300.178" r="26.999"/>
		</g>
		<g>
			
				<circle fill="none" stroke="#FFFFFF" stroke-width="0.5" stroke-miterlimit="10" stroke-dasharray="2.019,2.019,2.019,2.019,2.019,2.019" cx="437.092" cy="322.239" r="26.999"/>
		</g>
		<g>
			
				<circle fill="none" stroke="#FFFFFF" stroke-width="0.5" stroke-miterlimit="10" stroke-dasharray="1.9411,1.9411,1.9411,1.9411,1.9411,1.9411" cx="325.5" cy="305.555" r="16.687"/>
		</g>
		<g>
			
				<circle fill="none" stroke="#FFFFFF" stroke-width="0.5" stroke-miterlimit="10" stroke-dasharray="1.9411,1.9411,1.9411,1.9411,1.9411,1.9411" cx="305.054" cy="279.176" r="16.687"/>
		</g>
		<g>
			
				<circle fill="none" stroke="#FFFFFF" stroke-width="0.5" stroke-miterlimit="10" stroke-dasharray="1.9411,1.9411,1.9411,1.9411,1.9411,1.9411" cx="339.108" cy="259.812" r="16.687"/>
		</g>
		<g>
			
				<circle fill="none" stroke="#FFFFFF" stroke-width="0.5" stroke-miterlimit="10" stroke-dasharray="2.1594,2.1594,2.1594,2.1594,2.1594,2.1594" cx="353.968" cy="243.124" r="10.313"/>
		</g>
		<g>
			
				<circle fill="none" stroke="#FFFFFF" stroke-width="0.5" stroke-miterlimit="10" stroke-dasharray="2.1594,2.1594,2.1594,2.1594,2.1594,2.1594" cx="353.975" cy="212.244" r="10.313"/>
		</g>
		<g>
			
				<circle fill="none" stroke="#FFFFFF" stroke-width="0.5" stroke-miterlimit="10" stroke-dasharray="2.1594,2.1594,2.1594,2.1594,2.1594,2.1594" cx="361.86" cy="245.249" r="10.313"/>
		</g>
		<g>
			
				<circle fill="none" stroke="#FFFFFF" stroke-width="0.5" stroke-miterlimit="10" stroke-dasharray="2.1594,2.1594,2.1594,2.1594,2.1594,2.1594" cx="371.472" cy="254.044" r="10.313"/>
		</g>
		<g>
			
				<circle fill="none" stroke="#FFFFFF" stroke-width="0.5" stroke-miterlimit="10" stroke-dasharray="2.1594,2.1594,2.1594,2.1594,2.1594,2.1594" cx="270.716" cy="352.309" r="10.313"/>
		</g>
		<g>
			
				<circle fill="none" stroke="#FFFFFF" stroke-width="0.5" stroke-miterlimit="10" stroke-dasharray="2.1594,2.1594,2.1594,2.1594,2.1594,2.1594" cx="467.915" cy="310.491" r="10.313"/>
		</g>
		<g>
			
				<circle fill="none" stroke="#FFFFFF" stroke-width="0.5" stroke-miterlimit="10" stroke-dasharray="2.1594,2.1594,2.1594,2.1594,2.1594,2.1594" cx="252.239" cy="361.459" r="10.313"/>
		</g>
	</g>
</g>
</svg>
