<?xml version="1.0" encoding="utf-8"?>
<!-- Generator: Adobe Illustrator 16.0.0, SVG Export Plug-In . SVG Version: 6.00 Build 0)  -->
<!DOCTYPE svg PUBLIC "-//W3C//DTD SVG 1.1//EN" "http://www.w3.org/Graphics/SVG/1.1/DTD/svg11.dtd">
<svg version="1.1" xmlns="http://www.w3.org/2000/svg" xmlns:xlink="http://www.w3.org/1999/xlink" x="0px" y="0px" width="1200px"
	 height="600px" viewBox="0 0 1200 600" enable-background="new 0 0 1200 600" xml:space="preserve">
<g id="Calque_1">
</g>
<g id="Calque_3">
</g>
<g id="Calque_4">
</g>
<g id="Calque_5">
	<rect x="-12.251" y="-9" fill="#61052D" width="1224" height="622"/>
	<g>
		<g>
			<path fill="#BCBEC0" d="M512.973,321.87c-17.141,10.279-37.21,16.18-58.65,16.18c-7.66,0-15.14-0.75-22.38-2.189
				c4.16,0.459,8.39,0.699,12.68,0.699c22.891,0,44.2-6.719,62.08-18.299C508.832,319.39,510.922,320.601,512.973,321.87z"/>
			<path fill="#FFFFFF" d="M540.672,284.279c-1.979,3.071-4.1,6.03-6.369,8.88c-7.75,9.791-17.08,18.291-27.601,25.102
				c-17.88,11.58-39.189,18.299-62.08,18.299c-4.29,0-8.52-0.24-12.68-0.699c-1.26-0.25-2.51-0.52-3.76-0.811
				c-10.44-2.439-20.34-6.32-29.46-11.41c-0.57-0.311-1.13-0.629-1.69-0.959c1.271-1.861,2.61-3.691,3.99-5.461
				c2.229-2.859,4.59-5.6,7.07-8.23c8.649-9.18,18.8-16.92,30.06-22.829c10.1-5.311,21.08-9.15,32.68-11.24
				c6.63-1.201,13.471-1.83,20.45-1.83C508.973,273.09,525.723,277.109,540.672,284.279z"/>
			<path fill="#FFFFFF" d="M401.402,282.729c0.01-0.09,0.01-0.18,0.01-0.27c0-3.68-1.93-6.91-4.83-8.74
				c-1.59-1-3.47-1.58-5.479-1.58c-3.21,0-6.07,1.461-7.96,3.75c-0.92,1.111-2.08,2.031-3.391,2.68
				c-0.35-0.299-0.67-0.629-0.97-0.988c-1.53-1.791-2.439-4.121-2.439-6.66c0-2.57,0.93-4.9,2.489-6.711
				c-1.93,0.92-3.77,2.01-5.52,3.211c-2.7,1.859-5.18,4.01-7.4,6.42c-0.54,0.58-1.06,1.18-1.569,1.799
				c0.199-1.26,0.5-2.479,0.869-3.67c1.631-5.139,4.75-9.609,8.851-12.889c1.609-1.311,3.37-2.42,5.26-3.33
				c3.311-1.58,6.99-2.51,10.89-2.611c0.25-0.02,0.5-0.02,0.75-0.02c0.351,0,0.7,0.01,1.051,0.029
				c7.319,0.271,13.89,3.461,18.569,8.441c4.58,4.83,7.38,11.359,7.38,18.529c0,2.721-0.399,5.35-1.149,7.831
				c-0.03,0.09-0.061,0.17-0.08,0.26c-0.14,0.449-0.3,0.891-0.47,1.33c0.02-0.02,0.05-0.029,0.069-0.029
				c-2.149,6.789-4.92,13.309-8.239,19.479c-2.48,2.631-4.841,5.371-7.07,8.23c-1.38,1.77-2.72,3.6-3.99,5.461
				c0.561,0.33,1.12,0.648,1.69,0.959c9.12,5.09,19.02,8.971,29.46,11.41c1.25,0.291,2.5,0.561,3.76,0.811
				c7.24,1.439,14.72,2.189,22.38,2.189c21.44,0,41.51-5.9,58.65-16.18c9.3,5.75,17.71,12.801,24.989,20.9H367.772
				c0.82-1.861,1.7-3.701,2.62-5.5c3.45-6.74,7.54-13.09,12.21-18.971c0.899-1.141,1.819-2.26,2.78-3.369
				c1.3-1.531,2.649-3.031,4.029-4.49c0.03-0.031,0.061-0.061,0.09-0.09c0.99-1.041,1.92-2.131,2.811-3.271
				c5.13-6.6,8.41-14.719,9.05-23.569c0.01-0.131,0.021-0.26,0.03-0.391C401.402,282.99,401.402,282.859,401.402,282.729z"/>
			<path fill="#F68628" d="M377.853,279.049c-0.061,0.1-0.12,0.201-0.19,0.291c-3.12,4.84-6.6,9.421-10.41,13.71
				c-0.659,0.76-1.34,1.5-2.029,2.24c-0.04-0.029-0.09-0.061-0.13-0.1c-0.011,0-0.011-0.01-0.021-0.01
				c-0.01-0.012-0.01-0.012-0.02-0.021c-0.011-0.01-0.011-0.02-0.011-0.029c0.25-1.641,0.561-3.26,0.9-4.869
				c0.88-4.241,2-8.401,3.36-12.462c0.14-0.459,0.29-0.92,0.46-1.369c0.38-0.041,0.77-0.061,1.159-0.061
				C373.593,276.369,376.032,277.389,377.853,279.049z"/>
			<path d="M379.752,278.568c-0.54,0.271-1.109,0.5-1.699,0.672c-0.131,0.029-0.261,0.068-0.391,0.1
				c0.07-0.09,0.13-0.191,0.19-0.291c-1.82-1.66-4.26-2.68-6.931-2.68c-0.39,0-0.779,0.02-1.159,0.061
				c-0.17,0.449-0.32,0.91-0.46,1.369c-0.44-0.299-0.86-0.639-1.24-1.02c-0.891-0.84-1.62-1.83-2.15-2.939
				c2.221-2.41,4.7-4.561,7.4-6.42c1.75-1.201,3.59-2.291,5.52-3.211c-1.56,1.811-2.489,4.141-2.489,6.711
				c0,2.539,0.909,4.869,2.439,6.66C379.082,277.939,379.402,278.27,379.752,278.568z"/>
		</g>
		<g>
			<g>
				
					<circle fill="none" stroke="#FFFFFF" stroke-width="0.5" stroke-miterlimit="10" stroke-dasharray="1.996,1.996,1.996,1.996,1.996,1.996" cx="491.579" cy="387.445" r="114.359"/>
			</g>
			<g>
				
					<circle fill="none" stroke="#FFFFFF" stroke-width="0.5" stroke-miterlimit="10" stroke-dasharray="1.996,1.996,1.996,1.996,1.996,1.996" cx="453.168" cy="419.179" r="114.359"/>
			</g>
			<g>
				
					<circle fill="none" stroke="#FFFFFF" stroke-width="0.5" stroke-miterlimit="10" stroke-dasharray="1.996,1.996,1.996,1.996,1.996,1.996" cx="444.922" cy="222.196" r="114.359"/>
			</g>
			<g>
				
					<circle fill="none" stroke="#FFFFFF" stroke-width="0.5" stroke-miterlimit="10" stroke-dasharray="1.996,1.996,1.996,1.996,1.996,1.996" cx="307.59" cy="254.935" r="114.359"/>
			</g>
			<g>
				
					<circle fill="none" stroke="#FFFFFF" stroke-width="0.5" stroke-miterlimit="10" stroke-dasharray="1.996,1.996,1.996,1.996,1.996,1.996" cx="281.887" cy="217.277" r="114.359"/>
			</g>
			<g>
				
					<circle fill="none" stroke="#FFFFFF" stroke-width="0.5" stroke-miterlimit="10" stroke-dasharray="1.996,1.996,1.996,1.996,1.996,1.996" cx="478.166" cy="313.788" r="114.359"/>
			</g>
			<g>
				
					<circle fill="none" stroke="#FFFFFF" stroke-width="0.5" stroke-miterlimit="10" stroke-dasharray="1.996,1.996,1.996,1.996,1.996,1.996" cx="472.581" cy="389.259" r="114.359"/>
			</g>
			<g>
				
					<circle fill="none" stroke="#FFFFFF" stroke-width="0.5" stroke-miterlimit="10" stroke-dasharray="1.996,1.996,1.996,1.996,1.996,1.996" cx="454.623" cy="223.686" r="114.359"/>
			</g>
			<g>
				
					<circle fill="none" stroke="#FFFFFF" stroke-width="0.5" stroke-miterlimit="10" stroke-dasharray="1.9884,1.9884,1.9884,1.9884,1.9884,1.9884" cx="358.092" cy="280.305" r="43.684"/>
			</g>
			<g>
				
					<circle fill="none" stroke="#FFFFFF" stroke-width="0.5" stroke-miterlimit="10" stroke-dasharray="1.9884,1.9884,1.9884,1.9884,1.9884,1.9884" cx="398.327" cy="303.447" r="43.684"/>
			</g>
			<g>
				
					<circle fill="none" stroke="#FFFFFF" stroke-width="0.5" stroke-miterlimit="10" stroke-dasharray="2.0189,2.0189,2.0189,2.0189,2.0189,2.0189" cx="391.261" cy="280.12" r="26.998"/>
			</g>
			<g>
				
					<circle fill="none" stroke="#FFFFFF" stroke-width="0.5" stroke-miterlimit="10" stroke-dasharray="2.1594,2.1594,2.1594,2.1594,2.1594,2.1594" cx="391.396" cy="282.456" r="10.313"/>
			</g>
			<g>
				
					<circle fill="none" stroke="#FFFFFF" stroke-width="0.5" stroke-miterlimit="10" stroke-dasharray="2.1594,2.1594,2.1594,2.1594,2.1594,2.1594" cx="371.219" cy="286.683" r="10.313"/>
			</g>
			<g>
				
					<circle fill="none" stroke="#FFFFFF" stroke-width="0.5" stroke-miterlimit="10" stroke-dasharray="2.1594,2.1594,2.1594,2.1594,2.1594,2.1594" cx="375.478" cy="269.326" r="10.313"/>
			</g>
			<g>
				
					<circle fill="none" stroke="#FFFFFF" stroke-width="0.5" stroke-miterlimit="10" stroke-dasharray="2.1594,2.1594,2.1594,2.1594,2.1594,2.1594" cx="386.949" cy="270.92" r="10.313"/>
			</g>
		</g>
	</g>
	<g>
		<g>
			<path fill="#BCBEC0" d="M207.111,321.87c17.141,10.279,37.21,16.18,58.65,16.18c7.66,0,15.14-0.75,22.38-2.189
				c-4.16,0.459-8.39,0.699-12.68,0.699c-22.891,0-44.2-6.719-62.08-18.299C211.251,319.39,209.162,320.601,207.111,321.87z"/>
			<path fill="#FFFFFF" d="M179.412,284.279c1.979,3.071,4.1,6.03,6.369,8.88c7.75,9.791,17.08,18.291,27.601,25.102
				c17.88,11.58,39.189,18.299,62.08,18.299c4.29,0,8.52-0.24,12.68-0.699c1.26-0.25,2.51-0.52,3.76-0.811
				c10.44-2.439,20.34-6.32,29.46-11.41c0.57-0.311,1.13-0.629,1.69-0.959c-1.271-1.861-2.61-3.691-3.99-5.461
				c-2.229-2.859-4.59-5.6-7.07-8.23c-8.649-9.18-18.8-16.92-30.06-22.829c-10.1-5.311-21.08-9.15-32.68-11.24
				c-6.63-1.201-13.471-1.83-20.45-1.83C211.111,273.09,194.361,277.109,179.412,284.279z"/>
			<path fill="#FFFFFF" d="M318.681,282.729c-0.01-0.09-0.01-0.18-0.01-0.27c0-3.68,1.93-6.91,4.83-8.74
				c1.59-1,3.47-1.58,5.479-1.58c3.21,0,6.07,1.461,7.96,3.75c0.92,1.111,2.08,2.031,3.391,2.68c0.35-0.299,0.67-0.629,0.97-0.988
				c1.53-1.791,2.439-4.121,2.439-6.66c0-2.57-0.93-4.9-2.489-6.711c1.93,0.92,3.77,2.01,5.52,3.211c2.7,1.859,5.18,4.01,7.4,6.42
				c0.54,0.58,1.06,1.18,1.569,1.799c-0.199-1.26-0.5-2.479-0.869-3.67c-1.631-5.139-4.75-9.609-8.851-12.889
				c-1.609-1.311-3.37-2.42-5.26-3.33c-3.311-1.58-6.99-2.51-10.89-2.611c-0.25-0.02-0.5-0.02-0.75-0.02
				c-0.351,0-0.7,0.01-1.051,0.029c-7.319,0.271-13.89,3.461-18.569,8.441c-4.58,4.83-7.38,11.359-7.38,18.529
				c0,2.721,0.399,5.35,1.149,7.831c0.03,0.09,0.061,0.17,0.08,0.26c0.14,0.449,0.3,0.891,0.47,1.33
				c-0.02-0.02-0.05-0.029-0.069-0.029c2.149,6.789,4.92,13.309,8.239,19.479c2.48,2.631,4.841,5.371,7.07,8.23
				c1.38,1.77,2.72,3.6,3.99,5.461c-0.561,0.33-1.12,0.648-1.69,0.959c-9.12,5.09-19.02,8.971-29.46,11.41
				c-1.25,0.291-2.5,0.561-3.76,0.811c-7.24,1.439-14.72,2.189-22.38,2.189c-21.44,0-41.51-5.9-58.65-16.18
				c-9.3,5.75-17.71,12.801-24.989,20.9h170.189c-0.82-1.861-1.7-3.701-2.62-5.5c-3.45-6.74-7.54-13.09-12.21-18.971
				c-0.899-1.141-1.819-2.26-2.78-3.369c-1.3-1.531-2.649-3.031-4.029-4.49c-0.03-0.031-0.061-0.061-0.09-0.09
				c-0.99-1.041-1.92-2.131-2.811-3.271c-5.13-6.6-8.41-14.719-9.05-23.569c-0.01-0.131-0.021-0.26-0.03-0.391
				C318.681,282.99,318.681,282.859,318.681,282.729z"/>
			<path fill="#F68628" d="M342.231,279.049c0.061,0.1,0.12,0.201,0.19,0.291c3.12,4.84,6.6,9.421,10.41,13.71
				c0.659,0.76,1.34,1.5,2.029,2.24c0.04-0.029,0.09-0.061,0.13-0.1c0.011,0,0.011-0.01,0.021-0.01
				c0.01-0.012,0.01-0.012,0.02-0.021c0.011-0.01,0.011-0.02,0.011-0.029c-0.25-1.641-0.561-3.26-0.9-4.869
				c-0.88-4.241-2-8.401-3.36-12.462c-0.14-0.459-0.29-0.92-0.46-1.369c-0.38-0.041-0.77-0.061-1.159-0.061
				C346.491,276.369,344.051,277.389,342.231,279.049z"/>
			<path d="M340.332,278.568c0.54,0.271,1.109,0.5,1.699,0.672c0.131,0.029,0.261,0.068,0.391,0.1c-0.07-0.09-0.13-0.191-0.19-0.291
				c1.82-1.66,4.26-2.68,6.931-2.68c0.39,0,0.779,0.02,1.159,0.061c0.17,0.449,0.32,0.91,0.46,1.369
				c0.44-0.299,0.86-0.639,1.24-1.02c0.891-0.84,1.62-1.83,2.15-2.939c-2.221-2.41-4.7-4.561-7.4-6.42
				c-1.75-1.201-3.59-2.291-5.52-3.211c1.56,1.811,2.489,4.141,2.489,6.711c0,2.539-0.909,4.869-2.439,6.66
				C341.001,277.939,340.681,278.27,340.332,278.568z"/>
		</g>
		<g>
			<g>
				
					<circle fill="none" stroke="#FFFFFF" stroke-width="0.5" stroke-miterlimit="10" stroke-dasharray="1.996,1.996,1.996,1.996,1.996,1.996" cx="228.504" cy="387.445" r="114.359"/>
			</g>
			<g>
				
					<circle fill="none" stroke="#FFFFFF" stroke-width="0.5" stroke-miterlimit="10" stroke-dasharray="1.996,1.996,1.996,1.996,1.996,1.996" cx="266.916" cy="419.179" r="114.359"/>
			</g>
			<g>
				
					<circle fill="none" stroke="#FFFFFF" stroke-width="0.5" stroke-miterlimit="10" stroke-dasharray="1.996,1.996,1.996,1.996,1.996,1.996" cx="275.162" cy="222.196" r="114.359"/>
			</g>
			<g>
				
					<circle fill="none" stroke="#FFFFFF" stroke-width="0.5" stroke-miterlimit="10" stroke-dasharray="1.996,1.996,1.996,1.996,1.996,1.996" cx="412.494" cy="254.935" r="114.359"/>
			</g>
			<g>
				
					<circle fill="none" stroke="#FFFFFF" stroke-width="0.5" stroke-miterlimit="10" stroke-dasharray="1.996,1.996,1.996,1.996,1.996,1.996" cx="438.197" cy="217.277" r="114.359"/>
			</g>
			<g>
				
					<circle fill="none" stroke="#FFFFFF" stroke-width="0.5" stroke-miterlimit="10" stroke-dasharray="1.996,1.996,1.996,1.996,1.996,1.996" cx="241.917" cy="313.788" r="114.359"/>
			</g>
			<g>
				
					<circle fill="none" stroke="#FFFFFF" stroke-width="0.5" stroke-miterlimit="10" stroke-dasharray="1.996,1.996,1.996,1.996,1.996,1.996" cx="247.502" cy="389.259" r="114.359"/>
			</g>
			<g>
				
					<circle fill="none" stroke="#FFFFFF" stroke-width="0.5" stroke-miterlimit="10" stroke-dasharray="1.996,1.996,1.996,1.996,1.996,1.996" cx="265.46" cy="223.686" r="114.359"/>
			</g>
			<g>
				
					<circle fill="none" stroke="#FFFFFF" stroke-width="0.5" stroke-miterlimit="10" stroke-dasharray="1.9884,1.9884,1.9884,1.9884,1.9884,1.9884" cx="361.992" cy="280.305" r="43.684"/>
			</g>
			<g>
				
					<circle fill="none" stroke="#FFFFFF" stroke-width="0.5" stroke-miterlimit="10" stroke-dasharray="1.9884,1.9884,1.9884,1.9884,1.9884,1.9884" cx="321.756" cy="303.447" r="43.684"/>
			</g>
			<g>
				
					<circle fill="none" stroke="#FFFFFF" stroke-width="0.5" stroke-miterlimit="10" stroke-dasharray="2.0189,2.0189,2.0189,2.0189,2.0189,2.0189" cx="328.823" cy="280.12" r="26.998"/>
			</g>
			<g>
				
					<circle fill="none" stroke="#FFFFFF" stroke-width="0.5" stroke-miterlimit="10" stroke-dasharray="2.1594,2.1594,2.1594,2.1594,2.1594,2.1594" cx="328.688" cy="282.456" r="10.313"/>
			</g>
			<g>
				
					<circle fill="none" stroke="#FFFFFF" stroke-width="0.5" stroke-miterlimit="10" stroke-dasharray="2.1594,2.1594,2.1594,2.1594,2.1594,2.1594" cx="348.865" cy="286.683" r="10.313"/>
			</g>
			<g>
				
					<circle fill="none" stroke="#FFFFFF" stroke-width="0.5" stroke-miterlimit="10" stroke-dasharray="2.1594,2.1594,2.1594,2.1594,2.1594,2.1594" cx="344.606" cy="269.326" r="10.313"/>
			</g>
			<g>
				
					<circle fill="none" stroke="#FFFFFF" stroke-width="0.5" stroke-miterlimit="10" stroke-dasharray="2.1594,2.1594,2.1594,2.1594,2.1594,2.1594" cx="333.134" cy="270.92" r="10.313"/>
			</g>
		</g>
	</g>
	<g>
		<path fill="#BCBEC0" d="M1031.602,321.74c-17.141,10.279-37.21,16.18-58.65,16.18c-7.66,0-15.14-0.75-22.38-2.189
			c4.16,0.459,8.39,0.699,12.68,0.699c22.891,0,44.2-6.719,62.08-18.299C1027.461,319.26,1029.551,320.471,1031.602,321.74z"/>
		<path fill="#FFFFFF" d="M1059.301,284.15c-1.979,3.07-4.1,6.029-6.369,8.879c-7.75,9.791-17.08,18.291-27.601,25.102
			c-17.88,11.58-39.189,18.299-62.08,18.299c-4.29,0-8.52-0.24-12.68-0.699c-1.26-0.25-2.51-0.52-3.76-0.811
			c-10.44-2.439-20.34-6.32-29.46-11.41c-0.57-0.311-1.13-0.629-1.69-0.959c1.271-1.861,2.61-3.691,3.99-5.461
			c2.229-2.859,4.59-5.6,7.07-8.23c8.649-9.18,18.8-16.92,30.06-22.83c10.1-5.309,21.08-9.148,32.68-11.24
			c6.63-1.199,13.471-1.83,20.45-1.83C1027.602,272.959,1044.352,276.98,1059.301,284.15z"/>
		<path fill="#FFFFFF" d="M920.032,282.6c0.01-0.09,0.01-0.18,0.01-0.27c0-3.68-1.93-6.91-4.83-8.74c-1.59-1-3.47-1.58-5.479-1.58
			c-3.21,0-6.07,1.461-7.96,3.75c-0.92,1.109-2.08,2.029-3.391,2.68c-0.35-0.299-0.67-0.629-0.97-0.99
			c-1.53-1.789-2.439-4.119-2.439-6.66c0-2.57,0.93-4.9,2.489-6.709c-1.93,0.92-3.77,2.01-5.52,3.209
			c-2.7,1.859-5.18,4.012-7.4,6.42c-0.54,0.58-1.06,1.182-1.569,1.801c0.199-1.26,0.5-2.48,0.869-3.67
			c1.631-5.141,4.75-9.611,8.851-12.891c1.609-1.311,3.37-2.42,5.26-3.33c3.311-1.58,6.99-2.51,10.89-2.609
			c0.25-0.02,0.5-0.02,0.75-0.02c0.351,0,0.7,0.01,1.051,0.029c7.319,0.27,13.89,3.459,18.569,8.439
			c4.58,4.83,7.38,11.361,7.38,18.531c0,2.719-0.399,5.35-1.149,7.83c-0.03,0.09-0.061,0.17-0.08,0.26
			c-0.14,0.449-0.3,0.891-0.47,1.33c0.02-0.02,0.05-0.029,0.069-0.029c-2.149,6.789-4.92,13.309-8.239,19.479
			c-2.48,2.631-4.841,5.371-7.07,8.23c-1.38,1.77-2.72,3.6-3.99,5.461c0.561,0.33,1.12,0.648,1.69,0.959
			c9.12,5.09,19.02,8.971,29.46,11.41c1.25,0.291,2.5,0.561,3.76,0.811c7.24,1.439,14.72,2.189,22.38,2.189
			c21.44,0,41.51-5.9,58.65-16.18c9.3,5.75,17.71,12.801,24.989,20.9H886.402c0.82-1.861,1.7-3.701,2.62-5.5
			c3.45-6.74,7.54-13.09,12.21-18.971c0.899-1.141,1.819-2.26,2.78-3.369c1.3-1.531,2.649-3.031,4.029-4.49
			c0.03-0.031,0.061-0.061,0.09-0.09c0.99-1.041,1.92-2.131,2.811-3.271c5.13-6.6,8.41-14.719,9.05-23.568
			c0.01-0.131,0.021-0.262,0.03-0.391C920.032,282.859,920.032,282.73,920.032,282.6z"/>
		<path fill="#F68628" d="M896.482,278.92c-0.061,0.1-0.12,0.199-0.19,0.289c-3.12,4.842-6.6,9.422-10.41,13.711
			c-0.659,0.76-1.34,1.5-2.029,2.24c-0.04-0.029-0.09-0.061-0.13-0.1c-0.011,0-0.011-0.01-0.021-0.01
			c-0.01-0.012-0.01-0.012-0.02-0.021c-0.011-0.01-0.011-0.02-0.011-0.029c0.25-1.641,0.561-3.26,0.9-4.869
			c0.88-4.24,2-8.4,3.36-12.461c0.14-0.461,0.29-0.92,0.46-1.369c0.38-0.041,0.77-0.061,1.159-0.061
			C892.222,276.24,894.662,277.26,896.482,278.92z"/>
		<path d="M898.381,278.439c-0.54,0.27-1.109,0.5-1.699,0.67c-0.131,0.031-0.261,0.07-0.391,0.1c0.07-0.09,0.13-0.189,0.19-0.289
			c-1.82-1.66-4.26-2.68-6.931-2.68c-0.39,0-0.779,0.02-1.159,0.061c-0.17,0.449-0.32,0.908-0.46,1.369
			c-0.44-0.301-0.86-0.641-1.24-1.02c-0.891-0.84-1.62-1.83-2.15-2.941c2.221-2.408,4.7-4.561,7.4-6.42
			c1.75-1.199,3.59-2.289,5.52-3.209c-1.56,1.809-2.489,4.139-2.489,6.709c0,2.541,0.909,4.871,2.439,6.66
			C897.711,277.811,898.032,278.141,898.381,278.439z"/>
	</g>
	<g>
		<path fill="#BCBEC0" d="M727.098,321.74c17.141,10.279,37.21,16.18,58.65,16.18c7.66,0,15.14-0.75,22.38-2.189
			c-4.16,0.459-8.39,0.699-12.68,0.699c-22.891,0-44.2-6.719-62.08-18.299C731.238,319.26,729.148,320.471,727.098,321.74z"/>
		<path fill="#FFFFFF" d="M699.398,284.15c1.979,3.07,4.1,6.029,6.369,8.879c7.75,9.791,17.08,18.291,27.601,25.102
			c17.88,11.58,39.189,18.299,62.08,18.299c4.29,0,8.52-0.24,12.68-0.699c1.26-0.25,2.51-0.52,3.76-0.811
			c10.44-2.439,20.34-6.32,29.46-11.41c0.57-0.311,1.13-0.629,1.69-0.959c-1.271-1.861-2.61-3.691-3.99-5.461
			c-2.229-2.859-4.59-5.6-7.07-8.23c-8.649-9.18-18.8-16.92-30.06-22.83c-10.1-5.309-21.08-9.148-32.68-11.24
			c-6.63-1.199-13.471-1.83-20.45-1.83C731.098,272.959,714.348,276.98,699.398,284.15z"/>
		<path fill="#FFFFFF" d="M838.668,282.6c-0.01-0.09-0.01-0.18-0.01-0.27c0-3.68,1.93-6.91,4.83-8.74c1.59-1,3.47-1.58,5.479-1.58
			c3.21,0,6.07,1.461,7.96,3.75c0.92,1.109,2.08,2.029,3.391,2.68c0.35-0.299,0.67-0.629,0.97-0.99
			c1.53-1.789,2.439-4.119,2.439-6.66c0-2.57-0.93-4.9-2.489-6.709c1.93,0.92,3.77,2.01,5.52,3.209c2.7,1.859,5.18,4.012,7.4,6.42
			c0.54,0.58,1.06,1.182,1.569,1.801c-0.199-1.26-0.5-2.48-0.869-3.67c-1.631-5.141-4.75-9.611-8.851-12.891
			c-1.609-1.311-3.37-2.42-5.26-3.33c-3.311-1.58-6.99-2.51-10.89-2.609c-0.25-0.02-0.5-0.02-0.75-0.02
			c-0.351,0-0.7,0.01-1.051,0.029c-7.319,0.27-13.89,3.459-18.569,8.439c-4.58,4.83-7.38,11.361-7.38,18.531
			c0,2.719,0.399,5.35,1.149,7.83c0.03,0.09,0.061,0.17,0.08,0.26c0.14,0.449,0.3,0.891,0.47,1.33
			c-0.02-0.02-0.05-0.029-0.069-0.029c2.149,6.789,4.92,13.309,8.239,19.479c2.48,2.631,4.841,5.371,7.07,8.23
			c1.38,1.77,2.72,3.6,3.99,5.461c-0.561,0.33-1.12,0.648-1.69,0.959c-9.12,5.09-19.02,8.971-29.46,11.41
			c-1.25,0.291-2.5,0.561-3.76,0.811c-7.24,1.439-14.72,2.189-22.38,2.189c-21.44,0-41.51-5.9-58.65-16.18
			c-9.3,5.75-17.71,12.801-24.989,20.9h170.189c-0.82-1.861-1.7-3.701-2.62-5.5c-3.45-6.74-7.54-13.09-12.21-18.971
			c-0.899-1.141-1.819-2.26-2.78-3.369c-1.3-1.531-2.649-3.031-4.029-4.49c-0.03-0.031-0.061-0.061-0.09-0.09
			c-0.99-1.041-1.92-2.131-2.811-3.271c-5.13-6.6-8.41-14.719-9.05-23.568c-0.01-0.131-0.021-0.262-0.03-0.391
			C838.668,282.859,838.668,282.73,838.668,282.6z"/>
		<path fill="#F68628" d="M862.218,278.92c0.061,0.1,0.12,0.199,0.19,0.289c3.12,4.842,6.6,9.422,10.41,13.711
			c0.659,0.76,1.34,1.5,2.029,2.24c0.04-0.029,0.09-0.061,0.13-0.1c0.011,0,0.011-0.01,0.021-0.01c0.01-0.012,0.01-0.012,0.02-0.021
			c0.011-0.01,0.011-0.02,0.011-0.029c-0.25-1.641-0.561-3.26-0.9-4.869c-0.88-4.24-2-8.4-3.36-12.461
			c-0.14-0.461-0.29-0.92-0.46-1.369c-0.38-0.041-0.77-0.061-1.159-0.061C866.478,276.24,864.038,277.26,862.218,278.92z"/>
		<path d="M860.318,278.439c0.54,0.27,1.109,0.5,1.699,0.67c0.131,0.031,0.261,0.07,0.391,0.1c-0.07-0.09-0.13-0.189-0.19-0.289
			c1.82-1.66,4.26-2.68,6.931-2.68c0.39,0,0.779,0.02,1.159,0.061c0.17,0.449,0.32,0.908,0.46,1.369
			c0.44-0.301,0.86-0.641,1.24-1.02c0.891-0.84,1.62-1.83,2.15-2.941c-2.221-2.408-4.7-4.561-7.4-6.42
			c-1.75-1.199-3.59-2.289-5.52-3.209c1.56,1.809,2.489,4.139,2.489,6.709c0,2.541-0.909,4.871-2.439,6.66
			C860.988,277.811,860.668,278.141,860.318,278.439z"/>
	</g>
</g>
</svg>
