<?xml version="1.0" encoding="utf-8"?>
<!-- Generator: Adobe Illustrator 16.0.0, SVG Export Plug-In . SVG Version: 6.00 Build 0)  -->
<!DOCTYPE svg PUBLIC "-//W3C//DTD SVG 1.1//EN" "http://www.w3.org/Graphics/SVG/1.1/DTD/svg11.dtd">
<svg version="1.1" id="Calque_1" xmlns="http://www.w3.org/2000/svg" xmlns:xlink="http://www.w3.org/1999/xlink" x="0px" y="0px"
	 width="841.89px" height="97.594px" viewBox="0 0 841.89 97.594" enable-background="new 0 0 841.89 97.594" xml:space="preserve">
<g id="Groupe_66" transform="translate(1000 99.998) rotate(180)">
	<path id="Tracé_29" opacity="0.33" fill="#D3D3D3" enable-background="new    " d="M556.325,59.063
		c-171.662,74.339-221.502-28.624-269.658,0c-72.992,43.61-128.557-6.397-128.557-6.397V2.404H1000v50.262
		c0,0-52.281,21.974-79.896,24.666c-27.614,2.779-52.871-10.354-63.815-18.604C836.673,44.162,785.57,9.728,743.139,6.361
		C700.708,2.995,572.657,52.076,556.325,59.063z"/>
	<path id="Tracé_30" opacity="0.66" fill="#D3D3D3" enable-background="new    " d="M776.057,59.063
		c-38.306,0-64.994-19.532-108.688-32.917c-24.078-7.326-126.537-8.504-213.839,32.917c-87.307,41.421-77.201-28.96-125.609,0
		C255.516,102,158.11,35.913,158.11,35.913V2.404H1000v30.729c0,0-23.741-15.574-77.538-15.574
		C840.209,17.643,811.164,59.063,776.057,59.063z"/>
	<path id="Tracé_31" fill="#D3D3D3" d="M803.082,26.734C634.704-21.673,579.139,81.88,470.452,43.152
		C361.848,3.921,361.848,6.951,313.692,19.749c-47.82,12.797-44.199,20.457-79.896,26.854C182.19,56.033,158.11,2.404,158.11,2.404
		H1000c0,0-8.335,34.435-70.382,40.494C867.571,48.962,856.542,41.973,803.082,26.734z"/>
</g>
</svg>
